<?xml version="1.0" encoding="utf-8"?>
<!-- Generator: Adobe Illustrator 21.0.0, SVG Export Plug-In . SVG Version: 6.00 Build 0)  -->
<svg version="1.1" id="Layer_1" xmlns="http://www.w3.org/2000/svg" xmlns:xlink="http://www.w3.org/1999/xlink" x="0px" y="0px"
	 viewBox="0 0 44 39.3" style="enable-background:new 0 0 44 39.3;" xml:space="preserve">
<style type="text/css">
	.st0{fill:#161515;}
	.st1{display:none;fill:#E1315B;}
	.st2{display:none;fill:#161515;}
	.st3{display:none;fill:#5E5859;}
</style>
<path class="st0" d="M31.7,8.7c-0.2-2.4-1.3-4.5-3.1-6.2C26.8,0.9,24.5,0,22.1,0s-4.7,0.9-6.5,2.5c-1.8,1.6-2.8,3.8-3.1,6.2H6v30.6
	h32.2V8.7H31.7z M14.4,8.7c0.5-3.9,3.8-6.8,7.7-6.8c3.9,0,7.2,2.9,7.7,6.8H14.4z M7.9,37.4V10.6h28.4v26.8H7.9z"/>
<path class="st1" d="M31.7,8.7c-0.2-2.4-1.3-4.5-3.1-6.2C26.8,0.9,24.5,0,22.1,0s-4.7,0.9-6.5,2.5c-1.8,1.6-2.8,3.8-3.1,6.2H6v30.6
	h32.2V8.7H31.7z M14.4,8.7c0.5-3.9,3.8-6.8,7.7-6.8c3.9,0,7.2,2.9,7.7,6.8H14.4z M7.9,37.4V10.6h28.4v26.8H7.9z"/>
<path class="st1" d="M42.8,35.4c-1.4-2-3.9-2.6-6.4-2.9c0.4-2.7,1-10.3-1.1-18.6c-1.6-6.3-4.2-9.7-6.5-11.6c-0.5-0.4-0.9-0.7-1.5-1
	V1.2c-1.7-0.9-2.9-1-3.1-1l0,0C23.5,0.1,22.8,0,22.1,0s-1.4,0.1-2,0.2l0,0c-0.1,0-1.2,0.1-2.7,0.8l-0.7,0.3c-0.9,0.5-1.8,1.2-2.5,2
	c-2,2-4,5.3-5.4,10.6c-2,8.3-1.3,15.8-1,18.6c-2.6,0.3-5.2,0.9-6.6,2.9C0,37,0,39.2,0,39.3h1.7c0,0,0-1.8,0.9-2.9
	c1.5-2.1,4.9-2.3,8-2.4c3.3-0.2,5.4-1.2,6.6-3.2c0.5-0.9,0.9-2.3,1.2-3.3c1.6,1.3,3,1.5,3.6,1.5c0.1,0,0.2,0,0.2,0l0,0h0.1
	c0.4,0,1.9,0,3.6-1.3c0.2,1,0.6,2.4,1.1,3.2c1.2,2,3.3,3,6.6,3.2c3,0.2,6.5,0.4,8,2.4c0.8,1.1,0.9,2.8,0.9,2.8H44
	C44,39.1,44,37,42.8,35.4z M22.3,27.2L22.3,27.2h-0.2H22c-0.6,0-4-0.2-7-7.6c-0.5-1.1-0.9-2.5-1.1-4.1c0.6,0.1,1.4,0.1,2.3,0.1
	c2.2,0,5-0.3,7.8-1.4c1.8-0.7,3.1-1.9,4.1-3.1c0.7,1,1.8,1.8,2.5,2.3c-0.2,2.3-0.7,4.5-1.4,6.1C26.2,26.9,22.7,27.2,22.3,27.2z
	 M28.3,29.9c-0.6-0.9-0.9-2.7-1.1-3.7c1.2-1.3,2.4-3.2,3.5-6c0.8-2,1.5-4.9,1.6-8c0,0-0.4-0.1-0.9-0.3c-0.3-0.2-0.6-0.4-0.8-0.5
	c-0.6-0.5-1.1-1.1-1.4-1.6c0-0.1-0.1-0.2-0.1-0.3c0,0,0-0.1-0.1-0.1l0,0c-0.2-0.6-0.4-2-0.4-2l-0.1-0.1h-0.1l-0.1,0.1l-0.2,0.5
	c-0.9,1.8-2.4,3.8-4.8,4.8c-3.9,1.5-8.1,1.3-9.7,1.1l-1.7-0.1c0.2,2.5,0.8,4.9,1.5,6.5c1.1,2.7,2.3,4.5,3.4,5.8
	c-0.2,1-0.6,2.9-1.1,3.9c-0.6,1-1.8,2.2-5.2,2.4c-0.3,0-0.6,0-0.9,0.1c-0.3-2.5-1-10,1-18c2.4-9.5,7-11.8,8.8-12.3h0.1
	c0,0,0,0,0.1,0C19.8,2.1,20,2,20.2,2l0,0l0,0c0.6-0.1,1.2-0.1,1.9-0.1c1.6,0,2.9,0.3,4,0.8c2.2,1.1,5.6,4,7.6,11.8
	c2,8,1.4,15.5,1,18c-0.4,0-0.8,0-1.2-0.1C30.1,32.1,29,30.9,28.3,29.9z"/>
<path class="st2" d="M42.8,35.4c-1.4-2-3.9-2.6-6.4-2.9c0.4-2.7,1-10.3-1.1-18.6c-1.6-6.3-4.2-9.7-6.5-11.6c-0.5-0.4-0.9-0.7-1.5-1
	V1.2c-1.7-0.9-2.9-1-3.1-1l0,0C23.5,0.1,22.8,0,22.1,0s-1.4,0.1-2,0.2l0,0c-0.1,0-1.2,0.1-2.7,0.8l-0.7,0.3c-0.9,0.5-1.8,1.2-2.5,2
	c-2,2-4,5.3-5.4,10.6c-2,8.3-1.3,15.8-1,18.6c-2.6,0.3-5.2,0.9-6.6,2.9C0,37,0,39.2,0,39.3h1.7c0,0,0-1.8,0.9-2.9
	c1.5-2.1,4.9-2.3,8-2.4c3.3-0.2,5.4-1.2,6.6-3.2c0.5-0.9,0.9-2.3,1.2-3.3c1.6,1.3,3,1.5,3.6,1.5c0.1,0,0.2,0,0.2,0l0,0h0.1
	c0.4,0,1.9,0,3.6-1.3c0.2,1,0.6,2.4,1.1,3.2c1.2,2,3.3,3,6.6,3.2c3,0.2,6.5,0.4,8,2.4c0.8,1.1,0.9,2.8,0.9,2.8H44
	C44,39.1,44,37,42.8,35.4z M22.3,27.2L22.3,27.2h-0.2H22c-0.6,0-4-0.2-7-7.6c-0.5-1.1-0.9-2.5-1.1-4.1c0.6,0.1,1.4,0.1,2.3,0.1
	c2.2,0,5-0.3,7.8-1.4c1.8-0.7,3.1-1.9,4.1-3.1c0.7,1,1.8,1.8,2.5,2.3c-0.2,2.3-0.7,4.5-1.4,6.1C26.2,26.9,22.7,27.2,22.3,27.2z
	 M28.3,29.9c-0.6-0.9-0.9-2.7-1.1-3.7c1.2-1.3,2.4-3.2,3.5-6c0.8-2,1.5-4.9,1.6-8c0,0-0.4-0.1-0.9-0.3c-0.3-0.2-0.6-0.4-0.8-0.5
	c-0.6-0.5-1.1-1.1-1.4-1.6c0-0.1-0.1-0.2-0.1-0.3c0,0,0-0.1-0.1-0.1l0,0c-0.2-0.6-0.4-2-0.4-2l-0.1-0.1h-0.1l-0.1,0.1l-0.2,0.5
	c-0.9,1.8-2.4,3.8-4.8,4.8c-3.9,1.5-8.1,1.3-9.7,1.1l-1.7-0.1c0.2,2.5,0.8,4.9,1.5,6.5c1.1,2.7,2.3,4.5,3.4,5.8
	c-0.2,1-0.6,2.9-1.1,3.9c-0.6,1-1.8,2.2-5.2,2.4c-0.3,0-0.6,0-0.9,0.1c-0.3-2.5-1-10,1-18c2.4-9.5,7-11.8,8.8-12.3h0.1
	c0,0,0,0,0.1,0C19.8,2.1,20,2,20.2,2l0,0l0,0c0.6-0.1,1.2-0.1,1.9-0.1c1.6,0,2.9,0.3,4,0.8c2.2,1.1,5.6,4,7.6,11.8
	c2,8,1.4,15.5,1,18c-0.4,0-0.8,0-1.2-0.1C30.1,32.1,29,30.9,28.3,29.9z"/>
<path class="st1" d="M40.5,33.5c-1.6-0.6-1.5-0.8-3.7-1c-2.1-0.2-4.5-0.4-5.2-1c-1.7-1.5-2.4-3.3-2.5-6c1.1-1.4,2.2-3.4,2.4-6
	c0.1-1.6,0.3-3,0.4-4.3c0.1-0.7,0.1-1.4,0.2-2l0,0c0-0.1,0-0.1,0-0.2c0.2-2.1,0.3-3.7,0.1-5c0,0-0.2-1.6-0.6-3
	c-0.4-1.5-1.5-2.6-2.9-3.1C27.1-0.4,22,0,21.5,0.1c-9.3,0.5-9.8,7.1-9.8,8c-0.2,1.3-0.1,2.9,0.1,5.1c0,0,0,0,0,0l0,0
	c0.1,0.7,0.1,1.3,0.2,2.1c0.1,1.3,0.3,2.7,0.4,4.3c0.2,2.7,1.3,4.6,2.5,6.1c-0.2,2.5-0.9,4.4-2.5,5.7c-0.7,0.6-3.1,0.8-5.2,1
	c-2.2,0.2-2.1,0.4-3.7,1c-3,1.2-3.5,3.9-3.5,5.2v0.7h1.7v-0.9c0,0-0.2-2.5,2.4-3.5c1.3-0.5,1.2-0.7,3.2-0.9c2.7-0.2,5.1-0.4,6.2-1.4
	c1.6-1.3,2.5-3,2.9-5.2c0.3,0.2,0.5,0.5,0.7,0.6c0.3,0.3,0.6,0.6,0.7,0.7c0.7,1.1,2.1,1.2,2.7,1.2c0.1,0,0.2,0,0.1-0.1h2.5
	c0.2,0,2.2,0.1,3-1.2c0.1-0.2,0.4-0.5,0.7-0.7c0.2-0.2,0.5-0.5,0.8-0.7c0.4,2.3,1.3,4.1,2.9,5.5c1.1,1,3.5,1.2,6.2,1.4
	c2.1,0.2,1.9,0.4,3.2,0.9c2.5,1,2.4,3.4,2.4,3.6v0.7H44v-0.6C44,37.4,43.4,34.7,40.5,33.5z M13.4,8.5L13.4,8.5V8.3
	c0-0.2,0-5.9,8.3-6.3c0.4-0.1,0.9-0.1,1.5-0.1c1.7,0,3.8,0.2,4.3,1.2l0.2,0.4l0.6,0.2c0.9,0.3,1.6,1,1.8,1.9
	c0.3,1.4,0.5,2.9,0.5,2.9c0,0.2,0,0.3,0,0.5c-1.5-1.8-3.5-2.5-3.6-2.6l-0.5-0.2l-0.4,0.4c0,0-0.9,0.9-2.2,1.1
	c-0.8,0.2-2.7,0.2-4.3,0.3c-1.4,0.1-2.6,0.1-3.2,0.2c-0.9,0.1-2.1,0.7-3.1,1.7C13.3,9.4,13.3,8.9,13.4,8.5z M25.8,26.9
	c-0.5,0.4-0.8,0.7-1,1s-1,0.4-1.5,0.4h-2.6c-0.5,0-1.3-0.1-1.5-0.4s-0.5-0.6-1-1c-0.5-0.4-1-1-1.6-1.6c0,0,0-0.1,0-0.1h-0.1
	c-1.1-1.3-2.2-3.1-2.4-5.6c-0.1-1.6-0.3-3-0.4-4.3c-0.1-0.7-0.1-1.3-0.2-2c0.3-2.5,2.4-3.4,3.2-3.5c0.5-0.1,1.8-0.2,3-0.2
	c1.7-0.1,3.5-0.1,4.5-0.3c1.2-0.2,2.2-0.8,2.7-1.2c1.1,0.5,3.7,2.1,3.6,5l0,0c-0.1,0.7-0.1,1.4-0.2,2.2c-0.1,1.3-0.3,2.7-0.4,4.3
	c-0.2,2.6-1.3,4.4-2.5,5.7h0c0,0,0,0,0,0C26.8,25.9,26.3,26.5,25.8,26.9z"/>
<path class="st2" d="M40.5,33.5c-1.6-0.6-1.5-0.8-3.7-1c-2.1-0.2-4.5-0.4-5.2-1c-1.7-1.5-2.4-3.3-2.5-6c1.1-1.4,2.2-3.4,2.4-6
	c0.1-1.6,0.3-3,0.4-4.3c0.1-0.7,0.1-1.4,0.2-2l0,0c0-0.1,0-0.1,0-0.2c0.2-2.1,0.3-3.7,0.1-5c0,0-0.2-1.6-0.6-3
	c-0.4-1.5-1.5-2.6-2.9-3.1C27.1-0.4,22,0,21.5,0.1c-9.3,0.5-9.8,7.1-9.8,8c-0.2,1.3-0.1,2.9,0.1,5.1c0,0,0,0,0,0l0,0
	c0.1,0.7,0.1,1.3,0.2,2.1c0.1,1.3,0.3,2.7,0.4,4.3c0.2,2.7,1.3,4.6,2.5,6.1c-0.2,2.5-0.9,4.4-2.5,5.7c-0.7,0.6-3.1,0.8-5.2,1
	c-2.2,0.2-2.1,0.4-3.7,1c-3,1.2-3.5,3.9-3.5,5.2v0.7h1.7v-0.9c0,0-0.2-2.5,2.4-3.5c1.3-0.5,1.2-0.7,3.2-0.9c2.7-0.2,5.1-0.4,6.2-1.4
	c1.6-1.3,2.5-3,2.9-5.2c0.3,0.2,0.5,0.5,0.7,0.6c0.3,0.3,0.6,0.6,0.7,0.7c0.7,1.1,2.1,1.2,2.7,1.2c0.1,0,0.2,0,0.1-0.1h2.5
	c0.2,0,2.2,0.1,3-1.2c0.1-0.2,0.4-0.5,0.7-0.7c0.2-0.2,0.5-0.5,0.8-0.7c0.4,2.3,1.3,4.1,2.9,5.5c1.1,1,3.5,1.2,6.2,1.4
	c2.1,0.2,1.9,0.4,3.2,0.9c2.5,1,2.4,3.4,2.4,3.6v0.7H44v-0.6C44,37.4,43.4,34.7,40.5,33.5z M13.4,8.5L13.4,8.5V8.3
	c0-0.2,0-5.9,8.3-6.3c0.4-0.1,0.9-0.1,1.5-0.1c1.7,0,3.8,0.2,4.3,1.2l0.2,0.4l0.6,0.2c0.9,0.3,1.6,1,1.8,1.9
	c0.3,1.4,0.5,2.9,0.5,2.9c0,0.2,0,0.3,0,0.5c-1.5-1.8-3.5-2.5-3.6-2.6l-0.5-0.2l-0.4,0.4c0,0-0.9,0.9-2.2,1.1
	c-0.8,0.2-2.7,0.2-4.3,0.3c-1.4,0.1-2.6,0.1-3.2,0.2c-0.9,0.1-2.1,0.7-3.1,1.7C13.3,9.4,13.3,8.9,13.4,8.5z M25.8,26.9
	c-0.5,0.4-0.8,0.7-1,1s-1,0.4-1.5,0.4h-2.6c-0.5,0-1.3-0.1-1.5-0.4s-0.5-0.6-1-1c-0.5-0.4-1-1-1.6-1.6c0,0,0-0.1,0-0.1h-0.1
	c-1.1-1.3-2.2-3.1-2.4-5.6c-0.1-1.6-0.3-3-0.4-4.3c-0.1-0.7-0.1-1.3-0.2-2c0.3-2.5,2.4-3.4,3.2-3.5c0.5-0.1,1.8-0.2,3-0.2
	c1.7-0.1,3.5-0.1,4.5-0.3c1.2-0.2,2.2-0.8,2.7-1.2c1.1,0.5,3.7,2.1,3.6,5l0,0c-0.1,0.7-0.1,1.4-0.2,2.2c-0.1,1.3-0.3,2.7-0.4,4.3
	c-0.2,2.6-1.3,4.4-2.5,5.7h0c0,0,0,0,0,0C26.8,25.9,26.3,26.5,25.8,26.9z"/>
<path class="st1" d="M39.2,37.6L28.3,24.3c2.7-2.5,4.4-6.2,4.4-10.2c0-7.7-6.3-14-14-14s-14,6.3-14,14s6.3,14,14,14
	c2.9,0,5.7-0.9,7.9-2.5l10.7,13.3c0.3,0.4,1,0.5,1.4,0.2c0.2-0.1,0,0,0.3-0.2C39.5,38.5,39.4,37.9,39.2,37.6z M6.9,14
	c0-6.6,5.3-11.9,11.9-11.9S30.7,7.4,30.7,14S25.4,26,18.8,26S6.9,20.7,6.9,14z"/>
<path class="st2" d="M39.2,37.6L28.3,24.3c2.7-2.5,4.4-6.2,4.4-10.2c0-7.7-6.3-14-14-14s-14,6.3-14,14s6.3,14,14,14
	c2.9,0,5.7-0.9,7.9-2.5l10.7,13.3c0.3,0.4,1,0.5,1.4,0.2c0.2-0.1,0,0,0.3-0.2C39.5,38.5,39.4,37.9,39.2,37.6z M6.9,14
	c0-6.6,5.3-11.9,11.9-11.9S30.7,7.4,30.7,14S25.4,26,18.8,26S6.9,20.7,6.9,14z"/>
<path class="st3" d="M39.2,37.6L28.3,24.3c2.7-2.5,4.4-6.2,4.4-10.2c0-7.7-6.3-14-14-14s-14,6.3-14,14s6.3,14,14,14
	c2.9,0,5.7-0.9,7.9-2.5l10.7,13.3c0.3,0.4,1,0.5,1.4,0.2c0.2-0.1,0,0,0.3-0.2C39.5,38.5,39.4,37.9,39.2,37.6z M6.9,14
	c0-6.6,5.3-11.9,11.9-11.9S30.7,7.4,30.7,14S25.4,26,18.8,26S6.9,20.7,6.9,14z"/>
</svg>
