<?xml version="1.0" encoding="utf-8"?>
<!-- Generator: Adobe Illustrator 21.0.0, SVG Export Plug-In . SVG Version: 6.00 Build 0)  -->
<svg version="1.1" id="Layer_1" xmlns="http://www.w3.org/2000/svg" xmlns:xlink="http://www.w3.org/1999/xlink" x="0px" y="0px"
	 viewBox="0 0 652 737" style="enable-background:new 0 0 652 737;" xml:space="preserve">
<style type="text/css">
	.st0{clip-path:url(#SVGID_2_);}
</style>
<g>
	<path d="M401.7,340.5H178.3c-16.7,0-30.3,13.6-30.3,30.3v122.6c0,16.7,13.6,30.3,30.3,30.3h13.9l-4.8,18.7c-0.6,2.2,0.2,4.6,2,6.1
		c1.1,0.9,2.5,1.4,3.8,1.4c0.9,0,1.7-0.2,2.5-0.6l55.2-25.6h150.7c16.7,0,30.3-13.6,30.3-30.3V370.8
		C432,354.1,418.4,340.5,401.7,340.5L401.7,340.5z M420,493.4c0,10.1-8.2,18.3-18.3,18.3h-152c-0.9,0-1.7,0.2-2.5,0.6l-44.9,20.8
		l3.5-13.9c0.5-1.8,0.1-3.7-1.1-5.2c-1.1-1.5-2.9-2.3-4.7-2.3h-21.7c-10.1,0-18.3-8.2-18.3-18.3V370.8c0-10.1,8.2-18.3,18.3-18.3
		h223.4c10.1,0,18.3,8.2,18.3,18.3V493.4z M420,493.4"/>
	<path d="M386.8,375.7H193.2c-3.3,0-6,2.7-6,6c0,3.3,2.7,6,6,6h193.6c3.3,0,6-2.7,6-6C392.8,378.4,390.1,375.7,386.8,375.7
		L386.8,375.7z M386.8,375.7"/>
	<path d="M386.8,408.8H193.2c-3.3,0-6,2.7-6,6c0,3.3,2.7,6,6,6h193.6c3.3,0,6-2.7,6-6C392.8,411.5,390.1,408.8,386.8,408.8
		L386.8,408.8z M386.8,408.8"/>
	<path d="M386.8,441.9H193.2c-3.3,0-6,2.7-6,6c0,3.3,2.7,6,6,6h193.6c3.3,0,6-2.7,6-6C392.8,444.6,390.1,441.9,386.8,441.9
		L386.8,441.9z M386.8,441.9"/>
	<g>
		<defs>
			<rect id="SVGID_1_" x="148" y="187" width="355" height="363.8"/>
		</defs>
		<clipPath id="SVGID_2_">
			<use xlink:href="#SVGID_1_"  style="overflow:visible;"/>
		</clipPath>
		<path class="st0" d="M386.8,474.9H193.2c-3.3,0-6,2.7-6,6c0,3.3,2.7,6,6,6h193.6c3.3,0,6-2.7,6-6
			C392.8,477.6,390.1,474.9,386.8,474.9L386.8,474.9z M386.8,474.9"/>
		<path class="st0" d="M472.1,186.9H371.3c-16.7,0-30.3,13.6-30.3,30.3v71.9c0,16.7,13.6,30.3,30.3,30.3H397l48.2,22.4
			c0.8,0.4,1.7,0.6,2.5,0.6c1.1,0,2.2-0.3,3.2-0.9c1.7-1.1,2.8-3,2.8-5l0.3-17h18.1c16.7,0,30.3-13.6,30.3-30.3v-71.9
			C502.4,200.5,488.8,186.9,472.1,186.9L472.1,186.9z M490.4,289.1c0,10.1-8.2,18.3-18.3,18.3h-24c-3.3,0-6,2.6-6,5.9l-0.2,13.7
			l-41-19c-0.8-0.4-1.7-0.6-2.5-0.6h-27.1c-10.1,0-18.3-8.2-18.3-18.3v-71.9c0-10.1,8.2-18.3,18.3-18.3h100.8
			c10.1,0,18.3,8.2,18.3,18.3V289.1z M490.4,289.1"/>
	</g>
	<path d="M421.7,213c-14.4,0-26,11.7-26,26c0,3.3,2.7,6,6,6c3.3,0,6-2.7,6-6c0-7.7,6.3-14,14-14c7.7,0,14,6.3,14,14
		c0,4.9-2.5,9.3-6.6,11.9c-9.2,5.3-14.6,15-14.3,25.4c0.1,3.2,2.8,5.8,6,5.8c0.1,0,0.1,0,0.2,0c3.3-0.1,5.9-2.9,5.8-6.2
		c-0.2-6,3-11.6,8.3-14.6c0.1-0.1,0.2-0.1,0.3-0.2c7.7-4.8,12.3-13.1,12.3-22.1C447.7,224.7,436.1,213,421.7,213L421.7,213z
		 M421.7,213"/>
	<path d="M420.9,288.1c-1.6,0-3.1,0.6-4.3,1.8c-1.1,1.1-1.7,2.7-1.7,4.2c0,1.6,0.6,3.1,1.7,4.2c1.1,1.1,2.7,1.8,4.3,1.8
		c1.6,0,3.1-0.6,4.2-1.8c1.1-1.1,1.8-2.7,1.8-4.2c0-1.6-0.6-3.1-1.8-4.2C424,288.8,422.4,288.1,420.9,288.1L420.9,288.1z
		 M420.9,288.1"/>
</g>
</svg>
