<svg id="Isolation_Mode" data-name="Isolation Mode" xmlns="http://www.w3.org/2000/svg" viewBox="0 0 556.34 305.75"><title>livrare</title><path d="M536.34,109.51h0c-12.11-13.1-29.4-20.32-48.68-20.32h-55.4V56.75a6.61,6.61,0,0,0-6.6-6.6H357a31.55,31.55,0,0,0-50.58-37.73,31.55,31.55,0,0,0-50.58,37.73H187.1a6.61,6.61,0,0,0-6.6,6.6V267.87a6.61,6.61,0,0,0,6.6,6.6h40.76l.44,2.48a34.76,34.76,0,0,0,68.49,0l.44-2.48h152l.44,2.48a34.76,34.76,0,0,0,68.49,0l.44-2.48h31.16a6.61,6.61,0,0,0,6.6-6.6v-99.2C556.26,144,549.35,123.51,536.34,109.51ZM419.06,143.15H327.65v-5.37A9.88,9.88,0,0,0,339,128V63.35h80.1ZM326,63.35v57.15l-19.33-19.33-19.29,19.29V63.35Zm-40.31,108.8H193.7v-16h91.95Zm13-44.62,8-8,8,8V261.35h-16Zm29,28.62h91.41v16H327.65ZM331.49,13a18.57,18.57,0,1,1,0,37.15H312.92V31.57A18.59,18.59,0,0,1,331.49,13ZM262.77,31.57a18.57,18.57,0,0,1,37.15,0V50.15H281.35A18.59,18.59,0,0,1,262.77,31.57Zm11.56,31.77V128a9.85,9.85,0,0,0,11.31,9.77v5.42H193.7V63.35Zm-44.49,196-.71,2H193.7v-76.2h91.95v60a34.66,34.66,0,0,0-55.8,14.18Zm32.69,33.19A21.56,21.56,0,1,1,284.1,271,21.58,21.58,0,0,1,262.54,292.54Zm65.11-31.2v-76.2h91.41v76.2Zm156.25,31.2A21.56,21.56,0,1,1,505.46,271,21.58,21.58,0,0,1,483.9,292.54Zm59.24-31.28H517.31l-.71-2a34.71,34.71,0,0,0-65.39,0l-.71,2H432.34V102.38h55.4c34.17,0,55.4,25.4,55.4,66.28Z"/><path d="M144.5,122.89H6.5a6.5,6.5,0,0,0,0,13h138a6.5,6.5,0,0,0,0-13Z"/><path d="M144.5,169.69h-97a6.5,6.5,0,0,0,0,13h97a6.5,6.5,0,0,0,0-13Z"/><path d="M144.5,217.65h-71a6.5,6.5,0,1,0,0,13h71a6.5,6.5,0,0,0,0-13Z"/><path d="M46.5,217.65h-13a6.5,6.5,0,1,0,0,13h13a6.5,6.5,0,0,0,0-13Z"/></svg>