<svg id="Isolation_Mode" data-name="Isolation Mode" xmlns="http://www.w3.org/2000/svg" xmlns:xlink="http://www.w3.org/1999/xlink" viewBox="0 0 50.2 51.1"><defs><style>.cls-1{fill:url(#linear-gradient);}.cls-2{fill:url(#linear-gradient-2);}.cls-3{fill:url(#linear-gradient-3);}.cls-4{fill:url(#linear-gradient-4);}</style><linearGradient id="linear-gradient" x1="-543.61" y1="4731.33" x2="-288.29" y2="4731.33" gradientTransform="translate(454.7 -1582.41) scale(1.38 0.34)" gradientUnits="userSpaceOnUse"><stop offset="0" stop-color="#e1315b"/><stop offset="1" stop-color="#ed4235"/></linearGradient><linearGradient id="linear-gradient-2" x1="-543.61" y1="4731.33" x2="-289.13" y2="4731.33" xlink:href="#linear-gradient"/><linearGradient id="linear-gradient-3" x1="-543.61" y1="4816.26" x2="-289.53" y2="4816.26" xlink:href="#linear-gradient"/><linearGradient id="linear-gradient-4" x1="-543.61" y1="4815.95" x2="-290.24" y2="4815.95" gradientTransform="translate(454.7 -1582.41) scale(1.38 0.34)" gradientUnits="userSpaceOnUse"><stop offset="0" stop-color="#e1315b"/><stop offset="0.71" stop-color="#ed4235"/></linearGradient></defs><title>socialmedia2</title><path class="cls-1" d="M18.2,10.7a4.87,4.87,0,0,0,3.8-5C22,2.8,19.9.1,15.7.1H.5v22L16,22c4.2,0,6.4-2.6,6.4-5.9A5.29,5.29,0,0,0,18.2,10.7ZM5.1,4.2h9.8a2.35,2.35,0,0,1,2.3,2.4v.3A2.43,2.43,0,0,1,14.6,9H5.1V4.2Zm9.7,13.9H5.2V13h9.9a2.58,2.58,0,0,1,2.6,2.6C17.7,17.1,16.6,18.1,14.8,18.1Z"/><polygon class="cls-2" points="34.6 0.1 29.9 0.1 29.9 22.1 50.2 22.1 50.2 18 34.6 18 34.6 0.1"/><path class="cls-3" d="M11.4,28.3h-.8A11,11,0,0,0,0,39.7v.9A11,11,0,0,0,11.5,51.1,11,11,0,0,0,22.9,39.7C22.9,33,18.1,28.3,11.4,28.3Zm.1,18.6c-4.1,0-6.7-3.1-6.7-7.2s2.6-7.2,6.7-7.2,6.7,3.1,6.7,7.2S15.6,46.9,11.5,46.9Z"/><path class="cls-4" d="M39.7,42.5h5.8v2.6a7.33,7.33,0,0,1-4.7,1.7,6.86,6.86,0,0,1-6.9-7.2,6.86,6.86,0,0,1,6.9-7.2A6.12,6.12,0,0,1,46,35.3l3.9-2.1a10.39,10.39,0,0,0-9.1-4.9c-6.4,0-11.7,4.4-11.7,11.4s5.3,11.4,11.7,11.2a12.08,12.08,0,0,0,9.4-4.1V38.4H39.7Z"/></svg>