<?xml version="1.0" encoding="utf-8"?>
<!-- Generator: Adobe Illustrator 21.0.0, SVG Export Plug-In . SVG Version: 6.00 Build 0)  -->
<svg version="1.1" id="Isolation_Mode" xmlns="http://www.w3.org/2000/svg" xmlns:xlink="http://www.w3.org/1999/xlink" x="0px"
	 y="0px" viewBox="0 0 95.8 51.1" style="enable-background:new 0 0 95.8 51.1;" xml:space="preserve">
<style type="text/css">
	.st0{fill:url(#SVGID_1_);}
	.st1{fill:url(#SVGID_2_);}
	.st2{fill:url(#SVGID_3_);}
</style>
<title>socialmedia2</title>
<linearGradient id="SVGID_1_" gradientUnits="userSpaceOnUse" x1="-662.6681" y1="-6828.2505" x2="-411.1181" y2="-6828.2505" gradientTransform="matrix(1.38 0 0 -0.34 799.05 -2296.1052)">
	<stop  offset="0" style="stop-color:#E1315B"/>
	<stop  offset="1" style="stop-color:#ED4235"/>
</linearGradient>
<path class="st0" d="M49.7,8.8c-1.3-3.4-4-6.1-7.5-7.4c-2-0.7-4.1-1.1-6.2-1.2c-2.7-0.1-3.5-0.1-10.5-0.1s-7.8,0-10.5,0.1
	c-2.1,0-4.2,0.4-6.2,1.2c-3.4,1.3-6.1,4-7.5,7.4c-0.7,2-1.1,4.1-1.2,6.2C0,17.7,0,18.6,0,25.5S0,33.3,0.1,36c0,2.1,0.4,4.2,1.2,6.2
	c1.3,3.4,4,6.1,7.5,7.4c2,0.7,4.1,1.1,6.2,1.2c2.7,0.1,3.6,0.1,10.5,0.1s7.8,0,10.5-0.1c2.1,0,4.2-0.4,6.2-1.2
	c3.4-1.3,6.1-4,7.5-7.4c0.7-2,1.1-4.1,1.2-6.2C51,33.3,51,32.4,51,25.5s0-7.8-0.1-10.5C50.9,12.9,50.5,10.8,49.7,8.8z M46.3,35.8
	c0,1.6-0.3,3.2-0.9,4.7c-0.9,2.2-2.6,3.9-4.8,4.8c-1.5,0.6-3.1,0.9-4.7,0.9c-2.7,0.1-3.5,0.1-10.3,0.1s-7.6,0-10.3-0.1
	c-1.6,0-3.2-0.3-4.7-0.9c-2.2-0.9-3.9-2.6-4.8-4.8c-0.6-1.5-0.9-3.2-0.9-4.8C4.8,33,4.8,32.2,4.8,25.4s0-7.6,0.1-10.3
	c0-1.6,0.3-3.2,0.9-4.7c0.9-2.2,2.6-3.9,4.8-4.8c1.5-0.6,3.1-0.9,4.7-0.9h10.3c6.8,0,7.6,0,10.3,0.1c1.6,0,3.2,0.3,4.7,0.9
	c2.2,0.9,3.9,2.6,4.8,4.8c0.6,1.5,0.9,3.1,0.9,4.7c0.1,2.7,0.1,3.5,0.1,10.3S46.4,33.1,46.3,35.8z"/>
<linearGradient id="SVGID_2_" gradientUnits="userSpaceOnUse" x1="-662.6681" y1="-6828.5449" x2="-410.4681" y2="-6828.5449" gradientTransform="matrix(1.38 0 0 -0.34 799.05 -2296.1052)">
	<stop  offset="0" style="stop-color:#E1315B"/>
	<stop  offset="1" style="stop-color:#ED4235"/>
</linearGradient>
<path class="st1" d="M25.6,12.5c-7.2,0-13.1,5.9-13.1,13.1s5.9,13.1,13.1,13.1s13.1-5.9,13.1-13.1l0,0
	C38.7,18.4,32.8,12.5,25.6,12.5z M25.6,34.1c-4.7,0-8.5-3.8-8.5-8.5s3.8-8.5,8.5-8.5s8.5,3.8,8.5,8.5C34.1,30.3,30.3,34.1,25.6,34.1
	C25.6,34.1,25.6,34.1,25.6,34.1z"/>
<linearGradient id="SVGID_3_" gradientUnits="userSpaceOnUse" x1="-662.6681" y1="-6788.5449" x2="-408.8581" y2="-6788.5449" gradientTransform="matrix(1.38 0 0 -0.34 799.05 -2296.1052)">
	<stop  offset="0" style="stop-color:#E1315B"/>
	<stop  offset="1" style="stop-color:#ED4235"/>
</linearGradient>
<path class="st2" d="M39.1,8.9c-1.7,0-3.1,1.4-3.1,3.1s1.4,3.1,3.1,3.1s3.1-1.4,3.1-3.1v0C42.2,10.3,40.8,8.9,39.1,8.9z"/>
</svg>
