<svg id="Layer_1" data-name="Layer 1" xmlns="http://www.w3.org/2000/svg" viewBox="0 0 572.83 90.62"><defs><style>.cls-1{fill:#fff;}.cls-2{fill:#ff5f00;}.cls-3{fill:#eb001b;}.cls-4{fill:#f79e1b;}.cls-5{fill:#f7b600;}.cls-6{fill:#1a1f71;}.cls-7{fill:#0099df;}.cls-8{fill:#6c6bbd;}.cls-9{fill:#d32011;}</style></defs><title>carduri</title><path id="_Compound_Path_" data-name="&lt;Compound Path&gt;" class="cls-1" d="M197.2,350.33v-6a3.49,3.49,0,0,0-3.68-3.78,3.71,3.71,0,0,0-3.36,1.7,3.52,3.52,0,0,0-3.16-1.7,3.27,3.27,0,0,0-2.88,1.4v-1.16h-1.92v9.57h1.94v-5.49a2.3,2.3,0,0,1,2.42-2.54c1.38,0,2.16.9,2.16,2.52v5.51h1.94v-5.49a2.31,2.31,0,0,1,2.42-2.54c1.42,0,2.18.9,2.18,2.52v5.51Zm31.2-9.57h-3.48v-2.9H223v2.9h-2v1.74h2V347c0,2.22.78,3.54,3.24,3.54a4.89,4.89,0,0,0,2.6-.74l-.6-1.7a3.84,3.84,0,0,1-1.84.54c-1,0-1.46-.64-1.46-1.6V342.5h3.48Zm17.76-.24a3,3,0,0,0-2.6,1.4v-1.16h-1.9v9.57h1.92v-5.39c0-1.58.76-2.6,2.12-2.6a3.39,3.39,0,0,1,1.3.24l.64-1.8a4.45,4.45,0,0,0-1.48-.26Zm-26.85,1a7.16,7.16,0,0,0-3.9-1c-2.42,0-3.9,1.14-3.9,3,0,1.56,1.08,2.5,3.22,2.8l1,.14c1.14.16,1.76.56,1.76,1.1,0,.74-.84,1.22-2.26,1.22a5,5,0,0,1-3.18-1l-1,1.5a7.14,7.14,0,0,0,4.14,1.24c2.76,0,4.29-1.28,4.29-3.1s-1.16-2.54-3.26-2.84l-1-.14c-.9-.12-1.7-.4-1.7-1s.76-1.18,1.9-1.18a6.17,6.17,0,0,1,3,.82Zm29,4a4.77,4.77,0,0,0,5,5,5,5,0,0,0,3.44-1.14l-1-1.5a4.21,4.21,0,0,1-2.5.86,3.26,3.26,0,0,1,0-6.49,4.21,4.21,0,0,1,2.5.86l1-1.5a5,5,0,0,0-3.44-1.14,4.77,4.77,0,0,0-5,5Zm-13.46-5c-2.8,0-4.73,2-4.73,5a4.71,4.71,0,0,0,4.87,5,5.82,5.82,0,0,0,3.92-1.34l-1-1.42a4.56,4.56,0,0,1-2.78,1,2.81,2.81,0,0,1-2.94-2.48h7.15c0-.26,0-.52,0-.8,0-3-1.82-5-4.51-5Zm0,1.78a2.44,2.44,0,0,1,2.52,2.42H232.2a2.56,2.56,0,0,1,2.64-2.42Zm-25.91,3.24v-4.79H207v1.16a3.79,3.79,0,0,0-3.1-1.4,5,5,0,0,0,0,10.05,3.79,3.79,0,0,0,3.1-1.4v1.16h1.92Zm-7.75,0a3,3,0,0,1,3-3.24,3.26,3.26,0,0,1,0,6.49,3,3,0,0,1-3-3.24Zm73.89-5a3,3,0,0,0-2.6,1.4v-1.16h-1.9v9.57h1.92v-5.39c0-1.58.76-2.6,2.12-2.6a3.39,3.39,0,0,1,1.3.24l.64-1.8a4.45,4.45,0,0,0-1.48-.26Zm15.42,8.42a1,1,0,0,1,.38.07,1,1,0,0,1,.31.2,1,1,0,0,1,.21.3.93.93,0,0,1,0,.74,1,1,0,0,1-.21.3,1,1,0,0,1-.31.2.94.94,0,0,1-.38.08,1,1,0,0,1-.9-.58.94.94,0,0,1,0-.74,1,1,0,0,1,.21-.3,1,1,0,0,1,.31-.2A1,1,0,0,1,290.49,348.94Zm0,1.69a.71.71,0,0,0,.29-.06.76.76,0,0,0,.23-.16.74.74,0,0,0,0-1,.74.74,0,0,0-.23-.16.71.71,0,0,0-.29-.06.74.74,0,0,0-.29.06.73.73,0,0,0-.24.16.74.74,0,0,0,0,1,.75.75,0,0,0,.24.16A.74.74,0,0,0,290.49,350.64Zm.06-1.19a.4.4,0,0,1,.26.08.25.25,0,0,1,.09.21.24.24,0,0,1-.07.18.35.35,0,0,1-.21.09l.29.33h-.23l-.27-.33h-.09v.33h-.19v-.88Zm-.22.17v.24h.22a.21.21,0,0,0,.12,0,.1.1,0,0,0,0-.09.1.1,0,0,0,0-.09.22.22,0,0,0-.12,0Zm-22.63-4.07v-4.79h-1.92v1.16a3.79,3.79,0,0,0-3.1-1.4,5,5,0,0,0,0,10.05,3.79,3.79,0,0,0,3.1-1.4v1.16h1.92Zm-7.75,0a3,3,0,0,1,3-3.24,3.26,3.26,0,0,1,0,6.49,3,3,0,0,1-3-3.24Zm27.07,0v-8.63H285.1v5a3.79,3.79,0,0,0-3.1-1.4,5,5,0,0,0,0,10.05,3.79,3.79,0,0,0,3.1-1.4v1.16H287Zm-7.75,0a3,3,0,0,1,3-3.24,3.26,3.26,0,0,1,0,6.49A3,3,0,0,1,279.28,345.55Z" transform="translate(-176.15 -260.23)"/><g id="_Group_" data-name="&lt;Group&gt;"><rect class="cls-2" x="40.92" y="7.7" width="34.66" height="56.61"/><path id="_Path_" data-name="&lt;Path&gt;" class="cls-3" d="M220.65,296.23a35.94,35.94,0,0,1,13.75-28.3,36,36,0,1,0,0,56.61A35.94,35.94,0,0,1,220.65,296.23Z" transform="translate(-176.15 -260.23)"/><path class="cls-4" d="M289.21,318.54v-1.16h.47v-.24h-1.19v.24H289v1.16Zm2.31,0v-1.4h-.36l-.42,1-.42-1h-.36v1.4h.26v-1.05l.39.91h.27l.39-.91v1.06Z" transform="translate(-176.15 -260.23)"/><path class="cls-4" d="M292.64,296.23a36,36,0,0,1-58.25,28.3,36,36,0,0,0,0-56.61,36,36,0,0,1,58.25,28.3Z" transform="translate(-176.15 -260.23)"/></g><path id="path4147" class="cls-1" d="M749,342.57H637V271.43H749v71.15Z" transform="translate(-176.15 -260.23)"/><path id="path4149" class="cls-5" d="M638.84,331H747.11v9.71H638.84Z" transform="translate(-176.15 -260.23)"/><path id="path4151" class="cls-6" d="M638.84,283H747.11v-9.71H638.84Z" transform="translate(-176.15 -260.23)"/><g id="g4155"><g id="g4161"><path id="path4163" class="cls-6" d="M690.82,291.76l-5.43,25.36h-6.56l5.43-25.36Zm27.61,16.38,3.46-9.53,2,9.53Zm7.33,9h6.07l-5.3-25.36h-5.6a3,3,0,0,0-2.79,1.86l-9.85,23.51h6.89l1.37-3.79H725Zm-17.13-8.28c0-6.69-9.25-7.06-9.19-10.06,0-.91.89-1.88,2.78-2.12a12.39,12.39,0,0,1,6.47,1.14l1.15-5.38a17.69,17.69,0,0,0-6.14-1.12c-6.49,0-11.05,3.45-11.09,8.38,0,3.65,3.26,5.69,5.74,6.9s3.42,2,3.4,3.15c0,1.7-2,2.46-3.92,2.48a13.71,13.71,0,0,1-6.74-1.6l-1.19,5.56a19.92,19.92,0,0,0,7.3,1.35c6.9,0,11.41-3.41,11.43-8.68m-27.18-17.08-10.63,25.36h-6.94l-5.23-20.24a2.78,2.78,0,0,0-1.56-2.23,27.46,27.46,0,0,0-6.47-2.16l.15-.74h11.17a3.06,3.06,0,0,1,3,2.58L667.73,309l6.83-17.26Z" transform="translate(-176.15 -260.23)"/></g><g id="g4165"><path id="path4167" class="cls-6" d="M699.22,324.11h-2.67v2.48h3v.75h-3.88v-6.88h3.73v.75h-2.83v2.18h2.67Z" transform="translate(-176.15 -260.23)"/></g><path id="path4169" class="cls-6" d="M700.92,320.09h.9v7.25h-.9Z" transform="translate(-176.15 -260.23)"/><g id="g4171"><path id="path4173" class="cls-6" d="M706.72,324.39a1.28,1.28,0,0,0-1.25-1.45,1.47,1.47,0,0,0-1.38,1.45Zm-2.64.64a1.58,1.58,0,0,0,1.7,1.72,3.23,3.23,0,0,0,1.37-.26l.16.64a4,4,0,0,1-1.66.32,2.3,2.3,0,0,1-2.43-2.5,2.39,2.39,0,0,1,2.32-2.66,2.08,2.08,0,0,1,2,2.32,2.16,2.16,0,0,1,0,.42Z" transform="translate(-176.15 -260.23)"/></g><g id="g4175"><path id="path4177" class="cls-6" d="M712.47,327.16a3.47,3.47,0,0,1-1.42.29,2.35,2.35,0,0,1-2.46-2.52,2.52,2.52,0,0,1,2.66-2.64,2.82,2.82,0,0,1,1.25.27l-.2.68a2.2,2.2,0,0,0-1-.24,1.72,1.72,0,0,0-1.75,1.87,1.69,1.69,0,0,0,1.72,1.85,2.57,2.57,0,0,0,1.1-.23Z" transform="translate(-176.15 -260.23)"/></g><g id="g4179"><path id="path4181" class="cls-6" d="M715,321.21v1.18h1.29v.68H715v2.67c0,.61.17,1,.67,1a1.66,1.66,0,0,0,.52-.06l0,.68a2.46,2.46,0,0,1-.8.12,1.28,1.28,0,0,1-1-.38,1.93,1.93,0,0,1-.35-1.3v-2.7h-.77v-.68h.77v-.92Z" transform="translate(-176.15 -260.23)"/></g><g id="g4183"><path id="path4185" class="cls-6" d="M717.54,323.94c0-.58,0-1.08,0-1.54h.79l0,1h0a1.5,1.5,0,0,1,1.38-1.08l.25,0v.85a1.38,1.38,0,0,0-.31,0,1.25,1.25,0,0,0-1.21,1.14,2.71,2.71,0,0,0,0,.42v2.64h-.9Z" transform="translate(-176.15 -260.23)"/></g><g id="g4187"><path id="path4189" class="cls-6" d="M721.59,324.88c0,1.08.61,1.9,1.49,1.9s1.5-.81,1.5-1.92c0-.84-.42-1.89-1.48-1.89s-1.51,1-1.51,1.91m3.91-.05a2.42,2.42,0,0,1-2.46,2.63,2.36,2.36,0,0,1-2.37-2.54,2.42,2.42,0,0,1,2.45-2.61,2.34,2.34,0,0,1,2.38,2.53" transform="translate(-176.15 -260.23)"/></g><g id="g4191"><path id="path4193" class="cls-6" d="M726.88,323.73c0-.52,0-.93,0-1.34h.8l.05.82h0a1.83,1.83,0,0,1,1.63-.92c.68,0,1.75.41,1.75,2.1v2.94h-.9v-2.85c0-.8-.3-1.46-1.14-1.46a1.3,1.3,0,0,0-1.21.92,1.28,1.28,0,0,0-.06.42v3h-.9Z" transform="translate(-176.15 -260.23)"/></g></g><g id="g5486"><g id="g5463"><g id="g3550"><path id="path3552" class="cls-7" d="M445.53,318.54v-1.4h-.36l-.42,1-.42-1H444v1.4h.26v-1.05l.39.91h.27l.39-.91v1.06Zm-2.31,0v-1.16h.47v-.24H442.5v.24H443v1.16Z" transform="translate(-176.15 -260.23)"/></g><g id="g5456"><path id="path3554" class="cls-8" d="M404.15,324.54h-31.5V267.92h31.5Z" transform="translate(-176.15 -260.23)"/><g id="g3556"><path id="path3558" class="cls-9" d="M374.65,296.23a35.94,35.94,0,0,1,13.75-28.31,36,36,0,1,0,0,56.61,35.94,35.94,0,0,1-13.75-28.31" transform="translate(-176.15 -260.23)"/></g><g id="g3560"><path id="path3562" class="cls-7" d="M446.65,296.23a36,36,0,0,1-58.25,28.31,36,36,0,0,0,0-56.61,36,36,0,0,1,58.25,28.31" transform="translate(-176.15 -260.23)"/></g></g></g><g id="g5404"><g id="g3564"><path id="path3566" class="cls-1" d="M414.81,340.54a4.44,4.44,0,0,1,1.48.26l-.64,2a3.37,3.37,0,0,0-1.3-.24c-1.36,0-2,.88-2,2.46v5.36h-2.08v-9.56h2.06v1.16a2.82,2.82,0,0,1,2.52-1.4m-7.69,2.14h-3.4V347c0,1,.34,1.6,1.38,1.6a3.83,3.83,0,0,0,1.84-.54l.6,1.78a4.88,4.88,0,0,1-2.6.74c-2.46,0-3.32-1.32-3.32-3.54v-4.36h-1.94v-1.9h1.94v-2.9h2.1v2.9h3.4v1.9Zm-26.62,2a2.46,2.46,0,0,1,2.54-2.32,2.37,2.37,0,0,1,2.42,2.32Zm7.12.84c0-3-1.86-5-4.54-5a5,5,0,0,0,.14,10,5.81,5.81,0,0,0,3.92-1.34l-1-1.54a4.55,4.55,0,0,1-2.78,1,2.65,2.65,0,0,1-2.86-2.34h7.1c0-.26,0-.52,0-.8m9.14-2.34a6.13,6.13,0,0,0-3-.82c-1.14,0-1.82.42-1.82,1.12s.72.82,1.62.94l1,.14c2.08.3,3.34,1.18,3.34,2.86s-1.6,3.12-4.36,3.12a6.9,6.9,0,0,1-4.14-1.24l1-1.62a5.1,5.1,0,0,0,3.18,1c1.42,0,2.18-.42,2.18-1.16,0-.54-.54-.84-1.68-1l-1-.14c-2.14-.3-3.3-1.26-3.3-2.82,0-1.9,1.56-3.06,4-3.06a7.14,7.14,0,0,1,3.9,1l-.9,1.68Zm25.65-.71a3.15,3.15,0,0,0-1.19.22,2.86,2.86,0,0,0-1,.63,2.93,2.93,0,0,0-.63,1,3.51,3.51,0,0,0,0,2.5,2.93,2.93,0,0,0,.63,1,2.86,2.86,0,0,0,1,.63,3.28,3.28,0,0,0,2.39,0,2.86,2.86,0,0,0,1-.63,2.91,2.91,0,0,0,.64-1,3.51,3.51,0,0,0,0-2.5,2.91,2.91,0,0,0-.64-1,2.86,2.86,0,0,0-1-.63,3.14,3.14,0,0,0-1.19-.22m0-2a5.38,5.38,0,0,1,2.06.39,5,5,0,0,1,1.64,1.06,4.86,4.86,0,0,1,1.08,1.6,5.33,5.33,0,0,1,0,4,4.87,4.87,0,0,1-1.08,1.6,5,5,0,0,1-1.64,1.06,5.71,5.71,0,0,1-4.12,0,5,5,0,0,1-1.63-1.06,4.93,4.93,0,0,1-1.08-1.6,5.33,5.33,0,0,1,0-4,4.87,4.87,0,0,1,2.71-2.66,5.38,5.38,0,0,1,2.06-.39m-54.06,5a2.89,2.89,0,1,1,2.9,3.06,2.87,2.87,0,0,1-2.9-3.06m7.74,0v-4.78H374v1.16a3.63,3.63,0,0,0-3-1.4,5,5,0,0,0,0,10,3.63,3.63,0,0,0,3-1.4v1.16h2.08v-4.78Zm-11.72,4.78v-6a3.56,3.56,0,0,0-3.76-3.8,3.7,3.7,0,0,0-3.36,1.7,3.51,3.51,0,0,0-3.16-1.7,3.16,3.16,0,0,0-2.8,1.42v-1.18h-2.08v9.56h2.1V345a2.24,2.24,0,0,1,2.34-2.54c1.38,0,2.08.9,2.08,2.52v5.32h2.1V345a2.26,2.26,0,0,1,2.34-2.54c1.42,0,2.1.9,2.1,2.52v5.32h2.1Z" transform="translate(-176.15 -260.23)"/></g><g id="g3568"><path id="path3570" class="cls-1" d="M429.93,349.62v.24h.22a.21.21,0,0,0,.12,0,.1.1,0,0,0,0-.09.1.1,0,0,0,0-.09.2.2,0,0,0-.12,0Zm.22-.16a.4.4,0,0,1,.26.08.25.25,0,0,1,.09.21.24.24,0,0,1-.07.18.36.36,0,0,1-.21.09l.29.33h-.22L430,350h-.09v.33h-.19v-.88Zm-.06,1.18a.69.69,0,0,0,.29-.06.75.75,0,0,0,.23-.16.74.74,0,0,0,.16-.24.76.76,0,0,0,0-.58.76.76,0,0,0-.16-.24.71.71,0,0,0-.23-.16.69.69,0,0,0-.29-.06.72.72,0,0,0-.29.06.7.7,0,0,0-.24.16.75.75,0,0,0-.16.81.69.69,0,0,0,.16.24.75.75,0,0,0,.24.16.72.72,0,0,0,.29.06m0-1.69a.93.93,0,0,1,.38.08.94.94,0,0,1,.31.2.93.93,0,0,1,.21.3.94.94,0,0,1,0,.74,1,1,0,0,1-.21.3,1,1,0,0,1-.31.21.93.93,0,0,1-.38.08,1,1,0,0,1-.69-.28,1,1,0,0,1-.21-.3.94.94,0,0,1,0-.74.93.93,0,0,1,.21-.3.92.92,0,0,1,.31-.2,1,1,0,0,1,.38-.08" transform="translate(-176.15 -260.23)"/></g></g></g><rect class="cls-1" x="309.85" y="11.2" width="112" height="71.15"/><rect class="cls-5" x="311.71" y="70.79" width="108.27" height="9.71"/><rect class="cls-6" x="311.71" y="13.07" width="108.27" height="9.71"/><path class="cls-6" d="M531.2,293.69,520,320.37h-7.3l-5.5-21.29a2.93,2.93,0,0,0-1.64-2.34,28.87,28.87,0,0,0-6.81-2.27l.16-.77h11.75a3.22,3.22,0,0,1,3.18,2.72l2.91,15.44L524,293.69Zm28.59,18c0-7-9.73-7.43-9.67-10.58,0-1,.93-2,2.93-2.23a13,13,0,0,1,6.81,1.19l1.21-5.66a18.61,18.61,0,0,0-6.46-1.18c-6.82,0-11.62,3.62-11.66,8.82,0,3.84,3.43,6,6,7.26s3.59,2.15,3.58,3.31c0,1.79-2.15,2.58-4.13,2.61a14.42,14.42,0,0,1-7.09-1.69l-1.25,5.85a21,21,0,0,0,7.67,1.42c7.25,0,12-3.58,12-9.13m18,8.71h6.38l-5.58-26.68h-5.89a3.14,3.14,0,0,0-2.94,2l-10.36,24.72h7.25l1.44-4H577Zm-7.7-9.45,3.63-10,2.09,10Zm-29-17.23-5.71,26.68h-6.9l5.71-26.68Z" transform="translate(-176.15 -260.23)"/></svg>