<?xml version="1.0" encoding="utf-8"?>
<!-- Generator: Adobe Illustrator 20.0.0, SVG Export Plug-In . SVG Version: 6.00 Build 0)  -->
<svg version="1.1" id="Layer_1" xmlns="http://www.w3.org/2000/svg" xmlns:xlink="http://www.w3.org/1999/xlink" x="0px" y="0px"
	 viewBox="0 0 323.1 68" style="enable-background:new 0 0 323.1 68;" xml:space="preserve">
<style type="text/css">
	.st0{fill:#161515;}
	.st1{display:none;fill:#161515;}
	.st2{fill:#E1315B;}
	.st3{display:none;fill:#E1315B;}
	.st4{fill:#352204;}
	.st5{fill:#653F00;}
	.st6{fill:#0D3D3E;}
	.st7{fill:#213748;}
	.st8{fill:#042727;}
	.st9{fill:#B38D53;}
	.st10{fill:#FFFFFF;}
	.st11{fill:#EF3A00;}
	.st12{fill:#269272;}
	.st13{fill:#36BE95;}
	.st14{fill:#E6B66C;}
	.st15{fill:#9E120C;}
	.st16{display:none;fill:none;stroke:#FFD150;stroke-miterlimit:10;}
	.st17{fill:none;stroke:#FFD150;stroke-miterlimit:10;}
	.st18{fill:none;stroke:#E1315B;stroke-width:2;stroke-linecap:round;stroke-linejoin:round;stroke-miterlimit:10;}
	.st19{fill:none;stroke:#E1315B;stroke-linecap:round;stroke-linejoin:round;stroke-miterlimit:10;}
	.st20{opacity:0.2;}
	.st21{fill:#72E8BF;}
	.st22{opacity:0.4;fill:#FFFFFF;}
	.st23{fill:#EAA943;}
	.st24{fill:#FF4729;}
	.st25{fill:#FFE161;}
	.st26{display:none;}
	.st27{display:inline;}
</style>
<g>
	<g>
		<g>
			<path id="XMLID_24_" class="st0" d="M1.7,58.7v-34h21.6v2.7H4.6V40h18.3v2.7H4.6v16H1.7z"/>
			<path id="XMLID_21_" class="st0" d="M56.3,58.7l-3.4-8.4h-18l-3.4,8.4h-3.4l14-34h3.6l13.9,34H56.3z M43.9,27.8l-8,19.9H52
				L43.9,27.8z"/>
			<path id="XMLID_19_" class="st0" d="M65.9,53.9l1.9-2.2c2.2,2.5,5.8,4.9,10.7,4.9c6.9,0,8.9-3.9,8.9-6.8c0-10-20.4-4.8-20.4-16.7
				c0-5.6,5-9.1,11.2-9.1c5,0,8.9,1.8,11.5,4.8l-1.9,2.1c-2.4-3-5.9-4.3-9.7-4.3c-4.5,0-8,2.6-8,6.3c0,8.7,20.4,3.9,20.4,16.6
				c0,4.4-2.9,9.6-12.1,9.6C72.7,59.3,68.5,57,65.9,53.9z"/>
			<path id="XMLID_17_" class="st0" d="M125.9,58.7V42.5h-21.6v16.2h-2.9v-34h2.9v15.2h21.6V24.7h2.9v34H125.9z"/>
			<path id="XMLID_15_" class="st0" d="M141.2,58.7v-34h2.9v34H141.2z"/>
			<path id="XMLID_12_" class="st1" d="M155.3,41.7c0-9.9,6.5-17.6,16.5-17.6c9.9,0,16.5,7.6,16.5,17.6s-6.6,17.6-16.5,17.6
				S155.3,51.6,155.3,41.7z M185.3,41.7c0-8.6-5.3-14.9-13.5-14.9s-13.5,6.3-13.5,14.9s5.3,14.9,13.5,14.9S185.3,50.3,185.3,41.7z"
				/>
			<path id="XMLID_10_" class="st0" d="M223.9,58.7l-21.4-29.2v29.2h-2.9v-34h3l21.3,28.8V24.7h2.9v34H223.9z"/>
			<path id="XMLID_8_" class="st2" d="M239,45.1V24.7h7.3v20.2c0,4.7,2.8,8,8,8c5.3,0,8-3.3,8-8V24.7h7.4v20.4
				c0,8.4-5,14.2-15.3,14.2C244,59.3,239,53.5,239,45.1z"/>
			<path id="XMLID_5_" class="st2" d="M280.4,58.7v-34h15.9c7.4,0,11.4,5,11.4,11c0,5.9-4.1,10.9-11.4,10.9h-8.7v12.1H280.4z
				 M300.3,35.6c0-2.9-2.2-4.6-5-4.6h-7.6v9.1h7.6C298.2,40.2,300.3,38.4,300.3,35.6z"/>
			<g id="XMLID_1_">
				<path id="XMLID_2_" class="st3" d="M313.6,33c0-1.4,1.2-2.6,2.6-2.6s2.6,1.2,2.6,2.6c0,1.4-1.2,2.6-2.6,2.6S313.6,34.4,313.6,33
					z M314.3,28.2l-0.6-14.5h4.9L318,28.2H314.3z"/>
				<circle class="st2" cx="316.2" cy="33" r="2.6"/>
				<g>
					<g>
						<g>
							<path class="st4" d="M317.4,26.2c0-0.1,0-0.2,0-0.3c0-0.1,0-0.2,0-0.2c0,0,0,0,0,0c0-0.1-0.1-0.2-0.1-0.3
								c0-0.1-0.1-0.2-0.2-0.2c0,0-0.1,0-0.1,0c0-0.1-0.1-0.1-0.1-0.2c0,0-0.1,0-0.1,0c0,0-0.1,0-0.1,0c-0.1,0-0.1,0.1-0.2,0.1
								c0-0.1-0.1-0.1-0.2-0.1c-0.1,0-0.2,0-0.2,0.1c-0.1-0.1-0.2-0.1-0.3-0.1c0-0.1-0.1-0.1-0.1-0.2c0,0,0,0,0,0
								c0-0.1-0.1-0.1-0.1-0.1c0,0-0.1-0.1-0.1,0c0,0-0.1,0-0.1,0c0,0-0.1,0.1-0.1,0.1c-0.1,0.1-0.1,0.2-0.1,0.3c0,0,0,0.1,0,0.1
								c0,0.1,0,0.2,0,0.3c0,0.2,0,0.4,0,0.6c0,0.1,0,0.3,0,0.4c0.8,0,1.6,0,2.4,0C317.4,26.4,317.4,26.3,317.4,26.2z"/>
							<path class="st5" d="M317.4,26.8c0-0.1,0-0.2,0-0.3c0,0,0-0.1,0-0.1c-0.8,0-1.6,0-2.4,0c0,0.1,0,0.3,0,0.4c0,0.1,0,0.1,0,0.2
								c0.8,0,1.6,0,2.4,0C317.4,26.9,317.4,26.9,317.4,26.8z"/>
							<path class="st4" d="M317.4,27c-0.8,0-1.6,0-2.4,0c0,0.2,0,0.4,0,0.7c0,0.2,0,0.3,0,0.5c0,0,0,0,0,0c0.1,0,0.3,0,0.4,0
								c0.1,0,0.3,0,0.4,0c0.1,0,0.2,0,0.3,0c0.1,0,0.2,0,0.3,0c0.3,0,0.5,0,0.8,0c0-0.1,0-0.2,0-0.3c0-0.1,0-0.2,0-0.3
								c0-0.1,0-0.2,0-0.3C317.4,27.1,317.4,27.1,317.4,27z"/>
							<path class="st4" d="M314.7,26.1c0.1,0,0.1,0,0.1,0.1c0,0.1,0.1,0.1,0.1,0.2c0,0.1,0,0.2,0,0.3c0,0.2,0,0.4,0,0.6
								c0,0.1,0,0.2,0,0.3c0,0,0,0.1,0,0.1c0,0.1,0,0.1,0,0.2c0,0,0,0-0.1,0.1c0,0,0,0,0,0c0-0.1,0-0.3,0-0.4c0-0.2,0-0.3,0-0.5
								c0-0.1,0-0.2,0-0.2c0-0.1,0-0.1,0-0.2c0-0.1,0-0.1,0-0.2C314.7,26.4,314.7,26.3,314.7,26.1z"/>
						</g>
						<g>
							<path class="st6" d="M317.8,10.5C317.8,10.5,317.8,10.6,317.8,10.5c0,0.1,0,0.1,0,0.1c0,0,0,0.1,0,0.1c0,0,0,0,0,0
								c0,0,0,0.1,0,0.1c0,0,0,0,0,0.1c0,0,0,0.1,0,0.1c0,0,0,0.1,0,0.1c0,0,0,0.1,0,0.1c0,0,0,0.1,0,0.1c0,0,0,0,0,0.1
								c0,0,0,0.1,0,0.1c0,0,0,0,0,0.1c0,0,0,0.1,0,0.1c0,0,0,0,0,0c0,0,0,0.1,0,0.1c0,0,0,0,0,0.1c0,0,0,0.1,0,0.1c0,0,0,0,0,0.1
								c0,0,0,0.1,0,0.1c0,0,0.1,0.1,0,0.1c0,0,0,0,0,0c0,0,0,0.1,0,0.1c0,0,0,0,0,0.1c0,0,0,0.1,0,0.1c0,0,0,0,0,0
								c0,0.1,0.1,0.4,0.1,0.4c0,0,0,0.1,0,0.1c0,0,0,0,0,0.1c0,0,0,0.1,0,0.1c0,0,0,0,0,0.1c0,0,0,0.1,0,0.1c0,0,0,0.1,0,0.1
								c0,0,0,0.1,0,0.1c0,0,0,0.1,0.1,0.1c0,0,0,0.1,0,0.1c0,0,0,0,0,0c0,0,0,0.1,0,0.1c0,0,0,0,0,0.1c0,0,0,0.1,0,0.1
								c0,0,0,0,0,0.1c0,0.1,0,0.1,0.1,0.2c0,0.1,0,0.1,0.1,0.2c0,0,0,0,0,0c0,0,0,0.1,0,0.1c0.1,0,0,0.1,0.1,0.1
								c0,0.1,0.1,0.2,0.1,0.2c0,0.1,0.1,0.1,0,0.2c0,0,0,0.1,0.1,0.1c0,0.1,0,0.1,0,0.2c0,0.1,0.1,0.1,0.1,0.2c0,0,0,0.1,0.1,0.2
								c0,0,0,0.1,0,0.1c0,0,0,0,0,0.1c0,0,0,0.1,0,0.1c0,0,0,0,0,0.1c0,0,0,0.1,0,0.1c0,0,0,0,0,0c0,0,0,0.1,0,0.1
								c0.1,0.1,0.1,0.2,0.1,0.3c0,0.1,0.1,0.1,0,0.2c0.1,0,0,0.1,0.1,0.2c0,0.1,0.1,0.1,0,0.2c0,0,0,0,0,0c0.1,0,0,0.1,0.1,0.2
								c0,0,0,0.1,0,0.1c0,0,0,0,0,0c0,0,0,0.1,0,0.1c0,0,0,0,0,0.1c0,0,0,0.1,0,0.1c0,0,0,0,0,0c0,0,0,0.1,0,0.1c0,0,0,0.1,0,0.1
								c0,0.1,0,0.1,0,0.1c0,0,0,0.1,0,0.1c0,0,0,0,0,0.1c0,0,0,0.1,0,0.1c0,0,0,0,0,0.1c0,0,0,0.1,0,0.1c0,0,0,0,0,0.1
								c0,0,0,0.1,0,0.1c0,0,0,0,0,0c0,0,0,0.1,0,0.1c0,0,0,0,0,0.1c0,0.1,0.1,0.2,0,0.2c0,0,0,0,0.1,0.1c0,0,0,0.1,0,0.1
								c0,0,0,0,0,0.1c0,0,0,0.1,0,0.1c0,0,0,0,0,0c0,0.1,0,0.1,0,0.2c0,0,0,0,0,0c0,0.1,0,0.1,0,0.2c0,0,0,0.1,0.1,0.2
								c0,0,0,0.1,0,0.1c0,0,0,0,0,0c0,0,0,0.1,0,0.1c0,0,0,0,0,0.1c0,0,0,0.1,0,0.1c0,0,0,0,0,0c0,0,0,0.1,0,0.1c0,0,0,0,0,0
								c0,0,0,0.1,0,0.1c0,0,0,0,0.1,0.1c0,0,0,0.1,0,0.1c0,0,0,0,0,0c0,0,0,0.1,0,0.1c0,0,0,0,0,0.1c0,0,0,0.1,0,0.1c0,0,0,0,0,0.1
								c0,0,0,0.1,0,0.1c0,0,0,0,0,0c0,0,0,0.1,0,0.1c0,0,0,0,0,0.1c0,0.1,0.1,0.2,0,0.3c0.1,0,0,0.1,0,0.2c0,0,0,0,0,0
								c0,0,0,0.1,0,0.1c0,0,0,0,0,0.1c0,0,0,0.1,0,0.1c0,0,0,0,0,0c0,0,0,0.1,0,0.1c0,0,0,0,0,0.1c0,0,0,0.1,0,0.1c0,0,0,0.1,0,0.1
								c0,0,0,0.1,0,0.1c0,0,0,0.1,0,0.1c0,0,0,0,0,0.1c0,0,0,0.1,0,0.1c0,0,0,0,0,0.1c0,0,0,0.1,0,0.1c0,0,0,0,0,0c0,0,0,0.1,0,0.1
								c0,0,0,0,0,0.1c0,0.1,0.1,0.2,0.1,0.3c0,0,0,0.1,0,0.1c0,0,0,0,0,0.1c0,0,0,0.1,0,0.1c0,0,0,0,0,0.1c0,0,0,0.1,0,0.1
								c0,0,0,0,0,0c0,0,0,0.1,0,0.1c0,0,0.1,0.1,0,0.1c0,0,0,0.1,0,0.1c0,0,0,0.1,0,0.1c0,0,0,0.1,0,0.1c0,0,0,0,0,0.1
								c0,0,0,0.1,0,0.1c0,0,0,0,0,0.1c0,0,0,0.1,0,0.1c0,0,0,0,0,0c0,0,0,0.1,0,0.1c-0.1,0-0.1,0-0.2,0c0,0,0,0,0,0
								c-0.4,0-0.8,0-1.3,0c0,0,0,0,0,0c0,0,0,0,0,0c-0.3,0-0.7,0-1,0c0,0,0,0,0,0c-0.4,0-0.8,0-1.2,0c0,0,0,0,0,0c-0.5,0-1,0-1.5,0
								c0,0,0,0,0,0c-0.5,0-1.1,0-1.6,0c0,0,0,0,0,0c-0.4,0-0.8,0-1.1,0c0,0,0,0-0.1,0c-0.2,0-0.4,0-0.5,0c0,0,0,0,0,0
								c-0.3,0-2.5,0-3.9,0c0,0,0-0.1,0-0.1c0,0,0,0,0-0.1c0,0,0-0.1,0-0.1c0,0,0,0,0-0.1c0,0,0-0.1,0-0.1c0,0,0,0,0,0
								c0-0.1,0-0.1,0-0.2c0,0,0,0,0,0c0-0.1,0-0.1,0-0.2c0,0,0,0,0.1-0.1c0,0,0-0.1,0-0.1c0,0,0,0,0,0c0-0.1,0-0.1,0-0.2
								c0,0,0,0,0-0.1c0-0.1,0-0.1,0-0.2c0,0,0,0,0,0c0-0.1,0-0.2,0-0.2c0,0,0,0,0,0c0-0.1,0-0.1,0-0.2c0,0,0,0,0,0c0,0,0-0.1,0-0.1
								c0,0,0,0,0,0c0-0.1,0-0.1,0-0.2c0,0,0,0,0,0c0-0.1,0-0.1,0-0.2c0,0,0,0,0-0.1c0,0,0-0.1,0-0.1c0,0,0,0,0,0c0-0.1,0-0.1,0-0.2
								c0,0,0,0,0,0c0-0.1,0-0.1,0-0.2c0,0,0,0,0,0c0-0.1,0-0.1,0-0.2c0,0,0,0,0,0c0-0.1,0-0.1,0-0.2c0,0,0,0,0,0c0,0,0-0.1,0-0.1
								c0,0,0,0,0-0.1c0-0.1,0-0.1,0-0.2c0,0,0,0,0,0c0-0.1,0-0.1,0-0.2c0,0,0,0,0,0c0-0.1,0-0.2,0-0.2c0,0,0,0,0,0
								c0-0.1,0-0.1,0-0.2c0,0,0,0,0,0c0-0.1,0-0.1,0-0.2c0,0,0,0,0,0c0-0.1,0-0.1,0-0.2c0,0,0,0,0-0.1c0-0.1,0-0.1,0-0.2
								c0,0,0,0,0,0c0-0.1,0-0.1,0-0.2c0,0,0,0,0,0c0-0.1,0-0.1,0-0.2c0,0,0,0,0,0c0-0.1,0-0.1,0-0.2c0,0,0,0,0,0c0-0.1,0-0.1,0-0.2
								c0,0,0,0,0,0c0-0.1,0-0.1,0-0.2c0,0,0,0,0-0.1c0,0,0-0.1,0-0.1c0,0,0,0,0,0c0-0.1,0-0.1,0-0.2c0,0,0,0,0,0c0-0.1,0-0.1,0-0.2
								c0,0,0,0,0,0c0,0,0-0.1,0-0.1c0,0,0,0,0,0c0,0,0-0.1,0-0.1c0,0,0,0,0-0.1c0,0,0-0.1,0-0.1c0,0,0,0,0-0.1c0,0,0-0.1,0-0.1
								c0,0,0,0,0,0c0,0,0-0.1,0-0.1c0,0,0,0,0-0.1c0-0.1,0.1-0.2,0.1-0.3c0.1,0,0-0.1,0-0.2c0,0,0,0,0,0c0,0,0-0.1,0-0.1
								c0,0,0,0,0-0.1c0,0,0-0.1,0-0.1c0,0,0,0,0,0c0,0,0-0.1,0-0.1c0,0,0,0,0,0c0,0,0-0.1,0-0.1c0,0,0-0.1,0-0.1c0,0,0-0.1,0-0.1
								c0,0,0-0.1,0-0.1c0,0,0-0.1,0-0.1c0,0,0-0.1,0-0.1c0,0,0,0,0-0.1c0,0,0-0.1,0-0.1c0,0,0,0,0,0c0,0,0-0.1,0-0.1
								c0,0,0-0.1,0-0.1c0-0.1,0-0.1,0-0.1c0,0,0-0.1,0-0.1c0,0,0-0.1,0-0.1c0,0,0,0,0,0c0,0,0-0.1,0-0.1c0,0,0,0,0-0.1
								c0,0,0-0.1,0-0.1c0,0,0,0,0,0c0,0,0-0.1,0-0.1c0,0,0,0,0,0c0,0,0-0.1,0-0.1c0,0,0-0.1,0-0.1c0,0,0-0.1,0-0.1c0,0,0-0.1,0-0.1
								c0,0,0,0,0,0c0,0,0-0.1,0-0.1c0,0,0,0,0-0.1c0,0,0-0.1,0-0.1c0,0,0,0,0,0c0,0,0-0.1,0-0.1c0,0,0,0,0-0.1c0-0.1,0.1-0.2,0-0.2
								c0,0,0,0,0.1-0.1c0,0,0-0.1,0-0.1c0,0,0,0,0-0.1c0,0,0-0.1,0-0.1c0,0,0,0,0-0.1c0,0,0-0.1,0-0.1c0,0,0,0,0,0c0,0,0-0.1,0-0.1
								c0,0,0-0.1,0-0.1c0,0,0-0.1,0-0.1c0.1,0,0-0.1,0.1-0.2c0,0,0-0.1,0-0.1c0,0,0,0,0,0c0,0,0-0.1,0-0.1c0,0,0,0,0-0.1
								c0,0,0-0.1,0-0.1c0,0,0,0,0-0.1c0,0,0-0.1,0-0.1c0,0,0-0.1,0-0.1c0,0,0-0.1,0-0.1c0,0,0-0.1,0-0.1c0,0,0-0.1,0-0.1
								c0,0,0-0.1,0-0.1c0,0,0,0,0-0.1c0,0,0-0.1,0-0.1c0,0,0,0,0,0c0,0,0-0.1,0-0.1c0,0,0,0,0,0c0,0,0-0.1,0-0.1c0,0,0-0.1,0-0.1
								c0.1-0.1,0-0.1,0-0.2c0,0,0,0,0-0.1c0,0,0-0.1,0-0.1c0,0,0,0,0-0.1c0,0,0-0.1,0-0.1c0,0,0,0,0,0c0,0,0-0.1,0-0.1c0,0,0,0,0,0
								c0,0,0-0.1,0-0.1c0,0,0.1-0.1,0-0.1c0-0.1,0-0.1,0-0.1c0,0,0-0.1,0-0.1c0,0,0-0.1,0-0.1c0,0,0,0,0-0.1c0,0,0-0.1,0-0.1
								c0,0,0,0,0,0c0,0,0-0.1,0-0.1c0,0,0,0,0-0.1c0,0,0-0.1,0-0.1c0,0,0-0.1,0-0.1c0,0,0-0.1,0-0.1c0,0,0-0.1,0-0.1c0,0,0,0,0-0.1
								c0,0,0-0.1,0-0.1c0,0,0,0,0-0.1c0,0,0-0.1,0-0.1c0,0,0,0,0,0c0,0,0-0.1,0-0.1c0,0,0,0,0-0.1c0,0,0-0.1,0-0.1c0,0,0-0.1,0-0.1
								c0,0,0-0.1,0-0.1c0,0,0,0,0-0.1c0-0.1,0-0.1,0-0.2c0,0,0,0,0-0.1c0-0.1,0-0.1,0-0.2c0,0,0,0,0,0c0-0.1,0-0.1,0-0.2
								c0,0,0,0,0,0c0-0.1,0-0.2,0-0.2c0,0,0,0,0,0c0-0.1,0-0.1,0-0.2c0,0,0,0,0,0c0-0.1,0-0.1,0-0.2c0,0,0,0,0-0.1c0,0,0-0.1,0-0.1
								c0,0,0,0,0-0.1c0-0.1,0-0.1,0-0.2c0,0,0,0,0-0.1c0,0,0-0.1,0-0.1c0,0,0-0.1,0-0.1c0,0,0.1-0.1,0-0.1c0,0,0-0.1,0-0.1
								c0,0,0-0.1,0-0.1c0,0,0,0,0,0c0,0,0-0.1,0-0.1c0,0,0,0,0-0.1c0,0,0-0.1,0-0.1c0,0,0,0,0-0.1c0,0,0-0.1,0-0.1c0,0,0,0,0,0
								c0,0,0-0.1,0-0.1c0,0,0-0.1,0-0.1c0,0,0-0.1,0-0.1c0,0,0-0.1,0.1-0.2c0,0,0-0.1,0-0.1c0,0,0,0,0-0.1c0-0.1,0-0.1,0-0.2
								c0,0,0,0,0,0c0-0.1,0-0.1,0.1-0.2c0,0,0-0.1,0.1-0.1c0,0,0.1-0.1,0.1-0.1c0,0,0.1,0,0.1,0c0,0,0,0.1,0.1,0.1c0,0,0,0.1,0,0.1
								c0,0,0.1,0.1,0.1,0.1c0,0,0.1,0.1,0,0.1c0,0.1,0,0.1,0,0.1c0,0,0.1,0.1,0,0.1c0,0,0.1,0.1,0,0.1c0,0.1,0.1,0.1,0,0.2
								c0.1,0,0,0.1,0.1,0.2c0,0,0,0,0,0c0,0,0,0.1,0,0.1c0,0,0,0,0,0.1c0,0,0,0.1,0,0.1c0,0,0,0,0,0.1c0,0,0,0.1,0,0.1c0,0,0,0,0,0
								c0,0.1,0.1,0.1,0.1,0.2c0.1,0,0,0.1,0.1,0.2c0,0,0,0.1,0.1,0.2c0,0.1,0.1,0.1,0,0.2c0,0,0,0.1,0,0.1c0,0.1,0.1,0.1,0.1,0.2
								c0,0.1,0.1,0.1,0,0.1c0,0.1,0.1,0.1,0,0.2c0,0,0,0,0.1,0.1c0,0,0,0.1,0,0.1c0,0,0,0,0,0.1c0,0,0,0.1,0,0.1c0,0,0,0,0,0
								c0,0,0,0.1,0,0.1c0,0,0,0,0,0.1c0,0.1,0.1,0.2,0,0.2c0,0,0,0,0.1,0.1c0,0,0,0.1,0,0.1c0,0,0,0,0,0.1c0,0,0,0.1,0,0.1
								c0,0,0,0,0,0c0,0,0,0.1,0,0.2c0,0,0,0,0,0c0,0,0,0.1,0,0.1c0,0,0,0,0.1,0.1c0,0,0,0.1,0,0.1c0,0,0,0,0,0c0,0,0,0.1,0,0.1
								c0,0,0,0,0,0.1c0,0,0,0.1,0,0.1c0,0,0,0,0,0.1c0,0,0,0.1,0,0.1c0,0,0,0,0,0c0,0,0,0.1,0,0.1c0,0,0,0,0,0.1c0,0.1,0,0.1,0,0.1
								c0,0.1,0.1,0.1,0,0.2c0,0,0,0.1,0.1,0.1c0,0.1,0,0.1,0,0.2c0,0,0,0.1,0.1,0.1c0,0,0.1,0.1,0.1,0.1c0,0.1,0,0.1,0,0.1
								c0,0.1,0.1,0.1,0,0.1c0,0,0.1,0.1,0,0.1c0.1,0,0,0.1,0.1,0.1c0,0,0,0.1,0,0.1C317.7,10.4,317.7,10.4,317.8,10.5
								C317.7,10.5,317.8,10.5,317.8,10.5z M315.8,17.8c0,0,0,0.1,0,0.1C315.8,17.8,315.8,17.8,315.8,17.8z"/>
							<path class="st7" d="M311.5,15.1C311.5,15.1,311.5,15.2,311.5,15.1c0,0.1,0,0.1,0,0.1c0,0,0,0.1,0,0.1c0,0,0,0,0,0.1
								c0,0.1,0,0.1,0,0.1c0,0,0,0.1,0,0.1c0,0,0,0.1-0.1,0.1c0,0,0,0.1,0,0.1c0,0,0,0,0,0.1c0,0,0,0.1,0,0.1c0,0,0,0,0,0
								c0,0,0,0.1,0,0.1c0,0,0,0,0,0c0,0,0,0.1,0,0.1c-0.1,0,0,0.1-0.1,0.2c0,0,0,0.1,0,0.1c0,0,0,0,0,0.1c0,0,0,0.1,0,0.1
								c0,0,0,0,0,0.1c0,0,0,0.1,0,0.1c0,0,0,0,0,0c0,0,0,0.1,0,0.1c0,0,0,0,0,0.1c0,0.1-0.1,0.2,0,0.3c-0.1,0,0,0.1-0.1,0.2
								c0,0,0,0.1,0,0.1c0,0,0,0,0,0.1c0,0,0,0.1,0,0.1c0,0,0,0,0,0c0,0,0,0.1,0,0.1c0,0,0,0,0,0.1c0,0,0,0.1,0,0.1
								c0,0-0.1,0.1,0,0.1c0,0,0,0.1,0,0.1c0,0,0,0.1,0,0.1c0,0,0,0,0,0.1c0,0,0,0.1,0,0.1c0,0,0,0,0,0c0,0.1,0,0.1,0,0.2
								c0,0,0,0,0,0c0,0,0,0.1,0,0.1c0,0,0,0,0,0.1c0,0.1-0.1,0.2,0,0.2c0,0,0,0-0.1,0.1c0,0,0,0.1,0,0.1c0,0,0,0,0,0.1
								c0,0,0,0.1,0,0.1c0,0,0,0,0,0.1c0,0,0,0.1,0,0.1c0,0,0,0,0,0c0,0,0,0.1,0,0.1c0,0,0,0,0,0.1c0,0,0,0.1,0,0.1
								c-0.1,0,0,0.1-0.1,0.2c0,0,0,0.1,0,0.1c0,0,0,0,0,0.1c0,0,0,0.1,0,0.1c0,0,0,0,0,0c0,0,0,0.1,0,0.1c0,0,0,0,0,0
								c0,0.1,0,0.1,0,0.2c0,0,0,0,0,0c0,0,0,0.1,0,0.1c0,0,0,0,0,0c0,0,0,0.1,0,0.1c0,0,0,0,0,0.1c0,0,0,0.1,0,0.1c0,0,0,0,0,0.1
								c0,0.1,0,0.1,0,0.2c0,0,0,0,0,0.1c0,0,0,0.1,0,0.1c0,0,0,0,0,0.1c0,0,0,0.1,0,0.1c0,0,0,0,0,0.1c0,0,0,0.1,0,0.1
								c0,0,0,0-0.1,0.1c0,0.1,0,0.1,0,0.2c0,0,0,0,0,0c0,0.1,0,0.1,0,0.2c0,0,0,0,0,0.1c0,0,0,0.1,0,0.1c0,0,0,0,0,0.1
								c0,0.1,0,0.1,0,0.2c0,0,0,0-0.1,0.1c0,0,0,0-0.1-0.1c0-0.1,0-0.2,0-0.3c0,0,0,0,0,0c0,0,0-0.1,0-0.1c0,0,0,0,0,0c0,0,0,0,0,0
								c0-0.1,0-0.1,0-0.2c0,0,0,0,0,0c0-0.1,0-0.1,0-0.2c0,0,0,0,0,0c0-0.1,0-0.1,0-0.2c0,0,0,0,0.1-0.1c0-0.1,0-0.1,0-0.2
								c0,0,0,0,0,0c0,0,0-0.1,0-0.1c0,0,0,0,0-0.1c0-0.1,0-0.1,0-0.2c0,0,0,0,0-0.1c0-0.1,0-0.1,0-0.2c0,0,0,0,0,0c0,0,0-0.1,0-0.1
								c0,0,0,0,0-0.1c0,0,0-0.1,0-0.2c0,0,0,0,0.1-0.1c0,0,0-0.1,0-0.1c0,0,0,0,0,0c0,0,0-0.1,0-0.1c0,0,0,0,0-0.1c0,0,0-0.1,0-0.1
								c0,0,0,0,0,0c0-0.1,0-0.1,0-0.2c0,0,0,0,0,0c0,0,0-0.1,0-0.1c0,0,0,0,0-0.1c0,0,0-0.1,0-0.1c0,0,0,0,0,0c0-0.1,0-0.1,0-0.2
								c0,0,0,0,0,0c0-0.1,0-0.1,0-0.2c0,0,0,0,0-0.1c0,0,0-0.1,0-0.1c0,0,0,0,0,0c0-0.1,0-0.1,0-0.2c0,0,0,0,0,0c0,0,0-0.1,0-0.1
								c0,0,0,0,0-0.1c0-0.1,0-0.1,0-0.2c0,0,0,0,0,0c0-0.1,0-0.1,0-0.2c0,0,0,0,0,0c0-0.1,0-0.1,0-0.2c0,0,0,0,0-0.1
								c0-0.1,0-0.1,0-0.2c0,0,0,0,0-0.1c0,0,0-0.1,0-0.1c0,0,0,0,0-0.1c0,0,0-0.1,0-0.1c0,0,0,0,0-0.1c0-0.1,0-0.1,0-0.2
								c0,0,0,0,0-0.1c0,0,0-0.1,0-0.1c0,0,0,0,0-0.1c0,0,0-0.1,0-0.1c0,0,0,0,0-0.1c0,0,0-0.1,0-0.1c0,0,0,0,0,0c0,0,0-0.1,0-0.1
								c0,0,0,0,0,0c0,0,0-0.1,0-0.1c0,0,0-0.1,0-0.1c0.1-0.1,0-0.1,0-0.2c0,0,0,0,0-0.1c0,0,0-0.1,0-0.1c0,0,0,0,0-0.1
								c0,0,0-0.1,0-0.1c0,0,0,0,0-0.1c0,0,0-0.1,0-0.1c0,0,0,0,0,0c0-0.1,0-0.1,0.1-0.2c0-0.1,0-0.1,0-0.1c0,0,0-0.1,0-0.1
								c0,0,0,0,0,0c0,0,0-0.1,0-0.1c0,0,0,0,0-0.1c0,0,0-0.1,0-0.1c0,0,0,0,0,0c0,0,0-0.1,0-0.1c0,0,0,0,0,0c0,0,0-0.1,0-0.1
								c0,0,0-0.1,0-0.1c0,0,0-0.1,0-0.1c0,0,0,0,0-0.1c0,0,0-0.1,0-0.1c0,0,0,0,0-0.1c0-0.1,0-0.1,0-0.2c0,0,0,0,0-0.1
								c0,0,0-0.1,0-0.1c0,0,0,0,0,0c0,0,0-0.1,0-0.1c0,0,0,0,0-0.1c0,0,0-0.1,0-0.1c0,0,0-0.1,0-0.1c0,0,0-0.1,0-0.1c0,0,0,0,0-0.1
								c0,0,0-0.1,0-0.1c0,0,0,0,0-0.1c0,0,0-0.1,0-0.1c0,0,0,0,0-0.1c0,0,0-0.1,0-0.1c0,0,0,0,0-0.1c0,0,0-0.1,0-0.1c0,0,0,0,0,0
								c0,0,0,0,0,0c0-0.1,0-0.1,0-0.2c0-0.1,0.1-0.1,0-0.2c0.1,0,0-0.1,0.1-0.2c0.1,0,0-0.1,0-0.1c0.1,0,0-0.1,0.1-0.2c0,0,0,0,0,0
								c0,0,0-0.1,0-0.1c0,0,0,0,0-0.1c0,0,0-0.1,0-0.1c0,0,0,0,0-0.1c0,0,0-0.1,0-0.1c0,0,0,0,0-0.1c0,0,0-0.1,0-0.1c0,0,0,0,0,0
								c0,0,0-0.1,0-0.2c0,0,0,0,0,0c0,0,0-0.1,0-0.1c0,0,0,0,0-0.1c0-0.1,0-0.1,0-0.2c0,0,0,0,0-0.1c0,0,0-0.1,0-0.1c0,0,0,0,0-0.1
								c0,0,0-0.1,0-0.1c0,0,0,0,0-0.1c0,0,0-0.1,0-0.1c0,0,0,0,0,0c0-0.1,0-0.1,0-0.2c0,0,0,0,0,0c0,0,0-0.1,0-0.1c0,0,0,0,0-0.1
								c0,0,0-0.1,0-0.1c0.1,0,0-0.1,0.1-0.2c0-0.1,0-0.1,0-0.1c0,0,0,0,0-0.1c0,0,0-0.1,0-0.1c0,0,0,0,0,0c0,0,0-0.1,0-0.1
								c0,0,0,0,0-0.1c0,0,0-0.1,0-0.1c0,0,0-0.1,0-0.1c0,0,0,0,0-0.1c0,0,0-0.1,0-0.1c0,0,0-0.1,0-0.1c0,0,0,0,0-0.1
								c0,0,0-0.1,0-0.1c0,0,0,0,0,0c0,0,0-0.1,0-0.1c0,0,0,0,0-0.1c0-0.1,0.1-0.2,0-0.3c0,0,0,0,0-0.1c0-0.1,0-0.1,0-0.2
								c0,0,0,0,0-0.1c0,0,0-0.1,0-0.1c0,0,0,0,0-0.1c0,0,0-0.1,0-0.1c0,0,0,0,0,0c0-0.1,0-0.1,0-0.2c0,0,0,0,0,0c0,0,0-0.1,0-0.1
								c0,0,0,0,0,0c0-0.1,0-0.1,0-0.2c0,0,0,0,0-0.1c0-0.1,0-0.1,0-0.2c0,0,0,0,0-0.1c0-0.1,0-0.1,0-0.2c0,0,0,0,0,0
								c0-0.1,0-0.1,0-0.2c0,0,0,0,0,0c0,0,0-0.1,0-0.2c0,0,0-0.1,0-0.1c0,0,0,0,0,0c0-0.1,0-0.2,0-0.3c0.1-0.1,0.1-0.2,0.2-0.2
								c0,0,0,0,0,0c0,0,0,0.1,0,0.1c0,0,0,0,0,0.1c0,0.1,0,0.2,0,0.2c0,0,0,0,0,0c0,0.1,0,0.2,0,0.3c0,0,0,0,0,0c0,0.1,0,0.3,0,0.4
								c0,0,0,0,0,0c0,0.1,0,0.2,0,0.3c0,0,0,0,0,0.1c0,0.1,0,0.1,0,0.2c0,0,0,0,0,0.1c0,0.1,0,0.2,0,0.2c0,0,0,0,0,0
								c0,0.1,0,0.1,0,0.2c0,0,0,0,0,0c0,0.1,0,0.2,0,0.2c0,0,0,0,0,0c0,0.1,0,0.1,0,0.2c0,0,0,0,0,0c0,0,0,0.1,0,0.1c0,0,0,0,0,0.1
								c0,0.1,0,0.1,0,0.2c0,0,0,0,0,0c0,0,0,0.1,0,0.1c0,0,0,0,0,0c0,0,0,0.1,0,0.1c0,0,0,0-0.1,0.1c0,0,0,0.1,0,0.1c0,0,0,0,0,0
								c0,0,0,0.1,0,0.1c0,0,0,0,0,0.1c0,0,0,0.1,0,0.1c0,0,0,0,0,0.1c0,0,0,0.1,0,0.1c0,0,0,0,0,0.1c0,0,0,0.1,0,0.1c0,0,0,0,0,0.1
								c0,0,0,0.1,0,0.1c0,0,0,0.1,0,0.1c0,0,0,0.1,0,0.1c0,0,0,0.1,0,0.1c0,0,0,0.1,0,0.1c0,0,0,0.1,0,0.1c0,0,0,0,0,0.1
								c0,0,0,0.1,0,0.1c0,0,0,0,0,0.1c0,0,0,0.1,0,0.1c0,0,0,0,0,0c0,0,0,0.1,0,0.1c0,0,0,0,0,0c0,0.1,0,0.1,0,0.2c0,0,0,0,0,0
								c0,0.1,0,0.1,0,0.2c0,0,0,0,0,0c0,0.1,0,0.1,0,0.2c0,0,0,0,0,0.1c0,0.1,0,0.1,0,0.2c0,0,0,0,0,0c0,0.1,0,0.2,0,0.2
								c0,0,0,0,0,0c0,0.1,0,0.1,0,0.2c0,0,0,0-0.1,0.1c0,0.1,0,0.1,0,0.2c0,0,0,0,0,0c0,0.1,0,0.1,0,0.2c0,0,0,0,0,0.1
								c0,0,0,0.1,0,0.1c0,0,0,0,0,0.1c0,0,0,0.1,0,0.1c0,0,0,0,0,0c0,0,0,0.1,0,0.1c0,0,0,0,0,0.1c0,0.1-0.1,0.2,0,0.2
								c0,0,0,0-0.1,0.1c0,0,0,0.1,0,0.1c0,0,0,0,0,0.1c0,0,0,0.1,0,0.1c0,0,0,0,0,0.1c0,0,0,0.1,0,0.1c-0.1,0,0,0.1,0,0.1
								c-0.1,0,0,0.1-0.1,0.1c0,0,0,0.1,0,0.1c0,0-0.1,0.1,0,0.1c0,0,0,0,0,0c0,0,0,0.1,0,0.1c0,0,0,0,0,0c0,0,0,0.1,0,0.2
								c0,0,0,0,0,0c0,0,0,0,0,0.1c0,0,0,0.1,0,0.1c0,0,0,0.1,0,0.1c0,0,0,0,0,0.1c0,0,0,0.1,0,0.1c0,0,0,0.1,0,0.1
								C311.5,15,311.5,15,311.5,15.1C311.5,15.1,311.5,15.1,311.5,15.1z"/>
							<path class="st7" d="M323.1,24.5c0,0-0.1-0.1-0.1-0.1c0-0.1,0-0.1,0-0.1c0,0,0-0.1-0.1-0.1c0,0,0-0.1,0-0.1
								c0,0-0.1-0.1-0.1-0.1c0-0.1-0.1-0.2-0.1-0.3c0,0,0,0,0-0.1c0,0,0,0,0-0.1c0,0,0-0.1,0-0.1c-0.1,0,0-0.1,0-0.1
								c-0.1,0,0-0.1-0.1-0.1c0,0,0-0.1,0-0.1c0,0-0.1-0.1,0-0.1c0,0,0,0,0,0c0,0,0-0.1,0-0.1c0,0,0,0,0-0.1c0,0,0-0.1,0-0.1
								c-0.1,0,0-0.1,0-0.1c-0.1,0,0-0.1-0.1-0.1c0,0,0-0.1,0-0.1c0,0-0.1-0.1,0-0.1c0,0,0,0,0,0c0,0,0,0,0-0.1c0,0,0-0.1-0.1-0.1
								c0,0,0-0.1,0-0.1c0,0-0.1-0.1-0.1-0.1c0,0,0-0.1,0-0.1c0,0,0-0.1,0-0.1c0,0,0,0,0-0.1c0,0,0-0.1,0-0.1c0,0,0,0,0,0
								c0-0.1,0-0.1,0-0.1c0,0,0-0.1,0-0.1c0,0,0-0.1,0-0.1c0,0,0-0.1-0.1-0.1c0,0,0-0.1,0-0.1c0,0,0,0,0-0.1c0,0,0-0.1,0-0.1
								c0,0,0,0,0-0.1c0,0,0-0.1,0-0.1c0,0,0,0,0-0.1c0,0,0-0.1,0-0.1c0,0,0,0,0,0c-0.1,0,0-0.1-0.1-0.2c0,0,0-0.1,0-0.1
								c0,0,0-0.1-0.1-0.1c0,0,0-0.1,0-0.1c0,0,0,0,0,0c0,0,0-0.1,0-0.1c0,0,0-0.1,0-0.1c0,0,0-0.1,0-0.1c0,0,0-0.1,0-0.1
								c0,0,0,0,0-0.1c0,0,0-0.1,0-0.1c0,0,0,0,0-0.1c0,0,0-0.1,0-0.1c0,0,0,0,0,0c0,0,0-0.1,0-0.1c0-0.1,0-0.1,0-0.2
								c-0.1,0,0-0.1,0-0.2c0,0,0,0,0-0.1c0,0,0-0.1,0-0.1c0,0,0,0,0-0.1c0,0,0-0.1,0-0.1c0,0,0,0,0-0.1c0,0,0-0.1,0-0.1
								c0,0,0,0,0,0c0,0,0-0.1,0-0.1c0,0,0,0,0-0.1c0,0,0-0.1,0-0.2c0,0,0,0,0-0.1c0,0,0-0.1,0-0.1c0,0,0,0,0-0.1c0-0.1,0-0.1,0-0.2
								c0,0,0,0,0-0.1c0,0,0-0.1,0-0.1c0,0,0,0,0-0.1c0,0,0-0.1,0-0.1c0,0,0,0,0,0c0,0,0-0.1,0-0.1c0,0,0-0.1,0-0.1
								c0-0.1-0.1-0.1,0-0.2c0,0-0.1-0.1-0.1-0.2c0-0.1-0.1-0.1-0.1-0.2c-0.1,0,0-0.1-0.1-0.2c0-0.1-0.1-0.1-0.1-0.2
								c0,0-0.1-0.1,0-0.1c0,0-0.1-0.1-0.1-0.1c0-0.1-0.1-0.1-0.1-0.2c0-0.1-0.1-0.1-0.1-0.2c-0.1,0,0-0.1-0.1-0.2c0,0,0,0,0,0
								c0,0,0-0.1,0-0.1c0,0,0,0,0-0.1c0,0,0-0.1,0-0.1c0,0,0,0,0-0.1c0,0,0-0.1,0-0.1c0,0,0,0,0,0c0-0.1-0.1-0.2-0.1-0.3
								c0,0,0,0,0-0.1c0,0,0-0.1,0-0.1c0,0,0,0,0-0.1c0-0.1,0-0.1,0-0.2c0,0,0,0,0-0.1c0-0.1,0-0.1,0-0.2c0,0,0,0,0,0
								c0-0.1,0-0.2,0-0.2c0,0,0,0,0,0c0,0,0-0.1,0-0.1c0,0,0.1,0.1,0.1,0.1c0.1,0,0.1,0,0.1,0.1c0,0,0,0.1,0.1,0.1c0,0,0,0.1,0,0.2
								c0,0,0,0,0,0c0,0,0,0.1,0,0.1c0.1,0,0,0.1,0.1,0.2c0,0,0,0.1,0,0.1c0,0,0,0,0,0.1c0,0,0,0.1,0,0.1c0,0,0,0,0,0.1
								c0,0,0,0.1,0,0.1c0,0,0,0,0,0c0,0,0,0.1,0,0.1c0,0,0,0.1,0,0.1c0,0,0,0.1,0,0.1c0,0,0,0.1,0,0.1c0,0,0,0,0,0c0,0,0,0.1,0,0.1
								c0,0,0,0,0,0.1c0,0,0,0.1,0,0.1c0.1,0,0,0.1,0,0.1c0.1,0,0,0.1,0.1,0.1c0,0,0,0.1,0,0.1c0,0,0.1,0.1,0,0.1c0,0,0,0,0,0
								c0,0,0,0.1,0,0.1c0,0,0,0,0,0.1c0,0,0,0.1,0,0.1c0,0,0,0,0,0.1c0,0.1,0,0.1,0.1,0.2c0,0.1,0.1,0.1,0.1,0.2c0,0,0,0,0,0
								c0,0,0,0.1,0,0.1c0,0,0,0,0,0.1c0,0,0,0.1,0,0.1c0,0,0,0,0,0.1c0,0,0,0.1,0,0.1c0,0,0,0,0,0c0,0,0,0.1,0,0.1c0,0,0,0,0,0.1
								c0,0,0,0.1,0,0.1c0.1,0,0,0.1,0.1,0.2c0,0.1,0,0.1,0,0.1c0,0,0,0,0,0.1c0,0,0,0.1,0,0.1c0,0,0,0,0,0.1c0,0,0,0.1,0,0.1
								c0,0,0,0,0,0c0,0,0,0.1,0,0.1c0,0,0,0.1,0,0.1c0,0,0,0.1,0,0.1c0,0,0,0.1,0.1,0.2c0,0,0,0.1,0,0.1c0,0,0,0,0,0.1
								c0,0,0,0.1,0,0.1c0,0,0,0,0,0c0,0,0,0.1,0,0.1c0,0,0,0.1,0,0.1c0.1,0,0,0.1,0,0.1c0,0,0,0.1,0.1,0.1c0,0,0,0.1,0.1,0.1
								c0,0.1,0.1,0.1,0,0.2c0,0,0,0.1,0,0.1c0,0,0,0.1,0,0.1c0,0,0,0.1,0,0.1c0,0,0,0,0,0.1c0,0,0,0.1,0,0.1c0,0,0,0,0,0.1
								c0,0,0,0.1,0,0.1c0,0,0,0,0,0c0,0.1,0.1,0.3,0.1,0.4c0,0,0,0.1,0,0.1c0,0,0,0,0,0.1c0,0,0,0.1,0,0.1c0,0,0,0,0,0.1
								c0,0,0,0.1,0,0.1c0,0,0,0,0,0c0,0,0,0.1,0,0.1c0,0,0.1,0.1,0,0.1c0,0,0,0.1,0,0.1c0,0,0,0.1,0,0.1c0,0,0,0.1,0,0.1
								c0,0,0,0,0,0.1c0,0,0,0.1,0,0.1c0,0,0,0,0,0.1c0,0,0,0.1,0,0.1c0,0,0,0,0,0c0,0,0,0.1,0,0.1c0,0,0,0,0,0.1
								c0,0.1,0.1,0.2,0,0.2c0,0,0,0,0.1,0.1c0,0,0,0.1,0,0.1c0,0,0,0,0,0.1c0,0,0,0.1,0,0.1c0,0,0,0,0,0.1c0,0,0,0.1,0,0.1
								c0,0,0,0,0,0c0,0,0,0.1,0,0.1c0,0,0,0,0,0.1c0,0,0,0.1,0,0.2c0,0,0,0.1,0,0.2c0,0,0,0,0,0c0,0,0,0.1,0,0.1c0,0,0,0,0,0.1
								c0,0,0,0.1,0,0.1c0,0,0,0,0,0.1c0,0,0,0.1,0,0.1c0,0,0,0,0,0.1c0,0.1,0,0.1,0.1,0.2c0,0.1,0,0.1,0.1,0.2c0,0,0,0,0,0
								c0,0,0,0.1,0,0.1c0,0,0,0,0,0.1C323.1,24.4,323.1,24.4,323.1,24.5z"/>
							<path class="st7" d="M314.1,5.5C314.1,5.5,314.1,5.5,314.1,5.5C314.1,5.5,314.1,5.5,314.1,5.5c0-0.2,0-0.3,0-0.4c0,0,0,0,0,0
								c0-0.1,0-0.2,0-0.2c0-0.1,0-0.1,0.1-0.1c0.1,0,0.1,0.1,0.1,0.2c0,0,0,0.1,0,0.1c0,0,0,0,0,0c0,0,0,0.1,0,0.1
								c0,0.1,0,0.2,0,0.4c0,0,0,0,0,0c0,0.1,0,0.1,0,0.2c0,0,0,0,0,0c0,0.1,0,0.2,0,0.2c0,0,0,0,0,0c0,0.1,0,0.1,0,0.2c0,0,0,0,0,0
								c0,0.1,0,0.1,0,0.2c0,0,0,0,0,0.1c0,0,0,0.1,0,0.1c0,0,0,0,0,0c0,0.1,0,0.1,0,0.2c0,0,0,0,0,0c0,0,0,0.1,0,0.1c0,0,0,0,0,0
								c0,0.1,0,0.1,0,0.2c0,0,0,0,0,0c0,0,0,0.1,0,0.1c0,0,0,0,0,0c0,0,0,0.1,0,0.1c0,0,0,0,0,0.1c0,0,0,0.1,0,0.1c0,0,0,0,0,0
								c0,0,0,0.1,0,0.1c0,0,0,0,0,0c0,0,0,0.1,0,0.1c0,0,0,0,0,0.1c0,0.1,0,0.1,0,0.1c0,0,0,0.1,0,0.1c0,0,0,0.1-0.1,0.1
								c0,0.1-0.1,0.1-0.1,0.2c0,0,0,0,0,0c0,0,0-0.1,0-0.1c0,0,0,0,0,0c0,0,0-0.1,0-0.1c0,0,0,0,0-0.1c0-0.1,0.1-0.2,0-0.3
								c0,0,0,0,0-0.1c0,0,0-0.1,0-0.1c0,0,0,0,0-0.1c0-0.1,0-0.1,0-0.2c0,0,0,0,0,0c0-0.1,0-0.1,0-0.2c0,0,0,0,0,0
								c0-0.1,0-0.1,0-0.2c0,0,0,0,0,0c0-0.1,0-0.2,0-0.2c0,0,0,0,0,0c0-0.1,0-0.2,0-0.2c0,0,0,0,0,0c0-0.1,0-0.2,0-0.2c0,0,0,0,0,0
								c0-0.1,0-0.1,0-0.2c0,0,0,0,0-0.1c0-0.1,0-0.2,0-0.3c0,0,0,0,0,0C314.1,5.8,314.1,5.7,314.1,5.5z"/>
							<path class="st7" d="M311.6,26.5C311.6,26.5,311.6,26.5,311.6,26.5C311.5,26.6,311.5,26.6,311.6,26.5c-0.2,0-0.3,0-0.4,0
								c0,0,0,0,0,0c0,0,0,0,0,0c-0.1,0-0.2,0-0.3,0c0,0,0,0,0,0c-0.1,0-0.1,0-0.2,0c0,0,0,0-0.1,0.1c-0.1,0-0.2,0-0.3,0
								c0,0,0,0,0,0c-0.1,0-0.1,0-0.2,0c0,0,0,0-0.1,0c-0.1,0-0.1,0-0.2,0c0,0-0.1-0.1-0.1-0.1c0-0.1,0-0.1,0-0.2c0,0,0,0,0,0
								c0.5,0,0.9,0,1.4,0c0,0,0,0,0,0c0.1,0,0.2,0,0.3,0C311.5,26.4,311.5,26.4,311.6,26.5c0-0.1,0.1-0.1,0.1-0.1c0,0,0,0,0,0
								c0.3,0,0.6,0,0.8,0c0,0,0,0-0.1,0c0,0,0,0,0,0c-0.1,0-0.3,0-0.4,0c0,0,0,0,0,0C311.9,26.5,311.7,26.5,311.6,26.5z"/>
							<path class="st7" d="M317.8,26.1C317.8,26.1,317.8,26,317.8,26.1C317.8,26,317.9,26,317.8,26.1c0.7,0,1.2,0,1.8,0
								c0,0,0,0,0,0c0.1,0,0.3,0,0.4,0c0,0,0,0,0.1,0c0,0,0,0,0.1,0c0,0,0.1,0.1,0.1,0.1c0,0,0,0-0.1,0c-0.1,0-0.2,0-0.3,0
								c0,0,0,0,0,0c-0.3,0-0.6,0-0.9,0c0,0,0,0,0,0c-0.1,0-0.3,0-0.5,0c0,0,0,0,0,0c-0.1,0-0.3,0-0.4,0c0,0,0,0,0,0
								c-0.1,0-0.3,0-0.4,0c0,0,0,0,0,0C317.6,26.1,317.6,26.1,317.8,26.1z"/>
							<path class="st7" d="M321.8,22.6c0.1,0,0,0.1,0,0.1c0,0,0.1,0,0,0.1c0,0,0,0.1,0,0.1c0,0,0,0.1,0,0.1c0,0,0,0,0,0.1
								c0,0,0,0.1,0,0.1c0,0,0,0,0,0c0,0.1,0.1,0.1,0.1,0.2c0.1,0,0,0.1,0.1,0.2c0,0,0,0.1,0.1,0.2c0,0,0,0.1,0,0.1c0,0,0,0.1,0,0.1
								c0,0.1,0,0.2,0.1,0.3c0,0.1,0,0.1,0.1,0.2c0,0.1,0,0.1,0.1,0.2c0,0.1,0.1,0.1,0,0.2c0,0,0,0,0,0.1c0,0.1,0.1,0.1,0.1,0.1
								c0,0,0,0.1,0,0.1c0,0,0.1,0.1,0,0.1c0,0,0,0.1,0.1,0.1c0.1,0,0,0.1,0,0.1c0,0,0,0.1,0,0.1c0,0,0.1,0.1,0,0.1c0,0-0.1,0-0.1,0
								c-0.1-0.1-0.1-0.1-0.2-0.2c0,0,0-0.1,0-0.1c0,0,0-0.1,0-0.1c-0.1,0,0-0.1,0-0.1c0,0,0-0.1-0.1-0.1c0,0,0-0.1-0.1-0.1
								c0,0,0,0,0-0.1c0,0,0,0,0,0c0,0,0-0.1,0-0.1c0,0,0,0,0,0c0,0,0-0.1,0-0.1c0,0,0,0,0-0.1c0,0,0-0.1,0-0.1c0,0,0-0.1,0-0.1
								c0-0.1,0-0.1,0-0.1c0,0,0-0.1,0-0.1c0,0,0-0.1,0-0.1c0,0,0,0,0,0c0,0,0-0.1,0-0.1c0,0,0,0,0-0.1c0,0,0-0.1,0-0.1
								c0,0,0,0,0-0.1c0,0,0-0.1,0-0.1c0,0,0,0,0,0c0-0.1,0-0.1,0-0.1c0,0,0-0.1,0-0.1c0-0.1,0-0.1,0-0.1c0,0,0-0.1,0-0.1
								c0,0,0-0.1,0-0.1c0,0,0,0,0,0C321.8,22.8,321.8,22.7,321.8,22.6z"/>
							<path class="st7" d="M310.7,19.8c0,0.1,0,0.1,0,0.2c0,0,0,0,0,0c0,0,0,0.1,0,0.1c0,0,0,0,0,0c0,0.1,0,0.1,0,0.2c0,0,0,0,0,0
								c0,0,0,0.1,0,0.1c0,0,0,0,0,0c0,0,0,0.1,0,0.1c0,0,0,0,0,0.1c0,0,0,0.1,0,0.1c0,0,0,0,0,0.1c0,0,0,0.1,0,0.1c0,0,0,0,0,0
								c0,0.1,0,0.1,0,0.2c0,0,0,0,0,0c0,0,0,0.1,0,0.1c0,0,0,0,0,0.1c0,0,0,0.1,0,0.2c0,0,0,0,0,0.1c0,0,0,0.1,0,0.1c0,0,0,0,0,0
								c0,0.1,0,0.1,0,0.2c0,0,0,0,0,0.1c0,0.1,0,0.1,0,0.2c0,0,0,0,0,0.1c0,0.1,0,0.1,0,0.2c0,0,0,0,0,0c0,0.1,0,0.1,0,0.2
								c0,0,0,0,0,0c0,0.1,0,0.1,0,0.2c0,0,0,0-0.1,0.1c0,0,0,0.1,0,0.1c0,0,0,0,0,0c0,0.1,0,0.1,0,0.2c0,0.1-0.1,0.2-0.1,0.2
								c0,0,0,0-0.1,0c0,0,0,0,0-0.1c0,0,0-0.1,0-0.2c0,0,0,0,0,0c0-0.1,0-0.1,0-0.2c0,0,0,0,0,0c0-0.1,0-0.1,0-0.2c0,0,0,0,0,0
								c0-0.1,0-0.1,0-0.2c0,0,0,0,0,0c0,0,0-0.1,0-0.1c0,0,0,0,0-0.1c0,0,0-0.1,0-0.1c0,0,0,0,0,0c0-0.1,0-0.1,0-0.2c0,0,0,0,0,0
								c0,0,0-0.1,0-0.1c0,0,0-0.1,0-0.1c0,0,0-0.1,0-0.1c0,0,0,0,0-0.1c0-0.1,0-0.1,0-0.2c0,0,0,0,0-0.1c0,0,0-0.1,0-0.1
								c0,0,0,0,0,0c0-0.1,0-0.1,0-0.2c0,0,0,0,0,0c0,0,0-0.1,0-0.1c0,0,0,0,0.1-0.1c0,0,0-0.1,0-0.1c0,0,0-0.1,0-0.1
								c0,0,0-0.1,0-0.1c0,0,0,0,0-0.1c0,0,0-0.1,0-0.1c0,0,0,0,0-0.1c0,0,0-0.1,0-0.1c0,0,0,0,0-0.1c0,0,0-0.1,0-0.1c0,0,0,0,0,0
								c0,0,0-0.1,0-0.1c0,0,0,0,0,0C310.7,19.9,310.7,19.8,310.7,19.8z"/>
							<path class="st7" d="M320.2,17.4C320.1,17.4,320.1,17.4,320.2,17.4c0-0.1,0-0.1-0.1-0.2c0,0,0-0.1,0-0.1c0,0,0,0,0-0.1
								c0,0,0-0.1,0-0.1c0,0,0,0,0-0.1c0,0,0-0.1,0-0.1c0,0,0,0,0,0c0,0,0-0.1,0-0.1c0,0,0,0,0-0.1c0,0,0-0.1,0-0.1c0,0,0,0,0,0
								c0-0.1,0-0.1,0-0.2c0,0,0-0.1,0-0.1c0,0,0-0.1,0-0.1c0,0,0,0,0-0.1c0,0,0-0.1,0-0.1c0,0,0,0,0,0c0,0,0-0.1,0-0.1c0,0,0,0,0,0
								c0,0,0-0.1,0-0.1c0,0,0.1,0.1,0.1,0.2c0,0,0,0.1,0,0.1c0,0,0,0.1,0.1,0.1c0,0,0,0.1,0,0.1c0,0,0,0,0,0c0,0,0,0.1,0,0.1
								c0,0,0,0,0,0.1c0,0.1,0,0.1,0,0.1c0,0,0,0.1,0,0.1c0,0,0,0.1,0,0.1c0,0,0,0.1,0,0.1c0,0,0,0.1,0.1,0.2c0,0,0,0.1,0,0.1
								c0,0,0,0,0,0.1c0,0.1,0,0.1,0,0.2c0,0,0,0,0,0C320.2,17.3,320.2,17.3,320.2,17.4z"/>
							<path class="st7" d="M319.1,13.8c-0.1,0,0-0.1,0-0.1c0,0,0,0,0-0.1c0,0,0-0.1,0-0.1c0,0,0,0,0-0.1c0,0,0-0.1,0-0.1
								c0,0,0,0,0-0.1c0-0.1,0-0.1,0-0.2c0,0,0,0,0,0c0,0,0.1,0,0.1,0.1c0,0.1,0,0.1,0,0.2c0,0,0,0,0,0c0,0.1,0,0.1,0,0.2
								c0,0,0,0,0,0C319.1,13.7,319.1,13.8,319.1,13.8z"/>
							<path class="st7" d="M320.2,17.4c0,0.1,0,0.1,0,0.2C320.2,17.5,320.2,17.5,320.2,17.4z"/>
							<path class="st7" d="M319.1,13.8c0,0.1,0,0.1,0,0.2C319.1,13.9,319.1,13.9,319.1,13.8z"/>
							<path class="st7" d="M310.7,19.8c0-0.1,0-0.1,0-0.2C310.8,19.7,310.8,19.7,310.7,19.8C310.8,19.8,310.8,19.8,310.7,19.8z"/>
							<path class="st7" d="M320.3,17.9c0-0.1,0-0.1,0-0.1C320.3,17.8,320.3,17.8,320.3,17.9z"/>
							<path class="st7" d="M320.4,18.2c0-0.1,0-0.1,0-0.1C320.4,18.1,320.4,18.1,320.4,18.2z"/>
							<path class="st7" d="M319.6,15.6C319.6,15.6,319.6,15.6,319.6,15.6c0-0.1,0-0.1,0-0.1c0,0,0,0,0,0
								C319.6,15.5,319.6,15.5,319.6,15.6z"/>
							<path class="st7" d="M319.6,15.4C319.6,15.4,319.5,15.4,319.6,15.4c0-0.1,0-0.1,0-0.1c0,0,0,0,0,0
								C319.6,15.4,319.6,15.4,319.6,15.4z"/>
							<path class="st7" d="M321.8,22.5c0-0.1,0-0.1,0-0.1C321.8,22.4,321.8,22.5,321.8,22.5z"/>
							<path class="st7" d="M321.8,22.7C321.8,22.7,321.8,22.6,321.8,22.7c0-0.1,0-0.1,0-0.1c0,0,0,0,0,0
								C321.8,22.6,321.8,22.6,321.8,22.7z"/>
							<path class="st7" d="M323.2,24.6C323.1,24.6,323.1,24.6,323.2,24.6c0-0.1,0-0.1,0-0.1c0,0,0,0,0,0
								C323.2,24.5,323.2,24.6,323.2,24.6z"/>
							<path class="st7" d="M313.1,10.6c0-0.1,0-0.1,0-0.1C313.1,10.4,313.1,10.4,313.1,10.6z"/>
							<path class="st7" d="M313.2,10.4c0-0.1,0-0.1,0-0.1C313.2,10.3,313.2,10.3,313.2,10.4z"/>
							<path class="st7" d="M313.2,10.2c0-0.1,0-0.1,0-0.1C313.2,10.1,313.2,10.1,313.2,10.2z"/>
							<path class="st7" d="M313.3,9.9C313.3,9.9,313.3,9.9,313.3,9.9C313.3,9.9,313.3,9.9,313.3,9.9C313.2,9.9,313.2,9.9,313.3,9.9
								C313.2,9.9,313.2,9.9,313.3,9.9C313.3,9.9,313.3,9.9,313.3,9.9z"/>
							<path class="st7" d="M313.1,10.7C313.1,10.7,313.1,10.7,313.1,10.7C313.1,10.7,313.1,10.6,313.1,10.7
								C313.1,10.6,313.1,10.7,313.1,10.7C313.1,10.7,313.1,10.7,313.1,10.7C313.1,10.7,313.1,10.7,313.1,10.7z"/>
							<path class="st7" d="M319.2,14.1C319.1,14.1,319.1,14.1,319.2,14.1C319.2,14.1,319.2,14.1,319.2,14.1z"/>
							<path class="st7" d="M319.5,15.2C319.4,15.1,319.4,15.1,319.5,15.2C319.5,15.1,319.5,15.1,319.5,15.2z"/>
							<path class="st7" d="M319.5,15.3C319.5,15.3,319.5,15.3,319.5,15.3C319.6,15.2,319.5,15.3,319.5,15.3z"/>
							<path class="st7" d="M320.3,17.6C320.3,17.6,320.3,17.7,320.3,17.6C320.3,17.7,320.2,17.7,320.3,17.6
								C320.2,17.7,320.2,17.7,320.3,17.6C320.2,17.7,320.2,17.7,320.3,17.6C320.2,17.6,320.3,17.6,320.3,17.6z"/>
							<path class="st7" d="M320.3,17.9C320.4,18,320.4,18,320.3,17.9C320.3,18,320.3,18,320.3,17.9z"/>
							<path class="st7" d="M310.8,19.6C310.8,19.5,310.8,19.5,310.8,19.6C310.8,19.5,310.8,19.5,310.8,19.6
								C310.8,19.5,310.8,19.5,310.8,19.6C310.8,19.5,310.8,19.5,310.8,19.6C310.8,19.6,310.8,19.6,310.8,19.6z"/>
							<path class="st7" d="M321.7,22.3C321.7,22.3,321.7,22.3,321.7,22.3C321.7,22.3,321.7,22.3,321.7,22.3z"/>
							<path class="st7" d="M323.2,24.6C323.2,24.6,323.2,24.6,323.2,24.6C323.2,24.7,323.2,24.6,323.2,24.6z"/>
							<path class="st7" d="M323.3,24.8C323.3,24.9,323.3,24.9,323.3,24.8C323.2,24.9,323.3,24.9,323.3,24.8z"/>
							<path class="st7" d="M323.3,24.8C323.2,24.8,323.2,24.8,323.3,24.8C323.3,24.8,323.3,24.8,323.3,24.8z"/>
							<path class="st7" d="M313.5,9.1C313.5,9.1,313.5,9.1,313.5,9.1C313.5,9.1,313.5,9.1,313.5,9.1z"/>
							<path class="st7" d="M321.7,22.1C321.7,22.1,321.7,22.2,321.7,22.1C321.6,22.2,321.6,22.1,321.7,22.1
								C321.6,22.1,321.6,22.1,321.7,22.1C321.7,22.1,321.7,22.1,321.7,22.1z"/>
						</g>
						<g>
							<path class="st8" d="M316.7,21.6c-0.1,0-0.1,0-0.2,0c-0.1,0-0.1,0-0.2,0c0,0,0,0,0-0.1c0-0.1,0-0.2,0-0.3c0,0,0-0.1,0-0.1
								c0-0.1,0-0.1,0-0.1c0,0,0-0.1,0-0.1c0-0.1,0-0.1,0-0.2c0-0.1,0-0.1,0-0.2c0,0,0-0.1,0-0.1c0,0,0-0.1,0-0.1
								c0.1,0,0.3,0,0.4-0.1c0.1,0,0.1,0.1,0.1,0.2c0,0,0,0.1,0,0.2c0,0.1,0,0.1,0,0.2c0,0,0,0.1,0,0.1c0,0.1,0,0.1,0,0.2
								c0,0,0,0.1,0,0.1c0,0,0,0.1,0,0.1c0,0.1,0,0.1,0,0.2C316.7,21.5,316.7,21.6,316.7,21.6z"/>
							<path class="st8" d="M312.5,22.1c0,0.1,0,0.1,0,0.1c0,0.1-0.1,0.3-0.1,0.4c0,0.1-0.1,0.3-0.1,0.4c0,0,0,0.1,0,0.1
								c0,0,0,0.1,0,0.1c-0.1,0-0.1,0-0.2,0c-0.1,0-0.1,0-0.2,0c0-0.1,0-0.1,0-0.2c0-0.1,0-0.1,0-0.2c0-0.1,0-0.1,0-0.2c0,0,0,0,0,0
								c0-0.1,0-0.2,0-0.4c0-0.1,0-0.2,0-0.4c0.1,0,0.1,0,0.2,0c0,0,0.1,0,0.1,0C312.3,22.1,312.4,22,312.5,22.1
								C312.4,22.1,312.4,22.1,312.5,22.1z"/>
							<path class="st8" d="M314,22.3C314.1,22.3,314.1,22.2,314,22.3C314.1,22.2,314.1,22.2,314,22.3c0.1-0.1,0.2-0.1,0.2-0.1
								c0.1,0,0.2,0,0.3,0.2c0,0.1,0,0.1,0,0.2c0,0.1,0,0.1,0,0.2c0,0.1,0,0.2,0,0.4c0,0.1,0,0.2,0,0.4c0,0.1,0,0.1,0,0.2
								c-0.1,0-0.2,0-0.3,0c0,0,0,0,0,0c0,0,0,0,0,0c0-0.3,0-0.6,0-1C314.1,22.5,314,22.4,314,22.3z"/>
							<path class="st8" d="M315.7,9.7c0.1,0,0.2,0,0.3,0c0,0,0,0.1,0,0.1c0,0.1,0,0.1,0,0.1c0,0,0,0.1,0,0.1c0,0,0,0.1,0,0.1
								c0,0.1,0,0.2,0,0.3c0,0.1,0,0.1,0,0.2c0,0.1,0,0.2,0,0.3c-0.1,0-0.2,0-0.4,0c0,0,0-0.1,0-0.1c0,0,0,0,0,0c0-0.3,0-0.7,0-1
								C315.7,9.8,315.7,9.8,315.7,9.7z"/>
							<path class="st8" d="M313.7,18.9c0.1,0,0.2,0,0.2,0.1c0.1,0,0.1,0.1,0.1,0.2c0,0,0,0,0,0c0,0.1,0,0.1,0,0.2c0,0,0,0.1,0,0.1
								c0,0.2,0,0.5,0,0.7c0,0.1,0,0.2-0.1,0.3c-0.1,0-0.1,0-0.2,0c0,0,0,0,0,0c0-0.3,0-0.6,0-0.8c0,0,0-0.1,0-0.1
								c0-0.1,0-0.2,0-0.3C313.7,19.1,313.7,19,313.7,18.9z"/>
							<path class="st8" d="M320.3,23.2c-0.1,0-0.2,0-0.3,0c0,0,0-0.1,0-0.1c0-0.1,0-0.3,0-0.4c0,0,0-0.1,0-0.1c0,0,0-0.1,0-0.1
								c0,0,0-0.1,0-0.1c0-0.1,0-0.1,0-0.2c0-0.1,0-0.1,0-0.2c0-0.1,0-0.1,0-0.2c0.1,0,0.2-0.1,0.3-0.1c0,0,0,0,0,0
								c0,0,0.1,0.1,0.1,0.2c0,0.1,0,0.1,0,0.2c0,0.1,0,0.1,0,0.2c0,0,0,0.1,0,0.1c0,0.1,0,0.1,0,0.2c0,0.1,0,0.1,0,0.1
								c0,0.1,0,0.1,0,0.2C320.3,23,320.3,23.1,320.3,23.2z"/>
							<path class="st8" d="M318.8,21.8c-0.1,0-0.2,0-0.3,0c0-0.1,0-0.2-0.1-0.3c0-0.1,0-0.1,0-0.1c0,0,0-0.1,0-0.1
								c0-0.2-0.1-0.3-0.1-0.5c0.1,0,0.2-0.1,0.4-0.1c0,0,0.1,0.1,0.1,0.1c0,0,0,0.1,0,0.1c0,0.1,0,0.3,0.1,0.4
								c0,0.1,0.1,0.2,0.1,0.4C318.8,21.7,318.8,21.7,318.8,21.8z"/>
							<path class="st8" d="M316,15.8c0,0,0,0.1,0,0.1c0,0,0,0.1,0,0.1c0,0.1,0,0.1,0,0.2c0,0.1,0,0.2,0,0.2c0,0.1,0,0.2,0,0.3
								c0,0.1-0.1,0.2-0.2,0.3c0,0,0,0,0,0c0,0,0,0,0,0c0,0-0.1,0-0.1,0c0,0,0,0,0-0.1c0,0,0,0,0,0c0-0.1,0-0.3,0-0.4
								c0,0,0-0.1,0-0.1c0,0,0-0.1,0-0.1c0-0.1,0-0.2,0-0.2c0,0,0-0.1,0-0.1c0,0,0-0.1,0.1-0.1c0,0,0.1,0,0.1,0
								C315.9,15.8,315.9,15.8,316,15.8z"/>
							<path class="st8" d="M315.8,6.6C315.8,6.7,315.8,6.7,315.8,6.6c0,0.1,0,0.1,0,0.1c0,0.3,0,0.5,0,0.8c0,0.1-0.1,0.2-0.2,0.3
								c0,0,0,0-0.2,0c0-0.1,0-0.2,0-0.3c0-0.1,0-0.3,0-0.4c0-0.1,0-0.2,0-0.4C315.5,6.7,315.7,6.7,315.8,6.6z"/>
							<path class="st8" d="M318.1,24.3c-0.1,0-0.1,0-0.2,0c0,0,0,0,0,0c0,0,0,0,0,0c0-0.1,0-0.2,0-0.3c0-0.1,0-0.2,0-0.3
								c0-0.1,0-0.2-0.1-0.3c0-0.1,0-0.2-0.1-0.3c0.1,0,0.2-0.1,0.4-0.1c0,0,0,0.1,0,0.1c0,0,0,0.1,0,0.2c0,0.1,0,0.2,0,0.3
								c0,0,0,0,0,0.1c0,0.1,0,0.2,0.1,0.3C318.1,24.2,318.1,24.3,318.1,24.3z"/>
							<path class="st8" d="M317.4,14.3c0,0,0,0.1-0.1,0.1c-0.1,0-0.1,0-0.2,0c0,0,0-0.1,0-0.1c0-0.2,0-0.4,0-0.6c0-0.1,0-0.2,0-0.3
								c0,0,0-0.1,0-0.1c0,0,0-0.1,0-0.1c0,0,0,0,0-0.1c0.1-0.1,0.2,0,0.3-0.1c0,0.1,0,0.1,0,0.2c0,0,0,0,0,0c0,0.1,0,0.1,0,0.2
								c0,0,0,0.1,0,0.1c0,0,0,0.1,0,0.1c0,0,0,0.1,0,0.1C317.4,14,317.5,14.2,317.4,14.3z"/>
							<path class="st8" d="M314.5,14.2c-0.1,0-0.1,0-0.2-0.1c0,0,0-0.1,0-0.2c0-0.1,0-0.1,0-0.2c0-0.1,0-0.1,0-0.2c0,0,0-0.1,0-0.1
								c0,0,0,0,0-0.1c0-0.1,0.1-0.3,0-0.4c0-0.1,0-0.2,0-0.4c0,0,0,0,0.1,0c0.1,0,0.1,0,0.2,0.1c0,0.1,0,0.1,0,0.2
								c0,0.1,0,0.1-0.1,0.2c0,0.1,0,0.2,0,0.3c0,0.1,0,0.2,0,0.3c0,0.1,0,0.1,0,0.2C314.6,14.1,314.6,14.1,314.5,14.2z"/>
							<path class="st8" d="M318.6,17.4c0,0,0,0.1,0.1,0.1c0,0,0,0.1,0,0.1c0,0.1,0,0.1,0,0.2c0,0.1,0,0.1,0,0.2
								c0,0.1,0,0.2,0.1,0.3c0,0.1,0.1,0.2,0.1,0.3c0,0.1,0.1,0.2,0.1,0.3c-0.1,0.1-0.1,0.1-0.2,0.1c0-0.1,0-0.2,0-0.2
								c0-0.1,0-0.2-0.1-0.3c0-0.1,0-0.1-0.1-0.2c0-0.1-0.1-0.2-0.1-0.3c0-0.1,0-0.2-0.1-0.2c0-0.1-0.1-0.2-0.1-0.2c0,0,0,0,0,0
								C318.4,17.4,318.5,17.4,318.6,17.4z"/>
							<path class="st8" d="M312.7,17c0.1-0.4,0.2-0.8,0.2-1.2c0.1,0,0.2,0,0.2,0.1c0,0,0,0.1,0,0.1c0,0,0,0.1,0,0.1
								c0,0,0,0.1,0,0.2c0,0,0,0.1,0,0.1c0,0,0,0.1,0,0.1c0,0,0,0,0,0c0,0,0,0.1,0,0.1c0,0,0,0.1,0,0.1c0,0.1,0,0.1,0,0.2
								C312.9,17,312.8,17,312.7,17z"/>
						</g>
					</g>
					<g>
						<path class="st9" d="M317.7,15c0.1-0.3,0.1-0.3,0.4-0.5c0,0,0.1,0,0.1,0c0,0,0.1,0,0.1,0c0.1,0,0.1,0.1,0.2,0.2
							c0.1,0.1,0,0.3-0.1,0.4c-0.1,0.1-0.1,0.2-0.3,0.3c-0.1,0.1-0.2,0.1-0.2,0.2c0,0,0,0,0,0c0,0.1,0,0.3,0,0.4c0,0.1,0,0.2,0,0.3
							c0,0.1,0,0.2,0,0.3c0,0.1,0,0.2,0,0.3c0,0.1,0,0.1,0,0.2c0,0,0,0-0.1,0.1c0,0,0,0-0.1,0c-0.1,0-0.1-0.1-0.1-0.2
							c0-0.2,0-0.3,0-0.5c0-0.2,0-0.3,0-0.5c0-0.1,0-0.2,0-0.3c-0.1-0.1-0.2-0.1-0.3-0.2c-0.1-0.1-0.1-0.2-0.2-0.2
							c-0.1-0.1-0.1-0.1-0.1-0.2c0,0,0,0,0-0.1c0,0,0-0.1,0-0.1c0,0,0.1-0.1,0.1-0.1c0.1,0,0.1,0,0.2,0c0,0,0.1,0,0.1,0.1
							C317.5,14.9,317.6,15,317.7,15z M318.1,14.8c-0.1,0.1-0.2,0.3-0.2,0.4c0,0,0,0,0,0.1c0,0,0,0,0,0.1c0.1-0.1,0.2-0.2,0.2-0.2
							c0.1-0.1,0.1-0.2,0.1-0.3C318.1,14.8,318.1,14.8,318.1,14.8z M317.6,15.5c0-0.2-0.2-0.4-0.4-0.5c0,0.1,0,0.1,0,0.2
							C317.3,15.3,317.5,15.4,317.6,15.5z"/>
						<path class="st9" d="M315.1,16.1c0.1-0.3,0.1-0.3,0.4-0.5c0,0,0.1,0,0.1,0c0,0,0.1,0,0.1,0c0.1,0,0.1,0.1,0.2,0.2
							c0.1,0.1,0,0.3-0.1,0.4c-0.1,0.1-0.1,0.2-0.3,0.3c-0.1,0.1-0.2,0.1-0.2,0.2c0,0,0,0,0,0c0,0.1,0,0.3,0,0.4c0,0.1,0,0.2,0,0.3
							c0,0.1,0,0.2,0,0.3c0,0.1,0,0.2,0,0.3c0,0.1,0,0.1,0,0.2c0,0,0,0-0.1,0.1c0,0,0,0-0.1,0c-0.1,0-0.1-0.1-0.1-0.2
							c0-0.2,0-0.3,0-0.5c0-0.2,0-0.3,0-0.5c0-0.1,0-0.2,0-0.3c-0.1-0.1-0.2-0.1-0.3-0.2c-0.1-0.1-0.1-0.2-0.2-0.2
							c-0.1-0.1-0.1-0.1-0.1-0.2c0,0,0,0,0-0.1c0,0,0-0.1,0-0.1c0,0,0.1-0.1,0.1-0.1c0.1,0,0.1,0,0.2,0c0,0,0.1,0,0.1,0.1
							C315,15.9,315.1,16,315.1,16.1z M315.5,15.9c-0.1,0.1-0.2,0.3-0.2,0.4c0,0,0,0,0,0.1c0,0,0,0,0,0.1c0.1-0.1,0.2-0.2,0.2-0.2
							c0.1-0.1,0.1-0.2,0.1-0.3C315.6,15.9,315.6,15.9,315.5,15.9z M315.1,16.5c0-0.2-0.2-0.4-0.4-0.5c0,0.1,0,0.1,0,0.2
							C314.8,16.4,314.9,16.4,315.1,16.5z"/>
						<path class="st9" d="M320.2,20.8c0,0,0,0.1,0,0.1c0,0.1,0,0.2-0.1,0.3c0,0.1-0.1,0.2-0.2,0.3c-0.1,0.1-0.2,0.2-0.2,0.2
							c-0.1,0-0.1,0-0.2,0c0,0.1,0,0.1,0,0.2c0,0.1,0,0.2,0,0.3c0,0.1,0,0.1,0,0.2c0,0.1,0,0.1,0,0.2c0,0.1,0,0.2,0,0.3
							c0,0,0,0.1-0.1,0.1c0,0-0.1,0-0.1,0c0,0,0,0,0-0.1c0-0.1,0-0.2,0-0.4c0,0,0-0.1,0-0.1c0,0,0-0.1,0-0.1c0,0,0,0,0,0
							c0-0.1,0-0.3,0-0.4c0,0,0-0.1,0-0.1c-0.1-0.1-0.2-0.2-0.4-0.3c-0.1-0.1-0.2-0.2-0.2-0.3c0,0,0-0.1,0-0.1c0,0,0,0,0-0.1
							c0,0,0,0,0-0.1c0,0,0,0,0-0.1c0,0,0-0.1,0.1-0.1c0.1,0,0.1-0.1,0.2-0.1c0.2,0,0.3,0.2,0.4,0.4c0,0,0,0,0,0
							c0-0.1,0.1-0.2,0.2-0.4c0.1-0.1,0.2-0.1,0.2-0.2C320,20.7,320.1,20.7,320.2,20.8C320.1,20.8,320.1,20.8,320.2,20.8z
							 M319.3,21.6C319.3,21.6,319.3,21.6,319.3,21.6C319.3,21.6,319.3,21.6,319.3,21.6C319.3,21.6,319.3,21.6,319.3,21.6
							C319.3,21.6,319.3,21.6,319.3,21.6c-0.1-0.2-0.2-0.3-0.3-0.4c0,0,0,0-0.1,0c0,0.1,0.1,0.2,0.1,0.3
							C319.1,21.5,319.2,21.5,319.3,21.6C319.3,21.6,319.3,21.6,319.3,21.6z M319.7,21.5c0.2-0.1,0.2-0.3,0.3-0.5c0,0,0,0,0-0.1
							c-0.1,0.1-0.1,0.1-0.2,0.2C319.7,21.2,319.6,21.3,319.7,21.5z"/>
						<path class="st9" d="M316.2,20.3c0.1,0,0.1,0,0.2,0c0,0,0,0,0,0c0.2,0.1,0.4,0.2,0.5,0.4c0.1-0.2,0.2-0.3,0.4-0.4c0,0,0,0,0,0
							c0.1,0,0.2,0.1,0.2,0.2c0,0,0,0.1,0,0.1c0,0.1,0,0.1,0,0.2c0,0.1,0,0.1-0.1,0.2c0,0.1-0.1,0.1-0.1,0.2
							c-0.1,0.1-0.2,0.2-0.3,0.2c0,0,0,0.1,0,0.2c0,0,0,0.1,0,0.2c0,0,0,0.1,0,0.2c0,0,0,0.1,0,0.2c0,0.1,0,0.1,0,0.2
							c0,0,0,0-0.1,0.1c0,0-0.1,0-0.1,0c-0.1-0.1-0.1-0.1-0.1-0.2c0,0,0,0,0,0c0-0.1,0-0.1,0-0.2c0,0,0-0.1,0-0.2c0,0,0,0,0,0
							c0-0.1,0-0.2,0-0.2c-0.1,0-0.2-0.1-0.3-0.2c-0.1-0.1-0.1-0.1-0.2-0.2c-0.1-0.1-0.1-0.2-0.1-0.3c0-0.1,0-0.1-0.1-0.2
							C316.1,20.6,316.1,20.5,316.2,20.3C316.2,20.4,316.2,20.3,316.2,20.3z M316.8,21.2C316.8,21.2,316.8,21.1,316.8,21.2
							c-0.1-0.2-0.1-0.2-0.1-0.3c0-0.1-0.1-0.2-0.2-0.2c0,0-0.1-0.1-0.1-0.1c0,0,0,0-0.1,0C316.4,20.9,316.5,21.1,316.8,21.2z
							 M317.1,21.1c0.2-0.1,0.3-0.4,0.3-0.5c0,0,0,0,0,0c-0.1,0-0.1,0.1-0.2,0.1c0,0.1-0.1,0.2-0.1,0.2
							C317.1,21,317,21.1,317.1,21.1z"/>
						<path class="st9" d="M316.4,9.7c0,0.1,0.1,0.1,0,0.2c0,0,0,0,0,0.1c0,0.2,0,0.4,0,0.6c0,0.1,0,0.1-0.1,0.2c0,0-0.1,0-0.1,0
							c0,0,0,0-0.1-0.1c0-0.3,0-0.5,0-0.8c-0.1,0-0.2-0.1-0.3-0.1c-0.1-0.1-0.2-0.1-0.2-0.2c-0.1-0.1-0.1-0.2-0.2-0.3
							c0-0.1,0-0.2,0-0.3c0-0.1,0.1-0.2,0.2-0.2c0.2,0,0.3,0.1,0.5,0.3c0-0.1,0.1-0.2,0.1-0.2c0-0.1,0.1-0.2,0.2-0.3
							c0,0,0.1,0,0.1,0c0.1,0,0.1,0.1,0.2,0.2c0,0,0,0.1,0,0.1c0,0.1,0,0.1,0,0.2c0,0.1,0,0.1,0,0.1c0,0.1-0.1,0.2-0.1,0.3
							C316.5,9.6,316.5,9.7,316.4,9.7C316.4,9.7,316.4,9.7,316.4,9.7z M316.2,9.6c0-0.1-0.1-0.1-0.1-0.2c-0.1-0.1-0.1-0.2-0.3-0.3
							c0,0-0.1-0.1-0.1-0.1c0,0,0,0,0,0C315.7,9.5,315.9,9.6,316.2,9.6z M316.4,9.4c0.1-0.2,0.1-0.3,0.1-0.5
							C316.4,9,316.4,9.2,316.4,9.4C316.4,9.4,316.4,9.4,316.4,9.4z"/>
						<path class="st9" d="M313.2,19.7c0,0,0,0.1,0,0.1c0,0,0,0.1,0,0.1c0,0,0,0,0,0c0,0.1,0,0.1,0,0.2c0,0.1,0,0.1,0,0.2
							c0,0.1,0,0.1,0,0.2c0,0,0,0.1,0,0.1c0,0-0.1,0-0.1,0c-0.1,0-0.1-0.1-0.1-0.1c0-0.3-0.1-0.7-0.1-1c-0.3-0.1-0.6-0.5-0.6-0.8
							c0,0,0.1-0.1,0.1-0.1c0.2-0.1,0.4,0,0.6,0.2c0,0,0,0,0,0c0-0.1,0-0.1,0.1-0.2c0,0,0.1-0.1,0.1-0.1c0-0.1,0.1,0,0.1,0
							c0,0,0.1,0,0.1,0.1c0,0,0.1,0.1,0.1,0.2c0.1,0.1,0,0.3,0,0.4c0,0.1-0.1,0.2-0.2,0.2c0,0-0.1,0.1-0.1,0.1
							C313.3,19.6,313.2,19.7,313.2,19.7z M312.6,18.9c0,0.1,0,0.1,0.1,0.2c0,0.1,0.1,0.1,0.1,0.2c0.1,0.1,0.1,0.1,0.2,0.1
							c0,0,0,0,0-0.1c-0.1-0.1-0.1-0.2-0.1-0.3C312.8,19,312.7,19,312.6,18.9C312.6,18.9,312.6,18.9,312.6,18.9z M313.2,19.3
							c0.1-0.1,0.1-0.1,0.1-0.2c0-0.1,0-0.2,0-0.2c-0.1,0-0.1,0.1-0.1,0.2C313.2,19.1,313.2,19.2,313.2,19.3z"/>
						<path class="st9" d="M315,12.8c0,0.1,0,0.1,0,0.2c0,0.2,0,0.5,0,0.7c0,0.1,0,0.1,0,0.2c0,0-0.1,0-0.1,0
							c-0.1,0-0.1-0.1-0.1-0.1c0-0.1,0-0.2,0-0.3c0-0.2,0-0.4,0-0.6c0,0,0,0,0-0.1c0,0,0-0.1-0.1-0.1c-0.1-0.1-0.2-0.2-0.3-0.3
							c-0.1-0.2-0.1-0.4,0-0.5c0,0,0-0.1,0.1-0.1c0,0,0,0,0.1,0c0,0,0.1,0,0.1,0c0.1,0,0.1,0.1,0.2,0.1c0.1,0.1,0.1,0.2,0.1,0.2
							c0,0,0,0.1,0,0.2c0.1-0.1,0.1-0.1,0.2-0.1c0.1,0,0.2,0,0.2,0c0,0,0.1,0.1,0.1,0.1c0,0.1,0,0.1,0,0.2c0,0.1-0.1,0.2-0.3,0.3
							C315.2,12.8,315.1,12.8,315,12.8z M314.8,12.4c0-0.1,0-0.2,0-0.2c0-0.1,0-0.2-0.1-0.3c0,0,0,0,0,0
							C314.6,12.1,314.6,12.3,314.8,12.4z M315.3,12.3C315.3,12.3,315.3,12.3,315.3,12.3c-0.1,0.1-0.1,0.1-0.2,0.1
							c0,0-0.1,0.1,0,0.1C315.2,12.5,315.3,12.5,315.3,12.3C315.3,12.3,315.3,12.3,315.3,12.3z"/>
						<g>
							<path class="st10" d="M315,18.9C315,18.9,315.1,18.9,315,18.9c0-0.1,0-0.1,0-0.2c0,0,0,0,0,0c-0.1-0.1-0.3-0.2-0.4-0.3
								c0,0,0,0.1-0.1,0.1c0,0,0,0.1,0,0.1c0,0,0,0,0,0.1c0,0,0,0.1,0,0.1C314.7,18.9,314.9,19,315,18.9C315,19,315,19,315,18.9z"/>
							<path class="st11" d="M315,19c-0.2-0.1-0.3-0.1-0.4-0.2c0,0,0,0,0,0c0,0,0,0,0,0.1c0,0.1,0,0.1,0,0.2c0,0,0,0,0,0
								c0,0,0,0.1,0,0.1c0.1,0.1,0.3,0.1,0.5,0.1C315.1,19.2,315.1,19.1,315,19z"/>
							<path class="st10" d="M315.1,19.3c-0.2,0-0.4,0-0.5-0.1c0,0.1,0,0.2,0,0.3c0.2,0.1,0.3,0.2,0.5,0.1
								C315.1,19.6,315.1,19.4,315.1,19.3z"/>
							<path class="st10" d="M314.7,19.9c0,0,0,0.1,0,0.1c0.1,0,0.1,0.1,0.1,0.1c0.1,0,0.1,0,0.2,0c0.1,0,0.1,0,0.1-0.1
								c0,0,0-0.1,0-0.1C315,19.9,314.8,19.9,314.7,19.9z"/>
							<path class="st11" d="M315.1,20c0-0.1,0-0.2,0-0.3c-0.2,0-0.4,0-0.5-0.1c0,0.1,0,0.2,0,0.3c0,0,0,0,0,0c0,0,0,0,0,0
								C314.8,19.9,315,19.9,315.1,20C315.1,20,315.1,20,315.1,20z"/>
							<path class="st11" d="M315.1,18.7c0-0.1,0-0.1,0.1-0.2c0-0.2-0.2-0.3-0.2-0.5c-0.1,0.1-0.2,0.1-0.2,0.3c0,0,0,0.1,0,0.1
								c0,0,0,0,0,0C314.8,18.6,314.9,18.6,315.1,18.7z"/>
							<path class="st10" d="M315.3,18c-0.1,0-0.1,0-0.1,0c0,0,0,0,0,0.1c0,0-0.1,0-0.1,0c0,0,0,0,0,0c0,0,0,0,0,0
								c0,0.2,0.2,0.3,0.2,0.5c0,0,0.1-0.1,0.1-0.1C315.2,18.3,315.3,18.1,315.3,18C315.3,18,315.3,18,315.3,18z"/>
							<path class="st11" d="M315.7,18.3C315.7,18.2,315.7,18.2,315.7,18.3c-0.1-0.2-0.1-0.2-0.2-0.2c0,0-0.1,0-0.2-0.1c0,0,0,0,0,0
								c-0.1,0.2-0.1,0.3-0.1,0.5c0,0,0,0,0,0c0,0,0.1,0,0.1,0.1c0,0,0,0,0,0C315.5,18.5,315.6,18.4,315.7,18.3z"/>
							<path class="st10" d="M315.8,18.6C315.8,18.6,315.8,18.5,315.8,18.6c0-0.1-0.1-0.2-0.1-0.2c0,0,0,0-0.1-0.1
								c-0.1,0.1-0.2,0.2-0.4,0.3c0,0.1,0,0.2,0,0.3C315.5,18.8,315.7,18.6,315.8,18.6C315.8,18.6,315.8,18.6,315.8,18.6z"/>
							<path class="st11" d="M315.8,18.6c-0.2,0.1-0.3,0.2-0.5,0.3c0,0.1,0,0.2,0,0.3c0,0,0,0,0,0c0.2-0.1,0.3-0.2,0.5-0.3
								C315.9,18.8,315.9,18.7,315.8,18.6C315.9,18.6,315.9,18.6,315.8,18.6z"/>
							<path class="st10" d="M315.4,19.1C315.4,19.1,315.5,19.2,315.4,19.1c0,0.1,0,0.1,0,0.1c0,0,0.1,0.1,0.1,0.1
								c0.1,0,0.1,0,0.2,0c0-0.1,0.1-0.1,0.1-0.2c0-0.1,0-0.2,0-0.3C315.7,19,315.6,19.1,315.4,19.1z"/>
						</g>
						<g>
							<path class="st12" d="M315.3,13.7c-0.1,0-0.1-0.1-0.1-0.1c-0.1,0-0.1,0-0.1-0.1c-0.1,0-0.2,0-0.3,0c0,0,0,0-0.1,0.1
								c0,0-0.1,0-0.1,0c0,0,0,0-0.1,0.1c0,0,0,0,0,0c-0.1,0.1-0.2,0.2-0.3,0.3c0,0.1-0.1,0.2-0.1,0.3c0,0,0,0.1,0,0.1
								C314.6,14.2,315,14,315.3,13.7C315.4,13.7,315.3,13.7,315.3,13.7z"/>
							<path class="st12" d="M314.2,14.8c0,0,0,0.1,0.1,0.1c0.1,0.1,0.1,0.1,0.2,0.2c0.1,0,0.1,0.1,0.2,0.1c0.1,0,0.3,0,0.4,0
								c0-0.1,0.1,0,0.2-0.1c0,0,0,0,0,0c0.1-0.1,0.2-0.2,0.3-0.3c0-0.1,0.1-0.2,0.1-0.3c0-0.1,0-0.2,0-0.3
								C315.2,14.5,314.7,14.6,314.2,14.8z"/>
							<path class="st13" d="M315.7,14.2C315.7,14.2,315.6,14.2,315.7,14.2C315.6,14.1,315.6,14.1,315.7,14.2
								c-0.1-0.1-0.1-0.2-0.1-0.2c0,0-0.1-0.1-0.1-0.1c0-0.1-0.1-0.1-0.1-0.1c0,0,0,0,0,0c-0.4,0.3-0.8,0.4-1.3,0.5
								c0,0.1,0,0.2,0,0.3c0,0.1,0.1,0.1,0.1,0.2C314.7,14.6,315.2,14.5,315.7,14.2C315.7,14.2,315.7,14.2,315.7,14.2z"/>
						</g>
						<path class="st11" d="M315.4,3c0,0.1,0.1,0,0.1,0c0.1,0.1,0.1,0.1,0.2,0.2c0,0,0,0,0,0.1c0,0,0,0.1,0,0.1c0,0,0,0.1,0,0.1
							c0,0,0,0,0,0c0,0,0,0.1,0,0.1c0,0,0,0,0,0c0,0,0,0,0,0c-0.1,0.1-0.2,0.2-0.2,0.2c-0.1,0-0.2,0-0.3,0c0,0-0.1-0.1-0.1-0.1
							c-0.1,0-0.1-0.1-0.1-0.1c-0.1,0,0-0.1-0.1-0.1c0-0.1,0-0.3,0-0.4c0,0,0,0,0,0c0,0,0,0,0,0c0.1-0.1,0.1-0.1,0.2-0.2
							c0,0,0,0,0.1,0c0,0,0,0,0,0C315.2,3,315.3,3,315.4,3z"/>
						<path class="st9" d="M316.5,4.3C316.5,4.3,316.4,4.4,316.5,4.3c-0.1,0.1-0.2,0.1-0.2,0c-0.1,0-0.1,0-0.1,0c0,0-0.1,0-0.1,0
							c-0.1,0-0.1,0-0.1,0c0,0,0,0-0.1,0c0,0,0,0,0,0c0,0,0-0.1,0-0.1c0,0,0.1-0.1,0.1-0.1c0,0-0.1,0-0.1-0.1c0,0,0-0.1,0-0.1
							c0,0,0,0,0.1-0.1c0,0,0.1,0,0.1,0c0.1,0,0.2,0,0.4,0c0,0,0.1,0.1,0.1,0.1c0,0.1,0,0.1-0.1,0.1c-0.1,0-0.2,0-0.4,0c0,0,0,0,0,0
							c0.1,0,0.2,0.1,0.2,0.1C316.4,4.2,316.5,4.2,316.5,4.3z"/>
						<path class="st14" d="M314.8,2.4c0.1,0,0.1,0.1,0.1,0.2c0,0,0,0.1,0,0.1c0.1,0,0,0.1,0.1,0.1c0,0,0.1,0.1,0.1,0.1
							c0,0,0,0-0.1,0.1c0,0,0,0-0.1,0c0,0,0,0,0,0c0,0,0,0,0,0c0,0,0,0-0.1-0.1c0,0,0-0.1-0.1-0.1c-0.1,0,0-0.1-0.1-0.2
							C314.7,2.6,314.7,2.6,314.8,2.4C314.7,2.4,314.7,2.4,314.8,2.4z"/>
						<path class="st9" d="M314.8,3.1c-0.1,0-0.1,0.1-0.2,0.1c0,0-0.1,0-0.1,0c-0.1-0.1-0.2-0.2-0.3-0.3c0,0,0-0.1,0-0.1
							c0,0,0-0.1,0.1-0.1c0,0,0,0,0,0c0.1,0.1,0.2,0.2,0.2,0.3C314.7,3,314.7,3,314.8,3.1z"/>
						<path class="st9" d="M316.5,3.1C316.5,3.2,316.6,3.2,316.5,3.1c0.1,0.1,0.1,0.1,0.1,0.1c0,0-0.1,0.1-0.1,0.1
							c-0.1,0-0.1,0.1-0.2,0.1c-0.1,0.1-0.1,0-0.2,0c0,0,0,0-0.1-0.1c0,0,0-0.1,0-0.1c0,0,0.1,0,0.1-0.1c0,0,0.1,0,0.1,0
							c0,0,0.1,0,0.1-0.1C316.4,3.2,316.4,3.1,316.5,3.1C316.5,3.1,316.5,3.1,316.5,3.1z"/>
						<path class="st9" d="M315.4,3C315.4,3,315.3,3,315.4,3C315.3,3,315.3,3,315.4,3c-0.1-0.2-0.1-0.3-0.1-0.4c0,0,0,0,0,0
							c0,0,0-0.1,0-0.1c0,0,0,0,0.1-0.1c0,0,0.1,0,0.1,0c0,0,0,0,0.1,0.1c0,0,0,0.1,0,0.1c0,0,0,0,0,0c0,0.1,0,0.2,0,0.3
							C315.5,3,315.5,3,315.4,3z"/>
						<path class="st14" d="M314.2,3.6C314.1,3.6,314.1,3.6,314.2,3.6c-0.1,0-0.1,0-0.2-0.1c0,0,0-0.1,0.1-0.1c0.2,0,0.4,0,0.6,0
							c0,0,0,0,0.1,0.1c0,0,0,0.1-0.1,0.1c0,0-0.1,0-0.1,0c0,0,0,0-0.1,0C314.4,3.7,314.3,3.7,314.2,3.6
							C314.2,3.7,314.2,3.6,314.2,3.6z"/>
						<path class="st9" d="M314.3,3.9c0-0.1,0.1-0.1,0.1-0.1c0,0,0.1,0,0.1-0.1c0,0,0.1,0.1,0.1,0.1c0,0,0,0.1,0,0.1
							c-0.1,0-0.1,0.1-0.2,0.1c0,0-0.1,0-0.1,0c0,0,0,0-0.1,0c0,0-0.1,0-0.1,0c0,0,0,0-0.1-0.1c0,0,0,0,0,0c0,0,0.1-0.1,0.1-0.1
							C314.2,3.9,314.2,3.9,314.3,3.9z"/>
						<path class="st14" d="M316.1,2.6C316.1,2.6,316.1,2.6,316.1,2.6c0.1,0,0.1,0.1,0.1,0.1c0,0.1-0.1,0.1-0.1,0.2
							c-0.1,0-0.1,0.1-0.2,0.2c-0.1,0-0.1,0-0.2,0c0,0,0-0.1,0-0.1C315.8,2.9,316,2.8,316.1,2.6z"/>
						<path class="st14" d="M314.8,4.2C314.8,4.2,314.8,4.2,314.8,4.2C314.8,4.2,314.8,4.2,314.8,4.2c0,0.1-0.1,0.2-0.1,0.2
							c0,0.1-0.1,0.1-0.1,0.1c0,0,0,0,0,0c0,0-0.1,0-0.1,0c0,0,0,0-0.1-0.1c0.1,0,0-0.1,0.1-0.1c0,0,0.1-0.1,0.1-0.1c0,0,0,0,0,0
							C314.6,4.1,314.7,4.1,314.8,4.2C314.8,4.1,314.8,4.1,314.8,4.2z"/>
						<g>
							<path class="st14" d="M312.5,19.6C312.5,19.6,312.4,19.6,312.5,19.6c-0.1-0.1-0.2-0.1-0.3-0.2c-0.1,0-0.1-0.1-0.2-0.2
								c0,0,0,0-0.1,0c-0.1,0-0.1-0.1-0.2-0.2c-0.1,0-0.1-0.1-0.2-0.2c-0.1-0.1-0.1-0.1-0.2-0.2c-0.1-0.1-0.1-0.1-0.2-0.2
								c-0.1-0.1-0.1-0.1-0.2-0.2c0-0.1,0-0.2,0-0.2c0,0,0,0,0.1-0.1c0.1,0.1,0.2,0.2,0.4,0.4c0,0.1,0.1,0.1,0.1,0.2
								c0.1,0,0.1,0.1,0.2,0.2c0,0,0,0,0,0c0.1,0.1,0.1,0.2,0.2,0.2c0.1,0,0.1,0.1,0.2,0.2c0,0,0,0,0,0c0.1,0.1,0.1,0.1,0.2,0.2
								c0,0,0,0,0.1,0c0.1,0.1,0.2,0.2,0.3,0.3c0.1,0,0.1,0.1,0.1,0c0,0,0.1,0.1,0.1,0.1c0.1,0.1,0.2,0.1,0.3,0.2
								c0.1,0,0.2,0.1,0.2,0.1c0.1,0,0.2,0.1,0.3,0.1c0,0,0.1,0,0.1,0.1c0,0,0.1,0.1,0.1,0.1c0.1,0,0.1,0.1,0.1,0.1
								c0.1,0,0.1,0.1,0.1,0.1c0,0,0.1,0,0.1,0c0,0,0.1,0.1,0.1,0c0.1,0.1,0.2,0.1,0.3,0.2c0,0,0.1,0,0.1,0c0,0,0.1,0,0.1,0.1
								c0,0,0.1,0,0.1,0.1c0,0,0.1,0,0.1,0c0,0,0.1,0.1,0.1,0c0,0,0.1,0,0.1,0.1c0,0,0.1,0,0.1,0c0,0,0,0,0,0c0,0,0.1,0,0.1,0
								c0,0,0.1,0.1,0.1,0c0,0,0.1,0,0.1,0c0,0,0.1,0,0.1,0c0,0,0.1,0,0.1,0c0,0,0,0,0.1,0c0,0,0.1,0,0.1,0c0,0,0,0,0.1,0
								c0,0,0.1,0,0.1,0c0,0,0,0,0,0c0.1,0,0.1,0.1,0.2,0.1c0,0.1,0.2,0,0.2,0.1c0,0,0.1,0,0.1,0c0,0,0,0,0.1,0c0,0,0.1,0,0.1,0
								c0,0,0,0,0.1,0c0,0,0.1,0,0.1,0c0,0,0,0,0,0c0.1,0,0.1,0,0.2,0c0,0,0,0,0,0c0.1,0,0.1,0,0.2,0c0,0,0,0,0.1,0.1
								c0.1,0,0.1,0,0.2,0c0,0,0,0,0,0c0.1,0,0.2,0,0.3,0c0,0,0,0,0.1,0c0.2,0,0.4,0,0.6,0c0,0,0,0,0,0c0.3,0,0.6,0,0.9,0
								c0,0,0,0,0,0c0.1,0,0.3,0,0.4,0c0,0,0,0,0,0c0.1,0,0.2,0,0.3,0c0,0,0,0.1,0,0.1c0,0,0,0,0,0c0,0,0,0,0,0c0,0,0,0-0.2,0
								c0,0,0,0,0,0c0,0,0,0,0,0c-0.1,0-0.3,0-0.4,0c0,0,0,0,0,0c-0.5,0-0.9,0-1.4,0c0,0,0,0,0,0c0,0,0,0,0,0c-0.1,0-0.3,0-0.4,0
								c0,0,0,0,0,0c-0.1,0-0.2,0-0.3,0c0,0,0,0,0,0c-0.1,0-0.2,0-0.2,0c0,0,0,0,0,0c-0.1,0-0.1,0-0.2,0c0,0,0,0,0,0
								c-0.1,0-0.1,0-0.2,0c0,0,0,0-0.1,0c0,0-0.1,0-0.1,0c0,0,0,0,0,0c-0.1,0-0.1,0-0.2,0c0,0,0,0,0,0c0,0-0.1,0-0.1,0
								c0,0,0,0-0.1,0c-0.1,0-0.2-0.1-0.2,0c0,0,0,0-0.1-0.1c0,0-0.1,0-0.1,0c0,0,0,0-0.1,0c0,0-0.1,0-0.1,0c0,0,0,0-0.1,0
								c0,0-0.1,0-0.1,0c0,0,0,0,0,0c0,0-0.1,0-0.1,0c0,0-0.1,0-0.1,0c-0.1,0-0.1-0.1-0.2-0.1c0,0-0.1,0-0.1,0c0,0-0.1,0-0.1,0
								c0,0-0.1,0-0.1,0c0,0-0.1,0-0.1,0c0,0-0.1,0-0.2-0.1c-0.1,0-0.1-0.1-0.2-0.1c0-0.1-0.1,0-0.2-0.1c-0.1,0-0.1,0-0.2-0.1
								c-0.1,0-0.1-0.1-0.2-0.1c-0.1,0-0.2-0.1-0.3-0.1c-0.1,0-0.2-0.1-0.2-0.1c-0.1,0-0.2-0.1-0.3-0.1c-0.1,0-0.2-0.1-0.3-0.1
								c-0.1,0-0.2-0.1-0.2-0.1c-0.1-0.1-0.2-0.1-0.3-0.1c-0.1,0-0.1-0.1-0.2-0.1c-0.1-0.1-0.3-0.1-0.4-0.3
								C312.7,19.7,312.6,19.7,312.5,19.6C312.5,19.7,312.5,19.6,312.5,19.6z"/>
							<path class="st14" d="M314,17.2C314,17.2,314,17.3,314,17.2c-0.1,0-0.1,0-0.2,0c0,0,0,0,0,0c0,0-0.1,0-0.1,0c0,0,0,0-0.1,0.1
								c-0.1,0-0.1,0-0.2,0c0,0,0,0,0,0c-0.1,0-0.1,0-0.2,0c0,0,0,0,0,0c-0.1,0-0.1,0-0.2,0c0,0,0,0-0.1,0c-0.1,0-0.2,0-0.2,0
								c0,0,0,0,0,0c0,0,0,0,0,0c-0.1,0-0.2,0-0.3,0c0,0,0,0,0,0c-0.1,0-0.2,0-0.4,0c0,0,0,0,0,0c-0.2,0-0.4,0-0.6,0c0,0,0,0,0,0
								c0-0.1,0-0.1,0-0.2c0.1,0,0.1,0,0.2,0c0.1,0,0.1,0,0.2,0c0,0,0,0,0,0c0.2,0,0.4,0,0.5,0c0,0,0,0,0.1,0c0.1,0,0.2,0,0.3,0
								c0,0,0,0,0,0c0,0,0,0,0,0c0.1,0,0.2,0,0.3,0c0,0,0,0,0,0c0.1,0,0.2,0,0.2,0c0,0,0,0,0,0c0.1,0,0.1,0,0.2,0c0,0,0,0,0,0
								c0.1,0,0.1,0,0.2,0c0,0,0,0,0,0c0,0,0.1,0,0.1,0c0,0,0,0,0.1,0c0,0,0.1,0,0.1,0c0,0,0,0,0,0c0.1,0,0.1,0,0.2,0c0,0,0,0,0,0
								c0,0,0.1,0,0.1,0c0,0,0,0,0.1,0c0,0,0.1,0,0.1,0c0,0,0.1,0,0.1,0c0,0,0.1-0.1,0.1,0c0,0,0,0,0,0c0,0,0.1,0,0.1,0c0,0,0,0,0,0
								c0,0,0,0,0.1,0c0.1-0.1,0.2-0.1,0.3-0.1c0,0,0.1,0,0.1,0c0,0,0.1,0,0.1-0.1c0,0,0.1,0,0.1,0c0,0,0,0,0,0c0,0,0,0,0.1,0
								c0.1-0.1,0.2-0.1,0.3-0.1c0,0,0.1,0,0.1,0c0,0,0.1,0,0.1-0.1c0,0,0.1,0,0.1,0c0,0,0,0,0.1,0c0,0,0.1,0,0.1,0c0,0,0,0,0.1,0
								c0.1,0,0.1,0,0.1,0c0,0,0.1-0.1,0.1-0.1c0,0,0.1-0.1,0.1,0c0,0,0.1,0,0.1-0.1c0.1,0,0.2-0.1,0.3-0.1c0.1-0.1,0.2-0.1,0.3-0.2
								c0.1,0,0.1-0.1,0.1-0.1c0.1,0,0.1,0,0.2-0.1c0.1-0.1,0.3-0.1,0.4-0.2c0.1,0,0.1,0,0.2-0.1c0,0,0.1,0,0.1-0.1
								c0.1,0,0.1-0.1,0.2-0.1c0.1,0,0.1,0,0.2-0.1c0,0,0.1,0,0.1-0.1c0,0,0.1-0.1,0.1-0.1c0,0,0,0,0.1,0c0,0,0,0.1,0,0.1
								c0,0,0,0,0.1,0.1c0,0,0,0,0,0c0,0-0.1,0.1-0.1,0.1c0,0-0.1,0-0.1,0.1c0,0-0.1,0.1-0.1,0.1c-0.1,0-0.1,0.1-0.1,0.1
								c-0.1,0-0.1,0.1-0.1,0.1c0,0.1-0.1,0-0.2,0.1c-0.1,0-0.1,0.1-0.2,0.1c-0.1,0-0.1,0.1-0.2,0.1c0,0.1-0.1,0.1-0.2,0.1
								c-0.1,0-0.1,0.1-0.2,0.1c0,0-0.1,0-0.1,0c0,0-0.1,0-0.1,0.1c-0.1,0-0.1,0.1-0.2,0.1c0,0-0.1,0-0.1,0c-0.1,0-0.1,0-0.1,0.1
								c0,0-0.1,0-0.1,0.1c0,0-0.1,0-0.1,0c0,0-0.1,0.1-0.1,0.1c-0.1,0-0.1,0-0.2,0.1c0,0,0,0-0.1,0c0,0,0,0-0.1,0c0,0,0,0,0,0
								c0,0,0,0-0.1,0c-0.1,0.1-0.2,0.1-0.3,0.1c0,0-0.1,0-0.1,0c0,0.1-0.1,0-0.1,0.1c0,0-0.1,0-0.1,0c0,0,0,0,0,0c0,0-0.1,0-0.1,0
								c-0.1,0.1-0.2,0.1-0.3,0.1c0,0-0.1,0-0.1,0c0,0-0.1,0-0.1,0.1c0,0-0.1,0-0.1,0c0,0,0,0,0,0c0,0-0.1,0-0.1,0c0,0,0,0,0,0
								c0,0-0.1,0-0.1,0c0,0-0.1,0-0.1,0c0,0-0.1,0-0.1,0c0,0-0.1,0-0.2,0.1c0,0-0.1,0-0.1,0c0,0,0,0-0.1,0
								C314.1,17.2,314,17.2,314,17.2z"/>
							<path class="st14" d="M316.7,13.8C316.7,13.8,316.8,13.8,316.7,13.8C316.8,13.8,316.8,13.9,316.7,13.8c0.1,0,0.2,0,0.2,0
								c0,0,0,0,0,0c0,0,0.1,0,0.1,0c0,0,0,0,0,0c0.1,0,0.1,0,0.2,0c0.1,0,0.1,0,0.1,0c0,0,0,0,0,0c0.1,0,0.2,0,0.2,0c0,0,0,0,0,0
								c0.1,0,0.3,0,0.4,0c0,0,0,0,0.1,0c0.3,0,0.5,0,0.8,0c0,0,0,0,0.1,0.1c0,0,0,0.1,0,0.1c0,0,0.1,0.1,0,0.1c-0.2,0-0.4,0-0.5,0
								c0,0,0,0-0.1,0c-0.1,0-0.3,0-0.4,0c0,0,0,0,0,0c-0.1,0-0.2,0-0.4,0c0,0,0,0,0,0c-0.1,0-0.1,0-0.2,0c0,0,0,0-0.1,0
								c0,0-0.1,0-0.1,0c0,0,0,0,0,0c0,0-0.1,0-0.1,0c0,0,0,0-0.1,0c-0.1,0-0.1-0.1-0.2-0.1c-0.1,0-0.1,0-0.2-0.1c0,0-0.1,0-0.2-0.1
								c-0.1,0-0.1,0-0.2,0c0,0-0.1,0-0.1-0.1c-0.1,0-0.1-0.1-0.2-0.1c0,0-0.1-0.1-0.1,0c0,0-0.1,0-0.1-0.1c0,0-0.1,0-0.1-0.1
								c-0.1,0-0.1-0.1-0.1-0.1c0,0-0.1-0.1-0.1-0.1c-0.1,0-0.1-0.1-0.1-0.1c0,0-0.1,0-0.1-0.1c0,0-0.1-0.1-0.1-0.1
								c0,0-0.1,0-0.1-0.1c0,0-0.1,0-0.1-0.1c0,0-0.1-0.1-0.1-0.1c-0.1,0-0.1-0.1-0.1-0.1c-0.1,0-0.1-0.1-0.2-0.1
								c0,0-0.1-0.1-0.1-0.1c-0.1,0-0.1-0.1-0.1-0.1c0,0-0.1-0.1-0.1-0.1c-0.1-0.1-0.2-0.2-0.3-0.3c0,0,0-0.1-0.1-0.1
								c0,0-0.1-0.1-0.1-0.1c0,0,0,0,0-0.1c-0.1-0.1-0.2-0.2-0.4-0.4c0,0,0-0.1,0.1-0.1c0,0,0,0,0,0c0,0,0,0,0,0c0,0,0,0,0,0
								c0.2,0.2,0.3,0.3,0.5,0.5c0,0,0,0,0,0c0,0.1,0.2,0.2,0.3,0.3c0.1,0.1,0.2,0.2,0.3,0.3c0,0,0.1,0.1,0.2,0.1
								c0,0.1,0.1,0.1,0.1,0.1c0,0,0.1,0,0.1,0.1c0,0,0.1,0.1,0.1,0.1c0,0,0,0,0,0c0.1,0,0.1,0.1,0.2,0.1c0.1,0,0.1,0.1,0.2,0.1
								c0.1,0,0.1,0.1,0.1,0.1c0,0,0.1,0.1,0.1,0.1c0.1,0,0.1,0.1,0.2,0.1c0.1,0,0.1,0.1,0.2,0.1c0.1,0.1,0.2,0.1,0.3,0.1
								c0,0.1,0.1,0,0.1,0c0,0,0.1,0,0.1,0.1c0.1,0,0.1,0.1,0.1,0.1c0,0,0.1,0.1,0.1,0.1C316.6,13.7,316.6,13.8,316.7,13.8z"/>
							<path class="st14" d="M317.1,8.8C317.1,8.8,317.1,8.8,317.1,8.8c0.1,0.1,0.1,0.1,0.1,0.2c0,0,0,0,0,0c0,0,0,0,0,0.1
								c0,0,0,0,0,0c0,0.1-0.1,0.1-0.1,0.2c-0.1,0-0.1,0.1-0.2,0.2c0,0-0.1,0.1-0.1,0.1c-0.1,0-0.1,0.1-0.2,0.1c0,0.1-0.1,0-0.1,0.1
								c-0.1,0-0.1,0.1-0.2,0.1c-0.1,0.1-0.3,0.2-0.4,0.2c-0.1,0-0.1,0.1-0.2,0.1c-0.1,0-0.1,0.1-0.2,0.1c-0.1,0-0.1,0.1-0.2,0.1
								c0,0-0.1,0-0.1,0c0,0-0.1,0-0.1,0.1c0,0-0.1,0-0.1,0c0,0,0,0,0,0c0,0-0.1,0-0.1,0c0,0,0,0,0,0c-0.1,0-0.1,0-0.2,0
								c0,0,0,0,0,0c-0.1,0-0.1,0-0.2,0c0,0,0,0,0,0c-0.1,0-0.2,0-0.3,0c0,0,0,0,0,0c-0.1,0-0.3,0-0.4,0c0,0-0.1,0-0.1,0
								c0,0,0,0,0,0c0,0-0.1,0-0.1,0c-0.1,0,0-0.1,0-0.1c0,0,0-0.1,0-0.1c0.2,0,0.4,0,0.6,0c0,0,0,0,0,0c0.1,0,0.2,0,0.3,0
								c0,0,0,0,0,0c0.1,0,0.1,0,0.2,0c0,0,0,0,0,0c0.1,0,0.1,0,0.2,0c0,0,0,0,0.1,0c0,0,0.1,0,0.1,0c0,0,0,0,0,0c0,0,0,0,0.1,0
								c0,0,0.1,0,0.1-0.1c0,0,0.1,0,0.1-0.1c0,0,0.1,0,0.1-0.1c0.1,0,0.1-0.1,0.1,0c0,0,0.1-0.1,0.1-0.1c0.1,0,0.1,0,0.1-0.1
								c0-0.1,0.1,0,0.1-0.1c0,0,0.1,0,0.1,0c0,0,0.1,0,0.2-0.1c0,0,0.1-0.1,0.1-0.1c0-0.1,0.1-0.1,0.2-0.1c0,0,0.1-0.1,0.1-0.1
								c0,0,0.1-0.1,0.2-0.1c0.1,0,0.1-0.1,0.1-0.1c0,0,0.1-0.1,0.1-0.1C317,9,317,9,317.1,8.8C317.1,8.9,317.1,8.9,317.1,8.8z"/>
						</g>
						<g>
							<path class="st10" d="M316.7,11.5C316.7,11.5,316.7,11.5,316.7,11.5c0-0.1,0-0.1,0-0.2c0,0,0,0,0,0c0.1-0.1,0.3-0.2,0.3-0.3
								c0,0,0.1,0.1,0.1,0.1c0,0,0,0.1,0,0.1c0,0,0,0,0,0.1c0,0,0,0.1,0,0.1C317,11.4,316.9,11.5,316.7,11.5
								C316.7,11.5,316.7,11.5,316.7,11.5z"/>
							<path class="st11" d="M316.7,11.6c0.1-0.1,0.3-0.2,0.4-0.3c0,0,0,0,0,0c0,0,0,0,0,0.1c0,0.1,0,0.2,0,0.2c0,0,0,0,0,0
								c0,0,0,0.1,0,0.1c-0.1,0.1-0.3,0.2-0.5,0.2C316.7,11.8,316.7,11.7,316.7,11.6z"/>
							<path class="st10" d="M316.7,11.9c0.2,0,0.4,0,0.5-0.2c0,0.1,0,0.2,0,0.3c-0.1,0.1-0.3,0.2-0.5,0.2
								C316.7,12.1,316.7,12,316.7,11.9z"/>
							<path class="st10" d="M317.2,12.4c0,0,0,0.1,0,0.1c-0.1,0,0,0.1-0.1,0.2c-0.1,0-0.1,0-0.2,0c-0.1,0-0.1,0-0.1-0.1
								c0,0,0-0.1-0.1-0.1C316.9,12.5,317,12.5,317.2,12.4z"/>
							<path class="st11" d="M316.7,12.5c0-0.1,0-0.2,0-0.3c0.2,0,0.4-0.1,0.5-0.2c0,0.1,0,0.2,0,0.3c0,0,0,0,0,0c0,0,0,0,0,0
								C317,12.5,316.9,12.5,316.7,12.5C316.7,12.5,316.7,12.5,316.7,12.5z"/>
							<path class="st11" d="M316.7,11.3c0-0.1-0.1-0.1-0.1-0.2c0-0.2,0.2-0.3,0.1-0.5c0.1,0.1,0.2,0.1,0.3,0.3c0,0,0,0.1,0,0.1
								c0,0,0,0,0,0C316.9,11.1,316.8,11.2,316.7,11.3z"/>
							<path class="st10" d="M316.4,10.6C316.4,10.5,316.4,10.5,316.4,10.6c0.1,0,0.1,0,0.2,0c0,0,0.1,0,0.1,0c0,0,0,0,0,0
								c0,0,0,0,0,0c0,0.2-0.1,0.3-0.1,0.5c0,0-0.1-0.1-0.1-0.1C316.4,10.9,316.4,10.7,316.4,10.6C316.3,10.6,316.3,10.6,316.4,10.6
								z"/>
							<path class="st11" d="M315.9,10.9C316,10.9,316,10.8,315.9,10.9c0.1-0.2,0.1-0.2,0.2-0.2c0,0,0.1-0.1,0.2-0.1c0,0,0,0,0,0
								c0.1,0.2,0.2,0.3,0.2,0.5c0,0,0,0,0,0c0,0,0,0-0.1,0.1c0,0,0,0,0,0C316.2,11.1,316.1,11,315.9,10.9z"/>
							<path class="st10" d="M315.9,11.2C315.9,11.2,315.9,11.2,315.9,11.2c0-0.1,0-0.2,0-0.2c0,0,0,0,0-0.1
								c0.1,0.1,0.3,0.2,0.4,0.2c0,0.1,0,0.2,0,0.3C316.2,11.4,316,11.3,315.9,11.2C315.9,11.2,315.9,11.2,315.9,11.2z"/>
							<path class="st11" d="M315.9,11.2c0.2,0,0.3,0.1,0.5,0.2c0,0.1,0,0.2,0,0.3c0,0,0,0,0,0c-0.2,0-0.3-0.1-0.5-0.2
								C315.9,11.4,315.9,11.3,315.9,11.2C315.9,11.2,315.9,11.2,315.9,11.2z"/>
							<path class="st10" d="M316.3,11.7C316.3,11.7,316.3,11.8,316.3,11.7c0,0.1,0,0.1,0,0.1c0,0-0.1,0.1-0.1,0.1
								c-0.1,0-0.1,0-0.2,0c0-0.1-0.1-0.1-0.2-0.2c0-0.1,0-0.2,0-0.3C316,11.6,316.2,11.7,316.3,11.7z"/>
						</g>
						<path class="st11" d="M313.3,11C313.2,11,313.2,11,313.3,11c-0.1-0.1,0-0.1,0-0.2c0,0,0.1-0.1,0-0.1c0,0,0.1-0.1,0.1-0.1
							c0,0,0,0,0.1,0c0,0,0.1,0,0.2,0c0,0,0,0,0,0c0,0,0,0,0,0c0.1,0.1,0.1,0.1,0.2,0.2c0,0,0,0,0,0.1c0,0.1,0,0.1,0,0.2
							c-0.1,0.1-0.1,0.1-0.2,0.2c0,0-0.1,0-0.1,0.1c-0.1,0-0.1,0-0.2,0c0,0,0,0,0,0c0,0-0.1,0-0.1,0c0,0,0-0.1-0.1-0.1
							C313.3,11.1,313.3,11,313.3,11z M313.7,11C313.7,11,313.7,11,313.7,11c0.1-0.1,0.1-0.1,0-0.1c0,0,0-0.1,0-0.1
							c-0.1,0-0.1,0-0.1-0.1c0,0-0.1,0.1-0.1,0.1c0,0.1,0,0.1,0,0.2C313.6,11,313.6,11,313.7,11z"/>
						<path class="st13" d="M314.4,8.7C314.4,8.7,314.4,8.6,314.4,8.7c-0.1-0.1,0-0.1,0-0.2c0,0,0.1-0.1,0-0.1c0,0,0.1-0.1,0.1-0.1
							c0,0,0,0,0.1,0c0,0,0.1,0,0.2,0c0,0,0,0,0,0c0,0,0,0,0,0c0.1,0.1,0.1,0.1,0.2,0.2c0,0,0,0,0,0.1c0,0.1,0,0.1,0,0.2
							c-0.1,0.1-0.1,0.1-0.2,0.2c0,0-0.1,0-0.1,0.1c-0.1,0-0.1,0-0.2,0c0,0,0,0,0,0c0,0-0.1,0-0.1,0c0,0,0-0.1-0.1-0.1
							C314.4,8.8,314.4,8.7,314.4,8.7z M314.9,8.7C314.9,8.7,314.9,8.6,314.9,8.7c0.1-0.1,0.1-0.1,0-0.1c0,0,0-0.1,0-0.1
							c-0.1,0-0.1,0-0.1-0.1c0,0-0.1,0.1-0.1,0.1c0,0.1,0,0.1,0,0.2C314.7,8.7,314.8,8.7,314.9,8.7z"/>
						<g>
							<path class="st11" d="M318.3,17.7c-0.1,0.1-0.2,0.2-0.2,0.2c-0.1,0-0.2,0.1-0.3,0.1c-0.1,0-0.2,0-0.4,0c0-0.1-0.1,0-0.2-0.1
								c-0.1,0-0.1,0-0.1-0.1c0-0.1-0.1-0.1-0.1-0.2c0,0,0-0.1,0-0.1c0,0,0,0,0,0c0,0,0,0,0-0.1c0-0.1,0-0.2,0-0.3c0,0,0,0,0.1-0.1
								c0,0,0-0.1,0-0.2c0-0.1,0.1-0.1,0.1-0.2c0.1,0,0-0.1,0.1-0.2c0.1,0,0.1-0.1,0.2-0.1c0-0.1,0.1,0,0.1-0.1c0.1,0,0.2,0,0.3,0
								c0,0,0,0,0,0c0.1,0,0.1,0.1,0.2,0.1c0.1,0.1,0.2,0.2,0.3,0.3c0,0,0,0.1,0,0.1c0,0,0,0,0.1,0.1c0,0.2,0,0.3,0,0.5
								C318.4,17.6,318.4,17.6,318.3,17.7z"/>
							<path class="st15" d="M317.7,17c0.1-0.1,0.1-0.1,0.2-0.2c0,0,0.1,0,0.1,0c0,0,0.1,0.1,0.1,0.1c0,0.1,0,0.1,0,0.2
								c0,0,0,0.1-0.1,0.1c0,0-0.1,0.1-0.1,0.1c0,0,0,0.1-0.1,0.1c0,0,0,0.1-0.1,0.1c0,0-0.1,0.1-0.1,0.1c0,0,0,0-0.1,0
								c0,0-0.1,0-0.1-0.1c0,0,0-0.1-0.1-0.1c0,0,0-0.1,0-0.1c0,0-0.1-0.1-0.1-0.1c0,0,0-0.1,0-0.1c0,0,0-0.1,0-0.1c0,0,0,0,0,0
								c0,0,0-0.1,0-0.1c0,0,0,0,0-0.1c0,0,0,0,0,0c0,0,0,0,0-0.1c0,0,0,0,0.1-0.1c0,0,0.1,0,0.1,0c0,0,0.1,0.1,0.1,0.1
								C317.6,17,317.6,17,317.7,17z"/>
						</g>
						<g>
							<path class="st11" d="M313.8,21.6c-0.1,0.1-0.2,0.2-0.2,0.2c-0.1,0-0.2,0.1-0.3,0.1c-0.1,0-0.2,0-0.4,0c0-0.1-0.1,0-0.2-0.1
								c-0.1,0-0.1,0-0.1-0.1c0-0.1-0.1-0.1-0.1-0.2c0,0,0-0.1,0-0.1c0,0,0,0,0,0c0,0,0,0,0-0.1c0-0.1,0-0.2,0-0.3c0,0,0,0,0.1-0.1
								c0,0,0-0.1,0-0.2c0-0.1,0.1-0.1,0.1-0.2c0.1,0,0-0.1,0.1-0.2c0.1,0,0.1-0.1,0.2-0.1c0-0.1,0.1,0,0.1-0.1c0.1,0,0.2,0,0.3,0
								c0,0,0,0,0,0c0.1,0,0.1,0.1,0.2,0.1c0.1,0.1,0.2,0.2,0.3,0.3c0,0,0,0.1,0,0.1c0,0,0,0,0.1,0.1c0,0.2,0,0.3,0,0.5
								C313.9,21.5,313.9,21.5,313.8,21.6z"/>
							<path class="st15" d="M313.1,20.9c0.1-0.1,0.1-0.1,0.2-0.2c0,0,0.1,0,0.1,0c0,0,0.1,0.1,0.1,0.1c0,0.1,0,0.1,0,0.2
								c0,0,0,0.1-0.1,0.1c0,0-0.1,0.1-0.1,0.1c0,0,0,0.1-0.1,0.1c0,0,0,0.1-0.1,0.1c0,0-0.1,0.1-0.1,0.1c0,0,0,0-0.1,0
								c0,0-0.1,0-0.1-0.1c0,0,0-0.1-0.1-0.1c0,0,0-0.1,0-0.1c0,0-0.1-0.1-0.1-0.1c0,0,0-0.1,0-0.1c0,0,0-0.1,0-0.1c0,0,0,0,0,0
								c0,0,0-0.1,0-0.1c0,0,0,0,0-0.1c0,0,0,0,0,0c0,0,0,0,0-0.1c0,0,0,0,0.1-0.1c0,0,0.1,0,0.1,0c0,0,0.1,0.1,0.1,0.1
								C313.1,20.8,313.1,20.9,313.1,20.9z"/>
						</g>
						<g>
							<path class="st12" d="M317.4,22.1c-0.1,0-0.1-0.1-0.1-0.1c-0.1,0-0.1,0-0.1-0.1c-0.1,0-0.2,0-0.3,0c0,0,0,0-0.1,0.1
								c0,0-0.1,0-0.1,0c0,0,0,0-0.1,0.1c0,0,0,0,0,0c-0.1,0.1-0.2,0.2-0.3,0.3c0,0.1-0.1,0.2-0.1,0.3c0,0,0,0.1,0,0.1
								C316.7,22.6,317.1,22.4,317.4,22.1C317.4,22.1,317.4,22.1,317.4,22.1z"/>
							<path class="st12" d="M316.3,23.2c0,0,0,0.1,0.1,0.1c0.1,0.1,0.1,0.1,0.2,0.2c0.1,0,0.1,0.1,0.2,0.1c0.1,0,0.3,0,0.4,0
								c0-0.1,0.1,0,0.2-0.1c0,0,0,0,0,0c0.1-0.1,0.2-0.2,0.3-0.3c0-0.1,0.1-0.2,0.1-0.3c0-0.1,0-0.2,0-0.3
								C317.3,22.9,316.8,23.1,316.3,23.2z"/>
							<path class="st13" d="M317.7,22.6C317.7,22.6,317.7,22.6,317.7,22.6C317.7,22.6,317.7,22.6,317.7,22.6
								c-0.1-0.1-0.1-0.2-0.1-0.2c0,0-0.1-0.1-0.1-0.1c0-0.1-0.1-0.1-0.1-0.1c0,0,0,0,0,0c-0.4,0.3-0.8,0.4-1.3,0.5
								c0,0.1,0,0.2,0,0.3c0,0.1,0.1,0.1,0.1,0.2C316.8,23.1,317.3,22.9,317.7,22.6C317.7,22.6,317.7,22.6,317.7,22.6z"/>
						</g>
						<path class="st11" d="M310.9,17.9C310.9,17.9,310.9,17.9,310.9,17.9c-0.1-0.1,0-0.1,0-0.2c0,0,0.1-0.1,0-0.1
							c0,0,0.1-0.1,0.1-0.1c0,0,0,0,0.1,0c0,0,0.1,0,0.2,0c0,0,0,0,0,0c0,0,0,0,0,0c0.1,0.1,0.1,0.1,0.2,0.2c0,0,0,0,0,0.1
							c0,0.1,0,0.1,0,0.2c-0.1,0.1-0.1,0.1-0.2,0.2c0,0-0.1,0-0.1,0.1c-0.1,0-0.1,0-0.2,0c0,0,0,0,0,0c0,0-0.1,0-0.1,0
							c0,0,0-0.1-0.1-0.1C310.9,18,310.9,18,310.9,17.9z M311.3,17.9C311.3,17.9,311.4,17.9,311.3,17.9c0.1-0.1,0.1-0.1,0-0.1
							c0,0,0-0.1,0-0.1c-0.1,0-0.1,0-0.1-0.1c0,0-0.1,0.1-0.1,0.1c0,0.1,0,0.1,0,0.2C311.2,17.9,311.3,17.9,311.3,17.9z"/>
						<path class="st11" d="M318.9,14.6C318.9,14.6,318.9,14.6,318.9,14.6c-0.1-0.1,0-0.1,0-0.2c0,0,0.1-0.1,0-0.1
							c0,0,0.1-0.1,0.1-0.1c0,0,0,0,0.1,0c0,0,0.1,0,0.2,0c0,0,0,0,0,0c0,0,0,0,0,0c0.1,0.1,0.1,0.1,0.2,0.2c0,0,0,0,0,0.1
							c0,0.1,0,0.1,0,0.2c-0.1,0.1-0.1,0.1-0.2,0.2c0,0-0.1,0-0.1,0.1c-0.1,0-0.1,0-0.2,0c0,0,0,0,0,0c0,0-0.1,0-0.1,0
							c0,0,0-0.1-0.1-0.1C318.9,14.7,318.9,14.6,318.9,14.6z M319.3,14.6C319.4,14.6,319.4,14.5,319.3,14.6c0.1-0.1,0.1-0.1,0-0.1
							c0,0,0-0.1,0-0.1c-0.1,0-0.1,0-0.1-0.1c0,0-0.1,0.1-0.1,0.1c0,0.1,0,0.1,0,0.2C319.2,14.6,319.3,14.6,319.3,14.6z"/>
						<path class="st11" d="M321,21.9C320.9,21.9,320.9,21.8,321,21.9c-0.1-0.1,0-0.1,0-0.2c0,0,0.1-0.1,0-0.1c0,0,0.1-0.1,0.1-0.1
							c0,0,0,0,0.1,0c0,0,0.1,0,0.2,0c0,0,0,0,0,0c0,0,0,0,0,0c0.1,0.1,0.1,0.1,0.2,0.2c0,0,0,0,0,0.1c0,0.1,0,0.1,0,0.2
							c-0.1,0.1-0.1,0.1-0.2,0.2c0,0-0.1,0-0.1,0.1c-0.1,0-0.1,0-0.2,0c0,0,0,0,0,0c0,0-0.1,0-0.1,0c0,0,0-0.1-0.1-0.1
							C321,22,321,21.9,321,21.9z M321.4,21.9C321.4,21.9,321.4,21.8,321.4,21.9c0.1-0.1,0.1-0.1,0-0.1c0,0,0-0.1,0-0.1
							c-0.1,0-0.1,0-0.1-0.1c0,0-0.1,0.1-0.1,0.1c0,0.1,0,0.1,0,0.2C321.3,21.9,321.3,21.9,321.4,21.9z"/>
						<g>
							<path class="st10" d="M319.8,23.9C319.8,23.9,319.8,23.9,319.8,23.9c0-0.1,0-0.1,0-0.2c0,0,0,0,0,0c0.1-0.1,0.3-0.2,0.3-0.3
								c0,0,0.1,0.1,0.1,0.1c0,0,0,0.1,0,0.1c0,0,0,0,0,0.1c0,0,0,0.1,0,0.1C320.1,23.9,320,24,319.8,23.9
								C319.8,24,319.8,24,319.8,23.9z"/>
							<path class="st11" d="M319.8,24c0.1-0.1,0.3-0.2,0.4-0.3c0,0,0,0,0,0c0,0,0,0,0,0.1c0,0.1,0,0.2,0,0.2c0,0,0,0,0,0
								c0,0,0,0.1,0,0.1c-0.1,0.1-0.3,0.2-0.5,0.2C319.8,24.2,319.8,24.1,319.8,24z"/>
							<path class="st10" d="M319.8,24.3c0.2,0,0.4,0,0.5-0.2c0,0.1,0,0.2,0,0.3c-0.1,0.1-0.3,0.2-0.5,0.2
								C319.8,24.6,319.8,24.5,319.8,24.3z"/>
							<path class="st10" d="M320.3,24.9c0,0,0,0.1,0,0.1c-0.1,0,0,0.1-0.1,0.2c-0.1,0-0.1,0-0.2,0c-0.1,0-0.1,0-0.1-0.1
								c0,0,0-0.1-0.1-0.1C320,24.9,320.1,24.9,320.3,24.9z"/>
							<path class="st11" d="M319.8,25c0-0.1,0-0.2,0-0.3c0.2,0,0.4-0.1,0.5-0.2c0,0.1,0,0.2,0,0.3c0,0,0,0,0,0c0,0,0,0,0,0
								C320.1,24.9,320,24.9,319.8,25C319.8,25,319.8,25,319.8,25z"/>
							<path class="st11" d="M319.8,23.7c0-0.1-0.1-0.1-0.1-0.2c0-0.2,0.2-0.3,0.1-0.5c0.1,0.1,0.2,0.1,0.3,0.3c0,0,0,0.1,0,0.1
								c0,0,0,0,0,0C320,23.5,319.9,23.6,319.8,23.7z"/>
							<path class="st10" d="M319.5,23C319.5,23,319.5,23,319.5,23c0.1,0,0.1,0,0.2,0c0,0,0.1,0,0.1,0c0,0,0,0,0,0c0,0,0,0,0,0
								c0,0.2-0.1,0.3-0.1,0.5c0,0-0.1-0.1-0.1-0.1C319.5,23.3,319.5,23.2,319.5,23C319.4,23,319.5,23,319.5,23z"/>
							<path class="st11" d="M319.1,23.3C319.1,23.3,319.1,23.3,319.1,23.3c0.1-0.2,0.1-0.2,0.2-0.2c0,0,0.1-0.1,0.2-0.1
								c0,0,0,0,0,0c0.1,0.2,0.2,0.3,0.2,0.5c0,0,0,0,0,0c0,0,0,0-0.1,0.1c0,0,0,0,0,0C319.3,23.5,319.2,23.5,319.1,23.3z"/>
							<path class="st10" d="M319,23.7C319,23.7,319,23.6,319,23.7c0-0.1,0-0.2,0-0.2c0,0,0,0,0-0.1c0.1,0.1,0.3,0.2,0.4,0.2
								c0,0.1,0,0.2,0,0.3C319.3,23.8,319.1,23.7,319,23.7C319,23.7,319,23.7,319,23.7z"/>
							<path class="st11" d="M319,23.7c0.2,0,0.3,0.1,0.5,0.2c0,0.1,0,0.2,0,0.3c0,0,0,0,0,0c-0.2,0-0.3-0.1-0.5-0.2
								C319,23.9,319,23.8,319,23.7C319,23.7,319,23.7,319,23.7z"/>
							<path class="st10" d="M319.5,24.2C319.4,24.2,319.4,24.2,319.5,24.2c0,0.1,0,0.1,0,0.1c0,0-0.1,0.1-0.1,0.1
								c-0.1,0-0.1,0-0.2,0c0-0.1-0.1-0.1-0.2-0.2c0-0.1,0-0.2,0-0.3C319.1,24,319.3,24.1,319.5,24.2z"/>
						</g>
						<path class="st13" d="M311.3,23.8C311.3,23.8,311.3,23.8,311.3,23.8c-0.1-0.1,0-0.1,0-0.2c0,0,0.1-0.1,0-0.1
							c0,0,0.1-0.1,0.1-0.1c0,0,0,0,0.1,0c0,0,0.1,0,0.2,0c0,0,0,0,0,0c0,0,0,0,0,0c0.1,0.1,0.1,0.1,0.2,0.2c0,0,0,0,0,0.1
							c0,0.1,0,0.1,0,0.2c-0.1,0.1-0.1,0.1-0.2,0.2c0,0-0.1,0-0.1,0.1c-0.1,0-0.1,0-0.2,0c0,0,0,0,0,0c0,0-0.1,0-0.1,0
							c0,0,0-0.1-0.1-0.1C311.3,23.9,311.3,23.8,311.3,23.8z M311.7,23.8C311.7,23.8,311.8,23.8,311.7,23.8c0.1-0.1,0.1-0.1,0-0.1
							c0,0,0-0.1,0-0.1c-0.1,0-0.1,0-0.1-0.1c0,0-0.1,0.1-0.1,0.1c0,0.1,0,0.1,0,0.2C311.6,23.8,311.6,23.8,311.7,23.8z"/>
						<path class="st11" d="M314.9,24.3C314.9,24.3,314.9,24.3,314.9,24.3c-0.1-0.1,0-0.1,0-0.2c0,0,0.1-0.1,0-0.1
							c0,0,0.1-0.1,0.1-0.1c0,0,0,0,0.1,0c0,0,0.1,0,0.2,0c0,0,0,0,0,0c0,0,0,0,0,0c0.1,0.1,0.1,0.1,0.2,0.2c0,0,0,0,0,0.1
							c0,0.1,0,0.1,0,0.2c-0.1,0.1-0.1,0.1-0.2,0.2c0,0-0.1,0-0.1,0.1c-0.1,0-0.1,0-0.2,0c0,0,0,0,0,0c0,0-0.1,0-0.1,0
							c0,0,0-0.1-0.1-0.1C314.9,24.4,314.9,24.4,314.9,24.3z M315.3,24.3C315.4,24.3,315.4,24.3,315.3,24.3c0.1-0.1,0.1-0.1,0-0.1
							c0,0,0-0.1,0-0.1c-0.1,0-0.1,0-0.1-0.1c0,0-0.1,0.1-0.1,0.1c0,0.1,0,0.1,0,0.2C315.2,24.3,315.3,24.3,315.3,24.3z"/>
						<path class="st13" d="M318.7,19.1C318.6,19.1,318.6,19.1,318.7,19.1c-0.1-0.1,0-0.1,0-0.2c0,0,0.1-0.1,0-0.1
							c0,0,0.1-0.1,0.1-0.1c0,0,0,0,0.1,0c0,0,0.1,0,0.2,0c0,0,0,0,0,0c0,0,0,0,0,0c0.1,0.1,0.1,0.1,0.2,0.2c0,0,0,0,0,0.1
							c0,0.1,0,0.1,0,0.2c-0.1,0.1-0.1,0.1-0.2,0.2c0,0-0.1,0-0.1,0.1c-0.1,0-0.1,0-0.2,0c0,0,0,0,0,0c0,0-0.1,0-0.1,0
							c0,0,0-0.1-0.1-0.1C318.7,19.2,318.7,19.2,318.7,19.1z M319.1,19.1C319.1,19.1,319.1,19.1,319.1,19.1c0.1-0.1,0.1-0.1,0-0.1
							c0,0,0-0.1,0-0.1c-0.1,0-0.1,0-0.1-0.1c0,0-0.1,0.1-0.1,0.1c0,0.1,0,0.1,0,0.2C319,19.1,319,19.1,319.1,19.1z"/>
						<path class="st13" d="M312.6,15.2C312.6,15.2,312.5,15.2,312.6,15.2c-0.1-0.1,0-0.1,0-0.2c0,0,0.1-0.1,0-0.1
							c0,0,0.1-0.1,0.1-0.1c0,0,0,0,0.1,0c0,0,0.1,0,0.2,0c0,0,0,0,0,0c0,0,0,0,0,0c0.1,0.1,0.1,0.1,0.2,0.2c0,0,0,0,0,0.1
							c0,0.1,0,0.1,0,0.2c-0.1,0.1-0.1,0.1-0.2,0.2c0,0-0.1,0-0.1,0.1c-0.1,0-0.1,0-0.2,0c0,0,0,0,0,0c0,0-0.1,0-0.1,0
							c0,0,0-0.1-0.1-0.1C312.6,15.3,312.6,15.3,312.6,15.2z M313,15.2C313,15.2,313,15.2,313,15.2c0.1-0.1,0.1-0.1,0-0.1
							c0,0,0-0.1,0-0.1c-0.1,0-0.1,0-0.1-0.1c0,0-0.1,0.1-0.1,0.1c0,0.1,0,0.1,0,0.2C312.9,15.2,312.9,15.2,313,15.2z"/>
						<path class="st11" d="M315.1,5.9C315.1,5.9,315.1,5.9,315.1,5.9c-0.1-0.1,0-0.1,0-0.2c0,0,0.1-0.1,0-0.1c0,0,0.1-0.1,0.1-0.1
							c0,0,0,0,0.1,0c0,0,0.1,0,0.2,0c0,0,0,0,0,0c0,0,0,0,0,0c0.1,0.1,0.1,0.1,0.2,0.2c0,0,0,0,0,0.1c0,0.1,0,0.1,0,0.2
							c-0.1,0.1-0.1,0.1-0.2,0.2c0,0-0.1,0-0.1,0.1c-0.1,0-0.1,0-0.2,0c0,0,0,0,0,0c0,0-0.1,0-0.1,0c0,0,0-0.1-0.1-0.1
							C315.1,6,315.1,6,315.1,5.9z M315.6,5.9C315.6,5.9,315.6,5.9,315.6,5.9c0.1-0.1,0.1-0.1,0-0.1c0,0,0-0.1,0-0.1
							c-0.1,0-0.1,0-0.1-0.1c0,0-0.1,0.1-0.1,0.1c0,0.1,0,0.1,0,0.2C315.4,5.9,315.5,5.9,315.6,5.9z"/>
					</g>
				</g>
			</g>
		</g>
	</g>
	<g>
		<path class="st16" d="M94,25.8c0,0,10.8-2.5,14.2,3.6c3.4,6.1-9.4,6.7-9.4,6.7s-6.4,2.5,1,6.4c7.4,3.9,5.1,8.8,1.8,11.6
			s1.4,6.2,5,7.5"/>
		<path class="st16" d="M146.6,25.6c0,0-6.8-1.7-7,3.5s5.8,3.2,5.8,3.2s3-1.2,2.5,1.9s-6.4,2.5-7.3,5.8s4.3,5.8,4.3,5.8s4.6,3-2.8,6
			c-7.3,3,1.2,8.3,1.2,8.3"/>
		<path class="st16" d="M205.5,56.6c0,0-9.3,3-9-3.8s7.3-5.1,7.3-5.1s7.1-1.6-4.9-7.6c-12-6,3.6-7.8,3.6-7.8s7.1-0.7,10.7,2
			c3.6,2.8-4.8,6.6-2.7,10.4s9.1,0,9.1,0s5.1-1.8,2.4,2.9c-2.7,4.7-6.1,5.6-4.5,7.9s9.8,0,11.2-2.8"/>
		<path class="st16" d="M44,22.9c-9.8-0.3-0.1,9.4-0.1,9.4s3.3,4.2,8.2,5.5c4.8,1.3-3.2,7-3.2,7s-8.3,3.3-6.8,6.6s9.9,1.5,9.9,1.5
			s9-2.5,8.9,1s-6.1,5.5-6.1,5.5"/>
		<path class="st16" d="M34.1,56.6c0,0-5.8,0.7-6-3s6-5.9,6-5.9s5-0.5,5.3-2.9c0.3-2.4-5.6-5.2-5.6-5.2s-2.4-3.7,5.6-3.5
			c8,0.2,10.7-5.7,10.7-5.7s3.7-7.3-6.2-7.5"/>
		<path class="st17" d="M248.8,30.4c0,0-11-2.5-10.4,5.2s9.2,4.6,9.2,4.6s6.4,1.3-4,10.6s6,6.6,6,6.6s4-0.3,4.8-5.5
			c0.8-5.2,7.5-2.4,8.1,0.5s0.9,3.8,3.5,4.4c2.6,0.7,3.7-3.3,2.4-4.9c-1.3-1.5-7.9-4.2-6.7-8c1.3-3.7,4.4-3.6,4.4-3.6
			s4.7,0.8,5.5-1.2c0.8-2-3.3-7.7-10.1-8.1"/>
		<path class="st17" d="M289,57c0,0-9.4,3.5-9.9-2.2s7.3-4.6,7.3-4.6s4.3,0.8,4.3-5c-0.1-5.8,4.2-5.6,4.2-5.6s3.8-0.4,4.9,2.4
			c2.4,5.8,5.9,2.9,7.6,0.8c1-1.2,1.5-2.9,1-4.4c-0.6-1.9-2.6-3.9-8.3-3.8c-10.6,0.1-11.5-10.3-11.5-10.3s0.1-2.5-3.1-2.7"/>
		<path class="st16" d="M84,30.7c0,0,1.5-7.7-5.8-7.5c-7.2,0.2-3.5,5.5-3.5,5.9c0,0.4,1.9,2.5-1.2,4.8c-3.1,2.3-5.3,2.2-5,7.3
			s7.8-1,7.8-1s2.7-2.8,5.8-0.9c2.4,1.4,1.1,3.6,0.3,4.6c-0.4,0.5-0.6,1-0.7,1.6c-0.1,1.1,0.1,2.5,2.3,1.5c3.4-1.5,7.1-0.3,7.1,2
			c0,2.3,0,4.6-3.9,5.1S82,56.7,82,56.7s-0.6,0.7-1.6,2.5c-0.5,0.9-4.1,5.3-5.7,0.9c-1.5-4.4-0.2-5.7-3.9-7.1"/>
		<path class="st16" d="M22.9,22.9c0,0-5.4,0.7-6.1,5.2c-0.6,3.8-7-1.8-8.9-3.6c-0.7-0.6-1.4-1-2.3-1.2c-1.5-0.2-3.7,0.4-5,4.5
			c-1.3,4.1,1,5.5,3,5.9c2.8,0.6,3.5,4.2,1.3,6c-0.9,0.7-2.1,1.5-3.6,2.4c-5.4,3,5.1,13.5,5.1,13.5"/>
		<path class="st16" d="M160.2,35.4c0,0-5.1-10.7,1.1-8.8c6.2,1.9,6.8,0.3,13.3-3.2c6.1-3.2,11.6,4,9.2,9c-1.6,3.3,0.3,6.5,3.9,7
			c3.7,0.5,1.6,10.3-4.3,10.5s-4.1,6.2-4.3,8.1c-0.1,1-1.4,5.3-7.3,1.3s-5.3-5.1-10.3-2.7c-3.2,1.6-4.2-2-2.2-4.9
			c1.9-2.8,1-6.6-1.9-8.2c-0.9-0.5-2-0.8-3.2-0.8"/>
	</g>
	<g>
		<g>
			<path class="st18" d="M169.7,25.7c-7.5,0.8-13.8,6.6-14.9,14.4c-1.3,9.2,5.1,17.7,14.3,19.1c9.2,1.3,17.7-5.1,19.1-14.3
				c1.1-7.8-3.3-15.1-10.3-18"/>
			<ellipse transform="matrix(0.1413 -0.99 0.99 0.1413 130.2364 190.1267)" class="st19" cx="174.7" cy="20" rx="1.3" ry="1.3"/>
			<path class="st19" d="M177.9,26.8l0.7-4.8l-1.6-0.2l0.2-1.6c0.2-1.4-0.7-2.6-2.1-2.8l0,0c-1.4-0.2-2.6,0.7-2.8,2.1l-0.2,1.6
				l-1.6-0.2l-0.7,4.8"/>
		</g>
		<g>
			<line class="st19" x1="157.4" y1="33.3" x2="187.7" y2="37.6"/>
			<line class="st19" x1="154.8" y1="42.7" x2="187.4" y2="47.4"/>
		</g>
		<polyline class="st19" points="155.7,36.7 158,40.1 161.5,37.2 164,41 167.5,38.1 170.1,41.8 173.6,38.9 176.1,42.7 179.6,39.8 
			182.1,43.5 185.6,40.7 188.2,44.4 		"/>
		<rect x="157.6" y="35.6" transform="matrix(0.6001 0.8 -0.8 0.6001 92.6152 -112.158)" class="st19" width="1.8" height="1.8"/>
		
			<rect x="163.7" y="36.5" transform="matrix(0.6001 0.7999 -0.7999 0.6001 95.7688 -116.7188)" class="st19" width="1.8" height="1.8"/>
		<rect x="160.1" y="39.6" transform="matrix(0.6001 0.8 -0.8 0.6001 96.7933 -112.5543)" class="st19" width="1.8" height="1.8"/>
		<polyline class="st19" points="155.2,38.5 156.2,39.9 154.8,40.9 		"/>
		<rect x="166.2" y="40.5" transform="matrix(0.6001 0.8 -0.8 0.6001 99.9397 -117.1003)" class="st19" width="1.8" height="1.8"/>
		
			<rect x="172.2" y="41.4" transform="matrix(0.6001 0.7999 -0.7999 0.6001 103.0353 -121.5776)" class="st19" width="1.8" height="1.8"/>
		
			<rect x="178.1" y="42.2" transform="matrix(0.6001 0.7999 -0.7999 0.6001 106.079 -125.9756)" class="st19" width="1.8" height="1.8"/>
		<rect x="184.3" y="43.1" transform="matrix(0.6001 0.8 -0.8 0.6001 109.2326 -130.5269)" class="st19" width="1.8" height="1.8"/>
		<rect x="169.7" y="37.4" transform="matrix(0.6001 0.8 -0.8 0.6001 98.865 -121.1879)" class="st19" width="1.8" height="1.8"/>
		<rect x="175.7" y="38.2" transform="matrix(0.6001 0.8 -0.8 0.6001 101.9425 -125.6343)" class="st19" width="1.8" height="1.8"/>
		<rect x="181.7" y="39.1" transform="matrix(0.6001 0.8 -0.8 0.6001 105.0292 -130.0941)" class="st19" width="1.8" height="1.8"/>
		<polyline class="st19" points="188.3,41.9 187.3,40.7 188.1,40.1 		"/>
	</g>
	<g>
		<g id="G7_1_">
			<g class="st20">
				
					<image style="overflow:visible;" width="80" height="81" xlink:href="B0BB4F1F.png"  transform="matrix(1 0 0 1 251.2748 -20.4843)">
				</image>
			</g>
			<g>
				<g>
					<path class="st21" d="M291.9,21.6c1.3-1.5,1.3-2.4,1.1-2.7c-0.2-0.2-1.1-0.5-2.8,0.5c-1.7,1-1.6,2.1-1.6,2.1l0.5,0.6l0.5,0.6
						C289.5,22.8,290.5,23,291.9,21.6z"/>
					
						<ellipse transform="matrix(0.7848 -0.6198 0.6198 0.7848 49.1171 184.8364)" class="st22" cx="290.7" cy="21.7" rx="1" ry="0.3"/>
				</g>
				
					<rect x="288.2" y="21.7" transform="matrix(0.7732 -0.6342 0.6342 0.7732 51.2446 188.1599)" class="st23" width="0.9" height="1.6"/>
			</g>
		</g>
		<g id="R7_1_">
			<g class="st20">
				
					<image style="overflow:visible;" width="80" height="80" xlink:href="B0BB4F1A.png"  transform="matrix(1 0 0 1 252.2748 -2.4843)">
				</image>
			</g>
			<g>
				<g>
					<path class="st24" d="M291.4,36.2c-0.6,1.9-0.2,2.7,0.1,2.9c0.3,0.1,1.2-0.1,2.3-1.7c1.1-1.6,0.6-2.6,0.6-2.6l-0.7-0.3
						l-0.7-0.3C293,34.1,292,34.3,291.4,36.2z"/>
					
						<ellipse transform="matrix(0.4508 -0.8926 0.8926 0.4508 128.8224 280.524)" class="st22" cx="292.4" cy="35.6" rx="1" ry="0.3"/>
				</g>
				
					<rect x="293.5" y="33.2" transform="matrix(0.4343 -0.9008 0.9008 0.4343 135.6109 284.0046)" class="st23" width="0.9" height="1.6"/>
			</g>
		</g>
		<g id="Y7_1_">
			<g class="st20">
				
					<image style="overflow:visible;" width="80" height="80" xlink:href="B0BB4F19.png"  transform="matrix(1 0 0 1 268.2748 -8.4843)">
				</image>
			</g>
			<g>
				<g>
					<path class="st25" d="M309,33.1c0.6-1.9,0.2-2.7-0.1-2.9c-0.3-0.1-1.2,0.1-2.3,1.7c-1.1,1.6-0.6,2.6-0.6,2.6l0.7,0.4l0.7,0.4
						C307.4,35.2,308.4,35,309,33.1z"/>
					<ellipse transform="matrix(0.457 -0.8894 0.8894 0.457 137.2548 292.2857)" class="st22" cx="308" cy="33.7" rx="1" ry="0.3"/>
				</g>
				
					<rect x="306" y="34.5" transform="matrix(0.4405 -0.8978 0.8978 0.4405 139.8303 294.8669)" class="st23" width="0.9" height="1.6"/>
			</g>
		</g>
		<g id="G6_1_">
			<g class="st20">
				
					<image style="overflow:visible;" width="80" height="80" xlink:href="B0BB4F26.png"  transform="matrix(1 0 0 1 269.2748 7.5157)">
				</image>
			</g>
			<g>
				<g>
					<path class="st21" d="M309.9,46c1.1,1.7,0.9,2.6,0.6,2.8c-0.2,0.2-1.2,0.3-2.7-1c-1.5-1.3-1.3-2.3-1.3-2.3l0.6-0.5l0.6-0.5
						C307.8,44.4,308.8,44.3,309.9,46z"/>
					
						<ellipse transform="matrix(0.7405 -0.6721 0.6721 0.7405 49.451 219.3544)" class="st22" cx="308.8" cy="45.6" rx="0.3" ry="1"/>
				</g>
				
					<rect x="306.1" y="44.1" transform="matrix(0.7526 -0.6585 0.6585 0.7526 46.5699 213.0895)" class="st23" width="1.6" height="0.9"/>
			</g>
		</g>
		<g id="R6_1_">
			<g class="st20">
				
					<image style="overflow:visible;" width="80" height="81" xlink:href="B0BB4F29.png"  transform="matrix(1 0 0 1 234.2748 13.5157)">
				</image>
			</g>
			<g>
				<g>
					<path class="st24" d="M275.2,55.6c-1.9-0.3-2.5-1.1-2.5-1.4c0-0.3,0.6-1.1,2.5-1.3c2-0.3,2.6,0.6,2.6,0.6l0,0.8l0,0.8
						C277.8,55.1,277.1,55.9,275.2,55.6z"/>
					
						<ellipse transform="matrix(1 -5.802626e-03 5.802626e-03 1 -0.3143 1.6035)" class="st22" cx="276.2" cy="55" rx="1" ry="0.3"/>
				</g>
				
					<rect x="277.5" y="53.8" transform="matrix(1.262129e-02 -0.9999 0.9999 1.262129e-02 220.4684 331.8095)" class="st23" width="1.6" height="0.9"/>
			</g>
		</g>
		<g id="Y6_1_">
			<g class="st20">
				
					<image style="overflow:visible;" width="81" height="81" xlink:href="B0BB4F2A.png"  transform="matrix(1 0 0 1 253.2748 10.5157)">
				</image>
			</g>
			<g>
				<g>
					<path class="st25" d="M293.9,49.5c1.5,1.3,1.6,2.2,1.4,2.5c-0.2,0.3-1.1,0.6-2.9-0.2c-1.8-0.8-1.9-1.8-1.9-1.8l0.4-0.7l0.4-0.7
						C291.4,48.7,292.4,48.3,293.9,49.5z"/>
					
						<ellipse transform="matrix(0.5074 -0.8617 0.8617 0.5074 101.4818 276.6732)" class="st22" cx="292.7" cy="49.6" rx="0.3" ry="1"/>
				</g>
				
					<rect x="289.8" y="48.6" transform="matrix(0.5231 -0.8523 0.8523 0.5231 96.7461 271.107)" class="st23" width="1.6" height="0.9"/>
			</g>
		</g>
		<g id="G5_2_">
			<g class="st20">
				
					<image style="overflow:visible;" width="80" height="80" xlink:href="B0BB4F28.png"  transform="matrix(1 0 0 1 205.2748 -4.4843)">
				</image>
			</g>
			<g>
				<g>
					<path class="st21" d="M244.5,37c-0.3-1.9,0.2-2.7,0.5-2.8c0.3-0.1,1.2,0.2,2.1,2c0.9,1.8,0.3,2.6,0.3,2.6l-0.8,0.2l-0.8,0.2
						C245.8,39.3,244.8,38.9,244.5,37z"/>
					
						<ellipse transform="matrix(0.9439 -0.3301 0.3301 0.9439 1.3043 83.1164)" class="st22" cx="245.4" cy="37.7" rx="0.3" ry="1"/>
				</g>
				
					<rect x="245.9" y="39" transform="matrix(0.9499 -0.3125 0.3125 0.9499 3.023306e-02 79.0836)" class="st23" width="1.6" height="0.9"/>
			</g>
		</g>
		<g id="R5_2_">
			<g class="st20">
				
					<image style="overflow:visible;" width="80" height="80" xlink:href="B0BB4F2D.png"  transform="matrix(1 0 0 1 209.2748 -14.4843)">
				</image>
			</g>
			<g>
				<g>
					<path class="st24" d="M247.5,26.2c0.7-1.8,1.6-2.3,1.9-2.2c0.3,0.1,0.9,0.8,0.8,2.8c-0.1,2-1.1,2.4-1.1,2.4l-0.8-0.2l-0.8-0.2
						C247.5,28.8,246.8,28,247.5,26.2z"/>
					
						<ellipse transform="matrix(0.1922 -0.9814 0.9814 0.1922 173.5153 265.3086)" class="st22" cx="247.9" cy="27.3" rx="1" ry="0.3"/>
				</g>
				
					<rect x="247.7" y="28.6" transform="matrix(0.2102 -0.9777 0.9777 0.2102 167.2529 265.8739)" class="st23" width="0.9" height="1.6"/>
			</g>
		</g>
		<g id="Y5_2_">
			<g class="st20">
				
					<image style="overflow:visible;" width="80" height="81" xlink:href="B0BB4F2E.png"  transform="matrix(1 0 0 1 194.2748 -8.4843)">
				</image>
			</g>
			<g>
				<g>
					<path class="st25" d="M234.5,33.7c-1.8-0.8-2.2-1.7-2.1-2c0.1-0.3,0.8-0.9,2.8-0.7c2,0.2,2.3,1.2,2.3,1.2l-0.2,0.8l-0.2,0.8
						C237.1,33.8,236.3,34.5,234.5,33.7z"/>
					
						<ellipse transform="matrix(0.2377 -0.9713 0.9713 0.2377 147.2247 254.2215)" class="st22" cx="235.6" cy="33.3" rx="0.3" ry="1"/>
				</g>
				
					<rect x="237" y="32.7" transform="matrix(0.2557 -0.9668 0.9668 0.2557 144.9298 254.522)" class="st23" width="1.6" height="0.9"/>
			</g>
		</g>
		<g id="G4_3_">
			<g class="st20">
				
					<image style="overflow:visible;" width="80" height="81" xlink:href="8B126F6D.png"  transform="matrix(1 0 0 1 201.2748 21.5157)">
				</image>
			</g>
			<g>
				<g>
					<path class="st21" d="M242.6,61.5c-0.7,1.8-1.6,2.2-1.9,2.1c-0.3-0.1-0.9-0.8-0.7-2.8c0.2-2,1.2-2.4,1.2-2.4l0.8,0.2l0.8,0.2
						C242.7,58.9,243.4,59.7,242.6,61.5z"/>
					
						<ellipse transform="matrix(0.2139 -0.9768 0.9768 0.2139 131.4163 284.0947)" class="st22" cx="242.2" cy="60.4" rx="1" ry="0.3"/>
				</g>
				
					<rect x="241.6" y="57.4" transform="matrix(0.2317 -0.9728 0.9728 0.2317 129.2994 280.1572)" class="st23" width="0.9" height="1.6"/>
			</g>
		</g>
		<g id="R4_2_">
			<g class="st20">
				
					<image style="overflow:visible;" width="80" height="81" xlink:href="8B126F6E.png"  transform="matrix(1 0 0 1 214.2748 2.5157)">
				</image>
			</g>
			<g>
				<g>
					<path class="st24" d="M253.5,41.4c1.9,0.4,2.5,1.2,2.5,1.5c0,0.3-0.6,1-2.6,1.3c-2,0.2-2.5-0.7-2.5-0.7l0-0.8l0-0.8
						C250.9,41.9,251.6,41.1,253.5,41.4z"/>
					
						<ellipse transform="matrix(2.301193e-02 -0.9997 0.9997 2.301193e-02 204.7025 293.528)" class="st22" cx="252.5" cy="42" rx="0.3" ry="1"/>
				</g>
				
					<rect x="249.7" y="42.2" transform="matrix(4.142639e-02 -0.9991 0.9991 4.142639e-02 197.4451 291.1274)" class="st23" width="1.6" height="0.9"/>
			</g>
		</g>
		<g id="Y4_2_">
			<g class="st20">
				
					<image style="overflow:visible;" width="80" height="81" xlink:href="8B126F6C.png"  transform="matrix(1 0 0 1 200.2748 6.5157)">
				</image>
			</g>
			<g>
				<g>
					<path class="st25" d="M240,48.7c-1.1-1.7-0.9-2.6-0.7-2.8c0.2-0.2,1.2-0.3,2.7,1c1.5,1.3,1.3,2.3,1.3,2.3l-0.6,0.5l-0.6,0.5
						C242.2,50.3,241.1,50.4,240,48.7z"/>
					
						<ellipse transform="matrix(0.7349 -0.6782 0.6782 0.7349 30.6942 176.5581)" class="st22" cx="241.2" cy="49" rx="0.3" ry="1"/>
				</g>
				
					<rect x="242.3" y="49.6" transform="matrix(0.7471 -0.6647 0.6647 0.7471 28.1784 174.228)" class="st23" width="1.6" height="0.9"/>
			</g>
		</g>
		<g id="G5_1_">
			<g class="st20">
				
					<image style="overflow:visible;" width="80" height="80" xlink:href="8B126F74.png"  transform="matrix(1 0 0 1 221.2748 12.5157)">
				</image>
			</g>
			<g>
				<g>
					<path class="st21" d="M261,51.2c-1,1.7-0.7,2.6-0.5,2.8c0.2,0.2,1.2,0.2,2.6-1.2c1.4-1.4,1.1-2.4,1.1-2.4l-0.6-0.5l-0.6-0.5
						C263,49.5,261.9,49.5,261,51.2z"/>
					
						<ellipse transform="matrix(0.625 -0.7806 0.7806 0.625 58.5788 223.6297)" class="st22" cx="262.1" cy="50.8" rx="1" ry="0.3"/>
				</g>
				
					<rect x="263.4" y="48.9" transform="matrix(0.6105 -0.7921 0.7921 0.6105 63.4722 228.3557)" class="st23" width="0.9" height="1.6"/>
			</g>
		</g>
		<g id="R5_1_">
			<g class="st20">
				
					<image style="overflow:visible;" width="81" height="80" xlink:href="8B126F71.png"  transform="matrix(1 0 0 1 216.2748 18.5157)">
				</image>
			</g>
			<g>
				<g>
					<path class="st24" d="M255.1,58.9c1.7,1,2.6,0.8,2.8,0.5c0.2-0.2,0.2-1.2-1.1-2.7c-1.3-1.5-2.4-1.2-2.4-1.2l-0.5,0.6l-0.5,0.6
						C253.4,56.8,253.4,57.9,255.1,58.9z"/>
					
						<ellipse transform="matrix(0.6473 -0.7623 0.7623 0.6473 45.7834 214.5552)" class="st22" cx="254.7" cy="57.8" rx="0.3" ry="1"/>
				</g>
				
					<rect x="252.8" y="55.5" transform="matrix(0.6332 -0.774 0.774 0.6332 49.7208 216.8056)" class="st23" width="1.6" height="0.9"/>
			</g>
		</g>
		<g id="Y5_1_">
			<g class="st20">
				
					<image style="overflow:visible;" width="80" height="80" xlink:href="8B126F72.png"  transform="matrix(1 0 0 1 217.2748 6.5157)">
				</image>
			</g>
			<g>
				<g>
					<path class="st25" d="M257.6,44.7c-1.9,0.7-2.3,1.5-2.2,1.8c0.1,0.3,0.8,0.9,2.7,0.9c2-0.1,2.4-1,2.4-1l-0.1-0.8l-0.1-0.8
						C260.2,44.7,259.5,44,257.6,44.7z"/>
					
						<ellipse transform="matrix(0.9862 -0.1657 0.1657 0.9862 -3.8969 43.489)" class="st22" cx="258.7" cy="45.1" rx="1" ry="0.3"/>
				</g>
				
					<rect x="260.4" y="44.6" transform="matrix(0.9829 -0.1839 0.1839 0.9829 -3.9053 48.754)" class="st23" width="0.9" height="1.6"/>
			</g>
		</g>
		<g id="G4_2_">
			<g class="st20">
				
					<image style="overflow:visible;" width="80" height="81" xlink:href="8B126F73.png"  transform="matrix(1 0 0 1 233.2748 -8.4843)">
				</image>
			</g>
			<g>
				<g>
					<path class="st21" d="M273.8,33.6c1.3-1.5,1.3-2.4,1.1-2.7c-0.2-0.2-1.1-0.5-2.8,0.5c-1.7,1-1.6,2.1-1.6,2.1l0.5,0.6l0.5,0.6
						C271.5,34.8,272.5,35.1,273.8,33.6z"/>
					<ellipse transform="matrix(0.787 -0.617 0.617 0.787 37.2474 175.4147)" class="st22" cx="272.7" cy="33.8" rx="1" ry="0.3"/>
				</g>
				
					<rect x="270.2" y="33.7" transform="matrix(0.7756 -0.6312 0.6312 0.7756 38.938 178.5501)" class="st23" width="0.9" height="1.6"/>
			</g>
		</g>
		<g id="R4_1_">
			<g class="st20">
				
					<image style="overflow:visible;" width="80" height="81" xlink:href="8B126F7A.png"  transform="matrix(1 0 0 1 230.2748 4.5157)">
				</image>
			</g>
			<g>
				<g>
					<path class="st24" d="M268.7,44.5c0.6,1.9,1.4,2.3,1.7,2.3c0.3,0,1-0.7,1-2.7c0-2-1-2.5-1-2.5l-0.8,0.1l-0.8,0.1
						C268.8,41.8,268.1,42.6,268.7,44.5z"/>
					<ellipse transform="matrix(0.9911 -0.133 0.133 0.9911 -3.3818 36.1908)" class="st22" cx="269.1" cy="43.4" rx="0.3" ry="1"/>
				</g>
				
					<rect x="268.8" y="40.8" transform="matrix(0.9885 -0.1513 0.1513 0.9885 -3.1397 41.2486)" class="st23" width="1.6" height="0.9"/>
			</g>
		</g>
		<g id="Y4_1_">
			<g class="st20">
				
					<image style="overflow:visible;" width="81" height="81" xlink:href="8B126F7D.png"  transform="matrix(1 0 0 1 221.2748 -4.4843)">
				</image>
			</g>
			<g>
				<g>
					<path class="st25" d="M260.5,34.8c0,2,0.7,2.7,1,2.7c0.3,0,1.1-0.4,1.7-2.3c0.6-1.9-0.2-2.6-0.2-2.6l-0.8-0.1l-0.8-0.1
						C261.4,32.4,260.4,32.9,260.5,34.8z"/>
					<ellipse transform="matrix(0.16 -0.9871 0.9871 0.16 185.9081 286.3717)" class="st22" cx="261.2" cy="34" rx="1" ry="0.3"/>
				</g>
				
					<rect x="261.8" y="31.2" transform="matrix(0.142 -0.9899 0.9899 0.142 193.3061 287.0388)" class="st23" width="0.9" height="1.6"/>
			</g>
		</g>
		<g class="st26">
			<g id="G3_1_" class="st27">
				<g class="st20">
					
						<image style="overflow:visible;" width="80" height="81" xlink:href="8B126F7F.png"  transform="matrix(1 0 0 1 184.2748 12.5157)">
					</image>
				</g>
				<g>
					<g>
						<path class="st21" d="M222.7,53.6c1.7,0.9,2.7,0.7,2.8,0.4c0.2-0.3,0.2-1.2-1.2-2.6c-1.4-1.4-2.4-1.1-2.4-1.1l-0.5,0.6
							l-0.5,0.6C221,51.6,220.9,52.6,222.7,53.6z"/>
						
							<ellipse transform="matrix(0.6159 -0.7878 0.7878 0.6159 44.0454 195.2663)" class="st22" cx="222.3" cy="52.5" rx="0.3" ry="1"/>
					</g>
					
						<rect x="220.3" y="50.2" transform="matrix(0.6013 -0.799 0.799 0.6013 47.6587 196.8203)" class="st23" width="1.6" height="0.9"/>
				</g>
			</g>
			<g id="R3_1_" class="st27">
				<g class="st20">
					
						<image style="overflow:visible;" width="80" height="81" xlink:href="8B126F9F.png"  transform="matrix(1 0 0 1 154.2748 2.5157)">
					</image>
				</g>
				<g>
					<g>
						<path class="st24" d="M193.6,41.6c-0.7,1.8-0.4,2.7-0.1,2.9c0.3,0.2,1.2,0,2.5-1.5c1.2-1.5,0.8-2.5,0.8-2.5l-0.7-0.4l-0.7-0.4
							C195.4,39.7,194.3,39.8,193.6,41.6z"/>
						
							<ellipse transform="matrix(0.5187 -0.855 0.855 0.5187 58.5609 186.1682)" class="st22" cx="194.6" cy="41.1" rx="1" ry="0.3"/>
					</g>
					
						<rect x="195.8" y="38.9" transform="matrix(0.503 -0.8643 0.8643 0.503 63.2771 189.3532)" class="st23" width="0.9" height="1.6"/>
				</g>
			</g>
			<g id="Y3_1_" class="st27">
				<g class="st20">
					
						<image style="overflow:visible;" width="80" height="81" xlink:href="8B126F9D.png"  transform="matrix(1 0 0 1 165.2748 11.5157)">
					</image>
				</g>
				<g>
					<g>
						<path class="st25" d="M203.9,51.7c0.7,1.8,1.6,2.2,1.9,2.2c0.3-0.1,0.9-0.8,0.8-2.8c-0.1-2-1.1-2.4-1.1-2.4l-0.8,0.2l-0.8,0.2
							C203.9,49,203.2,49.8,203.9,51.7z"/>
						
							<ellipse transform="matrix(0.9797 -0.2004 0.2004 0.9797 -5.9884 41.9656)" class="st22" cx="204.3" cy="50.6" rx="0.3" ry="1"/>
					</g>
					
						<rect x="203.8" y="47.9" transform="matrix(0.9759 -0.2183 0.2183 0.9759 -5.6321 45.83)" class="st23" width="1.6" height="0.9"/>
				</g>
			</g>
			<g id="R2_1_" class="st27">
				<g class="st20">
					
						<image style="overflow:visible;" width="80" height="81" xlink:href="8B126FA8.png"  transform="matrix(1 0 0 1 175.2748 10.5157)">
					</image>
				</g>
				<g>
					<g>
						<path class="st24" d="M214.1,50.5c0.6,1.9,1.4,2.3,1.7,2.3c0.3,0,1-0.7,1-2.7c0-2-0.9-2.5-0.9-2.5l-0.8,0.1l-0.8,0.1
							C214.2,47.9,213.5,48.6,214.1,50.5z"/>
						
							<ellipse transform="matrix(0.9916 -0.1291 0.1291 0.9916 -4.5887 28.1065)" class="st22" cx="214.5" cy="49.5" rx="0.3" ry="1"/>
					</g>
					
						<rect x="214.2" y="46.9" transform="matrix(0.9891 -0.1475 0.1475 0.9891 -4.6268 32.2129)" class="st23" width="1.6" height="0.9"/>
				</g>
			</g>
			<g id="G2_1_" class="st27">
				<g class="st20">
					
						<image style="overflow:visible;" width="81" height="80" xlink:href="8B126FA9.png"  transform="matrix(1 0 0 1 152.2748 8.5157)">
					</image>
				</g>
				<g>
					<g>
						<path class="st21" d="M194.1,47.7c-1.9-0.5-2.7-0.1-2.9,0.2c-0.1,0.3,0.1,1.2,1.8,2.3c1.7,1.1,2.6,0.5,2.6,0.5l0.3-0.7
							l0.3-0.7C196.3,49.3,196,48.2,194.1,47.7z"/>
						
							<ellipse transform="matrix(0.4222 -0.9065 0.9065 0.4222 68.4261 204.6804)" class="st22" cx="194.8" cy="48.7" rx="0.3" ry="1"/>
					</g>
					
						<rect x="195.6" y="49.7" transform="matrix(0.4056 -0.914 0.914 0.4056 70.8684 209.2941)" class="st23" width="1.6" height="0.9"/>
				</g>
			</g>
			<g id="Y2_1_" class="st27">
				<g class="st20">
					
						<image style="overflow:visible;" width="80" height="80" xlink:href="8B126FAA.png"  transform="matrix(1 0 0 1 176.2748 1.5157)">
					</image>
				</g>
				<g>
					<g>
						<path class="st25" d="M215,42.4c1.8,0.9,2.7,0.6,2.8,0.4c0.2-0.3,0.1-1.2-1.3-2.6c-1.4-1.4-2.4-1-2.4-1l-0.5,0.6l-0.5,0.6
							C213.2,40.5,213.2,41.5,215,42.4z"/>
						
							<ellipse transform="matrix(0.5953 -0.8035 0.8035 0.5953 53.6233 189.1528)" class="st22" cx="214.6" cy="41.3" rx="0.3" ry="1"/>
					</g>
					<polygon class="st23" points="213.4,38.7 212.5,39.9 213.2,40.5 214.1,39.2 					"/>
				</g>
			</g>
			<g id="G1_1_" class="st27">
				<g class="st20">
					
						<image style="overflow:visible;" width="80" height="80" xlink:href="8B126FAB.png"  transform="matrix(1 0 0 1 153.2748 -9.4843)">
					</image>
				</g>
				<g>
					<g>
						<path class="st21" d="M194.9,30.3c-1.3-1.5-2.2-1.6-2.5-1.5c-0.3,0.2-0.6,1,0.1,2.9c0.7,1.8,1.8,1.9,1.8,1.9l0.7-0.4l0.7-0.4
							C195.8,32.9,196.2,31.9,194.9,30.3z"/>
						
							<ellipse transform="matrix(0.869 -0.4948 0.4948 0.869 9.9386 100.5627)" class="st22" cx="194.9" cy="31.5" rx="0.3" ry="1"/>
					</g>
					
						<rect x="194.5" y="33.2" transform="matrix(0.8596 -0.5109 0.5109 0.8596 10.2256 104.5152)" class="st23" width="1.6" height="0.9"/>
				</g>
			</g>
			<g id="Y1_1_" class="st27">
				<g class="st20">
					
						<image style="overflow:visible;" width="80" height="81" xlink:href="8B126FAC.png"  transform="matrix(1 0 0 1 163.2748 -3.4843)">
					</image>
				</g>
				<g>
					<g>
						<path class="st25" d="M201.7,36.5c0.6,1.9,1.4,2.3,1.7,2.3c0.3,0,1-0.7,0.9-2.7c0-2-1-2.5-1-2.5l-0.8,0.1l-0.8,0.1
							C201.8,33.8,201.1,34.6,201.7,36.5z"/>
						<ellipse transform="matrix(0.9902 -0.14 0.14 0.9902 -2.9638 28.6434)" class="st22" cx="202.2" cy="35.4" rx="0.3" ry="1"/>
					</g>
					
						<rect x="201.8" y="32.8" transform="matrix(0.9874 -0.1582 0.1582 0.9874 -2.7091 32.4612)" class="st23" width="1.6" height="0.9"/>
				</g>
			</g>
			<g id="R1_1_" class="st27">
				<g class="st20">
					
						<image style="overflow:visible;" width="80" height="81" xlink:href="8B126FA5.png"  transform="matrix(1 0 0 1 170.2748 -12.4843)">
					</image>
				</g>
				<g>
					<g>
						<path class="st24" d="M211.3,29c0.1-2-0.5-2.7-0.8-2.8c-0.3-0.1-1.2,0.4-1.8,2.2c-0.7,1.8,0,2.6,0,2.6l0.8,0.2l0.8,0.2
							C210.2,31.5,211.2,31,211.3,29z"/>
						
							<ellipse transform="matrix(0.2198 -0.9755 0.9755 0.2198 135.0731 228.6497)" class="st22" cx="210.5" cy="29.9" rx="1" ry="0.3"/>
					</g>
					
						<rect x="208.9" y="31" transform="matrix(0.2018 -0.9794 0.9794 0.2018 136.0213 230.401)" class="st23" width="0.9" height="1.6"/>
				</g>
			</g>
		</g>
	</g>
</g>
</svg>
