<?xml version="1.0" encoding="utf-8"?>
<!-- Generator: Adobe Illustrator 21.0.0, SVG Export Plug-In . SVG Version: 6.00 Build 0)  -->
<svg version="1.1" id="Isolation_Mode" xmlns="http://www.w3.org/2000/svg" xmlns:xlink="http://www.w3.org/1999/xlink" x="0px"
	 y="0px" viewBox="0 0 83.8 51.1" style="enable-background:new 0 0 83.8 51.1;" xml:space="preserve">
<style type="text/css">
	.st0{fill:url(#SVGID_1_);}
</style>
<title>socialmedia2</title>
<linearGradient id="SVGID_1_" gradientUnits="userSpaceOnUse" x1="-760.1005" y1="-6828.5581" x2="-507.4604" y2="-6828.5581" gradientTransform="matrix(1.38 0 0 -0.34 837.55 -2296.1052)">
	<stop  offset="0" style="stop-color:#E1315B"/>
	<stop  offset="1" style="stop-color:#ED4235"/>
</linearGradient>
<path class="st0" d="M20.9,0C7,0,0,10,0,18.3c-0.1,5.2,1.8,9.6,5.9,11.3c0.5,0.3,1.1,0.1,1.4-0.3c0,0,0,0,0-0.1
	c0.1-0.1,0.1-0.2,0.1-0.3c0.1-0.5,0.5-1.8,0.6-2.4c0.2-0.6,0.1-1.2-0.4-1.6c-1.3-1.6-2-3.6-1.9-5.7c0-7.4,5.5-14,14.4-14
	c7.9,0,12.2,4.8,12.2,11.2c0,8.4-3.7,15.6-9.3,15.6c-2.5,0.1-4.6-1.8-4.8-4.3c0-0.4,0-0.9,0.1-1.3c0.9-3.7,2.6-7.7,2.6-10.4
	c0-2.4-1.3-4.4-4-4.4c-3.1,0-5.6,3.2-5.6,7.6c0,1.6,0.3,3.1,0.9,4.6L8.4,39.7c-1.1,4.7-0.2,10.5-0.1,11.1c0,0.2,0.2,0.4,0.4,0.3
	S8.9,51,9,50.9c0.3-0.4,4-5,5.3-9.6c0.4-1.3,2.1-8,2.1-8c1,1.9,4,3.6,7.2,3.6c9.4,0,15.8-8.6,15.8-20.1C39.4,8.1,32.1,0,20.9,0z"/>
</svg>
