<?xml version="1.0" standalone="no"?>
<!DOCTYPE svg PUBLIC "-//W3C//DTD SVG 1.1//EN" "http://www.w3.org/Graphics/SVG/1.1/DTD/svg11.dtd">
<svg xmlns="http://www.w3.org/2000/svg">
<metadata>Copyright (C) 2019 by original authors @ fontello.com</metadata>
<defs>
<font id="fontello" horiz-adv-x="1000" >
<font-face font-family="fontello" font-weight="400" font-stretch="normal" units-per-em="1000" ascent="850" descent="-150" />
<missing-glyph horiz-adv-x="1000" />
<glyph glyph-name="arrow-left-strong" unicode="&#xe800;" d="M0 350l625 500-125-375 750 0 0-250-750 0 125-375-625 500z" horiz-adv-x="1250" />

<glyph glyph-name="arrow-left" unicode="&#xe801;" d="M559-33l-118-117-441 497 3 3-3 3 441 497 118-117-341-383 341-383z" horiz-adv-x="559" />

<glyph glyph-name="arrow-right" unicode="&#xe802;" d="M559 347l-442-497-117 117 340 383-340 383 117 117 442-497-4-3 4-3z" horiz-adv-x="559" />

<glyph glyph-name="arrow-next" unicode="&#xe803;" d="M1478 284c-13-13-28-20-45-21l-376-390c-29-30-76-30-105 0-29 30-29 79 0 109l282 292-1160 0c-41 0-74 34-74 77 0 42 33 77 74 77l1160 0-282 292c-29 30-29 79 0 109 29 30 76 30 105 0l421-436c29-30 29-79 0-109z" horiz-adv-x="1502" />

<glyph glyph-name="gluten-free" unicode="&#xe804;" d="M648 472c-1-23-4-47-11-71 5-18 24-103 0-183 6-23 36-156-32-248-55-76-129-120-190-120-2 0-3 0-5 0-1 0-3 0-4 0-62 0-136 44-191 120-11 15-19 31-26 48l-145-144-44 43 23 23 754 746 17 17 43-44-189-187z m-321-318l-88-87c5-21 13-42 26-61 14-19 30-36 45-49 0 10 0 21 1 33 5 45 26 94 57 139-13 10-27 18-41 25z m255 208c-16-2-37-6-59-14l-139-137c-2-5-3-10-5-15 11-6 21-13 31-21 57 46 130 61 169 66 12 45 7 93 3 121z m0-182c-41-7-119-25-159-79-27-38-46-81-50-118-4-31 3-54 17-65 32-22 109 11 165 88 40 55 33 134 27 174z m-159 285c-20-27-35-58-44-86 1-1 2-1 3-2l-45-45c-35 18-74 26-98 30-5-28-9-76 2-121 2 0 3 0 5 0l-71-71c2 24 7 41 8 48-23 80-4 165 0 183-26 88 0 181 1 186l4 13 0 250 62 0 0-245c9-1 19-3 30-6 9 17 19 33 30 48l0 203 62 0 0-132c16 15 28 25 30 26l19 15 19-15c1-1 4-3 8-7l0 113 62 0 0-178c16-20 33-43 47-69 0 0 0 0 1 0l0 247 62 0 0-236-78-78c-40-10-90-31-119-71z m-184 80c-5-29-9-76 2-121 20-3 50-8 82-19 9 30 25 60 45 89-41 32-97 46-129 51z m182 133c-21-19-55-54-81-98 24-9 48-23 70-40 26 21 56 36 85 46-24 41-55 74-74 92z" horiz-adv-x="838" />

<glyph glyph-name="lactose-free" unicode="&#xe805;" d="M704 501l0-561c0-13-9-25-21-29l-184-59 0 0c-3-1-6-2-10-2l-317 0c-17 0-31 14-31 31l0 68-97-95-44 43 23 23 754 738 17 16 43-43-133-130z m-246-241l-254-250 0-99 254 0 0 349z m184 180l-122-119 0-398 122 39 0 478z m0 180l-65 65-57-97 0-100-62-61 0 138-254 0 0-389-63-62 0 482 1 0c0 6 1 12 5 18l96 131 0 75c0 8 3 15 9 21 6 6 14 9 22 9 0 0 0 0 0 0l296 0c17 0 31-14 31-31l0-72 90-90-49-49 0 12z m-409 6l238 0 46 79-227 0-57-79z m306 163l-234 0 0-24 234 0 0 24z" horiz-adv-x="838" />

<glyph glyph-name="envelope" unicode="&#xe806;" d="M1250 850l-1167 0c-46 0-83-37-83-83l0-834c0-46 37-83 83-83l1167 0c46 0 83 37 83 83l0 834c0 46-37 83-83 83z m-83-167l0-5-500-389-500 389 0 5 1000 0z m-1000-666l0 450 449-349c15-12 33-18 51-18 18 0 36 6 51 18l449 349 0-450-1000 0z" horiz-adv-x="1333" />

<glyph glyph-name="facebook" unicode="&#xe807;" d="M338 630l0-100 169 0-21-180-148 0 0-500-232 0 0 500-106 0 0 180 106 0 0 100c0 0-19 190 169 220l232 0 0-160-106 0c0 0-60 2-63-60z" horiz-adv-x="507" />

<glyph glyph-name="fb-button" unicode="&#xe808;" d="M333 583l0-66 200 0 0-200-200 0 0-467-200 0 0 467-133 0 0 200 133 0 0 66c0 0-42 236 156 267l244 0 0-200-133 0c0 0-67 2-67-67z" horiz-adv-x="533" />

<glyph glyph-name="fit" unicode="&#xe809;" d="M807 125c-26-89-77-166-142-217-69-52-146-70-218-50-12 3-23 7-34 12-11-5-23-9-35-12-19-6-38-8-58-8-54 0-109 20-159 58-66 51-117 128-143 217-55 187 18 372 161 412 66 19 138 4 202-40 2 16 6 32 11 47-91 8-156 38-194 91-60 83-27 187-26 191l8 24 25-2c99-6 171-38 214-95 31-42 40-88 41-124 12 7 26 12 41 15 18 4 35-7 39-24 4-17-7-34-25-37-46-10-63-49-69-85 64 43 135 57 200 39 144-40 216-225 161-412z m-440 591c-28 36-74 58-138 67-4-28-5-75 22-112 26-36 75-58 144-64 2 28-1 72-28 109z m261-240c-61 18-133-8-192-68l-23-25-24 25c-46 48-101 74-153 74-13 0-26-2-39-6-109-30-161-180-116-334 22-76 65-142 120-184 52-40 109-54 160-40 12 4 24 9 35 15l17 10 17-10c11-6 23-11 35-15 51-14 108 0 160 40 55 42 98 108 120 184 45 154-7 304-117 334z m-154-514c0 0-1 0-2 0-17 0-31 12-32 29-2 17 12 33 30 34 110 8 147 96 147 135 0 18 14 32 32 32l0 0c18 0 33-14 33-32 0-74-66-188-208-198z" horiz-adv-x="825" />

<glyph glyph-name="google-plus" unicode="&#xe80a;" d="M1043 339l-145 0 0-143c0-19-16-35-35-35l-20 0c-19 0-35 16-35 35l0 143-145 0c-19 0-34 15-34 34l0 21c0 19 15 34 34 34l145 0 0 143c0 20 16 35 35 35l20 0c19 0 35-15 35-35l0-143 145 0c19 0 34-15 34-34l0-21c0-19-15-34-34-34z m-508 390c30-38 48-84 48-134 0-95-63-176-152-213 7-23 27-46 85-87 108-78 112-223 112-223l0 0c0-3 1-7 1-11 0-117-141-211-315-211-173 0-314 94-314 211 0 111 129 202 292 210l0 93c-127 15-225 112-225 231 0 129 116 233 258 233 4 0 8-1 12-1l0 1c0 0 257 21 291 22 35 1 23-44 23-44l-116-77z m-377-656c0-74 75-134 168-134 93 0 168 60 168 134 0 73-75 133-168 133-93 0-168-60-168-133z m273 543c-18 85-80 145-138 133-59-11-91-90-73-176 18-85 80-145 138-133 58 11 91 90 73 176z" horiz-adv-x="1077" />

<glyph glyph-name="head-fb" unicode="&#xe80b;" d="M498 850c-274 0-498-225-498-500 0-276 224-500 498-500 275 0 498 224 498 500 0 275-223 500-498 500z m124-518l-81 0c0-130 0-289 0-289l-120 0c0 0 0 158 0 289l-57 0 0 103 57 0 0 66c0 47 22 122 121 122l89-1 0-99c0 0-54 0-65 0-10 0-25-5-25-28l0-60 91 0-10-103z" horiz-adv-x="996" />

<glyph glyph-name="head-inst" unicode="&#xe80c;" d="M498-150c-274 0-498 224-498 500 0 276 224 500 498 500 275 0 498-224 498-500 0-276-223-500-498-500z m283 558l0 116c0 61-49 110-109 110l-348 0c-60 0-109-49-109-110l0-116 0-232c0-61 49-110 109-110l348 0c60 0 109 49 109 110l0 232z m-109-287l-348 0c-30 0-54 25-54 55l0 232 85 0c-8-18-12-37-12-58 0-86 70-155 155-155 86 0 155 69 155 155 0 21-4 40-11 58l84 0 0-232c0-30-24-55-54-55z m-52 448l83 0 13 0 0-13 0-83-96-1 0 97z m-122-319c-55 0-100 45-100 100 0 22 7 42 19 58 18 26 48 42 81 42 33 0 63-16 81-42 12-16 19-36 19-58 0-55-45-100-100-100z" horiz-adv-x="996" />

<glyph glyph-name="head-pin" unicode="&#xe80d;" d="M498 850c-275 0-498-224-498-500 0-276 223-500 498-500 275 0 498 224 498 500 0 276-223 500-498 500z m39-635c-36 3-52 21-80 38-16-82-35-162-92-203-17 125 26 219 46 318-34 58 4 174 76 146 89-36-77-215 35-238 116-23 163 203 91 276-104 106-303 2-278-149 6-38 44-49 15-100-67 15-87 68-84 138 4 115 103 196 202 207 126 14 244-46 260-165 18-134-57-279-191-268z" horiz-adv-x="996" />

<glyph glyph-name="head-yt" unicode="&#xe80e;" d="M1135 825c-38 12-271 25-504 25-234 0-467-13-505-25-101-32-126-250-126-475 0-225 25-443 126-475 38-12 271-25 505-25 233 0 466 13 504 25 101 32 126 250 126 475 0 225-25 443-126 475z m-630-756l0 562 378-281-378-281z" horiz-adv-x="1261" />

<glyph glyph-name="heart" unicode="&#xe80f;" d="M923 850c-85 0-162-35-217-90l-91-90-90 90c-55 55-132 90-217 90-170 0-308-138-308-308 0-84 30-139 111-219l450-450c30-30 79-30 109 0l449 449c80 79 112 136 112 220 0 170-138 308-308 308z m154-461l-462-461-461 461c-29 28-77 78-77 153 0 128 103 231 231 231 68 0 130-30 172-77 10-12 89-115 135-115 49 0 126 104 136 115 43 47 104 77 172 77 128 0 231-103 231-231 0-76-38-114-77-153z" horiz-adv-x="1231" />

<glyph glyph-name="instagram-old" unicode="&#xe810;" d="M866-150l-676 0c-105 0-190 81-190 180l0 640c0 99 85 180 190 180l676 0c105 0 190-81 190-180l0-640c0-99-85-180-190-180z m-338 660c-93 0-169-72-169-161 0-88 76-160 169-160 93 0 169 72 169 160 0 89-76 161-169 161z m400 220l-166 0 0-159 166 0 0 159z m23-280l-148 0c13-31 21-65 21-101 0-154-133-279-296-279-164 0-296 125-296 279 0 36 8 70 21 101l-148 0 0-360c0-77 67-140 148-140l550 0c81 0 148 63 148 140l0 360z" horiz-adv-x="1056" />

<glyph glyph-name="like-full" unicode="&#xe811;" d="M1015 810c-48 26-65 40-123 40-104 0-236-146-297-218-62 72-194 218-298 218-59 0-75-14-123-40-104-56-174-164-174-287 0-36 6-70 16-102 58-252 579-571 579-571 0 0 520 319 578 571 10 32 16 66 16 102 0 123-70 231-174 287z" horiz-adv-x="1189" />

<glyph glyph-name="lock" unicode="&#xe812;" d="M688-150l-625 0c-35 0-63 28-63 62l0 501c0 34 28 62 63 62l62 0 0 125c0 138 112 250 250 250 138 0 250-112 250-250l0-125 63 0c34 0 62-28 62-62l0-501c0-34-28-62-62-62z m-188 750c0 69-56 125-125 125-69 0-125-56-125-125l0-125 250 0 0 125z m125-250l-500 0 0-375 500 0 0 375z m-250-125c35 0 63-28 63-62 0-35-28-63-63-63-35 0-62 28-62 63 0 34 27 62 62 62z" horiz-adv-x="750" />

<glyph glyph-name="pinterest" unicode="&#xe813;" d="M804 449c-23-106-41-251-275-300 0 0-137-34-183 61-27-102-55-196-71-221-36-60-105-140-105-140 0 0 19 180 21 220 2 61 63 340 63 340 0 0-58 196 85 221 0 0 115 26 84-121 0 0-23-96-52-206l10-14c0 0 29-53 85-60 56-6 208 91 211 260 3 170-34 218-190 261-158 42-289-30-339-160-55-148-10-184 22-221l-22-100c0 0-151 49-148 200 4 152 95 381 423 381 325 0 404-294 381-401z" horiz-adv-x="808" />

<glyph glyph-name="play" unicode="&#xe814;" d="M500-150c-276 0-500 224-500 500 0 276 224 500 500 500 276 0 500-224 500-500 0-276-224-500-500-500z m0 938c-241 0-437-197-437-438 0-241 196-438 437-438 241 0 438 197 438 438 0 241-197 438-438 438z m219-495l-269-146c-13-6-26-10-39-10-39 0-67 30-67 70l0 286c0 41 28 70 67 70 13 0 26-3 39-10l267-146c26-13 40-34 40-58 0-22-14-43-38-56z m-31 60l-268 145c-5 2-8 3-9 3-2 0-5 0-5-8l0-286c0-8 3-8 5-8 1 0 4 1 9 3l269 146c1 0 2 1 3 2-1 0-2 2-4 3z" horiz-adv-x="1000" />

<glyph glyph-name="portions" unicode="&#xe815;" d="M536 386l0 464 464 0 0-464-464 0z m393 393l-322 0 0-322 322 0 0 322z m-72-929l-393 0-71 0-393 0 0 393 0 71 0 393 464 0 0-393 393 0 0-464z m-786 71l322 0 0 322-322 0 0-322z m322 715l-322 0 0-322 322 0 0 322z m393-393l-322 0 0-322 322 0 0 322z" horiz-adv-x="1000" />

<glyph glyph-name="printer" unicode="&#xe816;" d="M938 600l-125 0 0 188c0 34-28 62-63 62l-500 0c-35 0-62-28-62-62l0-188-125 0c-35 0-63-28-63-62l0-500c0-35 28-63 63-63l125 0 0-63c0-34 27-62 62-62l500 0c35 0 63 28 63 62l0 63 125 0c34 0 62 28 62 63l0 500c0 34-28 62-62 62z m-625 125l375 0 0-125-375 0 0 125z m0-750l0 250 375 0 0-250-375 0z m562 125l-62 0 0 188c0 34-28 62-63 62l-500 0c-35 0-62-28-62-62l0-188-63 0 0 375 125 0 500 0 125 0 0-375z" horiz-adv-x="1000" />

<glyph glyph-name="timer" unicode="&#xe817;" d="M924 631c-9 0-17 3-23 9l-43 43c-2-4-4-8-8-11l-28-29c82-84 133-198 133-324 0-259-214-469-477-469-264 0-478 210-478 469 0 248 197 451 446 467l0 33c0 17 14 31 32 31 17 0 32-14 32-31l0-33c99-7 191-43 264-101l31 31c4 3 8 5 12 7l-43 42c-13 13-13 32 0 45 12 12 32 12 45 0l127-125c12-13 12-32 0-45-6-6-14-9-22-9z m-446 94c-229 0-414-182-414-406 0-224 185-407 414-407 228 0 414 183 414 407 0 224-186 406-414 406z m0-500c-53 0-96 42-96 94 0 40 27 75 64 88l0 224c0 18 14 32 32 32 17 0 32-14 32-32l0-224c37-13 63-48 63-88 0-52-43-94-95-94z m32 125l-64 0 0-62 64 0 0 62z" horiz-adv-x="956" />

<glyph glyph-name="twitter" unicode="&#xe818;" d="M1117 679l125 25c0 0-105-116-125-122 0 0-1 0-1 0-2-56 1-73 1-73-239-1005-1117-561-1117-561 320-8 348 122 348 122-187 28-223 146-223 146 63-28 99 25 99 25-202 51-174 243-174 243 34-30 89-41 122-46-23 26-211 248-97 363 0 0 138-243 502-266l25 6c-4 17-6 35-6 53 0 141 117 256 260 256 174 0 211-97 211-97l124 73c0 0-13-123-74-147z" horiz-adv-x="1242" />

<glyph glyph-name="user" unicode="&#xe819;" d="M795 434l0 0c11 33 18 67 18 104 0 172-140 312-313 312-173 0-312-140-312-312 0-37 6-71 17-104l0 0c-121-62-205-188-205-334l0-187c0-35 28-63 63-63l874 0c35 0 63 28 63 63l0 187c0 146-84 272-205 334z m-295 291c103 0 188-84 188-187 0-104-85-188-188-188-103 0-187 84-187 188 0 103 84 187 187 187z m375-750l-750 0 0 125c0 100 60 187 145 227 57-63 139-102 230-102 91 0 173 39 230 102 86-40 145-127 145-227l0-125z" horiz-adv-x="1000" />

<glyph glyph-name="users" unicode="&#xe81a;" d="M1450-150l-66 0c-12 158-120 291-268 347-34-16-71-26-109-31l-13 61c147 16 261 135 261 279 0 156-132 282-295 282-28 0-55-4-81-12l-13 62c30 8 62 12 94 12 199 0 360-154 360-344 0-109-54-207-137-270 150-73 255-217 267-386z m-470 0l-66 0c-13 158-120 291-269 347-47-22-99-34-155-34-56 0-108 12-156 34-148-56-256-189-268-347l-66 0c12 169 117 313 268 386-84 63-138 161-138 270 0 190 161 344 360 344 199 0 360-154 360-344 0-109-54-207-138-270 150-73 256-217 268-386z m-196 656c0 156-131 282-294 282-163 0-295-126-295-282 0-155 132-281 295-281 163 0 294 126 294 281z" horiz-adv-x="1450" />

<glyph glyph-name="vegetarian" unicode="&#xe81b;" d="M586 496c-90 171-260 288-506 347l-27 7-9-26c-5-15-123-378 46-665 93-157 254-259 479-304l24-5 10 23c0 0 0 0 0 1 5 13 132 339-17 622z m-443-307c-131 221-72 503-49 590 213-57 360-161 438-310 89-168 69-357 44-471-21 73-55 175-102 283 19 37 61 138 24 222-7 15-25 22-40 15-15-6-22-24-16-39 18-39 10-86-2-123-62 128-143 256-245 346-12 11-31 10-43-2-11-13-10-31 3-42 69-61 128-143 179-230-53 17-115 39-142 56-14 9-33 6-42-8-9-14-6-32 8-41 50-32 175-70 215-81 33-65 60-130 83-190-68 24-177 67-228 106-13 10-32 8-43-5-10-13-8-31 6-42 73-56 240-114 291-131 24-70 41-130 51-168-182 45-313 134-390 265z" horiz-adv-x="658" />

<glyph glyph-name="youtube" unicode="&#xe81c;" d="M837-150l-572 0c-146 0-265 117-265 261 0 144 119 260 265 260l572 0c146 0 264-116 264-260 0-144-118-261-264-261z m-484 459l-66 0-88 0-44 0 0-42 66 0 0-292 66 0 0 292 66 0 0 42z m154-84l-44 0 0-195c-15-3-47-34-66 8l0 187-44 0 0-208c0 0-2-59 44-63 0 0 26-6 66 37l0-37 44 0 0 271z m121 0c-12 0-23-5-33-13l0 97-44 0 0-334c0 0 61-21 77-21 43 0 77 61 77 136 0 75-34 135-77 135z m187 0c-49 0-88-60-88-135 0-75 39-136 88-136 42 0 78 45 86 105l-64 0c-4-37-8-63-22-63-17 0-20 37-22 83l22 0 44 0 44 0c0 4 0 7 0 11 0 75-39 135-88 135z m0-41c14 0 18-27 22-63l-42 0c5 36 6 63 20 63z m-198-167c-18 0-22 21-22 73 0 52 4 94 22 94 18 0 22-42 22-94 0-52-4-73-22-73z m177 474c-41-43-67-37-67-37-46 4-44 63-44 63 0 0 1 0 2 1l-2 0 0 228 66 0 0-228-1 0c0-1 1-1 1-1 11-13 30-11 45-8l0 237 64 0 0-293-64 0 0 38z m-254-38c-54 0-98 70-98 157 0 87 44 157 98 157 54 0 98-70 98-157 0-87-44-157-98-157z m0 251c-19 0-34-42-34-93 0-52 15-93 34-93 19 0 34 41 34 93 0 51-15 93-34 93z m-187-250l-22 0-22 0-22 0 0 188-88 208 88 0 22-125 11-31 11 31 22 125 88 0-88-208 0-188z" horiz-adv-x="1101" />

<glyph glyph-name="arrow-right-1" unicode="&#xe81d;" d="M1250 350l-500-500 0 375-750 0 0 250 750 0 0 375z" horiz-adv-x="1250" />

<glyph glyph-name="menu" unicode="&#xe81e;" d="M0 850l1765 0 0-176-1765 0 0 176z m0-412l1765 0 0-176-1765 0 0 176z m0-411l1765 0 0-177-1765 0 0 177z" horiz-adv-x="1765" />

<glyph glyph-name="sez_plus" unicode="&#xe81f;" d="M375 850l250 0 0-1000-250 0 0 1000z m-375-375l1000 0 0-250-1000 0 0 250z" horiz-adv-x="1000" />

<glyph glyph-name="search" unicode="&#xe820;" d="M593 850c-229 0-414-179-414-407 0-93 28-186 85-257l-250-243c-21-22-21-57 0-79 0 0 0 0 0 0 22-21 57-21 79 0l250 243c64-50 150-78 243-86 228 0 414 179 414 408 0 0 0 0 0 7 0 228-179 414-407 414z m7-707c-164 0-300 128-300 293 0 0 0 0 0 0 0 164 129 300 293 300 0 0 0 0 0 0 164 0 300-129 300-293 7-164-129-300-293-300z" horiz-adv-x="1000" />

<glyph glyph-name="heart2" unicode="&#xe821;" d="M500-150c-276 0-500 224-500 500s224 500 500 500 500-224 500-500-224-500-500-500l0 0z m177 650c-20 11-27 17-52 17-44 0-99-61-125-91-26 30-81 91-125 91-25 0-32-6-52-17-45-23-73-69-73-120 0-14 2-28 7-42 24-105 243-238 243-238s219 133 243 238c5 14 7 28 7 42 0 51-28 97-73 120l0 0z" horiz-adv-x="1000" />

<glyph glyph-name="check" unicode="&#xe822;" d="M1111 699l-606-849-505 383 178 152 281-198 475 663z" horiz-adv-x="1111" />

<glyph glyph-name="close-recipe" unicode="&#xe823;" d="M1000-64l-86-86-414 414-414-414-86 86 414 414-414 414 86 86 414-414 414 414 86-86-414-414z" horiz-adv-x="1000" />

<glyph glyph-name="arrow_up" unicode="&#xe824;" d="M0 60l894 790 6-6 6 6 894-790-211-210-689 609-689-609z" horiz-adv-x="1800" />

<glyph glyph-name="arrow_down" unicode="&#xe825;" d="M1800 640l-894-790-6 6-6-6-894 790 211 210 689-609 689 609z" horiz-adv-x="1800" />

<glyph glyph-name="logo" unicode="&#xe826;" d="M103-47h104c11 0 23 12 23 23l57 127h345l58-127c11-11 11-23 34-23h104c23 0 23 12 23 35l-357 770c0 12-11 12-23 12h-11c-12 0-12-12-23-12l-356-770c-12-23 0-35 22-35z m242 276l115 253h0l115-253h-230z m609-253c0-11 12-23 23-23h104c11 0 22 12 22 23v495h0l483-529h23c12 0 23 11 23 23v770c0 12-11 23-23 23h-103c-12 0-23-11-23-23v-471h0l-483 506h-23c-11 0-23-12-23-23v-771z m885 0c0-11 12-23 23-23h104c11 0 23 12 23 23v759c0 12-12 23-23 23h-104c-11 0-23-11-23-23v-759z m276-23h103c23 0 35 12 35 23l57 127h345l58-127c11-11 11-23 34-23h104c23 0 23 12 23 35l-357 782c0 11-11 11-23 11h-11c-12 0-12-11-23-11l-357-782c-11-23 0-35 12-35z m253 276l115 253h0l115-253h-230z m816-195c23-23 103-92 253-92 161 0 264 115 264 230 0 149-126 218-241 264-92 35-138 81-138 127 0 34 34 80 103 80 69 0 150-57 161-69 12-11 35 0 46 12l46 69c12 11 0 34-11 34-23 23-115 81-230 81-184 0-265-115-265-219 0-138 104-207 219-253 92-34 149-80 149-138 0-46-46-92-103-92-81 0-173 69-173 69-23 23-34 23-46 0l-46-69c-11-23 0-23 12-34z m770-58c0-11 12-23 23-23h104c11 0 22 12 22 23v644h173c11 0 23 12 23 23v92c0 12-12 23-23 23h-506c-11 0-23-11-23-23v-92c0-11 12-23 23-23h173v-644z m345-23h103c23 0 35 12 35 23l46 127h345l57-127c12-11 12-23 35-23h103c23 0 23 12 23 35l-356 782c0 11-12 11-23 11h-12c-11 0-11-11-23-11l-356-782c0-23 0-35 23-35z m241 276l115 253h0l115-253h-230z m609-253c0-11 12-23 23-23h104c11 0 23 12 23 23v299h126l150-310c0 0 11-12 23-12h126c23 0 23 23 23 35l-172 287c103 46 172 127 172 230 0 138-115 253-253 253h-322c-11 0-23-11-23-23v-759z m150 414v230h184c57 0 115-46 115-115 0-69-58-115-115-115h-184z m563-414c0-11 12-23 23-23h104c11 0 23 12 23 23l69 437c0 0 0 0 0 0l206-448c0-12 12-12 23-12h12c11 0 23 12 23 12l207 448c0 0 0 0 0 0l69-437c0-11 11-23 23-23h103c12 0 23 12 23 23l-138 771c0 11-11 23-23 23h-23c-11 0-11 0-23-12l-253-540c0 0 0 0 0 0l-252 540c0 12-12 12-23 12h-23c-12 0-23-12-23-23l-127-771z m977-23h104c23 0 34 12 34 23l58 127h344l58-127c11-11 11-23 34-23h104c23 0 23 12 23 35l-357 782c0 11-11 11-23 11h-11c-12 0-12-11-23-11l-356-782c-12-23-12-35 11-35z m242 276l114 253h0l115-253h-229z m540 127c0-230 184-414 414-414 103 0 206 34 275 115 12 11 12 23 0 34l-57 69c-12 12-23 12-35 0-46-34-103-69-172-69-149 0-253 127-253 265 0 149 115 264 253 264 69 0 126-23 172-69 12-11 23-11 35 0l69 69c11 12 11 23 0 35-81 80-161 115-287 115-230 0-414-184-414-414z m850-380c0-11 12-23 23-23h104c11 0 23 12 23 23v322h379v-322c0-11 12-23 23-23h103c12 0 23 12 23 23v759c0 12-11 23-23 23h-103c-11 0-23-11-23-23v-310h-379v310c0 12-12 23-23 23h-104c-11 0-23-11-23-23v-759z" horiz-adv-x="9195" />

<glyph glyph-name="spin2" unicode="&#xe827;" d="M46 144l0 0c0 0-1 0-1 0-8 18-15 37-21 55-6 19-11 38-15 58-19 99-8 203 35 298 3 6 10 8 15 5 1 0 2 0 2-1l0 0 80-59c5-3 6-9 4-14-5-12-9-25-12-37-4-13-7-26-9-40-11-67-3-137 23-201 2-5 0-10-4-13l0 0-80-56c-5-4-12-2-16 3-1 0-1 1-1 2l0 0z m120 574l0 0c0 1 0 1 0 1 15 13 30 25 46 37 16 11 33 22 51 31 89 50 192 72 297 60 6-1 10-6 10-13 0-1-1-1-1-2l0 0-31-94c-2-5-8-8-13-7-13 0-27 0-40 0-14-1-27-2-40-4-68-11-133-40-186-84-4-3-10-3-14 0l0 0-79 58c-5 3-6 11-2 16 0 0 1 1 2 1l0 0z m588 65l0 0c0 0 1 0 1 0 17-10 34-21 50-32 16-12 31-25 46-38 74-69 127-160 148-262 2-6-2-12-9-13-1 0-1 0-2 0l0 0-100 1c-5 0-10 4-11 9-3 13-8 26-12 38-5 12-10 25-17 36-31 61-78 113-137 150-5 3-6 8-5 13l0 0 31 92c2 6 9 9 15 7 1 0 2-1 2-1l0 0z m244-535l0 0c0 0 0 0 0 0-4-20-9-39-15-57-7-19-14-37-22-55-44-92-114-170-205-221-6-3-13-1-16 4 0 1-1 2-1 2l0 0-30 94c-2 6 1 12 6 14 11 7 22 15 32 23 11 9 21 18 30 27 49 48 84 109 101 176 2 5 6 8 11 8l0 0 98-1c6 0 11-5 11-11 0-1 0-2 0-3l0 0z m-438-395l0 0c0 0 0 0 0 0-20-2-40-3-60-3-20 0-40 1-59 4-102 12-198 54-276 125-5 4-5 11 0 16 0 0 1 1 1 1l0 0 81 58c5 3 12 2 16-2 10-8 20-16 32-23 11-7 22-14 34-20 62-31 131-45 200-41 6 0 10-3 12-8l0 0 29-92c2-6-1-12-7-14-1-1-2-1-3-1l0 0z" horiz-adv-x="1000" />

<glyph glyph-name="camera-outline" unicode="&#xe828;" d="M885-66l-729 0q-65 0-110 46t-46 110l0 417q0 65 46 110t110 46l83 0 52 52q23 23 58 37t67 15l209 0q33 0 68-15t58-37l52-52 82 0q65 0 111-46t45-110l0-417q0-65-45-110t-111-46z m-729 625q-21 0-37-16t-15-36l0-417q0-21 15-37t37-15l729 0q21 0 37 15t16 37l0 417q0 21-16 36t-37 16l-104 0q-21 0-36 15l-67 68q-22 21-53 21l-209 0q-30 0-51-21l-67-68q-15-15-38-15l-104 0z m365-105q-53 0-92-38t-39-92 39-92 92-38 92 38 38 92-38 92-92 38z m0 53q77 0 129-54t53-129q0-75-54-129t-128-53q-76 0-129 53t-53 129q0 76 53 129t129 54z m313 16q27 0 47-20t20-49-19-48-48-19-49 20-20 47q0 29 20 49t49 20z" horiz-adv-x="1041" />

<glyph glyph-name="dladzieci" unicode="&#xe829;" d="M390 293c0 0 0 0 0 0-33 0-67-13-90-36-13-14-13-37 0-50 13-14 37-14 50 0 10 10 27 16 40 16 0 0 0 0 0 0 17 0 30-6 40-16 7-7 17-10 23-10s17 3 24 10c13 13 13 36 0 50-20 23-50 36-87 36z m310-3c0 0 0 0 0 0-33 0-67-13-90-37-13-13-13-36 0-50 13-13 37-13 50 0 10 10 27 17 40 17 0 0 0 0 0 0 17 0 30-7 40-17 7-6 17-10 23-10s17 4 24 10c13 14 13 37 0 50-20 24-54 37-87 37z m267 83l0 0 0 14c0 3 0 3 0 6l-4 14c0 0 0 3 0 3-3 13-3 27-6 37 0 0 0 3 0 3-4 13-7 27-14 40 0 0 0 0 0 0-40 103-113 183-213 233 0 0-3 0-3 4-10 3-20 10-30 13-4 0-10 3-14 3-6 4-13 4-20 7-6 3-16 3-23 7-3 0-10 3-13 3-10 3-20 3-30 3-4 0-7 0-10 0l0 0-27 0c0 0 0 0 0 0l-7 0c-3 0-3 0-6 0-4 0-4 0-7 0-10 0-20 0-30 0-7 0-13 0-20-3-3 0-7 0-13-3-14-4-24-4-34-7 0 0-3 0-3 0l-30-7 0 0c-167-56-290-213-290-403 0-3 0-3 0-7l0-33 0 0c20-217 200-383 423-383 234 0 424 190 424 423 3 13 0 23 0 33z m-470 320c6 0 13 4 20 4 10 0 20 0 30 0 10 0 23 0 33-4 3 0 10 0 13-3 7 0 10 0 17-3 7 0 13-4 20-4 3 0 7 0 10-3 7-3 17-3 23-7 0 0 4 0 4 0 110-40 196-133 223-250-17-3-37-3-53-3-164 0-304 113-344 270 0 3 0 3 4 3z m-304-316c0 3 0 6 0 10 0 6 4 16 4 23 3 3 3 7 3 10 0 7 3 13 7 20 0 3 3 7 3 10 3 10 7 17 10 27 0 0 0 3 0 3 3 10 10 20 13 27 0 6 4 10 7 10 3 6 7 10 10 16 3 4 3 7 7 10 3 7 6 14 10 17 3 3 6 7 6 10 7 7 10 13 17 17 3 6 10 10 13 13 4 3 7 7 14 10 3 7 6 10 13 13 3 4 7 7 10 7 3 3 10 7 13 10 4 3 7 3 10 7 7 3 10 6 17 10 0 0 0 0 0 0 13 6 27 13 43 20 0 0 0 0 0 0 10-44 27-80 50-117-56-103-160-177-280-183 0-4 0 0 0 0z m354-387c-184 0-334 137-350 313 136 10 253 84 323 194 80-90 193-144 317-144 20 0 43 4 63 7 0-7 0-10 0-17 0-196-160-353-353-353z" horiz-adv-x="1000" />

<glyph glyph-name="inne" unicode="&#xe82a;" d="M457 537c0-37-17-64-34-64-16 0-26-13-26-26s13-27 26-27c50 0 87 50 87 117 0 16-13 26-27 26s-26-10-26-26z m353 266c-93 0-167-103-167-236v0-207 0c0-120 60-217 140-233v-227c0-17 14-27 27-27 17 0 27 14 27 27v877c0 13-14 26-27 26z m-30-623c-47 20-83 93-83 177v0 206 0c0 84 36 157 83 177v-560z m-357 623c-93 0-166-103-166-236 0-120 60-217 140-234v-436c0-17 13-27 26-27s27 13 27 27v433c80 17 140 113 140 233 0 137-73 240-167 240z m0-420c-60 0-113 84-113 184s50 183 113 183 114-83 114-183-54-184-114-184z" horiz-adv-x="1000" />

<glyph glyph-name="naokazje" unicode="&#xe82b;" d="M823 107h-33v176c0 0 0 0 0 0v94c0 46-40 83-87 83h-180v37c60 10 74 56 74 93 0 67-74 140-80 147-10 10-24 10-34 0-10-4-83-77-83-144 0-40 13-86 73-93v-37h-176c-47 0-87-36-87-83v-273h-33c-14 0-24-10-24-24v-33c0-53 44-97 97-97h503c54 0 97 44 97 97v33c-3 14-13 24-27 24z m-373 486c0 30 30 70 50 97 20-23 50-67 50-97 0-30-10-40-27-46v40c0 13-10 23-23 23s-23-10-23-23v-40c-20 3-27 16-27 46z m-193-280c3 7 13 17 23 17 10 0 20-10 33-27 24-33 47-46 74-46 0 0 0 0 3 0 33 0 53 30 60 43 0 0 3 3 3 3 0 0 4 4 4 7 3 7 13 20 20 20 6 0 16-7 33-27 23-30 50-46 77-43 40 3 60 43 63 47 3 6 13 20 23 23 7 0 20-10 34-27 10-16 23-26 33-33v-37h-483v80z m40 104h406c20 0 40-17 40-37v-40c-23 30-46 43-73 40-40-3-60-43-63-47-4-6-14-20-27-23-10 0-20 10-33 27-24 33-50 50-74 46-33 0-50-30-60-43 0 0-3-3-3-3 0 0-3-4-3-7-4-7-14-23-24-23-6 0-20 6-33 26-23 30-50 47-77 44-6 0-13-4-16-4v4c0 23 20 40 40 40z m-40-230h483v-80h-483v80z m543-140c0-27-23-50-50-50h-503c-27 0-50 23-50 50v10h33 537 33v-10z" horiz-adv-x="1000" />

<glyph glyph-name="popularne" unicode="&#xe82c;" d="M507-53c-14 0-27 10-27 26v117c0 13 10 27 27 27s26-10 26-27v-117c-3-16-13-26-26-26z m336 246c-3 0-6 0-10 4l-106 50c-14 6-17 20-14 33 7 13 20 17 34 13l106-50c14-6 17-20 14-33-4-13-14-17-24-17z m-173 327c-7 0-13 3-17 7-10 10-10 26 0 36l84 84c10 10 26 10 36 0 10-10 10-27 0-37l-83-83c-7-7-13-7-20-7z m-500-327c-10 0-20 7-23 14-7 13 0 26 13 33l107 50c13 7 26 0 33-13 7-14 0-27-13-34l-107-50c-3 0-7 0-10 0z m170 327c-7 0-13 3-17 7l-83 83c-10 10-10 27 0 37 10 10 27 10 37 0l83-84c10-10 10-26 0-36-7-7-13-7-20-7z m167 123c-14 0-27 10-27 27v57c0 13 10 26 27 26s26-10 26-26v-60c-3-10-13-24-26-24z m-300-230c-4 0-4 0-7 0l-57 17c-13 3-20 17-16 30 3 13 16 20 30 17l56-17c14-3 20-17 17-30-3-10-13-17-23-17z m73-396c-7 0-10 0-13 3-10 7-14 23-7 37l33 50c7 10 24 13 34 3 10-7 13-23 6-37l-33-50c-3-3-13-6-20-6z m347 123c-7 0-10 0-17 3l-103 60-104-60c-10-6-23-6-36 4-10 6-17 20-14 33l27 117-90 80c-10 10-13 23-10 33 3 13 13 20 27 23l120 10 53 107c7 13 17 20 30 20 13 0 23-7 30-20l47-110 116-10c14 0 24-10 27-23 3-14 0-27-10-34l-90-76 27-117c3-13-4-27-14-33-6-4-10-7-16-7z m-120 117c6 0 13-4 20-7l70-43-17 80c-3 13 3 30 13 40l60 53-80 7c-16 0-30 10-33 26l-33 74-34-74c-6-13-20-23-33-23l-80-7 60-53c10-10 17-27 13-40l-16-80 70 40c6 7 13 7 20 7z m300 156c-10 0-20 7-24 20-3 14 4 27 17 30l57 17c13 3 26-3 30-17 3-13-4-26-17-30l-57-16c-3-4-6-4-6-4z m-74-396c-6 0-16 3-20 10l-33 50c-7 10-7 26 7 36 10 7 26 7 36-6l34-50c6-10 6-27-7-37-7-3-13-3-17-3z" horiz-adv-x="1000" />

<glyph glyph-name="poradnia" unicode="&#xe82d;" d="M820 333c0 94-43 174-110 227v163c0 14-10 24-23 24h-280c-14 0-24-10-24-24v-150c-83-53-133-140-133-240s50-186 127-236v-150c0-14 10-24 23-24h280c13 0 23 10 23 24v163c74 50 117 130 117 223z m-393 364h230v-107c-37 17-80 30-124 30-36 0-73-7-106-20v97z m-127-364c0 130 107 237 237 237s236-107 236-237-106-236-236-236-237 106-237 236z m360-363h-230v100c33-13 70-20 107-20 43 0 86 10 123 30v-110z m-100 193c0 14-10 24-23 24-80 0-147 66-147 146s67 147 147 147 146-67 146-147c0-13 10-23 24-23s23 10 23 23c0 107-87 197-197 197s-196-87-196-197 86-196 196-196c17 0 27 13 27 26z m33 190h-33v57c0 13-10 23-23 23s-24-10-24-23v-83c0-14 10-24 24-24h60c13 0 23 10 23 24 0 16-13 26-27 26z" horiz-adv-x="1000" />

<glyph glyph-name="potrawy" unicode="&#xe82e;" d="M893 287c0 0 0 0 0 0l-6 123c0 0 0 3 0 3v0c0 4 0 10 0 14l0 0c0 3 0 3 0 6-10 70-67 140-140 180-87 44-180 37-260-16-67-47-140-60-197-70-77-14-150-27-147-117 0 0 0 0 0 0 0 0 0 0 0 0l7-130c0 0 0 0 0 0 3-137 163-240 373-240 0 0 4 0 4 0 96 0 190 27 260 70 66 43 106 107 106 177 0-4 0 0 0 0z m-703 120c0 43 27 50 107 66 63 14 140 27 216 80 40 30 80 37 114 37 40 0 73-13 93-23 60-30 110-90 113-144l0-13c0-107-146-193-323-193 0 0-3 0-3 0-87 0-170 20-230 60-57 33-87 83-87 130l0 0z m563-257c-63-40-143-60-233-63 0 0-3 0-3 0-177 0-320 86-324 190 0 0 0 0 0 0 17-17 37-34 60-47 70-43 160-67 257-67 0 0 3 0 3 0 144 0 264 54 327 127 0-3 0-7 0-7l0 0c3-50-30-96-87-133z m-236 107c3-7 13-10 20-10 3 0 10 0 13 3 10 7 13 23 7 33l-130 200c-7 10-24 14-34 7-10-7-13-23-6-33l130-200z m-167 20c3-7 13-10 20-10 3 0 10 0 13 3 10 7 14 23 7 33l-87 130c-6 10-23 14-33 7-10-7-13-23-7-33l87-130z m187 163c0-47 43-87 100-87 13 0 23 4 33 7l37-57c3-6 13-10 20-10 3 0 10 0 13 4 10 6 13 20 7 33l-34 53c17 17 27 37 27 57 0 47-43 87-100 87-7 0-13 0-17 0l-23 26c-7 10-20 14-33 7-10-7-14-20-7-33l13-20c-23-17-36-40-36-67z m146 0c0-20-23-37-50-37-26 0-50 17-50 37s24 37 50 37c30 0 50-17 50-37z" horiz-adv-x="1000" />

<glyph glyph-name="produkty" unicode="&#xe82f;" d="M790 17h-413c-70 0-127 56-127 126v637h540v-763z m-493 716v-590c0-43 36-80 80-80h366v670h-446z m373-123h-303c-14 0-24 10-24 23s10 24 24 24h306c14 0 24-10 24-24s-14-23-27-23z m0-157h-303c-14 0-24 10-24 24 0 13 10 23 24 23h306c14 0 24-10 24-23 0-14-14-24-27-24z m0-156h-303c-14 0-24 10-24 23s10 23 24 23h306c14 0 24-10 24-23s-14-23-27-23z m0-157h-147c-13 0-23 10-23 23s10 24 23 24h147c13 0 23-10 23-24s-10-23-23-23z" horiz-adv-x="1000" />

<glyph glyph-name="slodkoslono" unicode="&#xe830;" d="M833 287h-166c-17 0-30 13-30 30 0 16 13 30 30 30h166c17 0 30-14 30-30-3-17-16-30-30-30z m-436 56h-57v57c0 17-13 30-30 30s-30-13-30-30v-57h-50c-17 0-30-13-30-30 0-16 13-30 30-30h57v-56c0-17 13-30 30-30s30 13 30 30v56h56c17 0 30 14 30 30-10 17-20 30-36 30z m363 180c-110 0-193-103-230-163 0 0-33-53-33-53-24-37-97-157-194-157-80 0-146 70-146 160s66 160 146 160c60 0 120-57 160-107l34 50c-44 54-114 114-194 114-113-4-203-97-203-217s90-217 203-217c104 0 180 87 220 147l47 70c23 43 97 157 193 157 80 0 147-70 147-160s-67-160-147-160c-60 0-120 56-160 106l-33-50c43-53 113-113 193-113 110 0 204 97 204 217s-97 216-207 216z" horiz-adv-x="1000" />

<glyph glyph-name="desery" unicode="&#xe831;" d="M710 300c-13 7-27 0-33-13l-130-287-130 287c-7 13-20 16-34 13-13-7-16-20-13-33l153-337c4-10 14-13 24-13s20 6 23 13l153 337c4 13 0 30-13 33z m83 313c-23 30-60 50-96 57-24 63-84 110-154 110s-130-43-153-110c-37-7-73-27-97-57-30-36-40-80-33-123 10-70 67-127 137-140 10 0 16-3 23-3 47 0 93 20 123 56 37-43 90-63 150-53 70 10 127 67 137 140 3 43-7 87-37 123z m-13-116c-7-47-47-90-93-97-50-7-97 17-120 60-4 10-14 13-24 13s-16-6-23-13c-23-43-70-70-120-60-47 7-87 47-93 97-4 30 6 60 26 83 20 23 47 40 80 40 10 0 20 10 24 20 13 50 56 87 110 87s96-37 110-87c3-10 10-20 23-20 30-3 60-17 80-40 13-23 23-53 20-83z m-117 100c-13 0-26-10-26-24 0-13 10-26 23-26 13 0 23-7 30-17 7-10 10-23 10-33-3-14 7-27 20-27 0 0 3 0 3 0 14 0 24 10 24 23 3 27-4 54-20 74-14 13-37 26-64 30z" horiz-adv-x="1000" />

<glyph glyph-name="przetwory" unicode="&#xe832;" d="M787 537c13 6 20 20 20 36v67c0 23-20 43-44 43h-503c-23 0-43-20-43-43v-67c0-16 6-30 20-36l-120-110 23-20c27-24 57-44 87-60v-317c0-43 36-80 80-80h413c43 0 80 37 80 80v317c30 16 60 36 87 60l23 20-123 110z m-517 96h483v-50h-483v50z m477-603c0-13-14-27-27-27h-413c-14 0-27 14-27 27v293c27-6 57-10 87-6 70 6 120 43 146 70 27-27 77-64 147-70 7 0 17 0 23 0 20 0 44 3 64 10v-297z m-84 340c-63 7-110 50-126 67-4 3-4 10-10 13-4 3-10 7-17 7-7 0-13 0-17-7-3-3-6-7-10-13-16-17-60-60-126-67-54-7-107 13-164 60l110 100h414l110-100c-57-47-110-67-164-60z" horiz-adv-x="1000" />

<glyph glyph-name="foto-info" unicode="&#xe833;" d="M1200-50h-900c-60 0-100 40-100 100v500c0 60 40 100 100 100h100c0 60 40 100 100 100h200c60 0 100-40 100-100h400c60 0 100-40 100-100v-500c0-60-40-100-100-100z m-550 500c-80 0-150-70-150-150 0-80 70-150 150-150 80 0 150 70 150 150 0 80-70 150-150 150z" horiz-adv-x="1500" />

<glyph glyph-name="video-info" unicode="&#xe834;" d="M667 350l-667-500 0 1000z" horiz-adv-x="667" />

<glyph glyph-name="arrow-recipe" unicode="&#xe835;" d="M572 340l-490-490-82 82 418 418-418 418 82 82 490-490-9-10z" horiz-adv-x="573" />

<glyph glyph-name="time-0" unicode="&#xe836;" d="M848 669c3 3 6 7 7 11l43-42c7-6 15-9 23-9 8 0 16 3 22 9 13 12 13 32 0 44l-126 125c-13 12-33 12-45 0-13-12-13-32 0-44l43-43c-4-1-8-4-11-7l-31-30c-75 57-165 94-265 101v32c0 18-14 32-32 32-18 0-32-14-32-32v-32c-247-16-444-220-444-467 0-257 214-467 476-467 262 0 476 210 476 467 0 126-51 239-134 324l30 28z m-372-757c-228 0-413 182-413 405 0 223 186 405 413 405s413-182 413-405c1-223-185-405-413-405z m32 480v224c0 17-14 31-32 31-18 0-32-14-32-31v-224c-37-13-63-48-63-88 0-52 42-94 95-94 53 0 95 42 95 94 1 40-26 75-63 88z m0-119h-63v63h63v-63z" horiz-adv-x="960" />

<glyph glyph-name="time-15" unicode="&#xe837;" d="M831 654c3 3 6 7 7 11l44-42c6-7 14-9 22-9 8 0 16 3 22 9 13 12 13 32 0 44l-127 125c-13 12-33 12-45 0-12-12-12-32 0-44l44-43c-4-1-8-4-12-7l-13-14c-75 56-165 93-265 100v32c0 18-14 32-32 32-18 0-32-14-32-32v-32c-247-16-444-220-444-467 0-257 214-467 476-467 262 0 476 210 476 467 0 126-51 239-134 324l13 13z m-355-742c-228 0-413 182-413 405 0 223 186 405 413 405s413-182 413-405c1-223-185-405-413-405z m330 410c0 168-131 318-328 322 0 0 0 0-1 0 0 0 0 0-1 0-2 0-4 0-4 0v0c-16-3-24-16-24-31v-224c-40-13-66-47-66-88 0-51 42-93 95-93 53 0 95 41 95 93 0 7-2 13-3 21h237z m-294-48h-64v56h64v-56z" horiz-adv-x="960" />

<glyph glyph-name="time-30" unicode="&#xe838;" d="M831 654c3 3 6 7 7 11l44-42c6-7 14-9 22-9 8 0 16 3 22 9 13 12 13 32 0 44l-127 125c-13 12-33 12-45 0-12-12-12-32 0-44l44-43c-4-1-8-4-12-7l-13-14c-75 56-165 93-265 100v32c0 18-14 32-32 32-18 0-32-14-32-32v-32c-247-16-444-220-444-467 0-257 214-467 476-467 262 0 476 210 476 467 0 126-51 239-134 324l13 13z m-355-742c-228 0-413 182-413 405 0 223 186 405 413 405s413-182 413-405c1-223-185-405-413-405z m2 732c0 0 0 0-1 0 0 0 0 0-1 0-2 0-4 0-4 0v0c-16-3-24-16-24-31v-224c-40-13-65-47-65-88 0-49 41-90 89-93v-206c200 0 334 152 334 320 0 168-131 318-328 322z m-30-314h64v-56h-64v56z" horiz-adv-x="960" />

<glyph glyph-name="time-45" unicode="&#xe839;" d="M831 654c3 3 6 7 7 11l44-42c6-7 14-9 22-9 8 0 16 3 22 9 13 12 13 32 0 44l-127 125c-13 12-33 12-45 0-12-12-12-32 0-44l44-43c-4-1-8-4-12-7l-13-14c-75 56-165 93-265 100v32c0 18-14 32-32 32-18 0-32-14-32-32v-32c-247-16-444-220-444-467 0-257 214-467 476-467 262 0 476 210 476 467 0 126-51 239-134 324l13 13z m-355-742c-228 0-413 182-413 405 0 223 186 405 413 405s413-182 413-405c1-223-185-405-413-405z m2 732c0 0 0 0-1 0 0 0 0 0-1 0-2 0-4 0-4 0v0c-16-3-24-16-24-31v-224c-32-10-58-35-65-67h-248c0-168 136-320 336-320 201 0 335 152 335 320 0 168-131 318-328 322z m-30-314h64v-56h-64v56z" horiz-adv-x="960" />

<glyph glyph-name="time-46" unicode="&#xe83a;" d="M831 654c3 3 6 7 7 11l44-42c6-7 14-9 22-9 8 0 16 3 22 9 13 12 13 32 0 44l-127 125c-13 12-33 12-45 0-12-12-12-32 0-44l44-43c-4-1-8-4-12-7l-13-14c-75 56-165 93-265 100v32c0 18-14 32-32 32-18 0-32-14-32-32v-32c-247-16-444-220-444-467 0-257 214-467 476-467 262 0 476 210 476 467 0 126-51 239-134 324l13 13z m-355-742c-228 0-413 182-413 405 0 223 186 405 413 405s413-182 413-405c1-223-185-405-413-405z m2 732c0 0 0 0-1 0 0 0-1 0-1 0-2 0-2 0-4 0-200 0-336-152-336-322 0-168 136-320 336-320 201 0 334 152 334 320 0 168-131 318-328 322z m34-314v-56h-64v56h64z" horiz-adv-x="960" />

<glyph glyph-name="napoje" unicode="&#xe83b;" d="M753 393c-6 84-43 324-46 334l-4 20h-406l-4-24c0-10-40-250-46-333-4-70 20-140 70-193 50-54 116-84 183-84s137 30 183 84c50 56 74 123 70 196z m-90 304c7-40 20-127 30-204 0 0-3-3-3-3-3-3-60-70-180-3-100 53-167 40-203 20 10 73 23 156 30 193h326z m-13-464c-40-43-93-66-150-66-57 0-110 23-150 66-40 44-60 100-57 157 0 13 4 33 7 53 3 0 7 4 10 7 3 3 60 63 180-3 47-27 87-37 120-37 43 0 73 13 93 27 4-20 4-37 4-50 3-57-17-114-57-154z m-183 27c-44 0-80 37-80 80 0 13-10 23-24 23-13 0-23-10-23-23 0-70 57-127 127-127 13 0 23 10 23 24s-10 23-23 23z m143-257h-87v74c0 13-10 23-23 23s-23-10-23-23v-74h-87c-13 0-23-10-23-23s10-23 23-23h217c13 0 23 10 23 23s-10 23-20 23z" horiz-adv-x="1000" />

<glyph glyph-name="head-instagram" unicode="&#xe83c;" d="M724 521c-5 15-10 24-24 34-9 9-19 14-33 24-10 4-24 9-53 9s-38 0-119 0c-76 0-85 0-119 0-28 0-43-5-52-9s-19-15-33-24c-10-10-15-19-20-34-4-9-9-23-9-52s0-38 0-119 0-86 0-119c0-29 5-43 9-52 5-15 10-24 24-34 10-9 19-14 34-24 9-4 23-9 52-9s38 0 119 0 86 0 119 0c29 0 43 5 52 9 15 5 24 10 34 24 9 10 14 19 24 34 4 9 9 23 9 52s0 38 0 119 0 86 0 119c-5 29-9 43-14 52z m-224-319c-81 0-148 67-148 148s67 148 148 148 148-67 148-148-67-148-148-148z m152 267c-19 0-33 19-33 38s14 34 33 34 34-15 34-34c5-19-15-38-34-38z m-152-24c52 0 95-43 95-95s-43-95-95-95-95 43-95 95 43 95 95 95z m0 405c-276 0-500-224-505-500 0-276 224-500 500-500s500 224 500 500l0 0c0 276-219 500-495 500z m291-619c0-33-5-52-15-71-9-19-19-34-33-53-14-14-33-24-52-33-20-10-39-14-72-14s-43 0-119 0-90 0-119 0c-33 0-52 4-71 14-19 9-34 19-53 33-14 14-24 34-33 53-10 19-14 38-14 71s0 43 0 119 0 91 0 119c0 33 4 52 14 72 5 19 14 38 33 52 14 14 34 24 53 33s38 15 71 15 43 0 119 0 91 0 119 0c33 0 52-5 72-15 19-9 33-19 52-33 14-14 24-33 33-52s15-39 15-72 0-43 0-119 0-90 0-119z" horiz-adv-x="995" />

<glyph glyph-name="instagram" unicode="&#xe83d;" d="M520 760c135 0 150 0 200-5 50 0 75-10 95-15 25-10 40-20 55-35 15-15 30-35 35-55 10-25 20-50 20-100 0-55 5-70 5-200s0-150-5-200c0-50-10-75-15-95-10-25-20-40-35-55-15-15-35-30-55-35s-45-15-95-15c-55 0-70-5-200-5s-150 0-200 5c-50 0-75 10-95 15-30 5-45 15-65 35-15 15-30 35-35 55s-15 45-15 95c0 55-5 70-5 200s0 150 5 200c0 50 10 75 15 95 10 25 20 40 35 55 20 20 35 30 60 40 20 5 45 15 95 15 50 5 65 5 200 5m0 90c-135 0-155 0-205-5-55 0-90-10-120-25-35-10-65-25-90-55-30-25-45-55-60-85-10-35-20-70-20-125s-5-70-5-205 0-155 5-205c0-55 10-90 25-120 15-35 30-60 60-90 30-30 55-45 90-60 30-10 70-20 120-25 55 0 70-5 205-5s155 0 205 5c55 0 90 10 120 25 35 15 60 30 90 60 30 30 45 55 60 90 10 30 20 70 25 120 0 55 5 70 5 205s0 155-5 205c0 55-10 90-25 120-15 35-30 60-60 90s-55 45-90 60c-30 10-70 20-120 25-60 0-75 0-210 0l0 0z m0-245c-140 0-255-115-255-255s115-255 255-255 255 115 255 255-115 255-255 255z m0-420c-90 0-165 75-165 165s75 165 165 165 165-75 165-165-75-165-165-165z m265 490c35 0 60-25 60-60s-25-60-60-60-60 25-60 60 25 60 60 60z" horiz-adv-x="1040" />

<glyph glyph-name="googleplus" unicode="&#xe83e;" d="M0 365c0 170 160 320 330 315 80 5 160-30 220-80-25-30-55-60-85-85-75 50-180 65-255 5-110-75-115-250-10-330 100-90 290-45 320 95-65 0-125 0-190 0 0 40 0 75 0 115 105 0 210 0 315 0 5-90-5-185-60-255-80-115-250-150-375-100-130 45-220 180-210 320z m850 125c30 0 65 0 95 0 0-30 0-65 0-95 30 0 65 0 95 0 0-30 0-65 0-95-30 0-65 0-95 0 0-30 0-65 0-95-30 0-65 0-95 0 0 30 0 65 0 95-30 0-65 0-95 0 0 30 0 65 0 95 30 0 65 0 95 0 0 35 0 65 0 95z" horiz-adv-x="1040" />

<glyph glyph-name="head-googleplus" unicode="&#xe83f;" d="M500 850c-276 0-500-224-500-500s224-500 500-500 500 224 500 500-224 500-500 500z m33-619c-47-67-138-86-209-57s-124 105-119 181c0 95 90 181 186 176 47 0 90-19 123-48-14-19-28-33-47-47-38 33-100 43-143 9-62-43-62-138-5-185 57-53 162-24 176 52-33 0-71 0-104 0 0 19 0 43 0 62 57 0 119 0 176 0 4-48 0-100-34-143z m258 90c-20 0-34 0-53 0 0-19 0-33 0-52-19 0-33 0-52 0 0 19 0 33 0 52-19 0-34 0-53 0 0 20 0 34 0 53 19 0 34 0 53 0 0 19 0 33 0 52 19 0 33 0 52 0 0-19 0-33 0-52 19 0 33 0 53 0 0-14 0-33 0-53z" horiz-adv-x="995" />

<glyph glyph-name="zdrowie" unicode="&#xe840;" d="M282 850v-282h-282v-436h282v-29a37 37 0 0 1 36-37h0a37 37 0 0 1 37 37v102h-281v290h281v282h302a37 37 0 0 1 37 36h0a37 37 0 0 1-37 37z m436-282v29a37 37 0 0 1-36 37h0a37 37 0 0 1-37-37v-102h282v-290h-282v-282h-327a37 37 0 0 1-36-36h0a37 37 0 0 1 36-37h400v282h282v436z" horiz-adv-x="1000" />

<glyph glyph-name="talk" unicode="&#xe841;" d="M500 773c233 0 422-167 422-372a357 357 0 0 0-163-295l-56-37 30-60 24-49-349 77-22 5c-182 45-308 193-308 359 0 205 189 372 422 372m0 77c-276 0-500-201-500-449 0-207 155-381 367-434l-1 0 532-117-96 193a435 435 0 0 1 198 358c0 248-224 449-500 449h0z" horiz-adv-x="1000" />

<glyph glyph-name="clock" unicode="&#xe842;" d="M500-150a500 500 0 1 0 500 500 501 501 0 0 0-500-500z m0 933a433 433 0 1 1 433-433 433 433 0 0 1-433 433z m111-634l-160 160a49 49 0 0 0-4 5 45 45 0 0 0-6 10 47 47 0 0 0-3 12 41 41 0 0 0-1 6v227a46 46 0 0 0 92 0v-208l147-147a46 46 0 0 0-65-65z" horiz-adv-x="1000" />

<glyph glyph-name="superfoods" unicode="&#xe844;" d="M452 243a44 44 0 0 0-22 6l-135 80-135-79a43 43 0 0 0-47 3 42 42 0 0 0-16 44l35 153-118 105a42 42 0 0 0 25 73l155 14 64 144a41 41 0 0 0 39 25 42 42 0 0 0 39-26l62-144 156-16a42 42 0 0 0 37-29 43 43 0 0 0-13-44l-118-104 33-153a43 43 0 0 0-16-45 42 42 0 0 0-25-7z m-156 155a56 56 0 0 0 29-8l92-55-22 105a55 55 0 0 0 18 54l81 71-107 10a56 56 0 0 0-45 33l-42 100-43-99a55 55 0 0 0-46-33l-107-10 77-71a55 55 0 0 0 17-54l-24-105 93 54a55 55 0 0 0 28 8z m215-337a33 33 0 0 1-10 46 288 288 0 0 0-98 116c-26 5-53 11-75 15 28-117 133-185 137-188a33 33 0 0 1 46 11z m238 772a34 34 0 0 1-38 16 33 33 0 0 1-24-26c-3-6-20-43-124-157 20-10 44-21 62-31 36 41 69 80 92 111 58-121 181-418 91-578-33-57-89-90-175-100a1184 1184 0 0 1 34 289 33 33 0 0 1-35 32 33 33 0 0 1-32-34c0-3 6-258-100-456a33 33 0 0 1 13-44 34 34 0 0 1 16-4 34 34 0 0 1 29 17 807 807 0 0 1 56 134c121 8 206 54 252 136 134 232-106 676-117 695z" horiz-adv-x="907" />
</font>
</defs>
</svg>
