<?xml version="1.0" standalone="no"?>
<!DOCTYPE svg PUBLIC "-//W3C//DTD SVG 1.1//EN" "http://www.w3.org/Graphics/SVG/1.1/DTD/svg11.dtd" >
<svg xmlns="http://www.w3.org/2000/svg">
<metadata></metadata>
<defs>
<font id="yantramanavmedium" horiz-adv-x="997" >
<font-face units-per-em="2048" ascent="1536" descent="-512" />
<missing-glyph horiz-adv-x="520" />
<glyph horiz-adv-x="0" />
<glyph unicode="&#xd;" horiz-adv-x="505" />
<glyph unicode=" "  horiz-adv-x="520" />
<glyph unicode="&#x09;" horiz-adv-x="520" />
<glyph unicode="&#xa0;" horiz-adv-x="520" />
<glyph unicode="!" horiz-adv-x="697" d="M444 1310v-870h-216v870h216zM445 205v-205h-217v205h217z" />
<glyph unicode="&#x22;" horiz-adv-x="909" d="M715 1404v-271l-105 -219h-98l-12 217v273h215zM403 1404v-271l-105 -219h-98l-12 208v282h215z" />
<glyph unicode="#" horiz-adv-x="1125" d="M491 793l-52 -282h203l52 282h-203zM546 0l69 369h-203l-68 -369h-150l68 369h-208v142h235l52 282h-219v143h246l70 374h151l-71 -374h202l70 374h151l-70 -374h187v-143h-214l-52 -282h199v-142h-226l-68 -369h-151z" />
<glyph unicode="$" horiz-adv-x="1048" d="M527 140l1 -2q100 0 155 48t55 133q0 77 -49.5 127t-167.5 92q-198 67 -289 159.5t-91 246.5q0 150 90.5 246t247.5 114v196h144v-198q156 -24 242 -132.5t86 -287.5h-218q0 113 -50.5 178.5t-138.5 65.5q-90 0 -137 -48t-47 -133q0 -78 48 -126t174 -92 q198 -72 286.5 -162.5t88.5 -242.5q0 -155 -93 -248t-260 -110v-176h-143v175q-171 18 -270.5 121t-95.5 289l1 5h213q0 -123 59 -180.5t159 -57.5z" />
<glyph unicode="%" horiz-adv-x="1354" d="M90 987v69q0 119 75 195t202 76q128 0 203 -76t75 -195v-69q0 -118 -74.5 -193.5t-201.5 -75.5q-128 0 -203.5 75.5t-75.5 193.5zM242 1056v-69q0 -61 33.5 -99.5t93.5 -38.5q58 0 90.5 39t32.5 99v69q0 61 -33.5 100.5t-91.5 39.5t-91.5 -39.5t-33.5 -100.5zM1054 1120 l-640 -1024l-112 65l639 1024zM720 249v70q0 118 75 194t202 76q128 0 203 -76t75 -194v-70q0 -119 -74.5 -194.5t-201.5 -75.5q-128 0 -203.5 76t-75.5 194zM872 319v-70q0 -60 34.5 -99.5t92.5 -39.5q61 0 92.5 38t31.5 101v70q0 61 -33 100t-93 39q-58 0 -91.5 -39 t-33.5 -100z" />
<glyph unicode="&#x26;" horiz-adv-x="1178" d="M513 1152q-65 0 -101.5 -42.5t-36.5 -110.5q0 -79 88 -191l102 68q50 33 68.5 68t18.5 83q0 50 -39.5 87.5t-99.5 37.5zM275 359q0 -93 57 -149t158 -56q115 0 215 64l-295 348l-27 -20q-108 -83 -108 -187zM483 -21v-1q-195 0 -311 102.5t-116 270.5q0 105 58 184.5 t187 164.5q-68 89 -99.5 157.5t-31.5 138.5q0 154 92.5 242.5t250.5 88.5q142 0 232 -84.5t90 -208.5q0 -86 -44 -154.5t-133 -133.5l-90 -65l274 -326q77 122 77 268h177q0 -252 -132 -412l176 -209l-1 -4h-247l-73 85q-151 -104 -336 -104z" />
<glyph unicode="'" horiz-adv-x="597" d="M403 1404v-216l-105 -257h-98l-12 238v235h215z" />
<glyph unicode="(" horiz-adv-x="849" d="M197 519v16q0 171 38 329t101.5 275t142 201t162.5 125l6 -1l40 -115q-130 -100 -212 -309.5t-82 -503.5v-17q0 -294 81.5 -503t212.5 -316l-40 -111h-6q-84 41 -162.5 125t-142 201t-101.5 275t-38 329z" />
<glyph unicode=")" horiz-adv-x="849" d="M659 532v-12q0 -136 -25.5 -266t-69.5 -234t-102 -191.5t-122.5 -147.5t-131.5 -92h-5l-41 111q129 99 211.5 311t82.5 507v17q0 289 -84 501.5t-210 315.5l41 111h5q84 -40 164 -125t144.5 -203t103.5 -276t39 -327z" />
<glyph unicode="*" horiz-adv-x="806" d="M111 690l182 244l-269 80l48 152l266 -105l-11 309h156l-13 -315l262 103l47 -154l-272 -79l175 -239l-127 -95l-159 258l-157 -251z" />
<glyph unicode="+" horiz-adv-x="1027" d="M617 1100v-364h342v-200h-342v-390h-212v390h-344v200h344v364h212z" />
<glyph unicode="," horiz-adv-x="416" d="M327 186v-186l-140 -281h-138l63 289v178h215z" />
<glyph unicode="-" horiz-adv-x="605" d="M536 697v-176h-472v176h472z" />
<glyph unicode="." horiz-adv-x="515" d="M356 210v-210h-218v210h218z" />
<glyph unicode="/" horiz-adv-x="755" d="M718 1298l-515 -1423h-201l516 1423h200z" />
<glyph unicode="0" horiz-adv-x="1048" d="M953 803v-300q0 -254 -113 -389t-315 -135q-203 0 -317 135t-114 389v300q0 252 113.5 388t315.5 136q201 0 315.5 -136t114.5 -388zM734 471v365q0 316 -211 316t-211 -316v-365q0 -317 213 -317q209 0 209 317z" />
<glyph unicode="1" horiz-adv-x="1048" d="M646 1310v-1310h-218v1103h-267v161z" />
<glyph unicode="2" horiz-adv-x="1048" d="M968 175v-176h-870v150l427 466q103 113 143 186.5t40 144.5q0 90 -51.5 148.5t-138.5 58.5q-113 0 -169.5 -63.5t-56.5 -179.5h-212l-2 5q-4 180 116 297t324 117q188 0 298.5 -103t110.5 -274q0 -107 -58.5 -206.5t-201.5 -257.5l-292 -308l3 -5h590z" />
<glyph unicode="3" horiz-adv-x="1048" d="M351 580v172h152q104 0 152 51t48 151q0 95 -51 146.5t-148 51.5q-90 0 -146 -51t-56 -134h-210l-2 6q-5 151 112 252.5t299 101.5q195 0 308 -97.5t113 -275.5q0 -87 -52.5 -164.5t-144.5 -120.5q109 -38 162.5 -117t53.5 -187q0 -178 -121.5 -282t-318.5 -104 q-188 0 -308.5 99t-115.5 266l2 5h211q0 -88 58.5 -141.5t155.5 -53.5q103 0 161 54.5t58 155.5q0 112 -53.5 164t-166.5 52h-152z" />
<glyph unicode="4" horiz-adv-x="1048" d="M836 1310v-843h166v-176h-166v-291h-218v291h-562l-6 134l561 885h225zM595 962l-329 -495h352v532l-5 2z" />
<glyph unicode="5" horiz-adv-x="1048" d="M329 569l-190 13l76 724h692v-189h-510l-40 -328q88 66 205 67q185 2 289 -115.5t104 -325.5q0 -198 -112 -317.5t-316 -119.5q-179 0 -294.5 97.5t-110.5 268.5l1 4l205 7q0 -94 54.5 -147.5t145.5 -53.5q101 0 155 70t54 191t-56 194t-155 73q-87 0 -132 -28t-65 -85z " />
<glyph unicode="6" horiz-adv-x="1048" d="M104 762l-1 1q0 254 142.5 409.5t365.5 155.5q141 0 251 -55l-41 -169q-108 46 -208 46q-132 0 -211.5 -101.5t-79.5 -272.5v-7q112 104 282 104q174 0 277.5 -121t103.5 -315q0 -203 -117 -330.5t-307 -127.5q-205 0 -331 142t-126 391v250zM765 438q0 120 -58 193 t-157 73q-161 0 -229 -109v-94q0 -163 65.5 -254.5t173.5 -91.5q93 0 149 80t56 203z" />
<glyph unicode="7" horiz-adv-x="1048" d="M968 1310v-176q-113 -133 -186.5 -246.5t-120 -234t-71 -235t-43.5 -279.5l-13 -139h-219l14 139q35 296 139 537t288 459h-694v175h906z" />
<glyph unicode="8" horiz-adv-x="1048" d="M523 1327q183 0 293 -96t110 -268q0 -99 -53 -175t-148 -118q110 -42 172 -124.5t62 -190.5q0 -180 -118 -278t-316 -98q-201 0 -319.5 98t-118.5 278q0 108 62 191t172 125q-95 41 -147.5 117t-52.5 175q0 172 108.5 268t293.5 96zM525 758q83 0 132.5 54t49.5 143 q0 87 -51 142t-133 55q-85 0 -134 -53t-49 -144q0 -90 50 -143.5t135 -53.5zM525 154q98 0 157.5 57.5t59.5 154.5q0 96 -61.5 156.5t-157.5 60.5q-97 0 -157 -59.5t-60 -157.5q0 -99 59 -155.5t160 -56.5z" />
<glyph unicode="9" horiz-adv-x="1048" d="M293 875q0 -125 54.5 -199t151.5 -74q80 0 137.5 31.5t88.5 84.5v117q0 156 -58 236.5t-167 80.5q-89 0 -148 -79t-59 -198zM221 200l-1 1q100 -47 243 -47q121 0 191 87.5t70 252.5v60q-92 -122 -247 -122q-189 0 -296.5 118t-107.5 325q0 196 120.5 324t301.5 128 q207 0 326.5 -135t119.5 -383v-307q0 -245 -131 -384t-347 -139q-151 0 -271 54z" />
<glyph unicode=":" horiz-adv-x="494" d="M320 977v-189h-196v189h196zM320 189v-189h-196v189h196z" />
<glyph unicode=";" horiz-adv-x="490" d="M321 949v-189h-196v189h196zM340 139v-167l-126 -253h-124l57 260v160h193z" />
<glyph unicode="&#x3c;" horiz-adv-x="937" d="M810 712l-520 -200l-17 -3v-5l17 -3l520 -196v-219l-753 335v174l753 334v-217z" />
<glyph unicode="=" horiz-adv-x="1049" d="M906 929v-181h-775v181h775zM906 547v-181h-775v181h775z" />
<glyph unicode="&#x3e;" horiz-adv-x="959" d="M660 515l-545 199v215l778 -334v-174l-778 -335v215l545 204l16 1l1 6z" />
<glyph unicode="?" horiz-adv-x="1159" d="M667 371h-216q1 89 13.5 137.5t42.5 86t101 96.5q89 93 122 148t33 128q0 90 -48 139.5t-136 49.5q-80 0 -130.5 -43.5t-50.5 -123.5h-207l-3 5q-3 156 105 246t286 90q189 0 294 -95t105 -265q0 -109 -60 -203.5t-173 -189.5q-51 -45 -64.5 -84t-13.5 -122zM671 204 v-204h-220v204h220z" />
<glyph unicode="@" horiz-adv-x="1643" d="M860 1236q345 0 528 -219t169 -606q-4 -100 -32 -184.5t-78.5 -150t-130 -103t-180.5 -37.5q-69 0 -117.5 37.5t-69.5 107.5q-86 -143 -250 -143q-120 0 -184 107.5t-48 283.5q22 232 126 371t255 139q94 0 154 -21.5t138 -74.5l-2 -3h4l-46 -522q-12 -159 78 -159 q107 0 171.5 97.5t71.5 254.5q15 336 -126.5 517.5t-434.5 181.5q-275 0 -440.5 -196t-178.5 -529q-17 -331 131.5 -519t428.5 -188q79 0 160 18t138 48l34 -117q-59 -37 -150.5 -58.5t-183.5 -21.5q-350 0 -539 223t-174 615q10 255 108 447.5t271 298t399 105.5zM884 700 v1q-105 0 -161.5 -91t-73.5 -280q-18 -244 107 -244q116 0 178 101q0 5 2 31l41 464q-46 18 -93 18z" />
<glyph unicode="A" horiz-adv-x="1188" d="M596 1049l-193 -560h388l-190 560h-5zM957 0l-104 306h-513l-104 -306h-222l482 1310h207l476 -1310h-222z" />
<glyph unicode="B" horiz-adv-x="1181" d="M637 0h-494v1310h436q222 0 342 -90t120 -267q0 -89 -51 -159t-142 -105q116 -26 179.5 -110.5t63.5 -202.5q0 -183 -119 -279.5t-335 -96.5zM362 1135v-376h241q104 0 162 48t58 136q0 192 -244 192h-217zM662 596h-300v-421h275q115 0 175.5 51.5t60.5 149.5 q0 220 -211 220z" />
<glyph unicode="C" horiz-adv-x="1172" d="M888 433h211l2 -6q3 -202 -130 -325t-359 -123q-230 0 -373.5 153.5t-143.5 395.5v249q0 242 142 396t369 154q233 0 366 -121.5t130 -328.5l-2 -5h-212q0 134 -72 207t-210 73q-133 0 -212.5 -105t-79.5 -268v-251q0 -165 81 -269.5t217 -104.5t206 71.5t70 207.5z" />
<glyph unicode="D" horiz-adv-x="1211" d="M568 0h-425v1310h425q250 0 406 -155t156 -401v-199q0 -246 -156 -400.5t-406 -154.5zM562 1135h-200v-960h200q161 0 255 104.5t94 275.5v201q0 170 -94 274.5t-255 104.5z" />
<glyph unicode="E" horiz-adv-x="1068" d="M935 765v-175h-573v-415h665v-175h-884v1310h878v-175h-659v-370h573z" />
<glyph unicode="F" horiz-adv-x="1069" d="M936 734v-175h-574v-559h-219v1310h885v-175h-666v-401h574z" />
<glyph unicode="G" horiz-adv-x="1245" d="M1120 664l-1 -489q-60 -84 -181.5 -140t-296.5 -56q-239 0 -391 149.5t-152 387.5v274q0 239 144 388t374 149q229 0 358 -111.5t132 -298.5l-2 -6h-207q-7 112 -77.5 176.5t-200.5 64.5q-135 0 -218.5 -101t-83.5 -259v-276q0 -160 90.5 -261t234.5 -101q188 0 259 80 v266h-260v164h479z" />
<glyph unicode="H" horiz-adv-x="1310" d="M1166 1310v-1310h-217v559h-587v-559h-219v1310h219v-576h587v576h217z" />
<glyph unicode="I" horiz-adv-x="530" d="M374 1310v-1310h-218v1310h218z" />
<glyph unicode="J" horiz-adv-x="1033" d="M680 377v931h218v-931q0 -183 -115.5 -290.5t-301.5 -107.5q-202 0 -315 99.5t-108 285.5l1 6h212q0 -216 210 -216q88 0 143.5 60.5t55.5 162.5z" />
<glyph unicode="K" horiz-adv-x="1188" d="M927 0l-414 567h-151v-567h-219v1310h219v-555h125l411 555h259l-477 -625l514 -685h-267z" />
<glyph unicode="L" d="M362 1310v-1135h602v-175h-821v1310h219z" />
<glyph unicode="M" horiz-adv-x="1615" d="M143 1310h284l377 -1008h5l378 1008h284v-1310h-219v446l22 568l-6 1l-389 -1015h-146l-387 1013l-6 -1l22 -566v-446h-219v1310z" />
<glyph unicode="N" horiz-adv-x="1310" d="M1166 1310v-1310h-217l-582 957l-5 -2v-955h-219v1310h219l581 -955l6 1v954h217z" />
<glyph unicode="O" horiz-adv-x="1258" d="M1165 771v-236q0 -243 -151 -399.5t-391 -156.5q-235 0 -382.5 156.5t-147.5 399.5v236q0 242 147.5 399t381.5 157q158 0 282.5 -72t192.5 -198.5t68 -285.5zM947 535v238q0 167 -88.5 270.5t-236.5 103.5q-143 0 -227 -103.5t-84 -270.5v-238q0 -168 84 -272.5 t228 -104.5q149 0 236.5 104t87.5 273z" />
<glyph unicode="P" horiz-adv-x="1191" d="M655 497h-293v-497h-219v1310h512q216 0 339.5 -110.5t123.5 -295.5q0 -187 -123 -297t-340 -110zM362 1135v-463h293q119 0 181.5 63t62.5 167q0 105 -63 169t-181 64h-293z" />
<glyph unicode="Q" horiz-adv-x="1273" d="M1165 750v-236q0 -247 -159 -406l218 -212l-146 -130l-241 230q-100 -38 -214 -38q-235 0 -382.5 156.5t-147.5 399.5v236q0 242 147.5 399t381.5 157q158 0 282.5 -72t192.5 -198.5t68 -285.5zM947 514v238q0 166 -88.5 270t-236.5 104q-143 0 -227 -104t-84 -270v-238 q0 -169 84 -273t228 -104q149 0 236.5 103.5t87.5 273.5z" />
<glyph unicode="R" horiz-adv-x="1220" d="M362 1135v-416h254q131 0 191.5 50t60.5 154q0 102 -60.5 157t-180.5 55h-265zM653 544h-291v-544h-219v1310h484q221 0 340 -98.5t119 -282.5q0 -203 -206 -293q208 -66 208 -310v-109q0 -143 63 -196v-21h-225q-57 48 -57 219v105q0 102 -57.5 161t-158.5 59z" />
<glyph unicode="S" horiz-adv-x="1159" d="M597 153l1 -1q121 0 188.5 48.5t67.5 133.5q0 83 -61.5 135t-213.5 93q-229 61 -343 156.5t-114 245.5q0 159 131 261t338 102q213 0 345.5 -114t128.5 -281l-2 -5h-210q0 103 -69 164.5t-194 61.5q-118 0 -183.5 -51.5t-65.5 -136.5q0 -74 69 -123t232 -94 q216 -58 323.5 -158.5t107.5 -253.5q0 -163 -130 -260t-345 -97q-103 0 -196.5 28.5t-164.5 79.5t-112 128.5t-39 169.5l2 5h211q0 -116 80 -176.5t218 -60.5z" />
<glyph unicode="T" horiz-adv-x="1067" d="M1039 1310v-175h-396v-1135h-219v1135h-396v175h1011z" />
<glyph unicode="U" horiz-adv-x="1256" d="M920 1308h220v-878q0 -215 -139.5 -333t-374.5 -118q-231 0 -368 118.5t-137 332.5v878h218v-878q0 -136 75.5 -206t210.5 -70q139 0 217 70t78 206v878z" />
<glyph unicode="V" horiz-adv-x="1170" d="M247 1310l312 -967l23 -91h6l22 89l313 969h234l-468 -1310h-208l-467 1310h233z" />
<glyph unicode="W" horiz-adv-x="1631" d="M251 1310l210 -961v-2l1 5l262 958h174l265 -961l1 -6l1 9l207 958h215l-312 -1310h-199l-261 941h-6l-263 -941h-199l-311 1310h215z" />
<glyph unicode="X" horiz-adv-x="1170" d="M311 1310l274 -484l276 484h260l-404 -649l419 -661h-263l-284 492l-285 -492h-259l412 661l-403 649h257z" />
<glyph unicode="Y" horiz-adv-x="1143" d="M256 1310l315 -637l316 637h244l-454 -850v-460h-218v472l-447 838h244z" />
<glyph unicode="Z" horiz-adv-x="1094" d="M1001 1179l-662 -1004h684v-175h-944v137l658 998h-652v175h916v-131z" />
<glyph unicode="[" horiz-adv-x="722" d="M567 1509v-164h-151v-1472h151v-164h-366v1800h366z" />
<glyph unicode="\" horiz-adv-x="770" d="M566 -125l-547 1423h212l548 -1423h-213z" />
<glyph unicode="]" horiz-adv-x="723" d="M156 1345v164h366v-1800h-366v164h151v1472h-151z" />
<glyph unicode="^" horiz-adv-x="788" d="M379 1101l-146 -372h-185l269 654h154l268 -654h-185l-148 372l-11 48h-5z" />
<glyph unicode="_" horiz-adv-x="832" d="M828 -19v-172h-825v172h825z" />
<glyph unicode="`" horiz-adv-x="594" d="M315 1451l167 -239h-177l-233 234l2 5h241z" />
<glyph unicode="a" horiz-adv-x="1003" d="M293 276h1q0 -57 36.5 -89t103.5 -32q81 0 147 40t89 95v144h-174q-92 0 -147.5 -45.5t-55.5 -112.5zM924 -2l-222 -1q-24 76 -30 143q-48 -72 -121 -116.5t-161 -44.5q-151 0 -233 77.5t-82 215.5q0 143 111 221t315 78h170v86q0 77 -45 120t-129 43q-75 0 -119.5 -35.5 t-44.5 -93.5h-211l-1 5q-6 119 105 206.5t284 87.5q175 0 277 -87.5t102 -247.5v-433q0 -120 35 -224z" />
<glyph unicode="b" horiz-adv-x="1044" d="M970 471v-19q0 -217 -100 -345t-280 -128q-178 0 -270 145l-21 -126h-184v1404h219v-541q93 129 255 129q181 0 281 -140t100 -379zM752 452l-1 19q0 159 -54 249.5t-164 90.5q-139 0 -200 -123v-408q59 -123 203 -123q110 0 163 77t53 218z" />
<glyph unicode="c" horiz-adv-x="968" d="M292 469h-1q0 -315 226 -315q81 0 135 47t54 118h198l2 -5q5 -137 -110.5 -236t-278.5 -99q-211 0 -328 135t-117 355v31q0 219 117 354.5t328 135.5q176 0 285.5 -102t105.5 -260l-2 -5h-199q0 82 -52.5 136.5t-136.5 54.5q-118 0 -172 -84t-54 -230v-31z" />
<glyph unicode="d" horiz-adv-x="1044" d="M293 471v-19q0 -140 53.5 -217.5t162.5 -77.5q133 0 198 115v424q-67 115 -196 115q-109 0 -163.5 -91t-54.5 -249zM75 452v19q0 237 100.5 378t279.5 141q155 0 251 -124v536h218v-1404h-183l-22 121q-96 -140 -265 -140q-178 0 -278.5 128.5t-100.5 344.5z" />
<glyph unicode="e" horiz-adv-x="976" d="M889 94h1q-133 -115 -357 -115q-206 0 -329.5 134t-123.5 349v36q0 214 121.5 353.5t306.5 138.5q195 0 300.5 -117.5t105.5 -321.5v-129h-607l-2 -5q6 -119 69.5 -191t171.5 -72q86 0 148.5 20t124.5 63zM699 605q0 95 -48.5 152t-141.5 57q-80 0 -133 -62.5t-65 -164.5 l1 -5h387v23z" />
<glyph unicode="f" horiz-adv-x="647" d="M405 0h-220v812h-148v162h148v113q0 161 87.5 248.5t246.5 87.5q53 0 138 -19l-22 -169q-54 9 -88 9q-142 0 -142 -157v-113h198v-162h-198v-812z" />
<glyph unicode="g" horiz-adv-x="1044" d="M294 430v-19q0 -139 55 -217t165 -78q135 0 196 113v427q-64 113 -194 113q-110 0 -166 -91.5t-56 -247.5zM76 411l1 19q0 236 102 377t282 141q172 0 265 -145l22 127h182v-974q0 -189 -115.5 -291t-330.5 -102q-72 0 -153.5 20t-148.5 54l47 172q114 -60 254 -60 q118 0 173 50.5t55 156.5v100q-95 -119 -253 -119q-178 0 -280 129t-102 345z" />
<glyph unicode="h" horiz-adv-x="1044" d="M331 1404l1 -556q104 144 273 144q159 0 243.5 -99t84.5 -300v-593h-218v595q0 114 -45 166t-139 52q-127 0 -200 -100v-713h-218v1404h218z" />
<glyph unicode="i" horiz-adv-x="478" d="M348 1404v-192h-218v192h218zM348 974v-974h-218v974h218z" />
<glyph unicode="j" horiz-adv-x="483" d="M353 1360v-191h-219v191h219zM140 930h219v-1030q0 -162 -83 -249.5t-234 -87.5q-60 0 -113 15l13 175q31 -11 78 -11q120 0 120 158v1030z" />
<glyph unicode="k" horiz-adv-x="965" d="M722 0l-290 426h-98v-426h-218v1404h218v-803h91l246 373h257l-321 -443l369 -531h-254z" />
<glyph unicode="l" horiz-adv-x="478" d="M348 1404v-1404h-218v1404h218z" />
<glyph unicode="m" horiz-adv-x="1603" d="M115 974h199l12 -127q99 145 286 145q197 0 266 -173q95 173 292 173q151 0 234 -102t83 -303v-587h-219v588q0 122 -41.5 173.5t-129.5 51.5q-69 0 -118 -37t-71 -103q0 -9 1 -23t1 -19v-631h-219v588q0 117 -42.5 171t-129.5 54q-128 0 -185 -98v-715h-219v974z" />
<glyph unicode="n" horiz-adv-x="1044" d="M113 974l200 -1l13 -141q101 160 283 160q156 0 239.5 -94t83.5 -286v-612h-219v610q0 109 -44.5 156t-139.5 47q-126 0 -197 -106v-707h-219v974z" />
<glyph unicode="o" horiz-adv-x="1044" d="M75 475l-1 18q0 216 119 356t326 140q210 0 329 -140q119 -137 119 -355v-19q0 -220 -119 -357q-120 -138 -326 -138q-211 0 -328 139q-119 137 -119 356zM292 493l1 -20q0 -144 56 -232q56 -89 173 -89q115 0 171 89q58 89 58 232v19q0 140 -58 229q-56 91 -174 91 q-114 0 -171 -91q-56 -88 -56 -228z" />
<glyph unicode="p" horiz-adv-x="1044" d="M751 413v19q0 155 -57.5 247t-166.5 92q-132 0 -193 -111v-440q61 -106 194 -106q110 0 166.5 80t56.5 219zM968 432v-19q0 -216 -100 -344.5t-278 -128.5q-163 0 -256 117v-473h-219v1348h185l21 -122q97 140 267 140q179 0 279.5 -140.5t100.5 -377.5z" />
<glyph unicode="q" horiz-adv-x="1044" d="M75 413v19q0 237 100.5 377.5t279.5 140.5q165 0 261 -136l25 118h177v-1348h-219v466q-89 -110 -245 -110q-178 0 -278.5 128.5t-100.5 344.5zM293 432v-19q0 -141 53.5 -220t162.5 -79q129 0 190 104v453q-63 104 -188 104q-108 0 -163 -92.5t-55 -250.5z" />
<glyph unicode="r" horiz-adv-x="638" d="M626 981l-27 -204l-93 3q-125 0 -173 -103v-677h-219v974h200l14 -141q80 159 230 159q38 0 68 -11z" />
<glyph unicode="s" horiz-adv-x="959" d="M486 143l1 -2q85 0 130.5 32t45.5 88q0 52 -44.5 85t-159.5 58q-180 39 -267 107.5t-87 183.5q0 125 104.5 210t272.5 85q177 0 282.5 -86.5t100.5 -218.5l-2 -6h-209q0 63 -47 105t-125 42q-77 0 -119.5 -34.5t-42.5 -87.5q0 -54 40.5 -83t157.5 -52q187 -39 274 -108.5 t87 -186.5q0 -132 -108 -213.5t-287 -81.5q-185 0 -297 94t-107 226l2 6h203q4 -82 58.5 -122t142.5 -40z" />
<glyph unicode="t" horiz-adv-x="641" d="M169 1208h219v-236h175v-162h-175v-538q0 -112 95 -112q38 0 68 12l23 -161q-61 -32 -147 -32q-258 0 -258 293v538h-148v162h148v236z" />
<glyph unicode="u" horiz-adv-x="1044" d="M740 -2l-19 142q-97 -161 -278 -161q-161 0 -247 101.5t-86 308.5v583h218v-584q0 -126 39.5 -178.5t126.5 -52.5q153 0 218 111v704h219v-974h-191z" />
<glyph unicode="v" horiz-adv-x="934" d="M255 974l199 -645l16 -79h5l17 79l194 645h226l-346 -974h-190l-347 974h226z" />
<glyph unicode="w" horiz-adv-x="1377" d="M766 974l206 -693l5 1l153 692h209l-266 -974h-179l-207 665l-2 9l-1 -9l-205 -665h-179l-267 974h210l156 -682l5 -1l203 683h159z" />
<glyph unicode="x" horiz-adv-x="934" d="M287 974l177 -334l180 334h252l-306 -482l315 -492h-249l-188 342l-188 -342h-250l315 492l-306 482h248z" />
<glyph unicode="y" horiz-adv-x="934" d="M253 930l186 -583l22 -97h5l214 680h239l-403 -1121q-44 -116 -116 -181t-192 -65q-40 0 -118 18l24 169q64 -4 66 -4q97 0 152 134l36 88l-354 962h239z" />
<glyph unicode="z" horiz-adv-x="934" d="M844 835l-497 -660h521v-175h-791v143l491 654h-482v177h758v-139z" />
<glyph unicode="{" horiz-adv-x="841" d="M672 -204l-42 -124q-171 49 -247 154t-76 265v184q0 98 -44 150.5t-131 52.5v153q87 0 131 52t44 150v185q0 161 76 265.5t247 152.5l42 -121q-86 -29 -124 -103.5t-38 -193.5v-185q0 -198 -157 -279q157 -81 157 -279v-184q0 -240 162 -295z" />
<glyph unicode="|" horiz-adv-x="623" d="M387 1310v-1553h-150v1553h150z" />
<glyph unicode="}" horiz-adv-x="842" d="M212 -327l-43 124q164 56 164 295v184q0 203 165 279q-165 74 -165 279v185q0 241 -164 297l43 121q169 -48 246 -153t77 -265v-185q0 -202 176 -202v-153q-176 0 -176 -203v-184q0 -160 -77 -265t-246 -154z" />
<glyph unicode="~" horiz-adv-x="1225" d="M966 734l156 -20q0 -137 -79.5 -232t-198.5 -95q-77 0 -142 28.5t-143 93.5q-95 81 -170 81q-54 0 -92 -46t-38 -111l-153 20q0 137 78 228t199 91q76 0 143.5 -29t140.5 -92q50 -44 88 -62.5t80 -18.5q53 0 92 49t39 115z" />
<glyph unicode="&#xa1;" horiz-adv-x="488" d="M245 955q57 0 90 -33t33 -84q0 -52 -33 -85t-90 -33q-59 0 -91.5 33t-32.5 85q0 51 33 84t91 33zM131 -364l22 923h188l22 -923h-232z" />
<glyph unicode="&#xa2;" horiz-adv-x="1034" d="M309 446v3q0 -314 223 -314q80 0 134 47t59 119h206q-4 -123 -91.5 -215t-221.5 -118v-211h-180v211q-165 30 -256.5 158.5t-91.5 327.5v25q0 193 92 322t256 159v203h180v-202q143 -25 226 -121.5t87 -239.5h-206q-6 88 -58.5 140t-135.5 52q-208 0 -221 -281z" />
<glyph unicode="&#xa3;" horiz-adv-x="1085" d="M732 538h-274l6 -158q0 -123 -57 -198h626l-1 -182h-944v182h74q35 8 54.5 58t19.5 132l-6 166h-145v179h139l-7 218q0 182 111.5 287.5t296.5 105.5q182 0 286.5 -97.5t104.5 -264.5h-220q0 85 -47 132.5t-132 47.5q-81 0 -127 -57.5t-46 -153.5l8 -218h280v-179z" />
<glyph unicode="&#xa4;" horiz-adv-x="1293" d="M1095 -27l-120 121q-142 -115 -326 -115q-181 0 -324 114l-116 -119l-127 130l121 123q-90 141 -90 318q0 181 98 328l-129 132l127 130l127 -131q140 104 314 104t315 -105l130 133l128 -131l-133 -136q96 -143 96 -324q0 -173 -88 -315l125 -126zM463 888 q-86 -53 -134.5 -144.5t-48.5 -198.5q0 -109 49 -201.5t135 -145.5t185 -52.5t184 53.5q86 53 135 145t49 201q0 107 -48.5 198.5t-134.5 144.5q-85 53 -185 53t-186 -53z" />
<glyph unicode="&#xa5;" horiz-adv-x="1123" d="M275 1310l284 -572l283 572h252l-353 -642h242v-137h-314v-124h314v-136h-314v-271h-227v271h-319v136h319v124h-319v137h253l-353 642h252z" />
<glyph unicode="&#xa6;" horiz-adv-x="457" d="M329 1283v-682h-207v682h207zM329 -270h-207v716h207v-716z" />
<glyph unicode="&#xa7;" horiz-adv-x="1145" d="M832 348l1 1q0 73 -60.5 116t-230.5 94q-61 16 -142 44q-98 -36 -98 -147q0 -73 44.5 -111.5t179.5 -82.5l161 -47l41 -15q104 42 104 148zM1008 529v1q41 -70 41 -167q0 -165 -154 -246q121 -91 121 -255q0 -156 -121 -245t-332 -89q-226 0 -353.5 98t-127.5 284l218 1 q0 -99 69.5 -153.5t193.5 -54.5q109 0 172 42.5t63 114.5q0 69 -59 109.5t-229 91.5q-168 46 -254 95t-129 119q-41 71 -41 167q0 167 152 247q-61 46 -90.5 107t-29.5 150q0 154 123.5 245.5t331.5 91.5q217 0 337 -100.5t120 -285.5h-219q0 96 -65 153.5t-173 57.5 q-111 0 -173.5 -42.5t-62.5 -117.5q0 -52 22.5 -84t81.5 -58.5t178 -58.5q171 -46 259 -96.5t130 -121.5z" />
<glyph unicode="&#xa8;" horiz-adv-x="811" d="M197 1248q-52 0 -82.5 30t-30.5 76t30.5 76t82.5 30t83 -30t31 -76t-31 -76t-83 -30zM608 1247q-52 0 -83 30t-31 76t31 76t83 30q53 0 84 -30t31 -76t-31 -76t-84 -30z" />
<glyph unicode="&#xa9;" horiz-adv-x="1444" d="M717 -21q-131 0 -249.5 52.5t-204 142t-135.5 215t-50 265.5q0 187 85 341.5t231.5 242.5t322.5 88t322 -88t231 -242.5t85 -341.5t-85 -342.5t-231.5 -244t-321.5 -88.5zM717 1214q-146 0 -267.5 -73t-191.5 -202t-70 -285q0 -238 153.5 -400t375.5 -162t375.5 162 t153.5 400q0 156 -70.5 285t-191.5 202t-267 73zM866 534h133l2 -5q3 -135 -74.5 -206t-221.5 -71t-229 95t-85 253v107q0 158 85 253t229 95q143 0 221.5 -71.5t75.5 -205.5l-2 -5h-133q0 84 -39.5 122.5t-122.5 38.5q-84 0 -130 -61t-46 -165v-108q0 -105 46 -166t130 -61 q83 0 122 38t39 123z" />
<glyph unicode="&#xaa;" horiz-adv-x="822" d="M284 900q0 -79 106 -79q35 0 72.5 15.5t63.5 39.5v123h-96q-68 -1 -107 -27.5t-39 -71.5zM707 704h-160l-15 61q-70 -74 -181 -74q-106 0 -165 55t-59 150q0 208 307 208h92v46q0 114 -105 114q-59 0 -91.5 -23t-32.5 -66l-156 13q0 93 78.5 151.5t201.5 58.5 q125 0 193.5 -65.5t68.5 -184.5v-284q0 -88 24 -160z" />
<glyph unicode="&#xab;" horiz-adv-x="895" d="M837 857l-223 -360l223 -359h-151l-259 351v17l259 351h151zM478 857l-223 -360l223 -359h-151l-259 351v17l259 351h151z" />
<glyph unicode="&#xac;" horiz-adv-x="1020" d="M866 762v-388h-180v234h-572v154h752z" />
<glyph unicode="&#xad;" horiz-adv-x="605" d="M530 697v-176h-472v176h472z" />
<glyph unicode="&#xae;" horiz-adv-x="1444" d="M163 316l-1 -1q-85 159 -85 339q0 183 84 338t234 246q150 89 322 89t322 -89q148 -91 232 -246t84 -338t-83.5 -337.5t-231.5 -246.5q-148 -90 -323 -90q-174 0 -321 89.5t-233 246.5zM1176 373q69 130 69 280q0 152 -67.5 279t-191.5 204t-270 77q-144 0 -266 -73.5 t-193 -203.5t-71 -282.5t71 -282.5q71 -131 193 -205.5t266 -74.5t268 76t192 206zM587 927v-221h128q64 0 105 28t41 77q0 64 -32 89.5t-115 26.5h-127zM729 586l-142 1v-304h-136v765h253q139 0 215.5 -60.5t76.5 -173.5q0 -104 -108 -162q57 -25 81.5 -73.5t24.5 -125.5 q0 -120 15 -155v-15h-140q-11 29 -11 174q0 68 -30 98.5t-99 30.5z" />
<glyph unicode="&#xaf;" horiz-adv-x="888" d="M776 1440v-142h-654v142h654z" />
<glyph unicode="&#xb0;" horiz-adv-x="700" d="M114 1182q0 99 70.5 170t167.5 71q96 0 165 -71t69 -170q0 -100 -68 -169.5t-166 -69.5t-168 69.5t-70 169.5zM239 1182q0 -47 33 -79.5t80 -32.5q48 0 79 32t31 80q0 47 -31.5 81t-78.5 34t-80 -34t-33 -81z" />
<glyph unicode="&#xb1;" horiz-adv-x="988" d="M601 1149v-340h309v-179h-309v-349h-194v349h-321v179h321v340h194zM877 177v-176h-764v176h764z" />
<glyph unicode="&#xb4;" horiz-adv-x="600" d="M101 1233l175 273h250l-250 -273h-175z" />
<glyph unicode="&#xb5;" horiz-adv-x="1090" d="M131 932l217 -1v-572q2 -130 43 -187t136 -57q151 0 204 109v707h219v-974h-201l-6 78q-84 -96 -216 -96q-109 0 -178 50v-405h-218v1348z" />
<glyph unicode="&#xb6;" horiz-adv-x="905" d="M769 0h-189v468h-72q-207 0 -326.5 113.5t-119.5 307.5q0 193 120 307t327 114h260v-1310z" />
<glyph unicode="&#xb7;" horiz-adv-x="520" d="M255 581q-59 0 -93 33t-34 87t33.5 88t93.5 34q59 0 93.5 -34t34.5 -88q0 -53 -35.5 -86.5t-92.5 -33.5z" />
<glyph unicode="&#xb8;" horiz-adv-x="475" d="M127 -42h159l-10 -49q135 -24 135 -155q0 -96 -76.5 -148.5t-217.5 -52.5l-6 123q59 0 91 21t32 59q0 40 -30.5 56t-105.5 21z" />
<glyph unicode="&#xba;" horiz-adv-x="842" d="M107 1013v65q0 145 85.5 232t226.5 87t226.5 -87.5t85.5 -236.5v-64q0 -145 -84.5 -232t-226.5 -87q-143 0 -228 87.5t-85 235.5zM265 1074v-65q0 -89 41.5 -138.5t113.5 -49.5q71 0 111.5 48.5t41.5 136.5v72q0 87 -41 136.5t-113 49.5t-113 -49.5t-41 -140.5z" />
<glyph unicode="&#xbb;" horiz-adv-x="895" d="M449 857h150l259 -351v-17l-259 -351h-150l222 359zM76 857h150l259 -351v-17l-259 -351h-150l222 359z" />
<glyph unicode="&#xbc;" horiz-adv-x="1339" d="M1043 1141l-640 -1024l-112 65l639 1024z" />
<glyph unicode="&#xbd;" horiz-adv-x="1421" d="M1005 1141l-640 -1024l-112 65l639 1024z" />
<glyph unicode="&#xbe;" horiz-adv-x="1461" d="M1170 1141l-640 -1024l-112 65l639 1024z" />
<glyph unicode="&#xbf;" horiz-adv-x="896" d="M462 953q58 0 90.5 -32.5t32.5 -84.5t-32.5 -85t-90.5 -33t-91 33t-33 85t33 84.5t91 32.5zM363 556h205q-2 -113 -25.5 -177.5t-89.5 -135.5l-93 -95q-81 -88 -81 -183q0 -168 168 -168q80 0 127.5 45t47.5 119h219q-2 -159 -109 -252.5t-284 -93.5q-186 0 -287.5 90 t-101.5 256q0 149 140 296l83 83q69 64 79 169z" />
<glyph unicode="&#xc0;" horiz-adv-x="1227" d="M604 1761l167 -239h-177l-233 234l2 5h241zM594 1049l-193 -560h388l-190 560h-5zM955 0l-104 306h-513l-104 -306h-222l482 1310h207l476 -1310h-222z" />
<glyph unicode="&#xc1;" horiz-adv-x="1227" d="M549 1543l175 273h250l-250 -273h-175zM594 1049l-193 -560h388l-190 560h-5zM955 0l-104 306h-513l-104 -306h-222l482 1310h207l476 -1310h-222z" />
<glyph unicode="&#xc2;" horiz-adv-x="1227" d="M699 1818l246 -250v-10h-176l-135 140l-134 -140h-174v12l244 248h129zM594 1049l-193 -560h388l-190 560h-5zM955 0l-104 306h-513l-104 -306h-222l482 1310h207l476 -1310h-222z" />
<glyph unicode="&#xc3;" horiz-adv-x="1227" d="M830 1808l135 -11q0 -100 -57.5 -165t-143.5 -65q-36 0 -62 8t-72 34q-44 25 -64 31.5t-45 6.5q-35 0 -58.5 -26t-23.5 -67l-134 7q0 100 57 167t143 67q35 0 123.5 -40.5t119.5 -40.5q35 0 58.5 26.5t23.5 67.5zM594 1049l-193 -560h388l-190 560h-5zM955 0l-104 306 h-513l-104 -306h-222l482 1310h207l476 -1310h-222z" />
<glyph unicode="&#xc4;" horiz-adv-x="1227" d="M433 1558q-52 0 -82.5 30t-30.5 76t30.5 76t82.5 30t83 -30t31 -76t-31 -76t-83 -30zM844 1557q-52 0 -83 30t-31 76t31 76t83 30q53 0 84 -30t31 -76t-31 -76t-84 -30zM594 1049l-193 -560h388l-190 560h-5zM955 0l-104 306h-513l-104 -306h-222l482 1310h207l476 -1310 h-222z" />
<glyph unicode="&#xc5;" horiz-adv-x="1227" d="M450 1712q0 77 57.5 132t142.5 55q84 0 141.5 -55t57.5 -132q0 -78 -56.5 -131.5t-142.5 -53.5q-87 0 -143.5 53.5t-56.5 131.5zM650 1813q-44 0 -72.5 -29.5t-28.5 -71.5q0 -43 29.5 -72t71.5 -29q43 0 72 28.5t29 72.5q0 42 -28.5 71.5t-72.5 29.5zM594 1049l-193 -560 h388l-190 560h-5zM955 0l-104 306h-513l-104 -306h-222l482 1310h207l476 -1310h-222z" />
<glyph unicode="&#xc6;" horiz-adv-x="1733" d="M837 1083l-315 -583h339zM1691 176v-176h-808l-14 306h-451l-166 -306h-261l752 1310h892v-177h-581l15 -367h493v-177h-486l18 -413h597z" />
<glyph unicode="&#xc7;" horiz-adv-x="1203" d="M878 433h211l2 -6q3 -202 -130 -325t-359 -123q-230 0 -373.5 153.5t-143.5 395.5v249q0 242 142 396t369 154q233 0 366 -121.5t130 -328.5l-2 -5h-212q0 134 -72 207t-210 73q-133 0 -212.5 -105t-79.5 -268v-251q0 -165 81 -269.5t217 -104.5t206 71.5t70 207.5z M574 -47h159l-10 -49q135 -24 135 -155q0 -96 -76.5 -148.5t-217.5 -52.5l-6 123q59 0 91 21t32 59q0 40 -30.5 56t-105.5 21z" />
<glyph unicode="&#xc8;" horiz-adv-x="1042" d="M534 1768l167 -239h-177l-233 234l2 5h241zM922 765v-175h-573v-415h665v-175h-884v1310h878v-175h-659v-370h573z" />
<glyph unicode="&#xc9;" horiz-adv-x="1042" d="M479 1550l175 273h250l-250 -273h-175zM922 765v-175h-573v-415h665v-175h-884v1310h878v-175h-659v-370h573z" />
<glyph unicode="&#xca;" horiz-adv-x="1042" d="M629 1825l246 -250v-10h-176l-135 140l-134 -140h-174v12l244 248h129zM922 765v-175h-573v-415h665v-175h-884v1310h878v-175h-659v-370h573z" />
<glyph unicode="&#xcb;" horiz-adv-x="1042" d="M363 1565q-52 0 -82.5 30t-30.5 76t30.5 76t82.5 30t83 -30t31 -76t-31 -76t-83 -30zM774 1564q-52 0 -83 30t-31 76t31 76t83 30q53 0 84 -30t31 -76t-31 -76t-84 -30zM922 765v-175h-573v-415h665v-175h-884v1310h878v-175h-659v-370h573z" />
<glyph unicode="&#xcc;" horiz-adv-x="520" d="M216 1768l167 -239h-177l-233 234l2 5h241zM380 1310v-1310h-218v1310h218z" />
<glyph unicode="&#xcd;" horiz-adv-x="520" d="M139 1550l175 273h250l-250 -273h-175zM359 1310v-1310h-218v1310h218z" />
<glyph unicode="&#xce;" horiz-adv-x="520" d="M310 1825l246 -250v-10h-176l-135 140l-134 -140h-174v12l244 248h129zM379 1310v-1310h-218v1310h218z" />
<glyph unicode="&#xcf;" horiz-adv-x="520" d="M45 1565q-52 0 -82.5 30t-30.5 76t30.5 76t82.5 30t83 -30t31 -76t-31 -76t-83 -30zM456 1564q-52 0 -83 30t-31 76t31 76t83 30q53 0 84 -30t31 -76t-31 -76t-84 -30zM381 1310v-1310h-218v1310h218z" />
<glyph unicode="&#xd0;" horiz-adv-x="1231" d="M537 0h-378v587h-168v153h168v570h387q175 0 309 -76.5t208 -220.5q74 -141 74 -325v-66q0 -187 -74 -327.5t-212 -217.5q-136 -77 -314 -77zM593 740v-153h-206v-405h147q183 0 278.5 113.5t95.5 330.5v63q0 214 -92.5 326t-269.5 112h-159v-387h206z" />
<glyph unicode="&#xd1;" horiz-adv-x="1309" d="M858 1808l135 -11q0 -100 -57.5 -165t-143.5 -65q-36 0 -62 8t-72 34q-44 25 -64 31.5t-45 6.5q-35 0 -58.5 -26t-23.5 -67l-134 7q0 100 57 167t143 67q35 0 123.5 -40.5t119.5 -40.5q35 0 58.5 26.5t23.5 67.5zM1151 1310v-1310h-217l-582 957l-5 -2v-955h-219v1310 h219l581 -955l6 1v954h217z" />
<glyph unicode="&#xd2;" horiz-adv-x="1273" d="M620 1761l167 -239h-177l-233 234l2 5h241zM1156 771v-236q0 -243 -151 -399.5t-391 -156.5q-235 0 -382.5 156.5t-147.5 399.5v236q0 242 147.5 399t381.5 157q158 0 282.5 -72t192.5 -198.5t68 -285.5zM938 535v238q0 167 -88.5 270.5t-236.5 103.5q-143 0 -227 -103.5 t-84 -270.5v-238q0 -168 84 -272.5t228 -104.5q149 0 236.5 104t87.5 273z" />
<glyph unicode="&#xd3;" horiz-adv-x="1273" d="M564 1543l175 273h250l-250 -273h-175zM1155 771v-236q0 -243 -151 -399.5t-391 -156.5q-235 0 -382.5 156.5t-147.5 399.5v236q0 242 147.5 399t381.5 157q158 0 282.5 -72t192.5 -198.5t68 -285.5zM937 535v238q0 167 -88.5 270.5t-236.5 103.5q-143 0 -227 -103.5 t-84 -270.5v-238q0 -168 84 -272.5t228 -104.5q149 0 236.5 104t87.5 273z" />
<glyph unicode="&#xd4;" horiz-adv-x="1273" d="M714 1818l246 -250v-10h-176l-135 140l-134 -140h-174v12l244 248h129zM1155 771v-236q0 -243 -151 -399.5t-391 -156.5q-235 0 -382.5 156.5t-147.5 399.5v236q0 242 147.5 399t381.5 157q158 0 282.5 -72t192.5 -198.5t68 -285.5zM937 535v238q0 167 -88.5 270.5 t-236.5 103.5q-143 0 -227 -103.5t-84 -270.5v-238q0 -168 84 -272.5t228 -104.5q149 0 236.5 104t87.5 273z" />
<glyph unicode="&#xd5;" horiz-adv-x="1273" d="M845 1808l135 -11q0 -100 -57.5 -165t-143.5 -65q-36 0 -62 8t-72 34q-44 25 -64 31.5t-45 6.5q-35 0 -58.5 -26t-23.5 -67l-134 7q0 100 57 167t143 67q35 0 123.5 -40.5t119.5 -40.5q35 0 58.5 26.5t23.5 67.5zM1155 771v-236q0 -243 -151 -399.5t-391 -156.5 q-235 0 -382.5 156.5t-147.5 399.5v236q0 242 147.5 399t381.5 157q158 0 282.5 -72t192.5 -198.5t68 -285.5zM937 535v238q0 167 -88.5 270.5t-236.5 103.5q-143 0 -227 -103.5t-84 -270.5v-238q0 -168 84 -272.5t228 -104.5q149 0 236.5 104t87.5 273z" />
<glyph unicode="&#xd6;" horiz-adv-x="1273" d="M448 1558q-52 0 -82.5 30t-30.5 76t30.5 76t82.5 30t83 -30t31 -76t-31 -76t-83 -30zM859 1557q-52 0 -83 30t-31 76t31 76t83 30q53 0 84 -30t31 -76t-31 -76t-84 -30zM1155 771v-236q0 -243 -151 -399.5t-391 -156.5q-235 0 -382.5 156.5t-147.5 399.5v236 q0 242 147.5 399t381.5 157q158 0 282.5 -72t192.5 -198.5t68 -285.5zM937 535v238q0 167 -88.5 270.5t-236.5 103.5q-143 0 -227 -103.5t-84 -270.5v-238q0 -168 84 -272.5t228 -104.5q149 0 236.5 104t87.5 273z" />
<glyph unicode="&#xd7;" horiz-adv-x="983" d="M203 214l-134 135l285 290l-285 290l134 135l283 -290l284 290l134 -135l-285 -290l285 -290l-134 -135l-284 289z" />
<glyph unicode="&#xd8;" horiz-adv-x="1271" d="M322 687v-75q0 -186 64 -302l452 743q-77 77 -200 77q-148 0 -231 -115.5t-85 -327.5zM955 612v68q0 151 -40 252l-440 -724q71 -48 165 -48q154 0 234.5 115t80.5 337zM1183 679v-65q0 -194 -66.5 -339t-190.5 -224q-124 -78 -286 -78q-149 0 -266 68l-82 -135h-152 l130 214q-175 175 -175 499v60q0 192 67 337t192 225q121 79 284 79q176 0 306 -91l78 129h151l-133 -219q142 -174 143 -460z" />
<glyph unicode="&#xd9;" horiz-adv-x="1202" d="M577 1761l167 -239h-177l-233 234l2 5h241zM909 1308h220v-878q0 -215 -139.5 -333t-374.5 -118q-231 0 -368 118.5t-137 332.5v878h218v-878q0 -136 75.5 -206t210.5 -70q139 0 217 70t78 206v878z" />
<glyph unicode="&#xda;" horiz-adv-x="1202" d="M521 1543l175 273h250l-250 -273h-175zM907 1308h220v-878q0 -215 -139.5 -333t-374.5 -118q-231 0 -368 118.5t-137 332.5v878h218v-878q0 -136 75.5 -206t210.5 -70q139 0 217 70t78 206v878z" />
<glyph unicode="&#xdb;" horiz-adv-x="1202" d="M671 1818l246 -250v-10h-176l-135 140l-134 -140h-174v12l244 248h129zM907 1308h220v-878q0 -215 -139.5 -333t-374.5 -118q-231 0 -368 118.5t-137 332.5v878h218v-878q0 -136 75.5 -206t210.5 -70q139 0 217 70t78 206v878z" />
<glyph unicode="&#xdc;" horiz-adv-x="1202" d="M405 1558q-52 0 -82.5 30t-30.5 76t30.5 76t82.5 30t83 -30t31 -76t-31 -76t-83 -30zM816 1557q-52 0 -83 30t-31 76t31 76t83 30q53 0 84 -30t31 -76t-31 -76t-84 -30zM907 1308h220v-878q0 -215 -139.5 -333t-374.5 -118q-231 0 -368 118.5t-137 332.5v878h218v-878 q0 -136 75.5 -206t210.5 -70q139 0 217 70t78 206v878z" />
<glyph unicode="&#xdd;" horiz-adv-x="1123" d="M491 1543l175 273h250l-250 -273h-175zM255 1310l315 -637l316 637h244l-454 -850v-460h-218v472l-447 838h244z" />
<glyph unicode="&#xde;" horiz-adv-x="1103" d="M133 1310h219v-252h217q218 0 342 -106t124 -288q0 -181 -124 -287.5t-341 -106.5h-218v-270h-219v1310zM581 883h-229v-437h221q113 0 178 58t65 158q0 101 -63 160t-172 61z" />
<glyph unicode="&#xdf;" horiz-adv-x="1130" d="M340 1002l-1 -1003h-218v995q0 193 103 299.5t289 106.5q170 0 266 -84t96 -236q0 -57 -12.5 -101t-43.5 -94q-31 -49 -40.5 -78t-9.5 -66q0 -40 28.5 -78t109.5 -104q80 -68 116.5 -129t36.5 -129q0 -154 -97 -237t-276 -83q-71 0 -148 17.5t-112 40.5l44 175 q41 -26 98 -42.5t106 -16.5q84 0 126 37t42 100q0 44 -31 84.5t-110 103.5q-79 62 -115 122.5t-36 132.5q0 44 28.5 107t56.5 123.5t28 99.5q0 73 -42 116.5t-113 43.5q-165 0 -169 -223z" />
<glyph unicode="&#xe0;" d="M480 1451l167 -239h-177l-233 234l2 5h241zM285 276h1q0 -57 36.5 -89t103.5 -32q81 0 147 40t89 95v144h-174q-92 0 -147.5 -45.5t-55.5 -112.5zM916 -2l-222 -1q-24 76 -30 143q-48 -72 -121 -116.5t-161 -44.5q-151 0 -233 77.5t-82 215.5q0 143 111 221t315 78h170 v86q0 77 -45 120t-129 43q-75 0 -119.5 -35.5t-44.5 -93.5h-211l-1 5q-6 119 105 206.5t284 87.5q175 0 277 -87.5t102 -247.5v-433q0 -120 35 -224z" />
<glyph unicode="&#xe1;" d="M425 1233l175 273h250l-250 -273h-175zM285 276h1q0 -57 36.5 -89t103.5 -32q81 0 147 40t89 95v144h-174q-92 0 -147.5 -45.5t-55.5 -112.5zM916 -2l-222 -1q-24 76 -30 143q-48 -72 -121 -116.5t-161 -44.5q-151 0 -233 77.5t-82 215.5q0 143 111 221t315 78h170v86 q0 77 -45 120t-129 43q-75 0 -119.5 -35.5t-44.5 -93.5h-211l-1 5q-6 119 105 206.5t284 87.5q175 0 277 -87.5t102 -247.5v-433q0 -120 35 -224z" />
<glyph unicode="&#xe2;" d="M575 1508l246 -250v-10h-176l-135 140l-134 -140h-174v12l244 248h129zM285 276h1q0 -57 36.5 -89t103.5 -32q81 0 147 40t89 95v144h-174q-92 0 -147.5 -45.5t-55.5 -112.5zM916 -2l-222 -1q-24 76 -30 143q-48 -72 -121 -116.5t-161 -44.5q-151 0 -233 77.5t-82 215.5 q0 143 111 221t315 78h170v86q0 77 -45 120t-129 43q-75 0 -119.5 -35.5t-44.5 -93.5h-211l-1 5q-6 119 105 206.5t284 87.5q175 0 277 -87.5t102 -247.5v-433q0 -120 35 -224z" />
<glyph unicode="&#xe3;" d="M706 1498l135 -11q0 -100 -57.5 -165t-143.5 -65q-36 0 -62 8t-72 34q-44 25 -64 31.5t-45 6.5q-35 0 -58.5 -26t-23.5 -67l-134 7q0 100 57 167t143 67q35 0 123.5 -40.5t119.5 -40.5q35 0 58.5 26.5t23.5 67.5zM285 276h1q0 -57 36.5 -89t103.5 -32q81 0 147 40t89 95 v144h-174q-92 0 -147.5 -45.5t-55.5 -112.5zM916 -2l-222 -1q-24 76 -30 143q-48 -72 -121 -116.5t-161 -44.5q-151 0 -233 77.5t-82 215.5q0 143 111 221t315 78h170v86q0 77 -45 120t-129 43q-75 0 -119.5 -35.5t-44.5 -93.5h-211l-1 5q-6 119 105 206.5t284 87.5 q175 0 277 -87.5t102 -247.5v-433q0 -120 35 -224z" />
<glyph unicode="&#xe4;" d="M309 1248q-52 0 -82.5 30t-30.5 76t30.5 76t82.5 30t83 -30t31 -76t-31 -76t-83 -30zM720 1247q-52 0 -83 30t-31 76t31 76t83 30q53 0 84 -30t31 -76t-31 -76t-84 -30zM285 276h1q0 -57 36.5 -89t103.5 -32q81 0 147 40t89 95v144h-174q-92 0 -147.5 -45.5t-55.5 -112.5 zM916 -2l-222 -1q-24 76 -30 143q-48 -72 -121 -116.5t-161 -44.5q-151 0 -233 77.5t-82 215.5q0 143 111 221t315 78h170v86q0 77 -45 120t-129 43q-75 0 -119.5 -35.5t-44.5 -93.5h-211l-1 5q-6 119 105 206.5t284 87.5q175 0 277 -87.5t102 -247.5v-433q0 -120 35 -224z " />
<glyph unicode="&#xe5;" d="M325 1402q0 77 57.5 132t142.5 55q84 0 141.5 -55t57.5 -132q0 -78 -56.5 -131.5t-142.5 -53.5q-87 0 -143.5 53.5t-56.5 131.5zM525 1503q-44 0 -72.5 -29.5t-28.5 -71.5q0 -43 29.5 -72t71.5 -29q43 0 72 28.5t29 72.5q0 42 -28.5 71.5t-72.5 29.5zM284 276h1 q0 -57 36.5 -89t103.5 -32q81 0 147 40t89 95v144h-174q-92 0 -147.5 -45.5t-55.5 -112.5zM915 -2l-222 -1q-24 76 -30 143q-48 -72 -121 -116.5t-161 -44.5q-151 0 -233 77.5t-82 215.5q0 143 111 221t315 78h170v86q0 77 -45 120t-129 43q-75 0 -119.5 -35.5t-44.5 -93.5 h-211l-1 5q-6 119 105 206.5t284 87.5q175 0 277 -87.5t102 -247.5v-433q0 -120 35 -224z" />
<glyph unicode="&#xe6;" horiz-adv-x="1556" d="M1481 88h-1q-63 -50 -156.5 -79t-194.5 -29q-230 0 -354 145q-60 -70 -155.5 -107.5t-216.5 -37.5q-159 0 -248.5 79t-89.5 220q0 144 107.5 220.5t316.5 76.5h172v64q0 83 -43 128.5t-122 45.5q-82 0 -133.5 -39.5t-51.5 -99.5l-218 17q0 132 113 215t292 83 q200 0 300 -120q118 122 298 121q192 0 298.5 -116t106.5 -329v-123h-625q8 -127 76.5 -197.5t188.5 -70.5q125 0 220 52l55 30zM1284 603q0 103 -48.5 157t-140.5 54q-89 0 -146 -62t-72 -176h407v27zM282 275q0 -60 42 -94.5t121 -34.5q52 0 112.5 26t102.5 65v189h-177 q-92 -2 -146.5 -44.5t-54.5 -106.5z" />
<glyph unicode="&#xe7;" horiz-adv-x="965" d="M284 469h-1q0 -315 226 -315q81 0 135 47t54 118h198l2 -5q5 -137 -110.5 -236t-278.5 -99q-211 0 -328 135t-117 355v31q0 219 117 354.5t328 135.5q176 0 285.5 -102t105.5 -260l-2 -5h-199q0 82 -52.5 136.5t-136.5 54.5q-118 0 -172 -84t-54 -230v-31zM435 -47h159 l-10 -49q135 -24 135 -155q0 -96 -76.5 -148.5t-217.5 -52.5l-6 123q59 0 91 21t32 59q0 40 -30.5 56t-105.5 21z" />
<glyph unicode="&#xe8;" horiz-adv-x="989" d="M468 1451l167 -239h-177l-233 234l2 5h241zM881 94h1q-133 -115 -357 -115q-206 0 -329.5 134t-123.5 349v36q0 214 121.5 353.5t306.5 138.5q195 0 300.5 -117.5t105.5 -321.5v-129h-607l-2 -5q6 -119 69.5 -191t171.5 -72q86 0 148.5 20t124.5 63zM691 605 q0 95 -48.5 152t-141.5 57q-80 0 -133 -62.5t-65 -164.5l1 -5h387v23z" />
<glyph unicode="&#xe9;" horiz-adv-x="989" d="M413 1233l175 273h250l-250 -273h-175zM881 94h1q-133 -115 -357 -115q-206 0 -329.5 134t-123.5 349v36q0 214 121.5 353.5t306.5 138.5q195 0 300.5 -117.5t105.5 -321.5v-129h-607l-2 -5q6 -119 69.5 -191t171.5 -72q86 0 148.5 20t124.5 63zM691 605q0 95 -48.5 152 t-141.5 57q-80 0 -133 -62.5t-65 -164.5l1 -5h387v23z" />
<glyph unicode="&#xea;" horiz-adv-x="989" d="M563 1508l246 -250v-10h-176l-135 140l-134 -140h-174v12l244 248h129zM881 94h1q-133 -115 -357 -115q-206 0 -329.5 134t-123.5 349v36q0 214 121.5 353.5t306.5 138.5q195 0 300.5 -117.5t105.5 -321.5v-129h-607l-2 -5q6 -119 69.5 -191t171.5 -72q86 0 148.5 20 t124.5 63zM691 605q0 95 -48.5 152t-141.5 57q-80 0 -133 -62.5t-65 -164.5l1 -5h387v23z" />
<glyph unicode="&#xeb;" horiz-adv-x="989" d="M297 1248q-52 0 -82.5 30t-30.5 76t30.5 76t82.5 30t83 -30t31 -76t-31 -76t-83 -30zM708 1247q-52 0 -83 30t-31 76t31 76t83 30q53 0 84 -30t31 -76t-31 -76t-84 -30zM881 94h1q-133 -115 -357 -115q-206 0 -329.5 134t-123.5 349v36q0 214 121.5 353.5t306.5 138.5 q195 0 300.5 -117.5t105.5 -321.5v-129h-607l-2 -5q6 -119 69.5 -191t171.5 -72q86 0 148.5 20t124.5 63zM691 605q0 95 -48.5 152t-141.5 57q-80 0 -133 -62.5t-65 -164.5l1 -5h387v23z" />
<glyph unicode="&#xec;" horiz-adv-x="484" d="M198 1444l167 -239h-177l-233 234l2 5h241zM355 974v-974h-218v974h218z" />
<glyph unicode="&#xed;" horiz-adv-x="484" d="M121 1226l175 273h250l-250 -273h-175zM334 974v-974h-218v974h218z" />
<glyph unicode="&#xee;" horiz-adv-x="484" d="M294 1501l246 -250v-10h-176l-135 140l-134 -140h-174v12l244 248h129zM356 974v-974h-218v974h218z" />
<glyph unicode="&#xef;" horiz-adv-x="484" d="M27 1241q-52 0 -82.5 30t-30.5 76t30.5 76t82.5 30t83 -30t31 -76t-31 -76t-83 -30zM438 1240q-52 0 -83 30t-31 76t31 76t83 30q53 0 84 -30t31 -76t-31 -76t-84 -30zM356 974v-974h-218v974h218z" />
<glyph unicode="&#xf0;" horiz-adv-x="1072" d="M889 1263l-139 -92q228 -240 228 -601v-73q0 -151 -56.5 -269t-159.5 -183q-105 -66 -229 -66q-125 0 -226 56.5t-158 158.5q-56 100 -56 224q0 135 50 238.5t144 159.5q91 57 212 57q132 0 233 -82q-43 151 -157 262l-183 -122l-71 98l155 103q-112 74 -259 112l68 175 q208 -42 372 -165l162 108zM760 490v105l-1 16q-30 44 -85 69t-125 25q-113 0 -176 -75.5t-63 -210.5q0 -114 63.5 -189t162.5 -75q101 0 162.5 90t61.5 245z" />
<glyph unicode="&#xf1;" horiz-adv-x="1025" d="M708 1498l135 -11q0 -100 -57.5 -165t-143.5 -65q-36 0 -62 8t-72 34q-44 25 -64 31.5t-45 6.5q-35 0 -58.5 -26t-23.5 -67l-134 7q0 100 57 167t143 67q35 0 123.5 -40.5t119.5 -40.5q35 0 58.5 26.5t23.5 67.5zM101 974l200 -1l13 -141q101 160 283 160 q156 0 239.5 -94t83.5 -286v-612h-219v610q0 109 -44.5 156t-139.5 47q-126 0 -197 -106v-707h-219v974z" />
<glyph unicode="&#xf2;" horiz-adv-x="1049" d="M490 1451l167 -239h-177l-233 234l2 5h241zM68 475l-1 18q0 216 119 356t326 140q210 0 329 -140q119 -137 119 -355v-19q0 -220 -119 -357q-120 -138 -326 -138q-211 0 -328 139q-119 137 -119 356zM285 493l1 -20q0 -144 56 -232q56 -89 173 -89q115 0 171 89 q58 89 58 232v19q0 140 -58 229q-56 91 -174 91q-114 0 -171 -91q-56 -88 -56 -228z" />
<glyph unicode="&#xf3;" horiz-adv-x="1049" d="M435 1233l175 273h250l-250 -273h-175zM68 475l-1 18q0 216 119 356t326 140q210 0 329 -140q119 -137 119 -355v-19q0 -220 -119 -357q-120 -138 -326 -138q-211 0 -328 139q-119 137 -119 356zM285 493l1 -20q0 -144 56 -232q56 -89 173 -89q115 0 171 89q58 89 58 232 v19q0 140 -58 229q-56 91 -174 91q-114 0 -171 -91q-56 -88 -56 -228z" />
<glyph unicode="&#xf4;" horiz-adv-x="1049" d="M584 1508l246 -250v-10h-176l-135 140l-134 -140h-174v12l244 248h129zM67 475l-1 18q0 216 119 356t326 140q210 0 329 -140q119 -137 119 -355v-19q0 -220 -119 -357q-120 -138 -326 -138q-211 0 -328 139q-119 137 -119 356zM284 493l1 -20q0 -144 56 -232 q56 -89 173 -89q115 0 171 89q58 89 58 232v19q0 140 -58 229q-56 91 -174 91q-114 0 -171 -91q-56 -88 -56 -228z" />
<glyph unicode="&#xf5;" horiz-adv-x="1049" d="M716 1498l135 -11q0 -100 -57.5 -165t-143.5 -65q-36 0 -62 8t-72 34q-44 25 -64 31.5t-45 6.5q-35 0 -58.5 -26t-23.5 -67l-134 7q0 100 57 167t143 67q35 0 123.5 -40.5t119.5 -40.5q35 0 58.5 26.5t23.5 67.5zM68 475l-1 18q0 216 119 356t326 140q210 0 329 -140 q119 -137 119 -355v-19q0 -220 -119 -357q-120 -138 -326 -138q-211 0 -328 139q-119 137 -119 356zM285 493l1 -20q0 -144 56 -232q56 -89 173 -89q115 0 171 89q58 89 58 232v19q0 140 -58 229q-56 91 -174 91q-114 0 -171 -91q-56 -88 -56 -228z" />
<glyph unicode="&#xf6;" horiz-adv-x="1049" d="M319 1248q-52 0 -82.5 30t-30.5 76t30.5 76t82.5 30t83 -30t31 -76t-31 -76t-83 -30zM730 1247q-52 0 -83 30t-31 76t31 76t83 30q53 0 84 -30t31 -76t-31 -76t-84 -30zM68 475l-1 18q0 216 119 356t326 140q210 0 329 -140q119 -137 119 -355v-19q0 -220 -119 -357 q-120 -138 -326 -138q-211 0 -328 139q-119 137 -119 356zM285 493l1 -20q0 -144 56 -232q56 -89 173 -89q115 0 171 89q58 89 58 232v19q0 140 -58 229q-56 91 -174 91q-114 0 -171 -91q-56 -88 -56 -228z" />
<glyph unicode="&#xf7;" horiz-adv-x="1052" d="M626 1102v-198h-218v198h218zM971 732v-191h-911v191h911zM626 369v-199h-218v199h218z" />
<glyph unicode="&#xf8;" horiz-adv-x="1044" d="M523 803q-110 0 -171.5 -86t-61.5 -254q0 -139 57 -228l270 548q-45 20 -94 20zM525 143q111 0 172.5 87t61.5 252q0 134 -52 217l-267 -541q42 -15 85 -15zM257 49l1 -1q-186 135 -186 433q0 144 56.5 259t159.5 176q100 62 236 62q94 0 175 -30l63 128h131l-92 -187 q177 -138 177 -426q0 -145 -55.5 -257.5t-158.5 -175.5q-103 -62 -239 -62q-78 0 -165 27l-65 -132h-130z" />
<glyph unicode="&#xf9;" horiz-adv-x="1024" d="M478 1451l167 -239h-177l-233 234l2 5h241zM728 -2l-19 142q-97 -161 -278 -161q-161 0 -247 101.5t-86 308.5v583h218v-584q0 -126 39.5 -178.5t126.5 -52.5q153 0 218 111v704h219v-974h-191z" />
<glyph unicode="&#xfa;" horiz-adv-x="1024" d="M423 1233l175 273h250l-250 -273h-175zM728 -2l-19 142q-97 -161 -278 -161q-161 0 -247 101.5t-86 308.5v583h218v-584q0 -126 39.5 -178.5t126.5 -52.5q153 0 218 111v704h219v-974h-191z" />
<glyph unicode="&#xfb;" horiz-adv-x="1024" d="M573 1508l246 -250v-10h-176l-135 140l-134 -140h-174v12l244 248h129zM728 -2l-19 142q-97 -161 -278 -161q-161 0 -247 101.5t-86 308.5v583h218v-584q0 -126 39.5 -178.5t126.5 -52.5q153 0 218 111v704h219v-974h-191z" />
<glyph unicode="&#xfc;" horiz-adv-x="1024" d="M307 1248q-52 0 -82.5 30t-30.5 76t30.5 76t82.5 30t83 -30t31 -76t-31 -76t-83 -30zM718 1247q-52 0 -83 30t-31 76t31 76t83 30q53 0 84 -30t31 -76t-31 -76t-84 -30zM728 -2l-19 142q-97 -161 -278 -161q-161 0 -247 101.5t-86 308.5v583h218v-584q0 -126 39.5 -178.5 t126.5 -52.5q153 0 218 111v704h219v-974h-191z" />
<glyph unicode="&#xfd;" horiz-adv-x="897" d="M378 1233l175 273h250l-250 -273h-175zM252 930l186 -583l22 -97h5l214 680h239l-403 -1121q-44 -116 -116 -181t-192 -65q-40 0 -118 18l24 169q64 -4 66 -4q97 0 152 134l36 88l-354 962h239z" />
<glyph unicode="&#xfe;" horiz-adv-x="1058" d="M530 115q107 0 164.5 85t57.5 254q0 151 -58.5 234t-165.5 83q-134 0 -192 -111v-432q59 -113 194 -113zM971 450v-15q0 -224 -102.5 -359.5t-277.5 -135.5q-159 0 -255 106v-462h-219v1757h219v-498q94 107 254 107q178 0 279.5 -132t101.5 -368z" />
<glyph unicode="&#xff;" horiz-adv-x="897" d="M262 1248q-52 0 -82.5 30t-30.5 76t30.5 76t82.5 30t83 -30t31 -76t-31 -76t-83 -30zM673 1247q-52 0 -83 30t-31 76t31 76t83 30q53 0 84 -30t31 -76t-31 -76t-84 -30zM252 930l186 -583l22 -97h5l214 680h239l-403 -1121q-44 -116 -116 -181t-192 -65q-40 0 -118 18 l24 169q64 -4 66 -4q97 0 152 134l36 88l-354 962h239z" />
<glyph unicode="&#x100;" horiz-adv-x="1227" d="M964 1754v-142h-654v142h654zM594 1049l-193 -560h388l-190 560h-5zM955 0l-104 306h-513l-104 -306h-222l482 1310h207l476 -1310h-222z" />
<glyph unicode="&#x101;" d="M839 1444v-142h-654v142h654zM284 276h1q0 -57 36.5 -89t103.5 -32q81 0 147 40t89 95v144h-174q-92 0 -147.5 -45.5t-55.5 -112.5zM915 -2l-222 -1q-24 76 -30 143q-48 -72 -121 -116.5t-161 -44.5q-151 0 -233 77.5t-82 215.5q0 143 111 221t315 78h170v86 q0 77 -45 120t-129 43q-75 0 -119.5 -35.5t-44.5 -93.5h-211l-1 5q-6 119 105 206.5t284 87.5q175 0 277 -87.5t102 -247.5v-433q0 -120 35 -224z" />
<glyph unicode="&#x102;" horiz-adv-x="1227" d="M766 1792h165q0 -115 -79.5 -184.5t-211.5 -69.5t-211.5 69.5t-79.5 184.5h164q0 -60 33.5 -92.5t93.5 -32.5t93 32.5t33 92.5zM594 1049l-193 -560h388l-190 560h-5zM955 0l-104 306h-513l-104 -306h-222l482 1310h207l476 -1310h-222z" />
<glyph unicode="&#x103;" d="M642 1482h165q0 -115 -79.5 -184.5t-211.5 -69.5t-211.5 69.5t-79.5 184.5h164q0 -60 33.5 -92.5t93.5 -32.5t93 32.5t33 92.5zM285 276h1q0 -57 36.5 -89t103.5 -32q81 0 147 40t89 95v144h-174q-92 0 -147.5 -45.5t-55.5 -112.5zM916 -2l-222 -1q-24 76 -30 143 q-48 -72 -121 -116.5t-161 -44.5q-151 0 -233 77.5t-82 215.5q0 143 111 221t315 78h170v86q0 77 -45 120t-129 43q-75 0 -119.5 -35.5t-44.5 -93.5h-211l-1 5q-6 119 105 206.5t284 87.5q175 0 277 -87.5t102 -247.5v-433q0 -120 35 -224z" />
<glyph unicode="&#x104;" horiz-adv-x="1227" d="M511 1267h206l495 -1310h-55q-78 -49 -111.5 -91.5t-33.5 -87.5q0 -61 64 -61q37 0 80 20l19 -127q-65 -40 -149 -40q-86 0 -138 49.5t-52 131.5q0 127 134 215l-103 296h-508l-106 -305h-237zM614 989l-190 -543h380z" />
<glyph unicode="&#x105;" d="M560 -249l1 -2q0 125 130 212q-9 19 -21 85q-103 -109 -256 -109q-146 0 -239 82.5t-93 208.5q0 156 115 239t331 83h135v64q0 78 -43.5 122.5t-127.5 44.5q-76 0 -124 -37t-48 -95h-218q0 81 53 150.5t144 108.5q92 40 204 40q173 0 274 -86.5t103 -241.5v-439 q0 -129 37 -209v-15h-38q-78 -50 -111.5 -92t-33.5 -87q0 -61 64 -61q39 0 81 20l19 -127q-65 -40 -148 -40q-86 0 -138 49.5t-52 131.5zM301 250q0 -63 41.5 -100t112.5 -37q65 0 122 31.5t86 84.5v183h-118q-244 0 -244 -162z" />
<glyph unicode="&#x106;" horiz-adv-x="1203" d="M539 1564l175 273h250l-250 -273h-175zM878 433h211l2 -6q3 -202 -130 -325t-359 -123q-230 0 -373.5 153.5t-143.5 395.5v249q0 242 142 396t369 154q233 0 366 -121.5t130 -328.5l-2 -5h-212q0 134 -72 207t-210 73q-133 0 -212.5 -105t-79.5 -268v-251 q0 -165 81 -269.5t217 -104.5t206 71.5t70 207.5z" />
<glyph unicode="&#x107;" horiz-adv-x="965" d="M390 1233l175 273h250l-250 -273h-175zM284 469h-1q0 -315 226 -315q81 0 135 47t54 118h198l2 -5q5 -137 -110.5 -236t-278.5 -99q-211 0 -328 135t-117 355v31q0 219 117 354.5t328 135.5q176 0 285.5 -102t105.5 -260l-2 -5h-199q0 82 -52.5 136.5t-136.5 54.5 q-118 0 -172 -84t-54 -230v-31z" />
<glyph unicode="&#x10c;" horiz-adv-x="1203" d="M494 1839l131 -139l132 139h187v-9l-251 -251h-135l-249 252v8h185zM878 433h211l2 -6q3 -202 -130 -325t-359 -123q-230 0 -373.5 153.5t-143.5 395.5v249q0 242 142 396t369 154q233 0 366 -121.5t130 -328.5l-2 -5h-212q0 134 -72 207t-210 73q-133 0 -212.5 -105 t-79.5 -268v-251q0 -165 81 -269.5t217 -104.5t206 71.5t70 207.5z" />
<glyph unicode="&#x10d;" horiz-adv-x="965" d="M345 1508l131 -139l132 139h187v-9l-251 -251h-135l-249 252v8h185zM284 469h-1q0 -315 226 -315q81 0 135 47t54 118h198l2 -5q5 -137 -110.5 -236t-278.5 -99q-211 0 -328 135t-117 355v31q0 219 117 354.5t328 135.5q176 0 285.5 -102t105.5 -260l-2 -5h-199 q0 82 -52.5 136.5t-136.5 54.5q-118 0 -172 -84t-54 -230v-31z" />
<glyph unicode="&#x10e;" horiz-adv-x="1204" d="M376 1825l131 -139l132 139h187v-9l-251 -251h-135l-249 252v8h185zM553 0h-425v1310h425q250 0 406 -155t156 -401v-199q0 -246 -156 -400.5t-406 -154.5zM547 1135h-200v-960h200q161 0 255 104.5t94 275.5v201q0 170 -94 274.5t-255 104.5z" />
<glyph unicode="&#x10f;" horiz-adv-x="1175" d="M285 471v-19q0 -140 53.5 -217.5t162.5 -77.5q133 0 198 115v424q-67 115 -196 115q-109 0 -163.5 -91t-54.5 -249zM67 452v19q0 237 100.5 378t279.5 141q155 0 251 -124v536h218v-1404h-183l-22 121q-96 -140 -265 -140q-178 0 -278.5 128.5t-100.5 344.5z" />
<glyph unicode="&#x110;" horiz-adv-x="1231" d="M537 0h-378v587h-168v153h168v570h387q175 0 309 -76.5t208 -220.5q74 -141 74 -325v-66q0 -187 -74 -327.5t-212 -217.5q-136 -77 -314 -77zM593 740v-153h-206v-405h147q183 0 278.5 113.5t95.5 330.5v63q0 214 -92.5 326t-269.5 112h-159v-387h206z" />
<glyph unicode="&#x111;" horiz-adv-x="1067" d="M511 811q-108 0 -164.5 -85t-56.5 -253q0 -149 57 -232t162 -83q135 0 198 120v416q-63 117 -196 117zM1082 1254l-1 -154h-158v-1103h-198l-10 101q-100 -119 -262 -119q-173 0 -278 138t-105 374q0 227 104.5 363t280.5 136q155 0 251 -108v219h-226v153h226v126h218 v-126h158z" />
<glyph unicode="&#x112;" horiz-adv-x="1042" d="M894 1761v-142h-654v142h654zM922 765v-175h-573v-415h665v-175h-884v1310h878v-175h-659v-370h573z" />
<glyph unicode="&#x113;" horiz-adv-x="989" d="M828 1444v-142h-654v142h654zM881 94h1q-133 -115 -357 -115q-206 0 -329.5 134t-123.5 349v36q0 214 121.5 353.5t306.5 138.5q195 0 300.5 -117.5t105.5 -321.5v-129h-607l-2 -5q6 -119 69.5 -191t171.5 -72q86 0 148.5 20t124.5 63zM691 605q0 95 -48.5 152t-141.5 57 q-80 0 -133 -62.5t-65 -164.5l1 -5h387v23z" />
<glyph unicode="&#x116;" horiz-adv-x="1042" d="M585 1573q-56 0 -87 30.5t-31 79.5t31 80t87 31t87 -31t31 -80t-31 -79.5t-87 -30.5zM920 765v-175h-573v-415h665v-175h-884v1310h878v-175h-659v-370h573z" />
<glyph unicode="&#x117;" horiz-adv-x="989" d="M521 1256q-56 0 -87 30.5t-31 79.5t31 80t87 31t87 -31t31 -80t-31 -79.5t-87 -30.5zM881 94h1q-133 -115 -357 -115q-206 0 -329.5 134t-123.5 349v36q0 214 121.5 353.5t306.5 138.5q195 0 300.5 -117.5t105.5 -321.5v-129h-607l-2 -5q6 -119 69.5 -191t171.5 -72 q86 0 148.5 20t124.5 63zM691 605q0 95 -48.5 152t-141.5 57q-80 0 -133 -62.5t-65 -164.5l1 -5h387v23z" />
<glyph unicode="&#x118;" horiz-adv-x="1042" d="M899 722v-180h-538v-403h629v-182h-100q-78 -50 -111.5 -92t-33.5 -87q0 -61 64 -61q38 0 81 20l19 -127q-65 -40 -148 -40q-86 0 -138 49.5t-52 131.5q0 120 121 206h-559v1310h851v-183h-623v-362h538z" />
<glyph unicode="&#x119;" horiz-adv-x="989" d="M798 238l117 -114q-67 -96 -166 -141q-78 -50 -111.5 -92t-33.5 -87q0 -61 64 -61q38 0 81 20l19 -127q-65 -40 -149 -40q-86 0 -138 49.5t-52 131.5q0 93 72 165q-187 12 -304 135.5t-122 317.5v52q0 147 55.5 262t158.5 179q101 64 226 64q200 0 308 -126.5t108 -359.5 v-89h-637q10 -120 80 -190.5t179 -70.5q151 0 245 122zM715 553q-17 222 -201 222q-90 0 -145.5 -62t-70.5 -176h417v16z" />
<glyph unicode="&#x11a;" horiz-adv-x="1042" d="M434 1825l131 -139l132 139h187v-9l-251 -251h-135l-249 252v8h185zM922 765v-175h-573v-415h665v-175h-884v1310h878v-175h-659v-370h573z" />
<glyph unicode="&#x11b;" horiz-adv-x="989" d="M368 1508l131 -139l132 139h187v-9l-251 -251h-135l-249 252v8h185zM881 94h1q-133 -115 -357 -115q-206 0 -329.5 134t-123.5 349v36q0 214 121.5 353.5t306.5 138.5q195 0 300.5 -117.5t105.5 -321.5v-129h-607l-2 -5q6 -119 69.5 -191t171.5 -72q86 0 148.5 20 t124.5 63zM691 605q0 95 -48.5 152t-141.5 57q-80 0 -133 -62.5t-65 -164.5l1 -5h387v23z" />
<glyph unicode="&#x11e;" horiz-adv-x="1255" d="M752 1813h165q0 -115 -79.5 -184.5t-211.5 -69.5t-211.5 69.5t-79.5 184.5h164q0 -60 33.5 -92.5t93.5 -32.5t93 32.5t33 92.5zM1109 664l-1 -489q-60 -84 -181.5 -140t-296.5 -56q-239 0 -391 149.5t-152 387.5v274q0 239 144 388t374 149q229 0 358 -111.5t132 -298.5 l-2 -6h-207q-7 112 -77.5 176.5t-200.5 64.5q-135 0 -218.5 -101t-83.5 -259v-276q0 -160 90.5 -261t234.5 -101q188 0 259 80v266h-260v164h479z" />
<glyph unicode="&#x11f;" horiz-adv-x="1045" d="M630 1482h165q0 -115 -79.5 -184.5t-211.5 -69.5t-211.5 69.5t-79.5 184.5h164q0 -60 33.5 -92.5t93.5 -32.5t93 32.5t33 92.5zM287 430v-19q0 -139 55 -217t165 -78q135 0 196 113v427q-64 113 -194 113q-110 0 -166 -91.5t-56 -247.5zM69 411l1 19q0 236 102 377 t282 141q172 0 265 -145l22 127h182v-974q0 -189 -115.5 -291t-330.5 -102q-72 0 -153.5 20t-148.5 54l47 172q114 -60 254 -60q118 0 173 50.5t55 156.5v100q-95 -119 -253 -119q-178 0 -280 129t-102 345z" />
<glyph unicode="&#x122;" horiz-adv-x="1255" d="M1110 664l-1 -489q-60 -84 -181.5 -140t-296.5 -56q-239 0 -391 149.5t-152 387.5v274q0 239 144 388t374 149q229 0 358 -111.5t132 -298.5l-2 -6h-207q-7 112 -77.5 176.5t-200.5 64.5q-135 0 -218.5 -101t-83.5 -259v-276q0 -160 90.5 -261t234.5 -101q188 0 259 80 v266h-260v164h479z" />
<glyph unicode="&#x123;" horiz-adv-x="1045" d="M287 430v-19q0 -139 55 -217t165 -78q135 0 196 113v427q-64 113 -194 113q-110 0 -166 -91.5t-56 -247.5zM69 411l1 19q0 236 102 377t282 141q172 0 265 -145l22 127h182v-974q0 -189 -115.5 -291t-330.5 -102q-72 0 -153.5 20t-148.5 54l47 172q114 -60 254 -60 q118 0 173 50.5t55 156.5v100q-95 -119 -253 -119q-178 0 -280 129t-102 345z" />
<glyph unicode="&#x12a;" horiz-adv-x="520" d="M578 1761v-142h-654v142h654zM382 1310v-1310h-218v1310h218z" />
<glyph unicode="&#x12b;" horiz-adv-x="484" d="M559 1437v-142h-654v142h654zM356 974v-974h-218v974h218z" />
<glyph unicode="&#x12e;" horiz-adv-x="520" d="M207 -424q-86 0 -138 49.5t-52 131.5q0 149 184 243h-47v1310h218v-1310h-104l68 -37q-77 -49 -110.5 -91.5t-33.5 -87.5q0 -61 63 -61q39 0 81 20l19 -127q-65 -40 -148 -40z" />
<glyph unicode="&#x12f;" horiz-adv-x="471" d="M348 1404v-192h-218v192h218zM186 -430v1q-86 0 -138 49.5t-52 131.5q0 152 196 248h-62v974h218v-974h-112l79 -43q-77 -49 -110.5 -91.5t-33.5 -87.5q0 -61 63 -61q39 0 81 20l19 -127q-65 -40 -148 -40z" />
<glyph unicode="&#x130;" horiz-adv-x="520" d="M248 1573q-56 0 -87 30.5t-31 79.5t31 80t87 31t87 -31t31 -80t-31 -79.5t-87 -30.5zM360 1310v-1310h-218v1310h218z" />
<glyph unicode="&#x131;" horiz-adv-x="484" d="M347 974v-974h-218v974h218z" />
<glyph unicode="&#x136;" horiz-adv-x="1162" d="M912 0l-414 567h-151v-567h-219v1310h219v-555h125l411 555h259l-477 -625l514 -685h-267z" />
<glyph unicode="&#x137;" horiz-adv-x="962" d="M709 0l-290 426h-98v-426h-218v1404h218v-803h91l246 373h257l-321 -443l369 -531h-254z" />
<glyph unicode="&#x139;" d="M127 1543l175 273h250l-250 -273h-175zM347 1310v-1135h602v-175h-821v1310h219z" />
<glyph unicode="&#x13a;" horiz-adv-x="471" d="M114 1634l175 273h250l-250 -273h-175zM335 1404v-1404h-218v1404h218z" />
<glyph unicode="&#x13b;" d="M347 1310v-1135h602v-175h-821v1310h219z" />
<glyph unicode="&#x13c;" horiz-adv-x="471" d="M335 1404v-1404h-218v1404h218z" />
<glyph unicode="&#x13d;" d="M347 1310v-1135h602v-175h-821v1310h219z" />
<glyph unicode="&#x13e;" horiz-adv-x="606" d="M334 1404v-1404h-218v1404h218z" />
<glyph unicode="&#x141;" horiz-adv-x="1012" d="M375 1310v-526l211 64v-132l-211 -64v-470h595v-182h-822v582l-117 -35v133l117 35v595h227z" />
<glyph unicode="&#x142;" horiz-adv-x="532" d="M369 1382v-582l133 48v-132l-133 -47v-669h-219v590l-120 -42v132l120 42v660h219z" />
<glyph unicode="&#x143;" horiz-adv-x="1309" d="M579 1543l175 273h250l-250 -273h-175zM1153 1310v-1310h-217l-582 957l-5 -2v-955h-219v1310h219l581 -955l6 1v954h217z" />
<glyph unicode="&#x144;" horiz-adv-x="1025" d="M427 1233l175 273h250l-250 -273h-175zM101 974l200 -1l13 -141q101 160 283 160q156 0 239.5 -94t83.5 -286v-612h-219v610q0 109 -44.5 156t-139.5 47q-126 0 -197 -106v-707h-219v974z" />
<glyph unicode="&#x145;" horiz-adv-x="1309" d="M1151 1310v-1310h-217l-582 957l-5 -2v-955h-219v1310h219l581 -955l6 1v954h217z" />
<glyph unicode="&#x146;" horiz-adv-x="1025" d="M101 974l200 -1l13 -141q101 160 283 160q156 0 239.5 -94t83.5 -286v-612h-219v610q0 109 -44.5 156t-139.5 47q-126 0 -197 -106v-707h-219v974z" />
<glyph unicode="&#x147;" horiz-adv-x="1309" d="M532 1818l131 -139l132 139h187v-9l-251 -251h-135l-249 252v8h185zM1151 1310v-1310h-217l-582 957l-5 -2v-955h-219v1310h219l581 -955l6 1v954h217z" />
<glyph unicode="&#x148;" horiz-adv-x="1025" d="M382 1508l131 -139l132 139h187v-9l-251 -251h-135l-249 252v8h185zM101 974l200 -1l13 -141q101 160 283 160q156 0 239.5 -94t83.5 -286v-612h-219v610q0 109 -44.5 156t-139.5 47q-126 0 -197 -106v-707h-219v974z" />
<glyph unicode="&#x14c;" horiz-adv-x="1273" d="M980 1754v-142h-654v142h654zM1156 771v-236q0 -243 -151 -399.5t-391 -156.5q-235 0 -382.5 156.5t-147.5 399.5v236q0 242 147.5 399t381.5 157q158 0 282.5 -72t192.5 -198.5t68 -285.5zM938 535v238q0 167 -88.5 270.5t-236.5 103.5q-143 0 -227 -103.5t-84 -270.5 v-238q0 -168 84 -272.5t228 -104.5q149 0 236.5 104t87.5 273z" />
<glyph unicode="&#x14d;" horiz-adv-x="1049" d="M850 1444v-142h-654v142h654zM68 475l-1 18q0 216 119 356t326 140q210 0 329 -140q119 -137 119 -355v-19q0 -220 -119 -357q-120 -138 -326 -138q-211 0 -328 139q-119 137 -119 356zM285 493l1 -20q0 -144 56 -232q56 -89 173 -89q115 0 171 89q58 89 58 232v19 q0 140 -58 229q-56 91 -174 91q-114 0 -171 -91q-56 -88 -56 -228z" />
<glyph unicode="&#x150;" horiz-adv-x="1273" d="M412 1543l156 272h210l-200 -272h-166zM698 1543l202 272h215l-240 -272h-177zM1156 771v-236q0 -243 -151 -399.5t-391 -156.5q-235 0 -382.5 156.5t-147.5 399.5v236q0 242 147.5 399t381.5 157q158 0 282.5 -72t192.5 -198.5t68 -285.5zM938 535v238 q0 167 -88.5 270.5t-236.5 103.5q-143 0 -227 -103.5t-84 -270.5v-238q0 -168 84 -272.5t228 -104.5q149 0 236.5 104t87.5 273z" />
<glyph unicode="&#x151;" horiz-adv-x="1049" d="M282 1233l156 272h210l-200 -272h-166zM568 1233l202 272h215l-240 -272h-177zM68 475l-1 18q0 216 119 356t326 140q210 0 329 -140q119 -137 119 -355v-19q0 -220 -119 -357q-120 -138 -326 -138q-211 0 -328 139q-119 137 -119 356zM285 493l1 -20q0 -144 56 -232 q56 -89 173 -89q115 0 171 89q58 89 58 232v19q0 140 -58 229q-56 91 -174 91q-114 0 -171 -91q-56 -88 -56 -228z" />
<glyph unicode="&#x152;" horiz-adv-x="1775" d="M1653 180l-2 -182h-780q-151 -18 -259 -18q-151 0 -270 66t-186 187q-66 122 -67 274v283q0 156 65.5 278.5t185.5 190.5q117 67 271 67q111 0 262 -18h774v-183h-623v-362h538v-180h-538v-403h629zM307 516h-1q0 -174 79.5 -267.5t225.5 -93.5q96 0 183 11v972 q-101 13 -185 13q-145 0 -223 -92.5t-79 -263.5v-279z" />
<glyph unicode="&#x153;" horiz-adv-x="1665" d="M82 483l1 11q0 224 121.5 360t323.5 136q225 0 345 -159q126 161 321 160q194 0 300.5 -116t106.5 -330v-122h-614q10 -126 75 -197t171 -71q82 0 145.5 19t127.5 63l71 -142q-132 -115 -357 -115t-349 157q-118 -157 -342 -157q-205 0 -326 135t-121 368zM1385 605 q0 100 -50 154.5t-141 54.5q-77 0 -130.5 -61.5t-71.5 -170.5h393v23zM528 814q-108 0 -167.5 -85t-59.5 -254q0 -154 59.5 -237t169.5 -83t169 84.5t59 254.5q0 150 -60.5 235t-169.5 85z" />
<glyph unicode="&#x154;" horiz-adv-x="1150" d="M457 1543l175 273h250l-250 -273h-175zM349 1135v-416h254q131 0 191.5 50t60.5 154q0 102 -60.5 157t-180.5 55h-265zM640 544h-291v-544h-219v1310h484q221 0 340 -98.5t119 -282.5q0 -203 -206 -293q208 -66 208 -310v-109q0 -143 63 -196v-21h-225q-57 48 -57 219 v105q0 102 -57.5 161t-158.5 59z" />
<glyph unicode="&#x155;" horiz-adv-x="648" d="M263 1233l175 273h250l-250 -273h-175zM615 981l-27 -204l-93 3q-125 0 -173 -103v-677h-219v974h200l14 -141q80 159 230 159q38 0 68 -11z" />
<glyph unicode="&#x156;" horiz-adv-x="1150" d="M347 1135v-416h254q131 0 191.5 50t60.5 154q0 102 -60.5 157t-180.5 55h-265zM638 544h-291v-544h-219v1310h484q221 0 340 -98.5t119 -282.5q0 -203 -206 -293q208 -66 208 -310v-109q0 -143 63 -196v-21h-225q-57 48 -57 219v105q0 102 -57.5 161t-158.5 59z" />
<glyph unicode="&#x157;" horiz-adv-x="648" d="M614 981l-27 -204l-93 3q-125 0 -173 -103v-677h-219v974h200l14 -141q80 159 230 159q38 0 68 -11z" />
<glyph unicode="&#x158;" horiz-adv-x="1150" d="M410 1818l131 -139l132 139h187v-9l-251 -251h-135l-249 252v8h185zM347 1135v-416h254q131 0 191.5 50t60.5 154q0 102 -60.5 157t-180.5 55h-265zM638 544h-291v-544h-219v1310h484q221 0 340 -98.5t119 -282.5q0 -203 -206 -293q208 -66 208 -310v-109q0 -143 63 -196 v-21h-225q-57 48 -57 219v105q0 102 -57.5 161t-158.5 59z" />
<glyph unicode="&#x159;" horiz-adv-x="648" d="M224 1508l131 -139l132 139h187v-9l-251 -251h-135l-249 252v8h185zM620 981l-27 -204l-93 3q-125 0 -173 -103v-677h-219v974h200l14 -141q80 159 230 159q38 0 68 -11z" />
<glyph unicode="&#x15a;" horiz-adv-x="1112" d="M492 1543l175 273h250l-250 -273h-175zM590 153l1 -1q121 0 188.5 48.5t67.5 133.5q0 83 -61.5 135t-213.5 93q-229 61 -343 156.5t-114 245.5q0 159 131 261t338 102q213 0 345.5 -114t128.5 -281l-2 -5h-210q0 103 -69 164.5t-194 61.5q-118 0 -183.5 -51.5 t-65.5 -136.5q0 -74 69 -123t232 -94q216 -58 323.5 -158.5t107.5 -253.5q0 -163 -130 -260t-345 -97q-103 0 -196.5 28.5t-164.5 79.5t-112 128.5t-39 169.5l2 5h211q0 -116 80 -176.5t218 -60.5z" />
<glyph unicode="&#x15b;" horiz-adv-x="951" d="M408 1233l175 273h250l-250 -273h-175zM478 143l1 -2q85 0 130.5 32t45.5 88q0 52 -44.5 85t-159.5 58q-180 39 -267 107.5t-87 183.5q0 125 104.5 210t272.5 85q177 0 282.5 -86.5t100.5 -218.5l-2 -6h-209q0 63 -47 105t-125 42q-77 0 -119.5 -34.5t-42.5 -87.5 q0 -54 40.5 -83t157.5 -52q187 -39 274 -108.5t87 -186.5q0 -132 -108 -213.5t-287 -81.5q-185 0 -297 94t-107 226l2 6h203q4 -82 58.5 -122t142.5 -40z" />
<glyph unicode="&#x160;" horiz-adv-x="1112" d="M447 1818l131 -139l132 139h187v-9l-251 -251h-135l-249 252v8h185zM590 153l1 -1q121 0 188.5 48.5t67.5 133.5q0 83 -61.5 135t-213.5 93q-229 61 -343 156.5t-114 245.5q0 159 131 261t338 102q213 0 345.5 -114t128.5 -281l-2 -5h-210q0 103 -69 164.5t-194 61.5 q-118 0 -183.5 -51.5t-65.5 -136.5q0 -74 69 -123t232 -94q216 -58 323.5 -158.5t107.5 -253.5q0 -163 -130 -260t-345 -97q-103 0 -196.5 28.5t-164.5 79.5t-112 128.5t-39 169.5l2 5h211q0 -116 80 -176.5t218 -60.5z" />
<glyph unicode="&#x161;" horiz-adv-x="951" d="M363 1508l131 -139l132 139h187v-9l-251 -251h-135l-249 252v8h185zM478 143l1 -2q85 0 130.5 32t45.5 88q0 52 -44.5 85t-159.5 58q-180 39 -267 107.5t-87 183.5q0 125 104.5 210t272.5 85q177 0 282.5 -86.5t100.5 -218.5l-2 -6h-209q0 63 -47 105t-125 42 q-77 0 -119.5 -34.5t-42.5 -87.5q0 -54 40.5 -83t157.5 -52q187 -39 274 -108.5t87 -186.5q0 -132 -108 -213.5t-287 -81.5q-185 0 -297 94t-107 226l2 6h203q4 -82 58.5 -122t142.5 -40z" />
<glyph unicode="&#x164;" horiz-adv-x="1119" d="M436 1818l131 -139l132 139h187v-9l-251 -251h-135l-249 252v8h185zM1034 1310v-175h-396v-1135h-219v1135h-396v175h1011z" />
<glyph unicode="&#x165;" horiz-adv-x="649" d="M168 1208h219v-236h175v-162h-175v-538q0 -112 95 -112q38 0 68 12l23 -161q-61 -32 -147 -32q-258 0 -258 293v538h-148v162h148v236z" />
<glyph unicode="&#x16a;" horiz-adv-x="1202" d="M936 1754v-142h-654v142h654zM907 1308h220v-878q0 -215 -139.5 -333t-374.5 -118q-231 0 -368 118.5t-137 332.5v878h218v-878q0 -136 75.5 -206t210.5 -70q139 0 217 70t78 206v878z" />
<glyph unicode="&#x16b;" horiz-adv-x="1024" d="M838 1444v-142h-654v142h654zM728 -2l-19 142q-97 -161 -278 -161q-161 0 -247 101.5t-86 308.5v583h218v-584q0 -126 39.5 -178.5t126.5 -52.5q153 0 218 111v704h219v-974h-191z" />
<glyph unicode="&#x16e;" horiz-adv-x="1202" d="M422 1712q0 77 57.5 132t142.5 55q84 0 141.5 -55t57.5 -132q0 -78 -56.5 -131.5t-142.5 -53.5q-87 0 -143.5 53.5t-56.5 131.5zM622 1813q-44 0 -72.5 -29.5t-28.5 -71.5q0 -43 29.5 -72t71.5 -29q43 0 72 28.5t29 72.5q0 42 -28.5 71.5t-72.5 29.5zM907 1308h220v-878 q0 -215 -139.5 -333t-374.5 -118q-231 0 -368 118.5t-137 332.5v878h218v-878q0 -136 75.5 -206t210.5 -70q139 0 217 70t78 206v878z" />
<glyph unicode="&#x16f;" horiz-adv-x="1024" d="M324 1402q0 77 57.5 132t142.5 55q84 0 141.5 -55t57.5 -132q0 -78 -56.5 -131.5t-142.5 -53.5q-87 0 -143.5 53.5t-56.5 131.5zM524 1503q-44 0 -72.5 -29.5t-28.5 -71.5q0 -43 29.5 -72t71.5 -29q43 0 72 28.5t29 72.5q0 42 -28.5 71.5t-72.5 29.5zM728 -2l-19 142 q-97 -161 -278 -161q-161 0 -247 101.5t-86 308.5v583h218v-584q0 -126 39.5 -178.5t126.5 -52.5q153 0 218 111v704h219v-974h-191z" />
<glyph unicode="&#x170;" horiz-adv-x="1202" d="M368 1543l156 272h210l-200 -272h-166zM654 1543l202 272h215l-240 -272h-177zM907 1308h220v-878q0 -215 -139.5 -333t-374.5 -118q-231 0 -368 118.5t-137 332.5v878h218v-878q0 -136 75.5 -206t210.5 -70q139 0 217 70t78 206v878z" />
<glyph unicode="&#x171;" horiz-adv-x="1024" d="M270 1233l156 272h210l-200 -272h-166zM556 1233l202 272h215l-240 -272h-177zM728 -2l-19 142q-97 -161 -278 -161q-161 0 -247 101.5t-86 308.5v583h218v-584q0 -126 39.5 -178.5t126.5 -52.5q153 0 218 111v704h219v-974h-191z" />
<glyph unicode="&#x172;" horiz-adv-x="1202" d="M865 1273h227v-877q0 -137 -60 -239.5t-173 -157.5q-61 -41 -93.5 -81t-32.5 -86q0 -61 64 -61q37 0 80 20l18 -127q-64 -40 -148 -40q-86 0 -138 49.5t-52 131.5q0 77 50 139q-232 0 -363 120.5t-131 332.5v876h226v-877q0 -132 67 -201t196 -69q263 0 263 278v869z" />
<glyph unicode="&#x173;" horiz-adv-x="1024" d="M914 -43h-20q-78 -49 -111.5 -91.5t-33.5 -87.5q0 -61 64 -61q37 0 80 20l19 -127q-65 -40 -149 -40q-86 0 -138 49.5t-52 131.5q0 126 132 213l-5 88q-96 -113 -273 -113q-159 0 -240 92t-81 269v631h219v-628q0 -186 154 -186q160 0 216 115v699h219v-974z" />
<glyph unicode="&#x178;" horiz-adv-x="1123" d="M375 1558q-52 0 -82.5 30t-30.5 76t30.5 76t82.5 30t83 -30t31 -76t-31 -76t-83 -30zM786 1557q-52 0 -83 30t-31 76t31 76t83 30q53 0 84 -30t31 -76t-31 -76t-84 -30zM255 1310l315 -637l316 637h244l-454 -850v-460h-218v472l-447 838h244z" />
<glyph unicode="&#x179;" horiz-adv-x="1110" d="M480 1543l175 273h250l-250 -273h-175zM993 1179l-662 -1004h684v-175h-944v137l658 998h-652v175h916v-131z" />
<glyph unicode="&#x17a;" horiz-adv-x="927" d="M377 1233l175 273h250l-250 -273h-175zM837 835l-497 -660h521v-175h-791v143l491 654h-482v177h758v-139z" />
<glyph unicode="&#x17b;" horiz-adv-x="1110" d="M589 1566q-56 0 -87 30.5t-31 79.5t31 80t87 31t87 -31t31 -80t-31 -79.5t-87 -30.5zM994 1179l-662 -1004h684v-175h-944v137l658 998h-652v175h916v-131z" />
<glyph unicode="&#x17c;" horiz-adv-x="927" d="M485 1256q-56 0 -87 30.5t-31 79.5t31 80t87 31t87 -31t31 -80t-31 -79.5t-87 -30.5zM837 835l-497 -660h521v-175h-791v143l491 654h-482v177h758v-139z" />
<glyph unicode="&#x17d;" horiz-adv-x="1110" d="M435 1818l131 -139l132 139h187v-9l-251 -251h-135l-249 252v8h185zM993 1179l-662 -1004h684v-175h-944v137l658 998h-652v175h916v-131z" />
<glyph unicode="&#x17e;" horiz-adv-x="927" d="M332 1508l131 -139l132 139h187v-9l-251 -251h-135l-249 252v8h185zM837 835l-497 -660h521v-175h-791v143l491 654h-482v177h758v-139z" />
<glyph unicode="&#x192;" horiz-adv-x="648" d="M580 930l1 -162h-181v-874q0 -159 -81 -245t-230 -86q-60 0 -113 15l13 172q7 -3 37.5 -7.5t45.5 -4.5q108 0 108 157v873h-148v162h148v88q0 164 87 252t247 88q50 0 137 -19l-23 -169q-41 9 -87 9q-142 0 -142 -156v-93h181z" />
<glyph unicode="&#x21a;" horiz-adv-x="1119" d="M1035 1310v-175h-396v-1135h-219v1135h-396v175h1011z" />
<glyph unicode="&#x21b;" horiz-adv-x="613" d="M168 1208h219v-236h175v-162h-175v-538q0 -112 95 -112q38 0 68 12l23 -161q-61 -32 -147 -32q-258 0 -258 293v538h-148v162h148v236z" />
<glyph unicode="&#x2c6;" horiz-adv-x="898" d="M506 1508l246 -250v-10h-176l-135 140l-134 -140h-174v12l244 248h129z" />
<glyph unicode="&#x2c7;" horiz-adv-x="850" d="M288 1508l131 -139l132 139h187v-9l-251 -251h-135l-249 252v8h185z" />
<glyph unicode="&#x2d8;" horiz-adv-x="803" d="M522 1482h165q0 -115 -79.5 -184.5t-211.5 -69.5t-211.5 69.5t-79.5 184.5h164q0 -60 33.5 -92.5t93.5 -32.5t93 32.5t33 92.5z" />
<glyph unicode="&#x2d9;" horiz-adv-x="471" d="M234 1247q-56 0 -87 30.5t-31 79.5t31 80t87 31t87 -31t31 -80t-31 -79.5t-87 -30.5z" />
<glyph unicode="&#x2da;" horiz-adv-x="621" d="M108 1350q0 77 57.5 132t142.5 55q84 0 141.5 -55t57.5 -132q0 -78 -56.5 -131.5t-142.5 -53.5q-87 0 -143.5 53.5t-56.5 131.5zM308 1451q-44 0 -72.5 -29.5t-28.5 -71.5q0 -43 29.5 -72t71.5 -29q43 0 72 28.5t29 72.5q0 42 -28.5 71.5t-72.5 29.5z" />
<glyph unicode="&#x2db;" horiz-adv-x="530" d="M257 11l99 -55q-77 -49 -110.5 -91.5t-33.5 -87.5q0 -61 63 -61q39 0 81 20l19 -127q-65 -40 -148 -40q-86 0 -138 49.5t-52 131.5q0 162 220 261z" />
<glyph unicode="&#x2dc;" horiz-adv-x="886" d="M635 1497l135 -11q0 -100 -57.5 -165t-143.5 -65q-36 0 -62 8t-72 34q-44 25 -64 31.5t-45 6.5q-35 0 -58.5 -26t-23.5 -67l-134 7q0 100 57 167t143 67q35 0 123.5 -40.5t119.5 -40.5q35 0 58.5 26.5t23.5 67.5z" />
<glyph unicode="&#x2dd;" horiz-adv-x="719" d="M66 1233l156 272h210l-200 -272h-166zM352 1233l202 272h215l-240 -272h-177z" />
<glyph unicode="&#x3c0;" horiz-adv-x="1140" d="M1074 973v-171h-143v-528q0 -57 22 -81t78 -24q41 0 77 9v-169q-62 -21 -144 -21q-252 0 -252 278v536h-299v-803h-219v803h-153v171h1033z" />
<glyph unicode="&#x2000;" horiz-adv-x="953" />
<glyph unicode="&#x2001;" horiz-adv-x="1907" />
<glyph unicode="&#x2002;" horiz-adv-x="953" />
<glyph unicode="&#x2003;" horiz-adv-x="1907" />
<glyph unicode="&#x2004;" horiz-adv-x="635" />
<glyph unicode="&#x2005;" horiz-adv-x="476" />
<glyph unicode="&#x2006;" horiz-adv-x="317" />
<glyph unicode="&#x2007;" horiz-adv-x="317" />
<glyph unicode="&#x2008;" horiz-adv-x="238" />
<glyph unicode="&#x2009;" horiz-adv-x="381" />
<glyph unicode="&#x200a;" horiz-adv-x="105" />
<glyph unicode="&#x200b;" horiz-adv-x="0" />
<glyph unicode="&#x200c;" horiz-adv-x="0" d="M38 -349h-76v1972h76v-1972z" />
<glyph unicode="&#x200d;" horiz-adv-x="0" d="M38 -348h-76v1600l-182 -186l-51 51l221 226l-219 225l50 50l219 -224l218 223l53 -50l-220 -224l220 -225l-53 -50l-180 185v-1601z" />
<glyph unicode="&#x2010;" horiz-adv-x="605" d="M536 697v-176h-472v176h472z" />
<glyph unicode="&#x2011;" horiz-adv-x="605" d="M536 697v-176h-472v176h472z" />
<glyph unicode="&#x2012;" horiz-adv-x="605" d="M536 697v-176h-472v176h472z" />
<glyph unicode="&#x2013;" horiz-adv-x="1274" d="M1012 779v-158h-880v158h880z" />
<glyph unicode="&#x2014;" horiz-adv-x="1499" d="M1215 779v-158h-1083v158h1083z" />
<glyph unicode="&#x2015;" horiz-adv-x="1751" />
<glyph unicode="&#x2018;" horiz-adv-x="595" d="M172 917v169l145 318h106l-54 -321v-166h-197z" />
<glyph unicode="&#x2019;" horiz-adv-x="595" d="M426 1404v-174l-145 -312h-106l54 311v175h197z" />
<glyph unicode="&#x201a;" horiz-adv-x="416" d="M320 32q0 -84 -46 -177.5t-118 -152.5l-111 70q78 116 79 248v132h196v-120z" />
<glyph unicode="&#x201c;" horiz-adv-x="894" d="M471 917v169l145 318h106l-54 -321v-166h-197zM172 917v169l145 318h106l-54 -321v-166h-197z" />
<glyph unicode="&#x201d;" horiz-adv-x="901" d="M729 1404v-174l-145 -312h-106l54 311v175h197zM424 1404v-174l-145 -312h-106l54 311v175h197z" />
<glyph unicode="&#x201e;" horiz-adv-x="698" d="M614 34q0 -90 -46 -189t-119 -163l-114 70q79 130 83 263v183h196v-164zM270 -170h1q-44 -91 -111 -148l-114 70q78 126 79 265v181h196v-168q0 -95 -51 -200z" />
<glyph unicode="&#x2020;" horiz-adv-x="1005" d="M949 974v-180h-339v-794h-218v794h-334v180h334v336h218v-336h339z" />
<glyph unicode="&#x2021;" horiz-adv-x="1059" d="M973 133v-175h-338v-374h-219v374h-333v175h333v623h-333v176h333v337h219v-337h338v-176h-338v-623h338z" />
<glyph unicode="&#x2022;" horiz-adv-x="644" d="M122 703v69q0 86 54 140t145 54q92 0 146.5 -53.5t54.5 -140.5v-69q0 -88 -54 -140t-146 -52q-91 0 -145.5 52.5t-54.5 139.5z" />
<glyph unicode="&#x2026;" horiz-adv-x="1301" d="M1097 189v-189h-196v189h196zM719 189v-189h-196v189h196zM320 189v-189h-196v189h196z" />
<glyph unicode="&#x202f;" horiz-adv-x="381" />
<glyph unicode="&#x2030;" horiz-adv-x="1763" d="M67 993v63q0 118 75.5 194t195.5 76q125 0 201.5 -76t76.5 -200v-63q0 -118 -77 -193.5t-200 -75.5q-120 0 -196 76t-76 199zM213 1052v-65q0 -62 35 -100t91 -38q57 0 91 38.5t34 103.5v65q0 63 -35 101.5t-91 38.5q-57 0 -91 -39t-34 -105zM1044 1120l-640 -1024 l-112 65l640 1024zM734 254l1 65q0 118 77 194t200 76q135 0 205 -100q70 100 204 100q123 0 200.5 -75.5t77.5 -200.5v-64q0 -117 -76.5 -193t-199.5 -76q-135 0 -206 99q-71 -99 -203 -99q-126 0 -203 76t-77 198zM1296 316v-67q0 -62 35.5 -100.5t91.5 -38.5 q59 0 91.5 36.5t32.5 105.5v67q0 63 -35 101t-91 38q-57 0 -91 -38t-34 -104zM887 316v-67q0 -62 35.5 -100.5t91.5 -38.5q58 0 91 37t33 105v67q0 63 -35 101t-91 38q-57 0 -91 -38t-34 -104z" />
<glyph unicode="&#x2039;" horiz-adv-x="563" d="M507 857l-223 -360l223 -359h-151l-259 351v17l259 351h151z" />
<glyph unicode="&#x203a;" horiz-adv-x="555" d="M76 857h150l259 -351v-17l-259 -351h-150l222 359z" />
<glyph unicode="&#x2044;" horiz-adv-x="832" d="M793 1133l-640 -1024l-112 65l639 1024z" />
<glyph unicode="&#x205f;" horiz-adv-x="476" />
<glyph unicode="&#x20ac;" horiz-adv-x="1048" d="M787 599v-127h-321q12 -311 289 -311q98 0 185 30l25 -184q-110 -26 -222 -26q-232 0 -364 128.5t-140 362.5h-154v127h154v116h-154v126h155q12 231 146 358t364 127q97 0 215 -28l-25 -185q-92 31 -183 31q-136 0 -209 -77t-81 -226h320v-126h-321v-116h321z" />
<glyph unicode="&#x20b9;" horiz-adv-x="1317" d="M702 0l-473 530v139h173q207 0 261 146h-481v164h488q-19 63 -76 101.5t-150 38.5h-262v165h901v-165h-248q50 -64 63 -140h185v-164h-189q-31 -140 -137.5 -220t-240.5 -86l448 -500l-2 -9h-260z" />
<glyph unicode="&#x20ba;" horiz-adv-x="1067" d="M768 688l226 -1v-80q-2 -190 -69.5 -332t-191.5 -219q-123 -77 -284 -77q-95 0 -221 18v545l-198 -79v179l198 79v123l-198 -78v180l198 78v283h227v-193l202 81v-180l-202 -81v-123l202 81v-180l-202 -80v-466q313 5 313 453v69z" />
<glyph unicode="&#x20bd;" horiz-adv-x="1265" d="M737 391v-183h-290v-208h-226v208h-185v183h185v96h-185v183h185v640h501q218 0 347 -112t129 -301q0 -191 -123 -299t-343 -111h-285v-96h290zM447 1127v-457h271q252 0 252 226q0 102 -63.5 165t-174.5 66h-285z" />
<glyph unicode="&#x2122;" horiz-adv-x="1160" d="M455 1402v-85h-125v-399h-105v399h-127v85h357zM900 916v336l-112 -336h-55l-112 335v-335h-100v486h123l117 -343l119 343h120v-486h-100z" />
<glyph unicode="&#x2202;" horiz-adv-x="1052" d="M88 476h-2q0 203 114.5 325t308.5 122q156 0 264 -112q-23 173 -111.5 276.5t-208.5 103.5q-110 0 -236 -47l-26 164l54 23q95 39 228 39q243 0 375.5 -194.5t132.5 -553.5v-48q0 -175 -54.5 -309.5t-157.5 -210.5q-102 -75 -234 -75q-206 0 -326.5 131t-120.5 354v12z M761 595q-20 69 -82.5 111.5t-144.5 42.5q-111 0 -170.5 -75.5t-59.5 -222.5q0 -140 59.5 -218.5t169.5 -78.5t169 93.5t59 270.5v77z" />
<glyph unicode="&#x220f;" horiz-adv-x="1287" d="M1141 1288v-1517h-219v1343h-554v-1343h-219v1517h992z" />
<glyph unicode="&#x2211;" horiz-adv-x="1117" d="M820 520v-26l-477 -588h752v-175h-1037v136l532 641l-532 639v137h985v-176h-700z" />
<glyph unicode="&#x221a;" horiz-adv-x="1082" d="M376 697l143 -428l339 1041h195l-440 -1310h-177l-195 519h-188v178h323z" />
<glyph unicode="&#x221e;" horiz-adv-x="1905" d="M1814 498l-2 -24q0 -138 -57.5 -251t-161.5 -178q-103 -65 -233 -65q-262 0 -413 297q-155 -297 -413 -297q-129 0 -231.5 63.5t-161.5 179.5q-58 113 -58 251v19q0 138 57.5 253t160.5 179q103 65 232 65q264 0 416 -294q152 294 415 294q127 0 229.5 -64t161.5 -179 q57 -112 59 -249zM538 811q-111 0 -175.5 -88.5t-64.5 -248.5q0 -143 65.5 -230t176.5 -87q93 0 171 79.5t117 211.5l6 23v33q-14 62 -49 126q-100 181 -247 181zM1596 479l1 16q0 141 -66 229t-175 88q-147 0 -246 -181q-37 -68 -50 -126v-33q14 -67 54 -139 q95 -176 239 -176q110 0 176.5 87.5t66.5 234.5z" />
<glyph unicode="&#x222b;" horiz-adv-x="501" d="M360 1017l-1 -1132q0 -158 -81.5 -240t-235.5 -82q-58 0 -117 17l16 170q41 -12 73 -12q125 0 126 142v1141q0 162 86.5 249.5t246.5 87.5q53 0 138 -19l-22 -167q-36 10 -82 10q-147 0 -147 -165z" />
<glyph unicode="&#x2248;" horiz-adv-x="1049" d="M91 649l-1 196q43 45 102 70t119 25q76 2 144 -29l140 -70q64 -29 137 -29q117 0 210 114v-196q-93 -95 -208 -95q-74 0 -135 29l-137 68q-74 32 -147 31q-60 0 -120.5 -30.5t-103.5 -83.5zM90 271l1 196q92 95 218 95q76 1 146 -30l137 -69q66 -29 136 -29 q121 0 214 114v-196q-93 -95 -210 -95q-76 0 -137 29l-140 70q-72 30 -144 29q-60 0 -119 -30t-102 -84z" />
<glyph unicode="&#x2260;" horiz-adv-x="1031" d="M906 514v-181h-487l-116 -205l-98 56l84 149h-158v181h260l113 201h-373v182h475l120 213l99 -56l-89 -157h170v-182h-272l-113 -201h385z" />
<glyph unicode="&#x2264;" horiz-adv-x="937" d="M804 780l-520 -180l-17 -3v-4l17 -3l520 -176v-198l-753 302v157l753 300v-195zM790 195v-176h-752v176h752z" />
<glyph unicode="&#x2265;" horiz-adv-x="959" d="M647 603l-545 179v193l778 -300v-157l-778 -302v194l545 184h16l1 6zM851 195v-176h-752v176h752z" />
<glyph unicode="&#x25ca;" horiz-adv-x="932" d="M32 654l346 656h176l349 -656l-346 -654h-177zM682 654l-217 423l-213 -423l218 -424z" />
<glyph unicode="&#x25fc;" horiz-adv-x="975" d="M0 975h975v-975h-975v975z" />
</font>
</defs>
</svg>
